<svg width="13" height="13" viewBox="0 0 13 13" fill="none" xmlns="http://www.w3.org/2000/svg">
<path d="M6.76123 6.06836L1.65409 1.39648C1.34456 1.1595 1.01569 1.1595 0.66748 1.39648C0.532064 1.51497 0.464355 1.65885 0.464355 1.82812C0.464355 1.98047 0.532064 2.12435 0.66748 2.25977L5.31034 6.5L0.66748 10.7402C0.396647 11.0449 0.396647 11.3327 0.66748 11.6035C1.01569 11.8405 1.34456 11.8405 1.65409 11.6035L6.76123 6.93164C7.03206 6.64388 7.03206 6.35612 6.76123 6.06836ZM12.3327 6.06836L7.22552 1.39648C6.91599 1.1595 6.58712 1.1595 6.23891 1.39648C6.10349 1.51497 6.03578 1.65885 6.03578 1.82812C6.03578 1.98047 6.10349 2.12435 6.23891 2.25977L10.8818 6.5L6.23891 10.7402C5.96808 11.0449 5.96808 11.3327 6.23891 11.6035C6.58712 11.8405 6.91599 11.8405 7.22552 11.6035L12.3327 6.93164C12.6035 6.64388 12.6035 6.35612 12.3327 6.06836Z" fill="#090B21"/>
</svg>
