<svg width="20" height="20" viewBox="0 0 20 20" fill="none" xmlns="http://www.w3.org/2000/svg">
<path d="M0.3125 10.7031L4.6875 14.7656C4.97396 15.026 5.3125 15.0781 5.70312 14.9219C6.06771 14.7396 6.25 14.4661 6.25 14.1016V11.25H18.75C19.1146 11.25 19.4141 11.1328 19.6484 10.8984C19.8828 10.638 20 10.3255 20 9.96094C19.9219 9.20573 19.5052 8.80208 18.75 8.75H6.25V5.9375C6.22396 5.54688 6.04167 5.26042 5.70312 5.07812C5.3125 4.92188 4.97396 4.97396 4.6875 5.23438L0.3125 9.29688C0.104166 9.50521 0 9.73958 0 10C0 10.2604 0.104166 10.4948 0.3125 10.7031Z" fill="white"/>
</svg>
