<svg width="16" height="16" viewBox="0 0 16 16" fill="none" xmlns="http://www.w3.org/2000/svg">
<path d="M15.7188 8.71875L11.7188 12.7188C11.5104 12.9062 11.2708 13 11 13C10.7292 13 10.4896 12.9062 10.2812 12.7188C10.0938 12.5104 10 12.2708 10 12C10 11.7292 10.0938 11.4896 10.2812 11.2812L12.5938 9H1C0.708333 9 0.46875 8.90625 0.28125 8.71875C0.09375 8.51042 0 8.26042 0 7.96875C0.0625 7.36458 0.395833 7.04167 1 7H12.5938L10.2812 4.71875C10.0938 4.51042 10 4.27083 10 4C10 3.72917 10.0938 3.48958 10.2812 3.28125C10.4896 3.09375 10.7292 3 11 3C11.2708 3 11.5104 3.09375 11.7188 3.28125L15.7188 7.28125C15.9062 7.48958 16 7.72917 16 8C16 8.27083 15.9062 8.51042 15.7188 8.71875Z" fill="white"/>
</svg>
