<svg width="30" height="30" viewBox="0 0 30 30" fill="none" xmlns="http://www.w3.org/2000/svg">
<path d="M13.0705 3.30015C14.1356 2.23328 15.8644 2.23328 16.9295 3.30015L18.1912 4.5639C18.7031 5.07673 19.3982 5.36465 20.1229 5.36405L21.9086 5.36258C23.4162 5.36136 24.6386 6.58377 24.6374 8.09132L24.636 9.87707C24.6354 10.6017 24.9232 11.2968 25.4361 11.8088L26.6999 13.0705C27.7667 14.1356 27.7667 15.8644 26.6999 16.9295L25.4361 18.1912C24.9232 18.7031 24.6354 19.3982 24.636 20.1229L24.6374 21.9086C24.6386 23.4162 23.4162 24.6386 21.9086 24.6374L20.1229 24.636C19.3982 24.6354 18.7031 24.9232 18.1912 25.4361L16.9295 26.6999C15.8644 27.7667 14.1356 27.7667 13.0705 26.6999L11.8088 25.4361C11.2968 24.9232 10.6017 24.6354 9.87707 24.636L8.09132 24.6374C6.58377 24.6386 5.36136 23.4162 5.36258 21.9086L5.36405 20.1229C5.36465 19.3982 5.07673 18.7031 4.5639 18.1912L3.30015 16.9295C2.23328 15.8644 2.23328 14.1356 3.30015 13.0705L4.5639 11.8088C5.07673 11.2968 5.36465 10.6017 5.36405 9.87707L5.36258 8.09132C5.36136 6.58377 6.58377 5.36136 8.09132 5.36258L9.87707 5.36405C10.6017 5.36465 11.2968 5.07673 11.8088 4.5639L13.0705 3.30015Z" stroke="#CB1F49" stroke-width="2"/>
<path d="M12.5 11.25C12.5 9.86929 13.6193 8.75 15 8.75C16.3807 8.75 17.5 9.86929 17.5 11.25C17.5 11.7477 17.3546 12.2114 17.1039 12.601C16.3567 13.7621 15 14.8693 15 16.25V16.875" stroke="#CB1F49" stroke-width="2" stroke-linecap="round"/>
<path d="M14.9902 21.25H15.0015" stroke="#CB1F49" stroke-width="3" stroke-linecap="round" stroke-linejoin="round"/>
</svg>
