<svg width="1790" height="797" viewBox="0 0 1790 797" fill="none" xmlns="http://www.w3.org/2000/svg">
<g clip-path="url(#clip0_292_1382)">
<path d="M1528 62.9655H1760C1776.57 62.9655 1790 76.3969 1790 92.9655V767C1790 783.569 1776.57 797 1760 797H1488.17C1481.01 797 1474.09 794.443 1468.66 789.789L1419.36 747.584C1413.93 742.931 1407.01 740.373 1399.85 740.373H375.723C368.84 740.373 362.166 742.74 356.821 747.077L303.558 790.296C298.213 794.633 291.539 797 284.655 797H30C13.4315 797 0 783.569 0 767V30C0 13.4315 13.4314 0 30 0H1422.87C1429.27 0 1435.51 2.05091 1440.67 5.85245L1510.2 57.1131C1515.36 60.9146 1521.6 62.9655 1528 62.9655Z" fill="url(#paint0_linear_292_1382)"/>
<path opacity="0.24" d="M1012.15 -584.948C986.356 -562.588 945.355 -494.208 987.705 -399.56C1040.64 -281.251 1161.74 -242.979 1230.4 -138.979C1281.08 -62.2194 1363.79 148.014 1297.65 277.358" stroke="url(#paint1_linear_292_1382)"/>
<path opacity="0.24" d="M981.441 -543.604C955.647 -521.245 914.646 -452.864 956.996 -358.217C1009.93 -239.907 1131.03 -201.635 1199.69 -97.6351C1250.37 -20.8756 1333.08 189.358 1266.94 318.702" stroke="url(#paint2_linear_292_1382)"/>
<path opacity="0.24" d="M949.687 -503.049C923.893 -480.69 882.892 -412.309 925.242 -317.662C978.179 -199.353 1099.27 -161.08 1167.94 -57.0805C1218.62 19.679 1301.33 229.912 1235.19 359.257" stroke="url(#paint3_linear_292_1382)"/>
<path opacity="0.24" d="M916.933 -463.299C891.139 -440.94 850.138 -372.559 892.488 -277.912C945.425 -159.603 1066.52 -121.33 1135.18 -17.3305C1185.86 59.429 1268.57 269.662 1202.44 399.007" stroke="url(#paint4_linear_292_1382)"/>
<path opacity="0.24" d="M883.171 -424.409C857.377 -402.049 816.377 -333.669 858.726 -239.021C911.663 -120.712 1032.76 -82.4395 1101.42 21.5602C1152.1 98.3197 1234.81 308.553 1168.67 437.897" stroke="url(#paint5_linear_292_1382)"/>
<path opacity="0.24" d="M848.367 -386.448C822.573 -364.088 781.572 -295.708 823.922 -201.06C876.859 -82.7511 997.952 -44.4785 1066.62 59.5211C1117.3 136.281 1200.01 346.514 1133.87 475.858" stroke="url(#paint6_linear_292_1382)"/>
<path opacity="0.24" d="M812.46 -349.518C786.666 -327.159 745.666 -258.778 788.015 -164.131C840.952 -45.8214 962.046 -7.54885 1030.71 96.4508C1081.39 173.21 1164.1 383.444 1097.96 512.788" stroke="url(#paint7_linear_292_1382)"/>
<path opacity="0.24" d="M775.382 -313.768C749.588 -291.409 708.587 -223.028 750.937 -128.381C803.874 -10.0714 924.968 28.2012 993.633 132.201C1044.31 208.96 1127.02 419.194 1060.88 548.538" stroke="url(#paint8_linear_292_1382)"/>
<path opacity="0.24" d="M737.043 -279.378C711.248 -257.018 670.248 -188.638 712.597 -93.9901C765.534 24.3192 886.628 62.5918 955.293 166.591C1005.97 243.351 1088.68 453.584 1022.55 582.929" stroke="url(#paint9_linear_292_1382)"/>
<path opacity="0.24" d="M697.337 -246.573C671.543 -224.213 630.543 -155.833 672.892 -61.1854C725.829 57.1239 846.923 95.3965 915.588 199.396C966.269 276.156 1048.98 486.389 982.84 615.733" stroke="url(#paint10_linear_292_1382)"/>
<path opacity="0.24" d="M656.148 -215.651C630.354 -193.292 589.353 -124.911 631.703 -30.2635C684.64 88.0458 805.733 126.318 874.399 230.318C925.079 307.077 1007.79 517.311 941.651 646.655" stroke="url(#paint11_linear_292_1382)"/>
<path opacity="0.24" d="M613.347 -187.003C587.553 -164.643 546.552 -96.2625 588.902 -1.61509C641.839 116.694 762.932 154.967 831.598 258.966C882.279 335.726 964.988 545.959 898.85 675.304" stroke="url(#paint12_linear_292_1382)"/>
<path opacity="0.24" d="M568.81 -161.135C543.016 -138.776 502.015 -70.3953 544.365 24.2521C597.302 142.561 718.395 180.834 787.061 284.834C837.741 361.593 920.451 571.826 854.313 701.171" stroke="url(#paint13_linear_292_1382)"/>
<path opacity="0.24" d="M522.449 -138.706C496.655 -116.346 455.654 -47.9656 498.004 46.6818C550.941 164.991 672.034 203.264 740.7 307.263C791.38 384.023 874.09 594.256 807.951 723.601" stroke="url(#paint14_linear_292_1382)"/>
<path opacity="0.24" d="M474.242 -120.565C448.448 -98.2057 407.447 -29.825 449.797 64.8224C502.734 183.132 623.827 221.404 692.493 325.404C743.173 402.163 825.883 612.397 759.744 741.741" stroke="url(#paint15_linear_292_1382)"/>
<path opacity="0.24" d="M424.355 -107.768C398.561 -85.4088 357.56 -17.0281 399.91 77.6193C452.847 195.929 573.94 234.201 642.606 338.201C693.286 414.96 775.996 625.194 709.858 754.538" stroke="url(#paint16_linear_292_1382)"/>
<path opacity="0.24" d="M373.23 -101.51C347.436 -79.151 306.435 -10.7703 348.785 83.8771C401.722 202.186 522.815 240.459 591.481 344.459C642.161 421.218 724.871 631.451 658.733 760.796" stroke="url(#paint17_linear_292_1382)"/>
<path opacity="0.24" d="M312.457 -103.049C286.662 -80.6901 245.662 -12.3094 288.011 82.338C340.948 200.647 462.042 238.92 530.708 342.92C581.388 419.679 664.097 629.912 597.959 759.257" stroke="url(#paint18_linear_292_1382)"/>
<path opacity="0.24" d="M260.951 -102.979C235.157 -80.6197 194.156 -12.2391 236.505 82.4083C289.443 200.718 410.536 238.99 479.202 342.99C529.882 419.749 612.592 629.983 546.453 759.327" stroke="url(#paint19_linear_292_1382)"/>
<path opacity="0.24" d="M209.628 -98.651C183.834 -76.2916 142.834 -7.91096 185.183 86.7365C238.12 205.046 359.214 243.318 427.879 347.318C478.56 424.077 561.269 634.311 495.131 763.655" stroke="url(#paint20_linear_292_1382)"/>
<path opacity="0.24" d="M158.837 -90.112C133.043 -67.7526 92.0426 0.628101 134.392 95.2755C187.329 213.585 308.423 251.857 377.088 355.857C427.769 432.617 510.478 642.85 444.34 772.194" stroke="url(#paint21_linear_292_1382)"/>
<path opacity="0.24" d="M108.902 -77.4948C83.1078 -55.1354 42.107 13.2453 84.4567 107.893C137.394 226.202 258.487 264.475 327.153 368.474C377.833 445.234 460.543 655.467 394.404 784.811" stroke="url(#paint22_linear_292_1382)"/>
<path opacity="0.24" d="M60.1109 -61.0026C34.3168 -38.6432 -6.68399 29.7375 35.6657 124.385C88.6027 242.694 209.696 280.967 278.362 384.966C329.042 461.726 411.752 671.959 345.613 801.304" stroke="url(#paint23_linear_292_1382)"/>
<path opacity="0.24" d="M12.6871 -40.9088C-13.107 -18.5494 -54.1078 49.8312 -11.7582 144.479C41.1789 262.788 162.272 301.061 230.938 405.06C281.618 481.82 364.328 692.053 298.19 821.397" stroke="url(#paint24_linear_292_1382)"/>
<path opacity="0.24" d="M-33.1899 -17.4948C-58.984 4.86463 -99.9848 73.2453 -57.6351 167.893C-4.69807 286.202 116.395 324.475 185.061 428.474C235.741 505.234 318.451 715.467 252.313 844.811" stroke="url(#paint25_linear_292_1382)"/>
<path opacity="0.24" d="M-77.395 8.92711C-103.189 31.2865 -144.19 99.6672 -101.84 194.315C-48.9031 312.624 72.1903 350.896 140.856 454.896C191.536 531.656 274.246 741.889 208.108 871.233" stroke="url(#paint26_linear_292_1382)"/>
<path opacity="0.24" d="M-119.846 38.099C-145.64 60.4584 -186.641 128.839 -144.291 223.486C-91.3543 341.796 29.7391 380.068 98.4048 484.068C149.085 560.827 231.795 771.061 165.656 900.405" stroke="url(#paint27_linear_292_1382)"/>
<path opacity="0.24" d="M-160.473 69.7552C-186.267 92.1146 -227.268 160.495 -184.918 255.143C-131.981 373.452 -10.8878 411.725 57.7778 515.724C108.458 592.484 191.168 802.717 125.029 932.061" stroke="url(#paint28_linear_292_1382)"/>
<path opacity="0.24" d="M-199.207 103.685C-225.002 126.044 -266.002 194.425 -223.653 289.072C-170.716 407.382 -49.6222 445.654 19.0434 549.654C69.7238 626.413 152.433 836.647 86.2951 965.991" stroke="url(#paint29_linear_292_1382)"/>
</g>
<defs>
<linearGradient id="paint0_linear_292_1382" x1="309" y1="-62.4999" x2="1790" y2="826.5" gradientUnits="userSpaceOnUse">
<stop stop-color="#472667"/>
<stop offset="1" stop-color="#913276"/>
</linearGradient>
<linearGradient id="paint1_linear_292_1382" x1="988.995" y1="-575.534" x2="1330.34" y2="264.067" gradientUnits="userSpaceOnUse">
<stop stop-color="white" stop-opacity="0.87"/>
<stop offset="1" stop-color="white" stop-opacity="0.24"/>
</linearGradient>
<linearGradient id="paint2_linear_292_1382" x1="958.286" y1="-534.19" x2="1299.64" y2="305.411" gradientUnits="userSpaceOnUse">
<stop stop-color="white" stop-opacity="0.87"/>
<stop offset="1" stop-color="white" stop-opacity="0.24"/>
</linearGradient>
<linearGradient id="paint3_linear_292_1382" x1="926.532" y1="-493.635" x2="1267.88" y2="345.965" gradientUnits="userSpaceOnUse">
<stop stop-color="white" stop-opacity="0.87"/>
<stop offset="1" stop-color="white" stop-opacity="0.24"/>
</linearGradient>
<linearGradient id="paint4_linear_292_1382" x1="893.778" y1="-453.885" x2="1235.13" y2="385.715" gradientUnits="userSpaceOnUse">
<stop stop-color="white" stop-opacity="0.87"/>
<stop offset="1" stop-color="white" stop-opacity="0.24"/>
</linearGradient>
<linearGradient id="paint5_linear_292_1382" x1="860.016" y1="-414.995" x2="1201.37" y2="424.606" gradientUnits="userSpaceOnUse">
<stop stop-color="white" stop-opacity="0.87"/>
<stop offset="1" stop-color="white" stop-opacity="0.24"/>
</linearGradient>
<linearGradient id="paint6_linear_292_1382" x1="825.211" y1="-377.034" x2="1166.56" y2="462.567" gradientUnits="userSpaceOnUse">
<stop stop-color="white" stop-opacity="0.87"/>
<stop offset="1" stop-color="white" stop-opacity="0.24"/>
</linearGradient>
<linearGradient id="paint7_linear_292_1382" x1="789.305" y1="-340.104" x2="1130.66" y2="499.497" gradientUnits="userSpaceOnUse">
<stop stop-color="white" stop-opacity="0.87"/>
<stop offset="1" stop-color="white" stop-opacity="0.24"/>
</linearGradient>
<linearGradient id="paint8_linear_292_1382" x1="752.227" y1="-304.354" x2="1093.58" y2="535.247" gradientUnits="userSpaceOnUse">
<stop stop-color="white" stop-opacity="0.87"/>
<stop offset="1" stop-color="white" stop-opacity="0.24"/>
</linearGradient>
<linearGradient id="paint9_linear_292_1382" x1="713.887" y1="-269.964" x2="1055.24" y2="569.637" gradientUnits="userSpaceOnUse">
<stop stop-color="white" stop-opacity="0.87"/>
<stop offset="1" stop-color="white" stop-opacity="0.24"/>
</linearGradient>
<linearGradient id="paint10_linear_292_1382" x1="674.182" y1="-237.159" x2="1015.53" y2="602.442" gradientUnits="userSpaceOnUse">
<stop stop-color="white" stop-opacity="0.87"/>
<stop offset="1" stop-color="white" stop-opacity="0.24"/>
</linearGradient>
<linearGradient id="paint11_linear_292_1382" x1="632.993" y1="-206.237" x2="974.343" y2="633.364" gradientUnits="userSpaceOnUse">
<stop stop-color="white" stop-opacity="0.87"/>
<stop offset="1" stop-color="white" stop-opacity="0.24"/>
</linearGradient>
<linearGradient id="paint12_linear_292_1382" x1="590.192" y1="-177.589" x2="931.542" y2="662.012" gradientUnits="userSpaceOnUse">
<stop stop-color="white" stop-opacity="0.87"/>
<stop offset="1" stop-color="white" stop-opacity="0.24"/>
</linearGradient>
<linearGradient id="paint13_linear_292_1382" x1="545.655" y1="-151.721" x2="887.005" y2="687.879" gradientUnits="userSpaceOnUse">
<stop stop-color="white" stop-opacity="0.87"/>
<stop offset="1" stop-color="white" stop-opacity="0.24"/>
</linearGradient>
<linearGradient id="paint14_linear_292_1382" x1="499.294" y1="-129.292" x2="840.644" y2="710.309" gradientUnits="userSpaceOnUse">
<stop stop-color="white" stop-opacity="0.87"/>
<stop offset="1" stop-color="white" stop-opacity="0.24"/>
</linearGradient>
<linearGradient id="paint15_linear_292_1382" x1="451.086" y1="-111.151" x2="792.437" y2="728.45" gradientUnits="userSpaceOnUse">
<stop stop-color="white" stop-opacity="0.87"/>
<stop offset="1" stop-color="white" stop-opacity="0.24"/>
</linearGradient>
<linearGradient id="paint16_linear_292_1382" x1="401.2" y1="-98.3541" x2="742.55" y2="741.247" gradientUnits="userSpaceOnUse">
<stop stop-color="white" stop-opacity="0.87"/>
<stop offset="1" stop-color="white" stop-opacity="0.24"/>
</linearGradient>
<linearGradient id="paint17_linear_292_1382" x1="350.075" y1="-92.0963" x2="691.425" y2="747.504" gradientUnits="userSpaceOnUse">
<stop stop-color="white" stop-opacity="0.87"/>
<stop offset="1" stop-color="white" stop-opacity="0.24"/>
</linearGradient>
<linearGradient id="paint18_linear_292_1382" x1="289.301" y1="-93.6354" x2="630.651" y2="745.965" gradientUnits="userSpaceOnUse">
<stop stop-color="white" stop-opacity="0.87"/>
<stop offset="1" stop-color="white" stop-opacity="0.24"/>
</linearGradient>
<linearGradient id="paint19_linear_292_1382" x1="237.795" y1="-93.5651" x2="579.146" y2="746.036" gradientUnits="userSpaceOnUse">
<stop stop-color="white" stop-opacity="0.87"/>
<stop offset="1" stop-color="white" stop-opacity="0.24"/>
</linearGradient>
<linearGradient id="paint20_linear_292_1382" x1="186.473" y1="-89.237" x2="527.823" y2="750.364" gradientUnits="userSpaceOnUse">
<stop stop-color="white" stop-opacity="0.87"/>
<stop offset="1" stop-color="white" stop-opacity="0.24"/>
</linearGradient>
<linearGradient id="paint21_linear_292_1382" x1="135.682" y1="-80.6979" x2="477.032" y2="758.903" gradientUnits="userSpaceOnUse">
<stop stop-color="white" stop-opacity="0.87"/>
<stop offset="1" stop-color="white" stop-opacity="0.24"/>
</linearGradient>
<linearGradient id="paint22_linear_292_1382" x1="85.7466" y1="-68.0807" x2="427.097" y2="771.52" gradientUnits="userSpaceOnUse">
<stop stop-color="white" stop-opacity="0.87"/>
<stop offset="1" stop-color="white" stop-opacity="0.24"/>
</linearGradient>
<linearGradient id="paint23_linear_292_1382" x1="36.9556" y1="-51.5885" x2="378.306" y2="788.012" gradientUnits="userSpaceOnUse">
<stop stop-color="white" stop-opacity="0.87"/>
<stop offset="1" stop-color="white" stop-opacity="0.24"/>
</linearGradient>
<linearGradient id="paint24_linear_292_1382" x1="-10.4682" y1="-31.4948" x2="330.882" y2="808.106" gradientUnits="userSpaceOnUse">
<stop stop-color="white" stop-opacity="0.87"/>
<stop offset="1" stop-color="white" stop-opacity="0.24"/>
</linearGradient>
<linearGradient id="paint25_linear_292_1382" x1="-56.3452" y1="-8.0807" x2="285.005" y2="831.52" gradientUnits="userSpaceOnUse">
<stop stop-color="white" stop-opacity="0.87"/>
<stop offset="1" stop-color="white" stop-opacity="0.24"/>
</linearGradient>
<linearGradient id="paint26_linear_292_1382" x1="-100.55" y1="18.3412" x2="240.8" y2="857.942" gradientUnits="userSpaceOnUse">
<stop stop-color="white" stop-opacity="0.87"/>
<stop offset="1" stop-color="white" stop-opacity="0.24"/>
</linearGradient>
<linearGradient id="paint27_linear_292_1382" x1="-143.001" y1="47.513" x2="198.349" y2="887.114" gradientUnits="userSpaceOnUse">
<stop stop-color="white" stop-opacity="0.87"/>
<stop offset="1" stop-color="white" stop-opacity="0.24"/>
</linearGradient>
<linearGradient id="paint28_linear_292_1382" x1="-183.628" y1="79.1693" x2="157.722" y2="918.77" gradientUnits="userSpaceOnUse">
<stop stop-color="white" stop-opacity="0.87"/>
<stop offset="1" stop-color="white" stop-opacity="0.24"/>
</linearGradient>
<linearGradient id="paint29_linear_292_1382" x1="-222.363" y1="113.099" x2="118.987" y2="952.7" gradientUnits="userSpaceOnUse">
<stop stop-color="white" stop-opacity="0.87"/>
<stop offset="1" stop-color="white" stop-opacity="0.24"/>
</linearGradient>
<clipPath id="clip0_292_1382">
<rect width="1790" height="797" fill="white"/>
</clipPath>
</defs>
</svg>
