<svg width="1752" height="745" viewBox="0 0 1752 745" fill="none" xmlns="http://www.w3.org/2000/svg">
<g clip-path="url(#clip0_292_1994)">
<path d="M1718 0H445.285C435.434 0 426.067 4.2728 419.609 11.7123L349.667 92.2877C343.209 99.7272 333.842 104 323.991 104H34C15.2223 104 0 119.222 0 138V711C0 729.778 15.2223 745 34 745H617.85C624.275 745 630.568 743.18 636.001 739.75L739.282 674.544C744.714 671.114 751.008 669.294 757.433 669.294H1718C1736.78 669.294 1752 654.072 1752 635.294V34C1752 15.2223 1736.78 0 1718 0Z" fill="url(#paint0_linear_292_1994)"/>
<path opacity="0.24" d="M1830.22 -269.072C1796.16 -266.853 1722.16 -237.167 1698.68 -136.17C1669.33 -9.92444 1742.66 93.7657 1734.49 218.121C1728.46 309.904 1667.26 527.374 1536.38 590.428" stroke="url(#paint1_linear_292_1994)"/>
<path opacity="0.24" d="M1780.77 -254.702C1746.71 -252.483 1672.71 -222.797 1649.23 -121.8C1619.88 4.44592 1693.21 108.136 1685.04 232.491C1679.01 324.274 1617.8 541.744 1486.93 604.798" stroke="url(#paint2_linear_292_1994)"/>
<path opacity="0.24" d="M1730.96 -241.592C1696.89 -239.373 1622.9 -209.686 1599.42 -108.69C1570.07 17.556 1643.39 121.246 1635.22 245.601C1629.19 337.384 1567.99 554.854 1437.12 617.908" stroke="url(#paint3_linear_292_1994)"/>
<path opacity="0.24" d="M1680.84 -229.727C1646.77 -227.508 1572.78 -197.822 1549.3 -96.8251C1519.95 29.4208 1593.27 133.111 1585.1 257.466C1579.07 349.249 1517.87 566.719 1386.99 629.773" stroke="url(#paint4_linear_292_1994)"/>
<path opacity="0.24" d="M1630.43 -219.156C1596.37 -216.937 1522.37 -187.251 1498.89 -86.2543C1469.54 39.9916 1542.87 143.682 1534.7 268.037C1528.67 359.82 1467.47 577.29 1336.59 640.344" stroke="url(#paint5_linear_292_1994)"/>
<path opacity="0.24" d="M1579.76 -209.956C1545.7 -207.738 1471.7 -178.051 1448.22 -77.0546C1418.87 49.1913 1492.2 152.881 1484.03 277.236C1478 369.02 1416.79 586.489 1285.92 649.544" stroke="url(#paint6_linear_292_1994)"/>
<path opacity="0.24" d="M1528.83 -202.244C1494.77 -200.025 1420.77 -170.339 1397.29 -69.3422C1367.94 56.9037 1441.27 160.594 1433.1 284.949C1427.07 376.732 1365.87 594.202 1234.99 657.256" stroke="url(#paint7_linear_292_1994)"/>
<path opacity="0.24" d="M1477.69 -196.18C1443.62 -193.961 1369.63 -164.275 1346.15 -63.2779C1316.8 62.9679 1390.12 166.658 1381.95 291.013C1375.92 382.796 1314.72 600.266 1183.84 663.32" stroke="url(#paint8_linear_292_1994)"/>
<path opacity="0.24" d="M1426.36 -191.961C1392.29 -189.742 1318.29 -160.056 1294.81 -59.0592C1265.46 67.1866 1338.79 170.877 1330.62 295.232C1324.59 387.015 1263.39 604.485 1132.51 667.539" stroke="url(#paint9_linear_292_1994)"/>
<path opacity="0.24" d="M1374.9 -189.831C1340.83 -187.612 1266.83 -157.926 1243.35 -56.9293C1214 69.3165 1287.33 173.007 1279.16 297.362C1273.13 389.145 1211.93 606.615 1081.05 669.669" stroke="url(#paint10_linear_292_1994)"/>
<path opacity="0.24" d="M1323.39 -190.098C1289.33 -187.879 1215.33 -158.193 1191.85 -57.1964C1162.5 69.0494 1235.83 172.74 1227.66 297.094C1221.63 388.878 1160.42 606.348 1029.55 669.402" stroke="url(#paint11_linear_292_1994)"/>
<path opacity="0.24" d="M1271.98 -193.15C1237.91 -190.932 1163.92 -161.245 1140.44 -60.2487C1111.09 65.9972 1184.41 169.687 1176.24 294.042C1170.21 385.825 1109.01 603.295 978.135 666.35" stroke="url(#paint12_linear_292_1994)"/>
<path opacity="0.24" d="M1220.86 -199.468C1186.8 -197.249 1112.8 -167.563 1089.32 -66.5663C1059.97 59.6796 1133.3 163.37 1125.13 287.725C1119.1 379.508 1057.9 596.978 927.02 660.032" stroke="url(#paint13_linear_292_1994)"/>
<path opacity="0.24" d="M1170.37 -209.626C1136.31 -207.408 1062.31 -177.721 1038.83 -76.7247C1009.48 49.5211 1082.81 153.211 1074.64 277.566C1068.61 369.349 1007.41 586.819 876.53 649.873" stroke="url(#paint14_linear_292_1994)"/>
<path opacity="0.24" d="M1121.01 -224.317C1086.94 -222.099 1012.94 -192.412 989.464 -91.4156C960.114 34.8302 1033.44 138.52 1025.27 262.875C1019.24 354.658 958.038 572.128 827.163 635.183" stroke="url(#paint15_linear_292_1994)"/>
<path opacity="0.24" d="M1073.53 -244.28C1039.46 -242.062 965.467 -212.375 941.987 -111.379C912.637 14.8671 985.964 118.557 977.794 242.912C971.764 334.695 910.562 552.165 779.686 615.219" stroke="url(#paint16_linear_292_1994)"/>
<path opacity="0.24" d="M1029.02 -270.201C994.957 -267.983 920.959 -238.296 897.479 -137.299C868.13 -11.0536 941.456 92.6365 933.286 216.991C927.256 308.775 866.054 526.245 735.178 589.299" stroke="url(#paint17_linear_292_1994)"/>
<path opacity="0.24" d="M981.539 -308.165C947.475 -305.947 873.477 -276.26 849.997 -175.264C820.647 -49.0178 893.974 54.6723 885.804 179.027C879.774 270.81 818.571 488.28 687.696 551.335" stroke="url(#paint18_linear_292_1994)"/>
<path opacity="0.24" d="M940.466 -339.245C906.402 -337.026 832.405 -307.34 808.925 -206.343C779.575 -80.0975 852.901 23.5926 844.731 147.947C838.701 239.731 777.499 457.201 646.624 520.255" stroke="url(#paint19_linear_292_1994)"/>
<path opacity="0.24" d="M896.968 -366.822C862.904 -364.603 788.906 -334.917 765.427 -233.92C736.077 -107.675 809.403 -3.98446 801.233 120.37C795.203 212.154 734.001 429.624 603.125 492.678" stroke="url(#paint20_linear_292_1994)"/>
<path opacity="0.24" d="M851.345 -390.724C817.281 -388.505 743.283 -358.819 719.804 -257.822C690.454 -131.576 763.78 -27.8859 755.61 96.469C749.58 188.252 688.378 405.722 557.502 468.776" stroke="url(#paint21_linear_292_1994)"/>
<path opacity="0.24" d="M803.941 -410.859C769.877 -408.641 695.879 -378.954 672.399 -277.958C643.05 -151.712 716.376 -48.0218 708.206 76.3331C702.176 168.116 640.974 385.586 510.098 448.64" stroke="url(#paint22_linear_292_1994)"/>
<path opacity="0.24" d="M755.103 -427.217C721.039 -424.998 647.041 -395.311 623.561 -294.315C594.212 -168.069 667.538 -64.3789 659.368 59.9761C653.338 151.759 592.136 369.229 461.26 432.283" stroke="url(#paint23_linear_292_1994)"/>
<path opacity="0.24" d="M705.179 -439.878C671.115 -437.66 597.117 -407.973 573.638 -306.977C544.288 -180.731 617.614 -77.0406 609.444 47.3143C603.414 139.098 542.212 356.567 411.336 419.622" stroke="url(#paint24_linear_292_1994)"/>
<path opacity="0.24" d="M654.48 -448.96C620.416 -446.741 546.418 -417.055 522.938 -316.058C493.589 -189.812 566.915 -86.122 558.745 38.2329C552.715 130.016 491.513 347.486 360.637 410.54" stroke="url(#paint25_linear_292_1994)"/>
<path opacity="0.24" d="M603.295 -454.635C569.231 -452.416 495.233 -422.73 471.753 -321.733C442.403 -195.487 515.73 -91.797 507.56 32.558C501.529 124.341 440.327 341.811 309.452 404.865" stroke="url(#paint26_linear_292_1994)"/>
<path opacity="0.24" d="M551.843 -457.059C517.779 -454.84 443.781 -425.154 420.302 -324.157C390.952 -197.911 464.278 -94.2209 456.108 30.134C450.078 121.917 388.876 339.387 258 402.441" stroke="url(#paint27_linear_292_1994)"/>
<path opacity="0.24" d="M500.343 -456.401C466.279 -454.182 392.281 -424.496 368.802 -323.499C339.452 -197.253 412.778 -93.5629 404.608 30.792C398.578 122.575 337.376 340.045 206.5 403.099" stroke="url(#paint28_linear_292_1994)"/>
<path opacity="0.24" d="M448.976 -452.788C414.912 -450.569 340.914 -420.883 317.435 -319.886C288.085 -193.64 361.411 -89.95 353.241 34.4049C347.211 126.188 286.009 343.658 155.133 406.712" stroke="url(#paint29_linear_292_1994)"/>
</g>
<defs>
<linearGradient id="paint0_linear_292_1994" x1="1752" y1="4.99163e-05" x2="425.58" y2="1425.1" gradientUnits="userSpaceOnUse">
<stop stop-color="#472667"/>
<stop offset="1" stop-color="#913276"/>
</linearGradient>
<linearGradient id="paint1_linear_292_1994" x1="1806.09" y1="-275.57" x2="1570.46" y2="599.603" gradientUnits="userSpaceOnUse">
<stop stop-color="white" stop-opacity="0.87"/>
<stop offset="1" stop-color="white" stop-opacity="0.24"/>
</linearGradient>
<linearGradient id="paint2_linear_292_1994" x1="1756.63" y1="-261.2" x2="1521.01" y2="613.973" gradientUnits="userSpaceOnUse">
<stop stop-color="white" stop-opacity="0.87"/>
<stop offset="1" stop-color="white" stop-opacity="0.24"/>
</linearGradient>
<linearGradient id="paint3_linear_292_1994" x1="1706.82" y1="-248.09" x2="1471.19" y2="627.083" gradientUnits="userSpaceOnUse">
<stop stop-color="white" stop-opacity="0.87"/>
<stop offset="1" stop-color="white" stop-opacity="0.24"/>
</linearGradient>
<linearGradient id="paint4_linear_292_1994" x1="1656.7" y1="-236.225" x2="1421.07" y2="638.948" gradientUnits="userSpaceOnUse">
<stop stop-color="white" stop-opacity="0.87"/>
<stop offset="1" stop-color="white" stop-opacity="0.24"/>
</linearGradient>
<linearGradient id="paint5_linear_292_1994" x1="1606.3" y1="-225.654" x2="1370.67" y2="649.519" gradientUnits="userSpaceOnUse">
<stop stop-color="white" stop-opacity="0.87"/>
<stop offset="1" stop-color="white" stop-opacity="0.24"/>
</linearGradient>
<linearGradient id="paint6_linear_292_1994" x1="1555.63" y1="-216.455" x2="1320" y2="658.719" gradientUnits="userSpaceOnUse">
<stop stop-color="white" stop-opacity="0.87"/>
<stop offset="1" stop-color="white" stop-opacity="0.24"/>
</linearGradient>
<linearGradient id="paint7_linear_292_1994" x1="1504.7" y1="-208.742" x2="1269.07" y2="666.431" gradientUnits="userSpaceOnUse">
<stop stop-color="white" stop-opacity="0.87"/>
<stop offset="1" stop-color="white" stop-opacity="0.24"/>
</linearGradient>
<linearGradient id="paint8_linear_292_1994" x1="1453.55" y1="-202.678" x2="1217.92" y2="672.495" gradientUnits="userSpaceOnUse">
<stop stop-color="white" stop-opacity="0.87"/>
<stop offset="1" stop-color="white" stop-opacity="0.24"/>
</linearGradient>
<linearGradient id="paint9_linear_292_1994" x1="1402.22" y1="-198.459" x2="1166.59" y2="676.714" gradientUnits="userSpaceOnUse">
<stop stop-color="white" stop-opacity="0.87"/>
<stop offset="1" stop-color="white" stop-opacity="0.24"/>
</linearGradient>
<linearGradient id="paint10_linear_292_1994" x1="1350.76" y1="-196.329" x2="1115.13" y2="678.844" gradientUnits="userSpaceOnUse">
<stop stop-color="white" stop-opacity="0.87"/>
<stop offset="1" stop-color="white" stop-opacity="0.24"/>
</linearGradient>
<linearGradient id="paint11_linear_292_1994" x1="1299.26" y1="-196.597" x2="1063.63" y2="678.577" gradientUnits="userSpaceOnUse">
<stop stop-color="white" stop-opacity="0.87"/>
<stop offset="1" stop-color="white" stop-opacity="0.24"/>
</linearGradient>
<linearGradient id="paint12_linear_292_1994" x1="1247.84" y1="-199.649" x2="1012.21" y2="675.524" gradientUnits="userSpaceOnUse">
<stop stop-color="white" stop-opacity="0.87"/>
<stop offset="1" stop-color="white" stop-opacity="0.24"/>
</linearGradient>
<linearGradient id="paint13_linear_292_1994" x1="1196.73" y1="-205.966" x2="961.097" y2="669.207" gradientUnits="userSpaceOnUse">
<stop stop-color="white" stop-opacity="0.87"/>
<stop offset="1" stop-color="white" stop-opacity="0.24"/>
</linearGradient>
<linearGradient id="paint14_linear_292_1994" x1="1146.24" y1="-216.125" x2="910.607" y2="659.048" gradientUnits="userSpaceOnUse">
<stop stop-color="white" stop-opacity="0.87"/>
<stop offset="1" stop-color="white" stop-opacity="0.24"/>
</linearGradient>
<linearGradient id="paint15_linear_292_1994" x1="1096.87" y1="-230.816" x2="861.24" y2="644.357" gradientUnits="userSpaceOnUse">
<stop stop-color="white" stop-opacity="0.87"/>
<stop offset="1" stop-color="white" stop-opacity="0.24"/>
</linearGradient>
<linearGradient id="paint16_linear_292_1994" x1="1049.39" y1="-250.779" x2="813.763" y2="624.394" gradientUnits="userSpaceOnUse">
<stop stop-color="white" stop-opacity="0.87"/>
<stop offset="1" stop-color="white" stop-opacity="0.24"/>
</linearGradient>
<linearGradient id="paint17_linear_292_1994" x1="1004.88" y1="-276.7" x2="769.256" y2="598.474" gradientUnits="userSpaceOnUse">
<stop stop-color="white" stop-opacity="0.87"/>
<stop offset="1" stop-color="white" stop-opacity="0.24"/>
</linearGradient>
<linearGradient id="paint18_linear_292_1994" x1="957.402" y1="-314.664" x2="721.773" y2="560.509" gradientUnits="userSpaceOnUse">
<stop stop-color="white" stop-opacity="0.87"/>
<stop offset="1" stop-color="white" stop-opacity="0.24"/>
</linearGradient>
<linearGradient id="paint19_linear_292_1994" x1="916.33" y1="-345.743" x2="680.701" y2="529.43" gradientUnits="userSpaceOnUse">
<stop stop-color="white" stop-opacity="0.87"/>
<stop offset="1" stop-color="white" stop-opacity="0.24"/>
</linearGradient>
<linearGradient id="paint20_linear_292_1994" x1="872.832" y1="-373.321" x2="637.203" y2="501.853" gradientUnits="userSpaceOnUse">
<stop stop-color="white" stop-opacity="0.87"/>
<stop offset="1" stop-color="white" stop-opacity="0.24"/>
</linearGradient>
<linearGradient id="paint21_linear_292_1994" x1="827.209" y1="-397.222" x2="591.58" y2="477.951" gradientUnits="userSpaceOnUse">
<stop stop-color="white" stop-opacity="0.87"/>
<stop offset="1" stop-color="white" stop-opacity="0.24"/>
</linearGradient>
<linearGradient id="paint22_linear_292_1994" x1="779.805" y1="-417.358" x2="544.176" y2="457.815" gradientUnits="userSpaceOnUse">
<stop stop-color="white" stop-opacity="0.87"/>
<stop offset="1" stop-color="white" stop-opacity="0.24"/>
</linearGradient>
<linearGradient id="paint23_linear_292_1994" x1="730.967" y1="-433.715" x2="495.338" y2="441.458" gradientUnits="userSpaceOnUse">
<stop stop-color="white" stop-opacity="0.87"/>
<stop offset="1" stop-color="white" stop-opacity="0.24"/>
</linearGradient>
<linearGradient id="paint24_linear_292_1994" x1="681.043" y1="-446.377" x2="445.414" y2="428.797" gradientUnits="userSpaceOnUse">
<stop stop-color="white" stop-opacity="0.87"/>
<stop offset="1" stop-color="white" stop-opacity="0.24"/>
</linearGradient>
<linearGradient id="paint25_linear_292_1994" x1="630.344" y1="-455.458" x2="394.715" y2="419.715" gradientUnits="userSpaceOnUse">
<stop stop-color="white" stop-opacity="0.87"/>
<stop offset="1" stop-color="white" stop-opacity="0.24"/>
</linearGradient>
<linearGradient id="paint26_linear_292_1994" x1="579.158" y1="-461.133" x2="343.529" y2="414.04" gradientUnits="userSpaceOnUse">
<stop stop-color="white" stop-opacity="0.87"/>
<stop offset="1" stop-color="white" stop-opacity="0.24"/>
</linearGradient>
<linearGradient id="paint27_linear_292_1994" x1="527.707" y1="-463.557" x2="292.078" y2="411.616" gradientUnits="userSpaceOnUse">
<stop stop-color="white" stop-opacity="0.87"/>
<stop offset="1" stop-color="white" stop-opacity="0.24"/>
</linearGradient>
<linearGradient id="paint28_linear_292_1994" x1="476.207" y1="-462.899" x2="240.578" y2="412.274" gradientUnits="userSpaceOnUse">
<stop stop-color="white" stop-opacity="0.87"/>
<stop offset="1" stop-color="white" stop-opacity="0.24"/>
</linearGradient>
<linearGradient id="paint29_linear_292_1994" x1="424.84" y1="-459.286" x2="189.211" y2="415.887" gradientUnits="userSpaceOnUse">
<stop stop-color="white" stop-opacity="0.87"/>
<stop offset="1" stop-color="white" stop-opacity="0.24"/>
</linearGradient>
<clipPath id="clip0_292_1994">
<rect width="1752" height="745" fill="white"/>
</clipPath>
</defs>
</svg>
