<svg width="1752" height="1122" viewBox="0 0 1752 1122" fill="none" xmlns="http://www.w3.org/2000/svg">
<g clip-path="url(#clip0_292_1279)">
<path d="M1718 0H445.529C435.537 0 426.051 4.39532 419.591 12.0182L336.496 110.07C330.036 117.693 320.55 122.088 310.558 122.088H34C15.2223 122.088 0 137.31 0 156.088V1088C0 1106.78 15.2223 1122 34 1122H614.101C622.822 1122 631.209 1118.65 637.529 1112.64L737.754 1017.34C744.073 1011.33 752.461 1007.98 761.182 1007.98H1718C1736.78 1007.98 1752 992.761 1752 973.984V34C1752 15.2223 1736.78 0 1718 0Z" fill="url(#paint0_linear_292_1279)"/>
<mask id="mask0_292_1279" style="mask-type:alpha" maskUnits="userSpaceOnUse" x="-63" y="300" width="921" height="540">
<path opacity="0.7" fill-rule="evenodd" clip-rule="evenodd" d="M-39.1322 360.739C-13.1099 381.535 38.9345 439.795 38.9345 506.468C38.9345 511.134 38.8908 516.623 38.8415 522.807C38.0115 627.064 35.6092 928.785 214.584 814.594C239.918 798.43 265.948 782.709 291.537 767.254C326.788 745.964 361.202 725.179 391.808 704.438C500.464 809.815 601.665 875.963 714.426 735.007C866.564 544.828 908.829 219.413 782.831 333.114C760.726 357.006 697.075 406.169 619.31 411.686C613.867 412.072 607.461 412.489 600.245 412.959C553.125 416.026 471.442 421.344 397.63 435.016C185.088 302.147 -156.327 248.765 -39.1322 360.739Z" fill="url(#paint1_linear_292_1279)"/>
</mask>
<g mask="url(#mask0_292_1279)">
<rect x="-13.8281" y="-85.874" width="24" height="1336.5" stroke="white" stroke-opacity="0.1"/>
<rect x="10.1719" y="-85.874" width="24" height="1336.5" stroke="white" stroke-opacity="0.1"/>
<rect x="34.1719" y="-85.874" width="24" height="1336.5" stroke="white" stroke-opacity="0.1"/>
<rect x="58.1719" y="-85.874" width="24" height="1336.5" stroke="white" stroke-opacity="0.1"/>
<rect x="82.1719" y="-85.874" width="24" height="1336.5" stroke="white" stroke-opacity="0.1"/>
<rect x="106.172" y="-85.874" width="24" height="1336.5" stroke="white" stroke-opacity="0.1"/>
<rect x="130.172" y="-85.874" width="24" height="1336.5" stroke="white" stroke-opacity="0.1"/>
<rect x="154.172" y="-85.874" width="24" height="1336.5" stroke="white" stroke-opacity="0.1"/>
<rect x="178.172" y="-85.874" width="24" height="1336.5" stroke="white" stroke-opacity="0.1"/>
<rect x="202.172" y="-85.874" width="24" height="1336.5" stroke="white" stroke-opacity="0.1"/>
<rect x="226.172" y="-85.874" width="24" height="1336.5" stroke="white" stroke-opacity="0.1"/>
<rect x="250.172" y="-85.874" width="24" height="1336.5" stroke="white" stroke-opacity="0.1"/>
<rect x="274.172" y="-85.874" width="24" height="1336.5" stroke="white" stroke-opacity="0.1"/>
<rect x="298.172" y="-85.874" width="24" height="1336.5" stroke="white" stroke-opacity="0.1"/>
<rect x="322.172" y="-85.874" width="24" height="1336.5" stroke="white" stroke-opacity="0.1"/>
<rect x="346.172" y="-85.874" width="24" height="1336.5" stroke="white" stroke-opacity="0.1"/>
<rect x="370.172" y="-85.874" width="24" height="1336.5" stroke="white" stroke-opacity="0.1"/>
<rect x="394.172" y="-85.874" width="24" height="1336.5" stroke="white" stroke-opacity="0.1"/>
<rect x="418.172" y="-85.874" width="24" height="1336.5" stroke="white" stroke-opacity="0.1"/>
<rect x="442.172" y="-85.874" width="24" height="1336.5" stroke="white" stroke-opacity="0.1"/>
<rect x="466.172" y="-85.874" width="24" height="1336.5" stroke="white" stroke-opacity="0.1"/>
<rect x="490.172" y="-85.874" width="24" height="1336.5" stroke="white" stroke-opacity="0.1"/>
<rect x="514.172" y="-85.874" width="24" height="1336.5" stroke="white" stroke-opacity="0.1"/>
<rect x="538.172" y="-85.874" width="24" height="1336.5" stroke="white" stroke-opacity="0.1"/>
<rect x="562.172" y="-85.874" width="24" height="1336.5" stroke="white" stroke-opacity="0.1"/>
<rect x="586.172" y="-85.874" width="24" height="1336.5" stroke="white" stroke-opacity="0.1"/>
<rect x="610.172" y="-85.874" width="24" height="1336.5" stroke="white" stroke-opacity="0.1"/>
<rect x="634.172" y="-85.874" width="24" height="1336.5" stroke="white" stroke-opacity="0.1"/>
<rect x="658.172" y="-85.874" width="24" height="1336.5" stroke="white" stroke-opacity="0.1"/>
<rect x="682.172" y="-85.874" width="24" height="1336.5" stroke="white" stroke-opacity="0.1"/>
<rect x="706.172" y="-85.874" width="24" height="1336.5" stroke="white" stroke-opacity="0.1"/>
<rect x="730.172" y="-85.874" width="24" height="1336.5" stroke="white" stroke-opacity="0.1"/>
<rect x="754.172" y="-85.874" width="24" height="1336.5" stroke="white" stroke-opacity="0.1"/>
<rect x="778.172" y="-85.874" width="24" height="1336.5" stroke="white" stroke-opacity="0.1"/>
<rect x="802.172" y="-85.874" width="24" height="1336.5" stroke="white" stroke-opacity="0.1"/>
<rect x="826.172" y="-85.874" width="24" height="1336.5" stroke="white" stroke-opacity="0.1"/>
<rect x="850.172" y="-85.874" width="24" height="1336.5" stroke="white" stroke-opacity="0.1"/>
<rect x="-469.828" y="322.126" width="24" height="1440" transform="rotate(-90 -469.828 322.126)" stroke="white" stroke-opacity="0.1"/>
<rect x="-469.828" y="346.126" width="24" height="1440" transform="rotate(-90 -469.828 346.126)" stroke="white" stroke-opacity="0.1"/>
<rect x="-469.828" y="370.126" width="24" height="1440" transform="rotate(-90 -469.828 370.126)" stroke="white" stroke-opacity="0.1"/>
<rect x="-469.828" y="394.126" width="24" height="1440" transform="rotate(-90 -469.828 394.126)" stroke="white" stroke-opacity="0.1"/>
<rect x="-469.828" y="418.126" width="24" height="1440" transform="rotate(-90 -469.828 418.126)" stroke="white" stroke-opacity="0.1"/>
<rect x="-469.828" y="442.126" width="24" height="1440" transform="rotate(-90 -469.828 442.126)" stroke="white" stroke-opacity="0.1"/>
<rect x="-469.828" y="466.126" width="24" height="1440" transform="rotate(-90 -469.828 466.126)" stroke="white" stroke-opacity="0.1"/>
<rect x="-469.828" y="490.126" width="24" height="1440" transform="rotate(-90 -469.828 490.126)" stroke="white" stroke-opacity="0.1"/>
<rect x="-469.828" y="514.126" width="24" height="1440" transform="rotate(-90 -469.828 514.126)" stroke="white" stroke-opacity="0.1"/>
<rect x="-469.828" y="538.126" width="24" height="1440" transform="rotate(-90 -469.828 538.126)" stroke="white" stroke-opacity="0.1"/>
<rect x="-469.828" y="562.126" width="24" height="1440" transform="rotate(-90 -469.828 562.126)" stroke="white" stroke-opacity="0.1"/>
<rect x="-469.828" y="586.126" width="24" height="1440" transform="rotate(-90 -469.828 586.126)" stroke="white" stroke-opacity="0.1"/>
<rect x="-469.828" y="610.126" width="24" height="1440" transform="rotate(-90 -469.828 610.126)" stroke="white" stroke-opacity="0.1"/>
<rect x="-469.828" y="634.126" width="24" height="1440" transform="rotate(-90 -469.828 634.126)" stroke="white" stroke-opacity="0.1"/>
<rect x="-469.828" y="658.126" width="24" height="1440" transform="rotate(-90 -469.828 658.126)" stroke="white" stroke-opacity="0.1"/>
<rect x="-469.828" y="682.126" width="24" height="1440" transform="rotate(-90 -469.828 682.126)" stroke="white" stroke-opacity="0.1"/>
<rect x="-469.828" y="706.126" width="24" height="1440" transform="rotate(-90 -469.828 706.126)" stroke="white" stroke-opacity="0.1"/>
</g>
</g>
<defs>
<linearGradient id="paint0_linear_292_1279" x1="1752" y1="8.22743e-05" x2="-141.755" y2="1350.99" gradientUnits="userSpaceOnUse">
<stop stop-color="#472667"/>
<stop offset="1" stop-color="#913276"/>
</linearGradient>
<linearGradient id="paint1_linear_292_1279" x1="847.339" y1="265.875" x2="418.381" y2="787.468" gradientUnits="userSpaceOnUse">
<stop stop-color="white"/>
<stop offset="1" stop-color="white"/>
</linearGradient>
<clipPath id="clip0_292_1279">
<rect width="1752" height="1122" fill="white"/>
</clipPath>
</defs>
</svg>
