<svg width="1788" height="729" viewBox="0 0 1788 729" fill="none" xmlns="http://www.w3.org/2000/svg">
<g clip-path="url(#clip0_292_1773)">
<path d="M1298.55 0H40C17.9086 0 0 17.9086 0 40V633.241C0 655.332 17.9086 673.241 40 673.241H389C402.423 673.241 414.952 679.974 422.359 691.169L435.528 711.072C442.935 722.267 455.463 729 468.887 729H1748C1770.09 729 1788 711.091 1788 689V114.862C1788 92.7705 1770.09 74.8619 1748 74.8619H1400.34C1388.8 74.8619 1377.82 69.8797 1370.23 61.1947L1328.66 13.6672C1321.07 4.98217 1310.09 0 1298.55 0Z" fill="url(#paint0_linear_292_1773)"/>
<path opacity="0.24" d="M1001.45 -599.413C974.799 -576.307 932.429 -505.643 976.193 -407.836C1030.9 -285.577 1156.03 -246.027 1226.99 -138.555C1279.36 -59.2333 1364.83 158.018 1296.49 291.681" stroke="url(#paint1_linear_292_1773)"/>
<path opacity="0.24" d="M969.72 -556.688C943.065 -533.582 900.695 -462.919 944.459 -365.112C999.163 -242.853 1124.3 -203.302 1195.26 -95.8307C1247.63 -16.5087 1333.1 200.743 1264.75 334.406" stroke="url(#paint2_linear_292_1773)"/>
<path opacity="0.24" d="M936.906 -514.78C910.251 -491.674 867.881 -421.01 911.645 -323.203C966.349 -200.944 1091.49 -161.394 1162.44 -53.9225C1214.82 25.3995 1300.29 242.651 1231.94 376.314" stroke="url(#paint3_linear_292_1773)"/>
<path opacity="0.24" d="M903.058 -473.703C876.403 -450.597 834.034 -379.933 877.797 -282.126C932.501 -159.867 1057.64 -120.317 1128.6 -12.8454C1180.97 66.4767 1266.44 283.728 1198.09 417.391" stroke="url(#paint4_linear_292_1773)"/>
<path opacity="0.24" d="M868.17 -433.514C841.515 -410.408 799.145 -339.745 842.909 -241.938C897.613 -119.679 1022.75 -80.1285 1093.71 27.3431C1146.08 106.665 1231.55 323.917 1163.2 457.579" stroke="url(#paint5_linear_292_1773)"/>
<path opacity="0.24" d="M832.203 -394.286C805.548 -371.18 763.178 -300.516 806.942 -202.709C861.646 -80.4502 986.782 -40.9 1057.74 66.5716C1110.11 145.894 1195.58 363.145 1127.24 496.808" stroke="url(#paint6_linear_292_1773)"/>
<path opacity="0.24" d="M795.098 -356.124C768.443 -333.018 726.073 -262.354 769.837 -164.547C824.541 -42.2881 949.677 -2.73785 1020.64 104.734C1073.01 184.056 1158.48 401.307 1090.13 534.97" stroke="url(#paint7_linear_292_1773)"/>
<path opacity="0.24" d="M756.782 -319.18C730.127 -296.074 687.757 -225.411 731.521 -127.604C786.225 -5.34477 911.361 34.2055 982.319 141.677C1034.69 220.999 1120.16 438.251 1051.82 571.913" stroke="url(#paint8_linear_292_1773)"/>
<path opacity="0.24" d="M717.162 -283.641C690.507 -260.535 648.138 -189.872 691.901 -92.0647C746.605 30.1943 871.742 69.7446 942.7 177.216C995.072 256.538 1080.54 473.79 1012.2 607.452" stroke="url(#paint9_linear_292_1773)"/>
<path opacity="0.24" d="M676.132 -249.742C649.477 -226.636 607.107 -155.972 650.87 -58.1652C705.575 64.0937 830.711 103.644 901.669 211.116C954.041 290.438 1039.51 507.689 971.166 641.352" stroke="url(#paint10_linear_292_1773)"/>
<path opacity="0.24" d="M633.567 -217.787C606.912 -194.681 564.543 -124.017 608.306 -26.2102C663.01 96.0488 788.146 135.599 859.104 243.071C911.477 322.393 996.947 539.644 928.601 673.307" stroke="url(#paint11_linear_292_1773)"/>
<path opacity="0.24" d="M589.338 -188.182C562.683 -165.076 520.313 -94.4128 564.076 3.39433C618.781 125.653 743.917 165.204 814.875 272.675C867.247 351.997 952.718 569.249 884.372 702.911" stroke="url(#paint12_linear_292_1773)"/>
<path opacity="0.24" d="M543.314 -161.452C516.659 -138.346 474.289 -67.6824 518.053 30.1248C572.757 152.384 697.893 191.934 768.851 299.406C821.223 378.728 906.694 595.979 838.348 729.642" stroke="url(#paint13_linear_292_1773)"/>
<path opacity="0.24" d="M495.405 -138.273C468.749 -115.167 426.38 -44.5036 470.143 53.3035C524.848 175.562 649.984 215.113 720.942 322.584C773.314 401.906 858.785 619.158 790.439 752.821" stroke="url(#paint14_linear_292_1773)"/>
<path opacity="0.24" d="M445.588 -119.527C418.933 -96.421 376.564 -25.7576 420.327 72.0496C475.031 194.309 600.167 233.859 671.125 341.33C723.498 420.652 808.968 637.904 740.622 771.567" stroke="url(#paint15_linear_292_1773)"/>
<path opacity="0.24" d="M394.036 -106.302C367.381 -83.1964 325.011 -12.5329 368.775 85.2742C423.479 207.533 548.615 247.083 619.573 354.555C671.945 433.877 757.416 651.129 689.07 784.791" stroke="url(#paint16_linear_292_1773)"/>
<path opacity="0.24" d="M341.204 -99.8365C314.549 -76.7306 272.18 -6.06712 315.943 91.74C370.647 213.999 495.784 253.549 566.742 361.021C619.114 440.343 704.585 657.595 636.238 791.257" stroke="url(#paint17_linear_292_1773)"/>
<path opacity="0.24" d="M278.402 -101.426C251.747 -78.3204 209.377 -7.65696 253.141 90.1502C307.845 212.409 432.981 251.959 503.939 359.431C556.312 438.753 641.782 656.005 573.436 789.667" stroke="url(#paint18_linear_292_1773)"/>
<path opacity="0.24" d="M225.177 -101.354C198.521 -78.2482 156.152 -7.5847 199.915 90.2225C254.62 212.481 379.756 252.032 450.714 359.503C503.086 438.825 588.557 656.077 520.21 789.74" stroke="url(#paint19_linear_292_1773)"/>
<path opacity="0.24" d="M172.141 -96.8814C145.486 -73.7755 103.116 -3.11204 146.88 94.6951C201.584 216.954 326.72 256.504 397.678 363.976C450.05 443.298 535.521 660.55 467.175 794.212" stroke="url(#paint20_linear_292_1773)"/>
<path opacity="0.24" d="M119.655 -88.0572C92.9995 -64.9513 50.6299 5.71218 94.3934 103.519C149.098 225.778 274.234 265.329 345.192 372.8C397.564 452.122 483.035 669.374 414.689 803.036" stroke="url(#paint21_linear_292_1773)"/>
<path opacity="0.24" d="M68.0521 -75.0191C41.3969 -51.9132 -0.972623 18.7503 42.7908 116.557C97.4951 238.816 222.631 278.367 293.589 385.838C345.961 465.16 431.432 682.412 363.086 816.075" stroke="url(#paint22_linear_292_1773)"/>
<path opacity="0.24" d="M17.6322 -57.9761C-9.023 -34.8703 -51.3925 35.7932 -7.62909 133.6C47.0752 255.859 172.211 295.41 243.169 402.881C295.542 482.203 381.012 699.455 312.666 833.117" stroke="url(#paint23_linear_292_1773)"/>
<path opacity="0.24" d="M-31.3751 -37.2115C-58.0303 -14.1056 -100.4 56.5579 -56.6364 154.365C-1.9321 276.624 123.204 316.174 194.162 423.646C246.534 502.968 332.005 720.22 263.659 853.882" stroke="url(#paint24_linear_292_1773)"/>
<path opacity="0.24" d="M-78.7833 -13.0152C-105.439 10.0907 -147.808 80.7542 -104.045 178.561C-49.3403 300.82 75.7957 340.371 146.754 447.842C199.126 527.164 284.597 744.416 216.251 878.078" stroke="url(#paint25_linear_292_1773)"/>
<path opacity="0.24" d="M-124.464 14.2885C-151.12 37.3944 -193.489 108.058 -149.726 205.865C-95.0215 328.124 30.1146 367.674 101.073 475.146C153.445 554.468 238.916 771.72 170.569 905.382" stroke="url(#paint26_linear_292_1773)"/>
<path opacity="0.24" d="M-168.333 44.4341C-194.988 67.5399 -237.357 138.203 -193.594 236.011C-138.89 358.269 -13.7536 397.82 57.2044 505.291C109.577 584.613 195.047 801.865 126.701 935.528" stroke="url(#paint27_linear_292_1773)"/>
<path opacity="0.24" d="M-210.316 77.1469C-236.971 100.253 -279.341 170.916 -235.577 268.723C-180.873 390.982 -55.737 430.533 15.221 538.004C67.5933 617.326 153.064 834.578 84.7178 968.241" stroke="url(#paint28_linear_292_1773)"/>
<path opacity="0.24" d="M-250.343 112.209C-276.999 135.315 -319.368 205.979 -275.605 303.786C-220.9 426.045 -95.7643 465.595 -24.8063 573.067C27.566 652.389 113.037 869.64 44.6905 1003.3" stroke="url(#paint29_linear_292_1773)"/>
</g>
<defs>
<linearGradient id="paint0_linear_292_1773" x1="1788" y1="0" x2="3.19297" y2="736.735" gradientUnits="userSpaceOnUse">
<stop stop-color="#472667"/>
<stop offset="1" stop-color="#913276"/>
</linearGradient>
<linearGradient id="paint1_linear_292_1773" x1="977.526" y1="-589.684" x2="1330.27" y2="277.946" gradientUnits="userSpaceOnUse">
<stop stop-color="white" stop-opacity="0.87"/>
<stop offset="1" stop-color="white" stop-opacity="0.24"/>
</linearGradient>
<linearGradient id="paint2_linear_292_1773" x1="945.792" y1="-546.96" x2="1298.54" y2="320.67" gradientUnits="userSpaceOnUse">
<stop stop-color="white" stop-opacity="0.87"/>
<stop offset="1" stop-color="white" stop-opacity="0.24"/>
</linearGradient>
<linearGradient id="paint3_linear_292_1773" x1="912.978" y1="-505.051" x2="1265.72" y2="362.579" gradientUnits="userSpaceOnUse">
<stop stop-color="white" stop-opacity="0.87"/>
<stop offset="1" stop-color="white" stop-opacity="0.24"/>
</linearGradient>
<linearGradient id="paint4_linear_292_1773" x1="879.13" y1="-463.974" x2="1231.88" y2="403.656" gradientUnits="userSpaceOnUse">
<stop stop-color="white" stop-opacity="0.87"/>
<stop offset="1" stop-color="white" stop-opacity="0.24"/>
</linearGradient>
<linearGradient id="paint5_linear_292_1773" x1="844.242" y1="-423.786" x2="1196.99" y2="443.844" gradientUnits="userSpaceOnUse">
<stop stop-color="white" stop-opacity="0.87"/>
<stop offset="1" stop-color="white" stop-opacity="0.24"/>
</linearGradient>
<linearGradient id="paint6_linear_292_1773" x1="808.275" y1="-384.557" x2="1161.02" y2="483.073" gradientUnits="userSpaceOnUse">
<stop stop-color="white" stop-opacity="0.87"/>
<stop offset="1" stop-color="white" stop-opacity="0.24"/>
</linearGradient>
<linearGradient id="paint7_linear_292_1773" x1="771.17" y1="-346.395" x2="1123.92" y2="521.235" gradientUnits="userSpaceOnUse">
<stop stop-color="white" stop-opacity="0.87"/>
<stop offset="1" stop-color="white" stop-opacity="0.24"/>
</linearGradient>
<linearGradient id="paint8_linear_292_1773" x1="732.854" y1="-309.452" x2="1085.6" y2="558.178" gradientUnits="userSpaceOnUse">
<stop stop-color="white" stop-opacity="0.87"/>
<stop offset="1" stop-color="white" stop-opacity="0.24"/>
</linearGradient>
<linearGradient id="paint9_linear_292_1773" x1="693.234" y1="-273.913" x2="1045.98" y2="593.717" gradientUnits="userSpaceOnUse">
<stop stop-color="white" stop-opacity="0.87"/>
<stop offset="1" stop-color="white" stop-opacity="0.24"/>
</linearGradient>
<linearGradient id="paint10_linear_292_1773" x1="652.203" y1="-240.013" x2="1004.95" y2="627.617" gradientUnits="userSpaceOnUse">
<stop stop-color="white" stop-opacity="0.87"/>
<stop offset="1" stop-color="white" stop-opacity="0.24"/>
</linearGradient>
<linearGradient id="paint11_linear_292_1773" x1="609.639" y1="-208.058" x2="962.385" y2="659.572" gradientUnits="userSpaceOnUse">
<stop stop-color="white" stop-opacity="0.87"/>
<stop offset="1" stop-color="white" stop-opacity="0.24"/>
</linearGradient>
<linearGradient id="paint12_linear_292_1773" x1="565.409" y1="-178.454" x2="918.155" y2="689.176" gradientUnits="userSpaceOnUse">
<stop stop-color="white" stop-opacity="0.87"/>
<stop offset="1" stop-color="white" stop-opacity="0.24"/>
</linearGradient>
<linearGradient id="paint13_linear_292_1773" x1="519.386" y1="-151.723" x2="872.131" y2="715.907" gradientUnits="userSpaceOnUse">
<stop stop-color="white" stop-opacity="0.87"/>
<stop offset="1" stop-color="white" stop-opacity="0.24"/>
</linearGradient>
<linearGradient id="paint14_linear_292_1773" x1="471.476" y1="-128.545" x2="824.222" y2="739.085" gradientUnits="userSpaceOnUse">
<stop stop-color="white" stop-opacity="0.87"/>
<stop offset="1" stop-color="white" stop-opacity="0.24"/>
</linearGradient>
<linearGradient id="paint15_linear_292_1773" x1="421.66" y1="-109.799" x2="774.406" y2="757.832" gradientUnits="userSpaceOnUse">
<stop stop-color="white" stop-opacity="0.87"/>
<stop offset="1" stop-color="white" stop-opacity="0.24"/>
</linearGradient>
<linearGradient id="paint16_linear_292_1773" x1="370.108" y1="-96.5739" x2="722.854" y2="771.056" gradientUnits="userSpaceOnUse">
<stop stop-color="white" stop-opacity="0.87"/>
<stop offset="1" stop-color="white" stop-opacity="0.24"/>
</linearGradient>
<linearGradient id="paint17_linear_292_1773" x1="317.276" y1="-90.1081" x2="670.022" y2="777.522" gradientUnits="userSpaceOnUse">
<stop stop-color="white" stop-opacity="0.87"/>
<stop offset="1" stop-color="white" stop-opacity="0.24"/>
</linearGradient>
<linearGradient id="paint18_linear_292_1773" x1="254.474" y1="-91.698" x2="607.22" y2="775.932" gradientUnits="userSpaceOnUse">
<stop stop-color="white" stop-opacity="0.87"/>
<stop offset="1" stop-color="white" stop-opacity="0.24"/>
</linearGradient>
<linearGradient id="paint19_linear_292_1773" x1="201.248" y1="-91.6257" x2="553.994" y2="776.004" gradientUnits="userSpaceOnUse">
<stop stop-color="white" stop-opacity="0.87"/>
<stop offset="1" stop-color="white" stop-opacity="0.24"/>
</linearGradient>
<linearGradient id="paint20_linear_292_1773" x1="148.213" y1="-87.153" x2="500.959" y2="780.477" gradientUnits="userSpaceOnUse">
<stop stop-color="white" stop-opacity="0.87"/>
<stop offset="1" stop-color="white" stop-opacity="0.24"/>
</linearGradient>
<linearGradient id="paint21_linear_292_1773" x1="95.7264" y1="-78.3288" x2="448.472" y2="789.301" gradientUnits="userSpaceOnUse">
<stop stop-color="white" stop-opacity="0.87"/>
<stop offset="1" stop-color="white" stop-opacity="0.24"/>
</linearGradient>
<linearGradient id="paint22_linear_292_1773" x1="44.1238" y1="-65.2907" x2="396.87" y2="802.339" gradientUnits="userSpaceOnUse">
<stop stop-color="white" stop-opacity="0.87"/>
<stop offset="1" stop-color="white" stop-opacity="0.24"/>
</linearGradient>
<linearGradient id="paint23_linear_292_1773" x1="-6.29607" y1="-48.2478" x2="346.45" y2="819.382" gradientUnits="userSpaceOnUse">
<stop stop-color="white" stop-opacity="0.87"/>
<stop offset="1" stop-color="white" stop-opacity="0.24"/>
</linearGradient>
<linearGradient id="paint24_linear_292_1773" x1="-55.3034" y1="-27.4831" x2="297.442" y2="840.147" gradientUnits="userSpaceOnUse">
<stop stop-color="white" stop-opacity="0.87"/>
<stop offset="1" stop-color="white" stop-opacity="0.24"/>
</linearGradient>
<linearGradient id="paint25_linear_292_1773" x1="-102.712" y1="-3.28682" x2="250.034" y2="864.343" gradientUnits="userSpaceOnUse">
<stop stop-color="white" stop-opacity="0.87"/>
<stop offset="1" stop-color="white" stop-opacity="0.24"/>
</linearGradient>
<linearGradient id="paint26_linear_292_1773" x1="-148.393" y1="24.0169" x2="204.353" y2="891.647" gradientUnits="userSpaceOnUse">
<stop stop-color="white" stop-opacity="0.87"/>
<stop offset="1" stop-color="white" stop-opacity="0.24"/>
</linearGradient>
<linearGradient id="paint27_linear_292_1773" x1="-192.261" y1="54.1624" x2="160.485" y2="921.792" gradientUnits="userSpaceOnUse">
<stop stop-color="white" stop-opacity="0.87"/>
<stop offset="1" stop-color="white" stop-opacity="0.24"/>
</linearGradient>
<linearGradient id="paint28_linear_292_1773" x1="-234.244" y1="86.8753" x2="118.502" y2="954.505" gradientUnits="userSpaceOnUse">
<stop stop-color="white" stop-opacity="0.87"/>
<stop offset="1" stop-color="white" stop-opacity="0.24"/>
</linearGradient>
<linearGradient id="paint29_linear_292_1773" x1="-274.272" y1="121.938" x2="78.4742" y2="989.568" gradientUnits="userSpaceOnUse">
<stop stop-color="white" stop-opacity="0.87"/>
<stop offset="1" stop-color="white" stop-opacity="0.24"/>
</linearGradient>
<clipPath id="clip0_292_1773">
<rect width="1788" height="729" fill="white"/>
</clipPath>
</defs>
</svg>
