<svg width="714" height="576" viewBox="0 0 714 576" fill="none" xmlns="http://www.w3.org/2000/svg">
<path opacity="0.5" d="M92.8257 257.865C101.949 257.865 109.345 253.72 109.345 248.606C109.345 243.493 101.949 239.348 92.8257 239.348C83.7024 239.348 76.3064 243.493 76.3064 248.606C76.3064 253.72 83.7024 257.865 92.8257 257.865Z" fill="url(#paint0_linear_66_1316)"/>
<path d="M71.1607 198.339L71.7867 199.442C75.6859 206.316 77.0073 214.354 75.5136 222.115L72.7016 236.724C71.7264 241.791 74.0776 246.918 78.5538 249.485L78.598 249.51C82.3309 251.651 86.9206 251.645 90.6471 249.493C95.1049 246.919 97.4419 241.803 96.469 236.749L93.6727 222.221C92.1666 214.396 93.5228 206.291 97.4944 199.382L98.0945 198.339H71.1607Z" fill="url(#paint1_linear_66_1316)"/>
<path d="M98.0957 198.34C98.0957 199.609 96.0296 200.736 92.8227 201.455C90.5524 201.963 87.7118 202.265 84.6282 202.265C81.5446 202.265 78.701 201.963 76.4307 201.455C73.2268 200.736 71.1607 199.609 71.1607 198.34C71.1607 196.171 77.1886 194.412 84.6282 194.412C92.0651 194.412 98.0957 196.171 98.0957 198.34Z" fill="url(#paint2_linear_66_1316)"/>
<path d="M92.8256 201.418C92.8256 201.429 92.8256 201.443 92.823 201.454C90.5527 201.963 87.7122 202.265 84.6285 202.265C81.5449 202.265 78.7014 201.963 76.4311 201.454C76.4284 201.443 76.4284 201.429 76.4284 201.418C76.4284 200.096 80.0995 199.028 84.6285 199.028C89.1549 199.028 92.8256 200.096 92.8256 201.418Z" fill="url(#paint3_linear_66_1316)"/>
<path d="M87.6492 201.029C87.6492 201.029 95.1603 103.138 81.9442 101.051C68.7281 98.9646 83.5394 200.978 83.5394 200.978L87.6492 201.029Z" fill="url(#paint4_linear_66_1316)"/>
<path d="M79.7226 201.029C79.7226 201.029 54.5155 127.389 67.119 123.729C79.7226 120.069 85.3572 201.029 85.3572 201.029H79.7226Z" fill="url(#paint5_linear_66_1316)"/>
<path d="M87.6492 201.028C87.6492 201.028 103.972 153.343 95.8106 150.973C87.6491 148.603 84.0005 201.028 84.0005 201.028H87.6492Z" fill="url(#paint6_linear_66_1316)"/>
<path d="M118.491 159.683L216.678 216.374L253.501 195.114L155.312 138.427L118.491 159.683Z" fill="url(#paint7_linear_66_1316)"/>
<path d="M118.491 258.888V159.683L216.678 216.374L216.68 315.578L118.491 258.888Z" fill="url(#paint8_linear_66_1316)"/>
<path d="M253.501 195.115L253.499 278.198C253.499 288.175 248.177 297.393 239.537 302.381L216.681 315.578L216.679 216.374L253.501 195.115Z" fill="url(#paint9_linear_66_1316)"/>
<path d="M223.625 203.069C226.146 203.069 228.189 201.026 228.189 198.505V137.136C228.189 104.282 210.514 73.6693 182.062 57.2432C173.671 52.3999 163.654 52.4007 155.264 57.2436C146.874 62.0881 141.866 70.7632 141.866 80.4506V153.934C141.866 156.455 143.909 158.498 146.43 158.498C148.95 158.498 150.993 156.455 150.993 153.934V80.4506C150.993 74.063 154.296 68.3427 159.828 65.1485C165.36 61.9547 171.965 61.9543 177.498 65.1481C203.135 79.9493 219.061 107.533 219.061 137.136V198.505C219.061 201.026 221.105 203.069 223.625 203.069Z" fill="#913276"/>
<path opacity="0.321033" d="M152.57 216.414V223.93C152.57 225.905 153.096 227.804 154.051 229.454C155.007 231.107 156.386 232.511 158.095 233.501C159.271 234.18 159.993 235.434 159.993 236.792V248.289C159.993 249.359 160.279 250.388 160.795 251.282C161.311 252.176 162.061 252.938 162.986 253.469C164.955 254.606 167.416 253.187 167.416 250.91L167.419 243.72V240.74C167.419 240.116 167.933 239.668 168.492 239.668C168.67 239.668 168.854 239.714 169.026 239.812C171.159 241.044 173.73 239.99 174.566 237.907C174.744 237.464 174.842 236.976 174.842 236.454V231.35C174.842 222.75 170.255 214.805 162.807 210.503C161.812 209.929 160.764 209.637 159.731 209.588C156.042 209.406 152.57 212.309 152.57 216.414Z" fill="url(#paint10_linear_66_1316)"/>
<path d="M159.717 210.048V217.564C159.717 219.539 160.243 221.438 161.198 223.088C162.154 224.741 163.533 226.145 165.242 227.134C166.418 227.814 167.141 229.067 167.141 230.422V241.923C167.141 242.54 167.236 243.146 167.42 243.72V240.74C167.42 240.116 167.933 239.668 168.492 239.668C168.671 239.668 168.855 239.714 169.027 239.812C171.159 241.044 173.731 239.991 174.567 237.907C174.745 237.465 174.843 236.976 174.843 236.454V233.763C174.828 233.707 174.828 233.667 174.843 233.652V231.351C174.843 222.75 170.256 214.805 162.808 210.504C161.813 209.929 160.765 209.637 159.732 209.588C159.723 209.737 159.717 209.891 159.717 210.048Z" fill="#913276"/>
<path d="M129.335 277.289C129.335 277.289 129.335 277.289 129.335 277.289C131.17 277.289 132.658 275.801 132.658 273.965L132.656 248.041C132.656 246.206 131.168 244.718 129.332 244.718C129.332 244.718 129.332 244.718 129.332 244.718C127.497 244.718 126.008 246.206 126.008 248.041L126.011 273.965C126.011 275.801 127.499 277.289 129.335 277.289Z" fill="#913276"/>
<path d="M112.306 287.486C114.142 287.486 115.63 285.998 115.629 284.162L115.627 258.238C115.627 256.403 114.139 254.915 112.304 254.915C112.304 254.915 112.304 254.915 112.303 254.915C110.468 254.915 108.98 256.403 108.98 258.238L108.982 284.162C108.983 285.998 110.471 287.486 112.306 287.486Z" fill="#913276"/>
<path d="M45.6759 299.632C46.3338 299.632 47.0003 299.464 47.6109 299.112L141.301 245.02C143.156 243.949 143.791 241.578 142.72 239.723C141.649 237.869 139.279 237.234 137.424 238.304L43.7334 292.396C41.879 293.467 41.2436 295.838 42.3143 297.693C43.0325 298.936 44.3358 299.632 45.6759 299.632Z" fill="#913276"/>
<path fill-rule="evenodd" clip-rule="evenodd" d="M0 322.026C0 329.843 2.88134 335.811 8.11354 338.832C10.3775 340.14 12.8999 340.789 15.5812 340.789C19.0961 340.789 22.8844 339.672 26.7244 337.455C39.2254 330.238 49.0177 313.278 49.0177 298.844C49.0177 291.028 46.1363 285.059 40.9041 282.038C35.6723 279.017 29.0629 279.506 22.2932 283.414C9.79229 290.632 0 307.591 0 322.026ZM8.86282 322.026C8.86282 310.847 17.0423 296.68 26.7244 291.09C29.1555 289.686 31.4666 288.968 33.4293 288.968C34.5787 288.968 35.6086 289.215 36.4729 289.714C38.8133 291.065 40.1552 294.393 40.1552 298.844C40.1552 310.023 31.9754 324.19 22.2932 329.78C18.4378 332.005 14.8851 332.508 12.5448 331.157C10.2048 329.806 8.86282 326.478 8.86282 322.026Z" fill="#913276"/>
<path opacity="0.4" d="M491.937 492.346C484.768 488.228 473.067 488.228 465.934 492.346C460.18 495.667 459.074 500.714 462.603 504.725L453.061 510.073L226.503 378.505L338.336 315.627C345.223 317.643 353.887 316.99 359.638 313.654C366.807 309.496 366.807 302.725 359.638 298.606C352.47 294.488 340.769 294.488 333.635 298.606C328.123 301.789 326.89 306.552 329.897 310.473L217.843 373.475L123.538 318.711L130.458 314.982C137.582 317.749 147.377 317.308 153.676 313.654C160.845 309.496 160.845 302.725 153.676 298.606C146.507 294.488 134.806 294.488 127.673 298.606C122.767 301.439 121.236 305.526 123.078 309.155L105.87 318.428L452.985 520.008L471.539 509.609C478.267 511.317 486.434 510.585 491.936 507.394C499.105 503.235 499.105 496.464 491.937 492.346Z" fill="#913276"/>
<path d="M282.254 197.12L452.965 295.68L566.779 229.969L396.064 131.412L282.254 197.12Z" fill="url(#paint11_linear_66_1316)"/>
<path d="M544.376 197.12L544.385 221.762L453.022 274.696V250.055L544.376 197.12Z" fill="#913276"/>
<path d="M309.845 191.293L453.022 274.696V250.055L309.836 167.592L309.845 191.293Z" fill="#913276"/>
<path d="M282.254 212.677V197.12L452.965 295.679L452.969 328.536L297.233 238.622C287.964 233.27 282.254 223.38 282.254 212.677Z" fill="url(#paint12_linear_66_1316)"/>
<path d="M566.779 229.969V245.527C566.779 256.23 561.069 266.12 551.8 271.471L452.969 328.536L452.965 295.679L566.779 229.969Z" fill="url(#paint13_linear_66_1316)"/>
<path d="M409.44 291.119C408.939 291.119 408.433 290.992 407.97 290.725L294.16 225.021C292.752 224.208 292.269 222.408 293.082 221C293.895 219.591 295.697 219.111 297.104 219.922L410.914 285.626C412.321 286.439 412.804 288.238 411.991 289.647C411.446 290.591 410.456 291.119 409.44 291.119Z" fill="#913276"/>
<path d="M425.492 297.439C425.493 292.877 428.726 291.011 432.676 293.291C436.627 295.572 439.858 301.171 439.858 305.733C439.857 310.295 436.624 312.161 432.674 309.88C428.724 307.6 425.492 302.001 425.492 297.439Z" fill="#913276"/>
<path d="M282.254 131.414L452.965 229.973L566.779 164.263L396.064 65.7058L282.254 131.414Z" fill="url(#paint14_linear_66_1316)"/>
<path d="M282.254 146.972V131.414L452.965 229.974L452.969 262.83L297.233 172.916C287.964 167.565 282.254 157.675 282.254 146.972Z" fill="url(#paint15_linear_66_1316)"/>
<path d="M566.779 164.263V179.822C566.779 190.524 561.069 200.414 551.8 205.766L452.969 262.83L452.965 229.974L566.779 164.263Z" fill="url(#paint16_linear_66_1316)"/>
<path d="M409.44 225.413C408.939 225.413 408.433 225.286 407.97 225.018L294.16 159.315C292.752 158.502 292.269 156.703 293.082 155.294C293.895 153.885 295.697 153.405 297.104 154.217L410.914 219.92C412.321 220.733 412.804 222.533 411.991 223.941C411.446 224.885 410.456 225.413 409.44 225.413Z" fill="#913276"/>
<path d="M425.492 231.733C425.493 227.171 428.726 225.305 432.676 227.586C436.627 229.866 439.858 235.465 439.858 240.027C439.857 244.589 436.624 246.455 432.674 244.175C428.724 241.894 425.492 236.295 425.492 231.733Z" fill="#913276"/>
<path d="M544.376 129.798L544.385 154.441L453.022 207.374V182.734L544.376 129.798Z" fill="#913276"/>
<path d="M309.845 123.972L453.022 207.374V182.734L309.836 100.271L309.845 123.972Z" fill="#913276"/>
<path d="M282.254 65.7082L452.965 164.268L566.779 98.5576L396.064 0L282.254 65.7082Z" fill="url(#paint17_linear_66_1316)"/>
<path d="M282.254 81.2659V65.7083L452.965 164.268L452.969 197.125L297.233 107.211C287.964 101.859 282.254 91.9689 282.254 81.2659Z" fill="url(#paint18_linear_66_1316)"/>
<path d="M566.779 98.5574V114.116C566.779 124.818 561.069 134.708 551.8 140.06L452.969 197.124L452.965 164.268L566.779 98.5574Z" fill="url(#paint19_linear_66_1316)"/>
<path d="M409.44 159.708C408.939 159.708 408.433 159.581 407.97 159.313L294.16 93.6098C292.752 92.7969 292.269 90.9971 293.082 89.5885C293.895 88.1798 295.697 87.6992 297.104 88.511L410.914 154.214C412.321 155.027 412.804 156.827 411.991 158.236C411.446 159.18 410.456 159.708 409.44 159.708Z" fill="#913276"/>
<path fill-rule="evenodd" clip-rule="evenodd" d="M447.711 153.179C447.984 153.337 448.289 153.416 448.594 153.416C448.898 153.416 449.203 153.337 449.477 153.179L545.807 97.5627C546.354 97.2477 546.691 96.6647 546.691 96.0334C546.691 95.4022 546.354 94.8192 545.807 94.5042L401.318 11.0876C400.771 10.7726 400.099 10.7726 399.552 11.0876L303.226 66.7019C302.68 67.017 302.343 67.5999 302.343 68.2312C302.343 68.8624 302.68 69.4454 303.226 69.7604L447.711 153.179ZM448.594 149.61L307.642 68.231L400.435 14.6574L541.392 96.0337L448.594 149.61Z" fill="url(#paint20_linear_66_1316)"/>
<path d="M425.492 166.027C425.493 161.465 428.726 159.599 432.676 161.88C436.627 164.161 439.858 169.759 439.858 174.321C439.857 178.883 436.624 180.75 432.674 178.469C428.724 176.188 425.492 170.589 425.492 166.027Z" fill="#913276"/>
<path opacity="0.4" d="M713.859 327.268L603.764 263.702L603.766 168.358L713.859 231.92V327.268Z" fill="url(#paint21_linear_66_1316)"/>
<path opacity="0.797939" d="M603.764 152.466L603.766 168.358L713.859 231.92V216.03L603.764 152.466Z" fill="#913276"/>
<g opacity="0.4">
<path d="M700.493 238.593C700.191 238.593 699.884 238.516 699.603 238.353L656.508 213.475C655.655 212.983 655.363 211.892 655.855 211.039C656.348 210.186 657.438 209.893 658.291 210.386L701.387 235.264C702.24 235.757 702.532 236.848 702.04 237.701C701.709 238.273 701.11 238.593 700.493 238.593Z" fill="url(#paint22_linear_66_1316)"/>
</g>
<g opacity="0.4">
<path d="M700.493 249.294C700.191 249.294 699.884 249.217 699.603 249.054L656.508 224.176C655.655 223.684 655.363 222.593 655.855 221.74C656.347 220.887 657.438 220.594 658.291 221.087L701.386 245.965C702.24 246.458 702.532 247.549 702.039 248.402C701.709 248.974 701.11 249.294 700.493 249.294Z" fill="url(#paint23_linear_66_1316)"/>
</g>
<g opacity="0.4">
<path d="M700.493 259.995C700.191 259.995 699.884 259.918 699.603 259.755L656.508 234.877C655.655 234.385 655.363 233.294 655.855 232.441C656.347 231.588 657.438 231.295 658.291 231.788L701.386 256.666C702.24 257.159 702.532 258.25 702.039 259.103C701.709 259.675 701.11 259.995 700.493 259.995Z" fill="url(#paint24_linear_66_1316)"/>
</g>
<g opacity="0.4">
<path d="M700.493 270.696C700.191 270.696 699.884 270.619 699.603 270.456L656.508 245.578C655.655 245.086 655.363 243.995 655.855 243.142C656.347 242.289 657.438 241.996 658.291 242.489L701.386 267.367C702.24 267.86 702.532 268.951 702.039 269.804C701.709 270.376 701.11 270.696 700.493 270.696Z" fill="url(#paint25_linear_66_1316)"/>
</g>
<g opacity="0.4">
<path d="M685.03 272.361C684.727 272.361 684.421 272.284 684.14 272.121L656.508 256.279C655.655 255.787 655.363 254.696 655.855 253.843C656.347 252.99 657.438 252.698 658.291 253.19L685.923 269.032C686.776 269.525 687.068 270.616 686.576 271.468C686.246 272.04 685.646 272.361 685.03 272.361Z" fill="url(#paint26_linear_66_1316)"/>
</g>
<path opacity="0.4" d="M613.63 184.8C613.63 182.938 614.949 182.177 616.561 183.108L643.418 198.614C645.031 199.545 646.35 201.83 646.35 203.692L646.349 276.804C646.349 278.666 645.03 279.428 643.417 278.497L616.562 262.992C614.949 262.061 613.63 259.776 613.63 257.914V184.8H613.63Z" fill="url(#paint27_linear_66_1316)"/>
<path opacity="0.4" d="M565.194 320.094L556.992 377.386C552.187 410.982 536.608 436.862 514.32 448.304L505.074 453.048L501.543 454.856L488.731 441C466.37 416.806 450.681 382.021 445.743 345.634L437.323 283.597C459.781 278.453 479.109 263.165 492.698 239.797L501.119 225.322L508.617 242.575L509.041 243.558C522.485 274.522 541.595 300.826 563.81 318.953L565.194 320.094Z" fill="url(#paint28_linear_66_1316)"/>
<path d="M560.328 324.353L552.757 377.289C548.316 408.326 533.684 429.425 513.082 439.993L501.289 446.047L489.447 433.235C468.784 410.886 454.54 381.56 449.978 347.963L442.188 290.635C462.948 285.879 480.796 271.755 493.353 250.159L501.119 236.837C501.131 236.812 501.131 236.801 501.131 236.801L508.447 253.641C520.884 282.251 538.525 306.542 559.042 323.297L560.328 324.353Z" fill="url(#paint29_linear_66_1316)"/>
<path d="M560.328 324.353L552.757 377.289C548.316 408.326 533.684 429.425 513.082 439.993L501.289 446.047C450.839 343.972 500.088 239.008 501.119 236.836C501.131 236.812 501.131 236.8 501.131 236.8L508.447 253.641C520.884 282.251 538.525 306.541 559.042 323.297L560.328 324.353Z" fill="url(#paint30_linear_66_1316)"/>
<path d="M550.237 509.503C553.169 509.503 556.02 507.981 557.591 505.261C559.933 501.204 558.544 496.017 554.486 493.674L444.938 429.877C440.881 427.535 435.693 428.926 433.351 432.981C431.008 437.038 432.398 442.225 436.456 444.568L546.004 508.365C547.34 509.136 548.798 509.503 550.237 509.503Z" fill="url(#paint31_linear_66_1316)"/>
<g opacity="0.4">
<path d="M541.843 497.143C541.843 494.382 543.8 493.253 546.19 494.633C548.581 496.014 550.536 499.402 550.536 502.162C550.536 504.923 548.579 506.052 546.189 504.672C543.798 503.292 541.843 499.904 541.843 497.143Z" fill="url(#paint32_linear_66_1316)"/>
<path d="M524.454 487.702C524.454 484.942 526.411 483.812 528.801 485.193C531.191 486.573 533.147 489.961 533.147 492.721C533.146 495.482 531.19 496.611 528.799 495.231C526.409 493.851 524.453 490.463 524.454 487.702Z" fill="url(#paint33_linear_66_1316)"/>
<path d="M507.065 477.277C507.065 474.516 509.021 473.387 511.412 474.767C513.802 476.147 515.758 479.535 515.758 482.296C515.757 485.056 513.801 486.186 511.411 484.805C509.02 483.425 507.065 480.037 507.065 477.277Z" fill="url(#paint34_linear_66_1316)"/>
<path d="M489.905 467.51C489.905 464.75 491.861 463.621 494.252 465.001C496.642 466.381 498.598 469.769 498.597 472.529C498.597 475.29 496.641 476.419 494.25 475.039C491.86 473.659 489.904 470.271 489.905 467.51Z" fill="url(#paint35_linear_66_1316)"/>
<path d="M471.954 457.191C471.954 454.43 473.91 453.301 476.301 454.681C478.691 456.061 480.647 459.449 480.647 462.209C480.646 464.97 478.69 466.099 476.3 464.719C473.909 463.339 471.953 459.951 471.954 457.191Z" fill="url(#paint36_linear_66_1316)"/>
<path d="M454.638 446.738C454.639 443.978 456.595 442.849 458.985 444.229C461.376 445.609 463.332 448.997 463.331 451.757C463.331 454.518 461.374 455.647 458.984 454.267C456.594 452.887 454.638 449.499 454.638 446.738Z" fill="url(#paint37_linear_66_1316)"/>
<path d="M437.323 436.666C437.324 433.905 439.28 432.776 441.67 434.156C444.061 435.536 446.016 438.924 446.016 441.685C446.016 444.445 444.059 445.574 441.669 444.194C439.279 442.814 437.323 439.427 437.323 436.666Z" fill="url(#paint38_linear_66_1316)"/>
</g>
<path opacity="0.5" d="M349.601 563.03C365.736 563.03 378.816 559.562 378.816 555.283C378.816 551.005 365.736 547.536 349.601 547.536C333.466 547.536 320.386 551.005 320.386 555.283C320.386 559.562 333.466 563.03 349.601 563.03Z" fill="url(#paint39_linear_66_1316)"/>
<path d="M321.793 435.402L334.687 433.022L338.867 452.43L326.441 455.928L321.793 435.402Z" fill="url(#paint40_linear_66_1316)"/>
<path d="M362.339 435.667L363.136 451.881L358.002 471.069L356.226 472.994L360.577 452.826L358.786 435.118L362.339 435.667Z" fill="url(#paint41_linear_66_1316)"/>
<path d="M360.198 473.306L357.902 512.605L360.198 556.135L353.009 554.378L358.346 552.629L353.511 511.682L352.161 473.306H360.198Z" fill="url(#paint42_linear_66_1316)"/>
<path d="M360.079 553.865L358.346 552.629L353.009 554.379L360.198 556.136L360.079 553.865Z" fill="#1D1D1B"/>
<path d="M355.013 477.224L349.864 516.523L352.161 560.053L344.971 558.296L350.309 556.547L345.473 515.599L347.222 477.224H355.013Z" fill="url(#paint43_linear_66_1316)"/>
<path d="M352.041 557.783L350.309 556.547L344.971 558.296L352.161 560.053L352.041 557.783Z" fill="#1D1D1B"/>
<path d="M365.125 478.155C364.176 482.785 362.327 482.34 362.667 487.054L362.7 491.61V491.622L359.464 493.132C357.944 493.841 356.176 493.77 354.718 492.942L352.593 491.712C346.418 488.136 342.015 493.665 342.504 486.546L345.228 446.26C343.023 443.977 341.372 440.003 343.475 437.619L348.178 431.364C350.182 428.699 353.548 427.435 356.811 428.123L359.42 428.673C359.42 428.673 363.493 430.606 362.109 439.728C361.005 447.008 355.789 449.372 359.486 457.066C362.956 464.291 365.986 473.954 365.125 478.155Z" fill="url(#paint44_linear_66_1316)"/>
<path d="M353.801 425.773C356.121 425.773 358.001 423.893 358.001 421.573C358.001 419.253 356.121 417.373 353.801 417.373C351.482 417.373 349.601 419.253 349.601 421.573C349.601 423.893 351.482 425.773 353.801 425.773Z" fill="url(#paint45_linear_66_1316)"/>
<path d="M350.99 415.569C349.792 415.94 349.247 417.332 349.846 418.435C350.845 420.274 352.753 424.065 352.79 426.235C352.816 427.751 352.765 429.356 352.51 430.327C352.337 430.982 352.633 431.665 353.252 431.941C356.45 433.368 363.603 436.079 363.606 431.778C363.607 429.617 361.703 424.102 361.285 421.572C360.518 416.941 358.186 415.701 353.737 415.336C352.641 415.246 351.713 415.345 350.99 415.569Z" fill="#1D1D1B"/>
<path d="M353.41 440.418L346.96 457.065L324.396 450.267L321.793 447.598L323.856 444.593L324.746 447.634L327.35 447.112L325.412 449.272L345.333 453.557L349.372 436.95L353.41 440.418Z" fill="url(#paint46_linear_66_1316)"/>
<path d="M349.83 432.799C348.789 433.763 347.743 435.48 347.749 438.485L354.037 442.006C354.037 442.006 359.165 435.873 353.721 432.499C352.497 431.741 350.887 431.822 349.83 432.799Z" fill="url(#paint47_linear_66_1316)"/>
<path opacity="0.4" d="M236.467 501.541L345.098 438.821L345.095 344.745L236.467 407.462V501.541Z" fill="url(#paint48_linear_66_1316)"/>
<path opacity="0.797939" d="M345.098 329.065L345.095 344.746L236.467 407.462V391.782L345.098 329.065Z" fill="#913276"/>
<g opacity="0.4">
<path d="M247.867 469.919C247.959 469.919 248.053 469.895 248.138 469.846L261.273 462.263C261.533 462.113 261.622 461.781 261.472 461.521C261.321 461.261 260.989 461.172 260.729 461.322L247.594 468.904C247.334 469.054 247.245 469.387 247.395 469.647C247.496 469.821 247.679 469.919 247.867 469.919Z" fill="url(#paint49_linear_66_1316)"/>
</g>
<g opacity="0.4">
<path d="M247.867 473.18C247.959 473.18 248.053 473.156 248.138 473.107L261.273 465.525C261.533 465.374 261.622 465.042 261.472 464.782C261.321 464.522 260.989 464.433 260.729 464.583L247.594 472.166C247.334 472.316 247.245 472.648 247.395 472.908C247.496 473.082 247.679 473.18 247.867 473.18Z" fill="url(#paint50_linear_66_1316)"/>
</g>
<g opacity="0.4">
<path d="M247.867 476.442C247.959 476.442 248.053 476.418 248.138 476.369L261.273 468.786C261.533 468.636 261.622 468.304 261.472 468.044C261.321 467.784 260.989 467.695 260.729 467.845L247.594 475.427C247.334 475.577 247.245 475.91 247.395 476.17C247.496 476.344 247.679 476.442 247.867 476.442Z" fill="url(#paint51_linear_66_1316)"/>
</g>
<g opacity="0.4">
<path d="M247.867 479.703C247.959 479.703 248.053 479.679 248.138 479.63L261.273 472.047C261.533 471.897 261.622 471.565 261.472 471.305C261.321 471.045 260.989 470.956 260.729 471.106L247.594 478.688C247.334 478.838 247.245 479.171 247.395 479.431C247.496 479.605 247.679 479.703 247.867 479.703Z" fill="url(#paint52_linear_66_1316)"/>
</g>
<g opacity="0.4">
<path d="M252.58 480.21C252.672 480.21 252.765 480.187 252.851 480.137L261.272 475.309C261.532 475.159 261.621 474.826 261.471 474.566C261.321 474.306 260.989 474.217 260.729 474.367L252.307 479.196C252.047 479.346 251.958 479.678 252.108 479.938C252.209 480.113 252.391 480.21 252.58 480.21Z" fill="url(#paint53_linear_66_1316)"/>
</g>
<path opacity="0.4" d="M261.544 453.312C261.544 452.694 261.106 452.441 260.571 452.75L251.652 457.899C251.117 458.208 250.679 458.967 250.679 459.586L250.679 463.61C250.679 464.228 251.118 464.481 251.653 464.172L260.571 459.023C261.106 458.714 261.544 457.955 261.544 457.337V453.312Z" fill="url(#paint54_linear_66_1316)"/>
<g opacity="0.7">
<path d="M299.017 445.378C300.316 445.378 301.739 445.098 303.313 444.454C311.24 441.211 313.502 429.254 315.69 417.692C317.457 408.351 319.285 398.692 324.035 396.768C325.332 396.242 326.429 396.319 327.489 397.008C333.481 400.899 335.468 421.531 335.728 429.153C335.753 429.888 336.368 430.464 337.105 430.439C337.841 430.414 338.417 429.797 338.392 429.061C338.292 426.115 337.172 400.118 328.941 394.773C327.162 393.617 325.119 393.453 323.034 394.297C316.936 396.767 315.058 406.69 313.071 417.196C311.015 428.059 308.89 439.292 302.303 441.987C296.452 444.381 293.568 440.387 290.23 435.763C286.884 431.128 282.72 425.361 274.934 430.006C273.154 431.069 271.603 431.396 270.191 431.01C267.011 430.14 264.593 425.696 262.254 421.4C259.696 416.7 257.279 412.261 253.475 411.273C251.655 410.801 249.716 411.204 247.714 412.471C247.092 412.865 246.907 413.688 247.301 414.31C247.694 414.932 248.517 415.117 249.139 414.723C250.513 413.854 251.712 413.568 252.805 413.853C255.491 414.549 257.739 418.679 259.913 422.673C262.519 427.46 265.213 432.41 269.487 433.58C271.606 434.16 273.898 433.728 276.3 432.295C281.725 429.058 284.186 431.944 288.069 437.323C290.718 440.993 293.885 445.378 299.017 445.378Z" fill="#D882B6"/>
</g>
<path opacity="0.4" d="M335.115 389.51C335.115 382.549 330.183 379.7 324.155 383.18C318.127 386.659 313.194 395.202 313.194 402.163C313.194 409.125 318.127 411.973 324.155 408.493C330.183 405.013 335.115 396.471 335.115 389.51Z" fill="#D882B6"/>
<path opacity="0.6" d="M330.288 392.296C330.288 388.402 327.528 386.808 324.155 388.755C320.782 390.702 318.022 395.481 318.022 399.376C318.022 403.271 320.782 404.865 324.155 402.918C327.528 400.971 330.288 396.191 330.288 392.296Z" fill="#D882B6"/>
<path d="M327.15 394.108C327.15 392.206 325.802 391.427 324.155 392.378C322.508 393.329 321.16 395.663 321.16 397.565C321.16 399.468 322.508 400.246 324.155 399.295C325.802 398.344 327.15 396.01 327.15 394.108Z" fill="url(#paint55_linear_66_1316)"/>
<path opacity="0.5" d="M655.385 464.145C670.109 464.145 682.044 460.98 682.044 457.075C682.044 453.171 670.109 450.006 655.385 450.006C640.662 450.006 628.726 453.171 628.726 457.075C628.726 460.98 640.662 464.145 655.385 464.145Z" fill="url(#paint56_linear_66_1316)"/>
<path d="M650.272 457.075L658.37 452.048L657.511 442.982L651.096 375.44L658.251 372.959L658.452 379.865L660.286 443.552L660.539 452.26L660.611 454.754L650.272 457.075Z" fill="url(#paint57_linear_66_1316)"/>
<path d="M660.286 443.551L657.512 442.982L655.375 442.547L649.858 373L658.452 379.864L660.286 443.551Z" fill="#1D1D1B"/>
<path d="M660.539 452.26L660.611 454.754L650.272 457.075L658.37 452.048L660.539 452.26Z" fill="#1D1D1B"/>
<path d="M661.025 458.994L669.123 453.967L668.265 444.901L661.849 377.36L669.004 374.878L669.205 381.784L671.039 445.47L671.292 454.179L671.364 456.673L661.025 458.994Z" fill="url(#paint58_linear_66_1316)"/>
<path d="M671.039 445.47L668.264 444.901L666.129 444.466L660.611 374.919L669.205 381.783L671.039 445.47Z" fill="#1D1D1B"/>
<path d="M671.292 454.179L671.364 456.673L661.025 458.994L669.123 453.967L671.292 454.179Z" fill="#1D1D1B"/>
<path d="M646.942 335.384L636.172 346.703L623.309 328.614L618.002 327.721L614.349 330.369L620.611 332.587C620.611 332.587 629.271 380.438 652.469 344.72L646.942 335.384Z" fill="url(#paint59_linear_66_1316)"/>
<path d="M641.343 341.269L645.357 353.627L655.303 347.389L646.942 335.384L641.343 341.269Z" fill="url(#paint60_linear_66_1316)"/>
<path d="M654.748 332.361L661.025 333.492C666.269 334.436 670.094 338.987 670.12 344.316L672.181 385.149C665.282 388.558 656.968 387.074 651.675 381.489L645.451 374.923L645.3 340.818C644.947 335.596 649.597 331.434 654.748 332.361Z" fill="url(#paint61_linear_66_1316)"/>
<path d="M653.634 348.436L660.113 370.163L645.451 374.922L638.326 353.948L653.634 348.436Z" fill="url(#paint62_linear_66_1316)"/>
<path d="M658.698 329.61C658.698 329.61 658.459 333.682 657.849 334.113C657.239 334.544 654.075 337.924 655.694 331.187C657.312 324.45 658.698 329.61 658.698 329.61Z" fill="url(#paint63_linear_66_1316)"/>
<path d="M655.21 332.417C657.397 332.417 659.169 330.644 659.169 328.457C659.169 326.27 657.397 324.498 655.21 324.498C653.023 324.498 651.25 326.27 651.25 328.457C651.25 330.644 653.023 332.417 655.21 332.417Z" fill="url(#paint64_linear_66_1316)"/>
<path d="M651.576 326.884C651.576 326.884 636.869 319.535 639.381 313.118C641.892 306.701 660.113 327.333 660.113 327.333L658.634 330.444C658.634 330.444 658.842 327.844 657.769 328.445C656.695 329.045 656.964 331.052 656.964 331.052L656.253 328.452L651.576 326.884Z" fill="#1D1D1B"/>
<path d="M655.225 366.488L654.309 368.824L651.263 362.044L667.776 361.768L664.109 350.406L667.656 337.417C671.189 341.414 673.887 346.032 675.019 349.537C684.617 379.247 666.461 369.387 659.196 365.114C657.731 364.252 655.846 364.906 655.225 366.488Z" fill="url(#paint65_linear_66_1316)"/>
<path d="M675.375 348.313L665.748 355.255L662.906 346.843C662.754 346.181 662.541 345.536 662.349 344.884C661.477 341.934 664.468 336.816 667.657 337.417C671.19 341.414 673.696 345.035 675.375 348.313Z" fill="url(#paint66_linear_66_1316)"/>
<path opacity="0.4" d="M627.19 367.169L584.41 342.469L584.411 305.421L627.19 330.12V367.169Z" fill="url(#paint67_linear_66_1316)"/>
<g opacity="0.4">
<path d="M588.887 318.756V342.119L594.705 345.478L594.706 321.962L588.887 318.756Z" fill="url(#paint68_linear_66_1316)"/>
<path d="M597.615 332.419V347.341L603.434 350.518V335.779L597.615 332.419Z" fill="url(#paint69_linear_66_1316)"/>
<path d="M606.203 331.889V352.229L612.022 355.406V335.249L606.203 331.889Z" fill="url(#paint70_linear_66_1316)"/>
<path d="M615.109 330.356V357.199L620.89 360.596L620.928 333.717L615.109 330.356Z" fill="url(#paint71_linear_66_1316)"/>
</g>
<path opacity="0.4" d="M584.41 299.246L584.411 305.421L627.19 330.12V323.945L584.41 299.246Z" fill="url(#paint72_linear_66_1316)"/>
<path opacity="0.5" d="M174.843 430.364C188.368 430.364 199.332 427.456 199.332 423.87C199.332 420.283 188.368 417.376 174.843 417.376C161.319 417.376 150.355 420.283 150.355 423.87C150.355 427.456 161.319 430.364 174.843 430.364Z" fill="url(#paint73_linear_66_1316)"/>
<path d="M179.54 423.87L172.101 419.252L172.89 410.925L178.783 348.883L172.21 346.604L172.026 352.947L170.341 411.448L170.109 419.447L170.043 421.737L179.54 423.87Z" fill="url(#paint74_linear_66_1316)"/>
<path d="M170.341 411.447L172.89 410.925L174.852 410.525L179.92 346.641L172.026 352.946L170.341 411.447Z" fill="#1D1D1B"/>
<path d="M170.109 419.447L170.043 421.737L179.54 423.87L172.101 419.252L170.109 419.447Z" fill="#1D1D1B"/>
<path d="M169.663 425.633L162.224 421.015L163.013 412.688L168.906 350.646L162.333 348.367L162.148 354.71L160.464 413.211L160.232 421.21L160.165 423.501L169.663 425.633Z" fill="url(#paint75_linear_66_1316)"/>
<path d="M160.464 413.21L163.013 412.687L164.975 412.287L170.043 348.404L162.148 354.709L160.464 413.21Z" fill="#1D1D1B"/>
<path d="M160.232 421.21L160.165 423.501L169.663 425.633L162.224 421.015L160.232 421.21Z" fill="#1D1D1B"/>
<path d="M187.742 325.166L184.055 328.846L174.919 323.116L182.598 312.089L187.742 325.166Z" fill="url(#paint76_linear_66_1316)"/>
<path d="M175.428 309.313L169.662 310.351C164.845 311.218 161.332 315.399 161.308 320.294L159.415 357.801C165.752 360.933 173.389 359.57 178.251 354.44L183.968 348.408L184.107 317.081C184.431 312.284 180.16 308.461 175.428 309.313Z" fill="url(#paint77_linear_66_1316)"/>
<path d="M176.452 324.078L170.5 344.036L183.968 348.407L190.513 329.141L176.452 324.078Z" fill="url(#paint78_linear_66_1316)"/>
<path d="M171.801 306.785C171.801 306.785 172.02 310.525 172.58 310.921C173.14 311.317 176.046 314.422 174.56 308.233C173.073 302.045 171.801 306.785 171.801 306.785Z" fill="url(#paint79_linear_66_1316)"/>
<path d="M175.004 309.363C177.013 309.363 178.641 307.735 178.641 305.726C178.641 303.717 177.013 302.089 175.004 302.089C172.995 302.089 171.367 303.717 171.367 305.726C171.367 307.735 172.995 309.363 175.004 309.363Z" fill="url(#paint80_linear_66_1316)"/>
<path d="M174.99 340.66L175.832 342.806L178.629 336.578L163.461 336.325L166.829 325.888L163.571 313.956C160.326 317.627 157.847 321.87 156.808 325.089C147.991 352.38 164.669 343.323 171.343 339.397C172.688 338.606 174.42 339.206 174.99 340.66Z" fill="url(#paint81_linear_66_1316)"/>
<path d="M156.481 323.965L165.324 330.341L167.935 322.615C168.074 322.006 168.27 321.414 168.447 320.815C169.247 318.105 166.5 313.404 163.571 313.956C160.326 317.627 158.023 320.954 156.481 323.965Z" fill="url(#paint82_linear_66_1316)"/>
<path d="M182.049 298.618C182.049 301.632 180.746 304.479 178.6 306.274C178.635 305.94 178.641 305.744 178.626 305.42L176.013 305.474C176.013 305.474 175.569 306.47 175.007 306.412C174.438 306.354 174.342 307.397 174.342 307.397C174.342 307.397 173.487 304.896 173.131 306.733C172.946 307.687 173.583 308.252 173.583 308.252C173.583 308.252 173.146 308.859 172.263 308.859C166.856 308.859 162.477 304.018 162.477 298.618C162.477 293.211 166.855 288.833 172.262 288.833C177.663 288.833 182.049 293.211 182.049 298.618Z" fill="#1D1D1B"/>
<path opacity="0.5" d="M581.526 543.556C581.526 543.556 587.327 577.623 610.145 574.865L682.64 532.346C691.461 527.549 690.14 519.025 681.6 513.743L672.689 508.232L581.526 543.556Z" fill="url(#paint83_linear_66_1316)"/>
<path d="M655.502 479.926L655.501 470.995L678.704 484.392L670.905 488.894L655.502 479.926Z" fill="url(#paint84_linear_66_1316)"/>
<path d="M678.704 501.112V484.392L601.36 529.046V555.838L669.981 516.22C675.379 513.104 678.704 507.345 678.704 501.112Z" fill="url(#paint85_linear_66_1316)"/>
<path d="M586.606 547.32L601.36 555.838V529.046L578.158 515.649V532.687C578.158 538.723 581.378 544.301 586.606 547.32Z" fill="url(#paint86_linear_66_1316)"/>
<path d="M578.158 515.649L655.501 470.995L655.502 479.926L585.892 520.115L578.158 515.649Z" fill="url(#paint87_linear_66_1316)"/>
<path d="M670.905 488.894L655.502 479.926L585.892 520.114L601.36 529.046L670.905 488.894Z" fill="url(#paint88_linear_66_1316)"/>
<path d="M655.501 492.659C655.501 492.659 649.275 475.219 636.27 480.629C623.265 486.039 639.662 499.453 621.947 490.367C604.232 481.281 608.394 519.443 608.394 519.443L655.501 492.659Z" fill="url(#paint89_linear_66_1316)"/>
<path d="M661.212 489.412C661.212 489.412 660.537 466.48 650.069 467.637C639.601 468.794 653.954 504.512 639.346 489.253C624.737 473.995 628.855 506.708 614.263 502.697C599.672 498.686 590.087 475.703 589.181 500.48C588.275 525.256 601.281 523.488 601.281 523.488L661.212 489.412Z" fill="url(#paint90_linear_66_1316)"/>
<path opacity="0.5" d="M126.357 521.763C126.357 521.763 120.556 555.829 97.7376 553.072L25.2432 510.552C16.4216 505.756 17.7433 497.231 26.2832 491.949L35.1944 486.438L126.357 521.763Z" fill="url(#paint91_linear_66_1316)"/>
<path d="M52.3809 458.132L52.3824 449.202L29.1792 462.598L36.9781 467.101L52.3809 458.132Z" fill="url(#paint92_linear_66_1316)"/>
<path d="M29.1792 479.319V462.598L106.523 507.253V534.044L37.9019 494.427C32.5041 491.31 29.1792 485.551 29.1792 479.319Z" fill="url(#paint93_linear_66_1316)"/>
<path d="M121.277 525.526L106.523 534.044V507.253L129.725 493.856V510.893C129.725 516.93 126.505 522.508 121.277 525.526Z" fill="url(#paint94_linear_66_1316)"/>
<path d="M129.725 493.856L52.3824 449.202L52.381 458.132L121.991 498.321L129.725 493.856Z" fill="url(#paint95_linear_66_1316)"/>
<path d="M36.9781 467.101L52.381 458.132L121.991 498.321L106.523 507.253L36.9781 467.101Z" fill="url(#paint96_linear_66_1316)"/>
<path d="M52.3825 470.866C52.3825 470.866 58.6079 453.425 71.6131 458.836C84.6183 464.246 68.2211 477.66 85.9359 468.574C103.651 459.487 99.4888 497.65 99.4888 497.65L52.3825 470.866Z" fill="url(#paint97_linear_66_1316)"/>
<path d="M46.6714 467.619C46.6714 467.619 47.3465 444.686 57.8143 445.843C68.2821 447.001 53.9289 482.719 68.5376 467.46C83.1462 452.201 79.0286 484.914 93.62 480.903C108.211 476.892 117.796 453.909 118.702 478.686C119.609 503.463 106.602 501.694 106.602 501.694L46.6714 467.619Z" fill="url(#paint98_linear_66_1316)"/>
<defs>
<linearGradient id="paint0_linear_66_1316" x1="97.7738" y1="261.875" x2="97.6589" y2="257.606" gradientUnits="userSpaceOnUse">
<stop stop-color="#F6F6F6"/>
<stop offset="1" stop-color="#CCD5ED"/>
</linearGradient>
<linearGradient id="paint1_linear_66_1316" x1="73.2216" y1="185.731" x2="29.987" y2="215.294" gradientUnits="userSpaceOnUse">
<stop stop-color="#F6F6F6"/>
<stop offset="1" stop-color="#CCD5ED"/>
</linearGradient>
<linearGradient id="paint2_linear_66_1316" x1="71.1608" y1="202.265" x2="98.0958" y2="202.265" gradientUnits="userSpaceOnUse">
<stop stop-color="#F6F6F6"/>
<stop offset="1" stop-color="#CCD5ED"/>
</linearGradient>
<linearGradient id="paint3_linear_66_1316" x1="53.5188" y1="193.7" x2="53.4914" y2="206.157" gradientUnits="userSpaceOnUse">
<stop stop-color="#4790CD"/>
<stop offset="1" stop-color="#EA6FAA"/>
</linearGradient>
<linearGradient id="paint4_linear_66_1316" x1="83.0391" y1="73.3403" x2="63.3776" y2="76.6315" gradientUnits="userSpaceOnUse">
<stop stop-color="#4790CD"/>
<stop offset="1" stop-color="#EA6FAA"/>
</linearGradient>
<linearGradient id="paint5_linear_66_1316" x1="64.3649" y1="143.353" x2="90.3083" y2="195.648" gradientUnits="userSpaceOnUse">
<stop stop-color="#4790CD"/>
<stop offset="1" stop-color="#EA6FAA"/>
</linearGradient>
<linearGradient id="paint6_linear_66_1316" x1="81.6822" y1="189.79" x2="103.129" y2="194.916" gradientUnits="userSpaceOnUse">
<stop stop-color="#4790CD"/>
<stop offset="1" stop-color="#EA6FAA"/>
</linearGradient>
<linearGradient id="paint7_linear_66_1316" x1="143.43" y1="120.23" x2="143.43" y2="169.38" gradientUnits="userSpaceOnUse">
<stop stop-color="#F6F6F6"/>
<stop offset="1" stop-color="#CCD5ED"/>
</linearGradient>
<linearGradient id="paint8_linear_66_1316" x1="223.118" y1="211.161" x2="123.615" y2="157.5" gradientUnits="userSpaceOnUse">
<stop stop-color="#F6F6F6"/>
<stop offset="1" stop-color="#CCD5ED"/>
</linearGradient>
<linearGradient id="paint9_linear_66_1316" x1="223.48" y1="166.991" x2="223.48" y2="242.951" gradientUnits="userSpaceOnUse">
<stop stop-color="#F6F6F6"/>
<stop offset="1" stop-color="#CCD5ED"/>
</linearGradient>
<linearGradient id="paint10_linear_66_1316" x1="149.942" y1="219.904" x2="173.885" y2="249.627" gradientUnits="userSpaceOnUse">
<stop stop-color="#4790CD"/>
<stop offset="1" stop-color="#DA62A5"/>
</linearGradient>
<linearGradient id="paint11_linear_66_1316" x1="567.482" y1="295.575" x2="567.187" y2="131.005" gradientUnits="userSpaceOnUse">
<stop stop-color="#F6F6F6"/>
<stop offset="1" stop-color="#CCD5ED"/>
</linearGradient>
<linearGradient id="paint12_linear_66_1316" x1="453.962" y1="328.719" x2="453.541" y2="196.388" gradientUnits="userSpaceOnUse">
<stop stop-color="#F6F6F6"/>
<stop offset="1" stop-color="#CCD5ED"/>
</linearGradient>
<linearGradient id="paint13_linear_66_1316" x1="415.797" y1="123.983" x2="347.28" y2="365.382" gradientUnits="userSpaceOnUse">
<stop stop-color="#F6F6F6"/>
<stop offset="1" stop-color="#CCD5ED"/>
</linearGradient>
<linearGradient id="paint14_linear_66_1316" x1="567.482" y1="229.869" x2="567.187" y2="65.2985" gradientUnits="userSpaceOnUse">
<stop stop-color="#F6F6F6"/>
<stop offset="1" stop-color="#CCD5ED"/>
</linearGradient>
<linearGradient id="paint15_linear_66_1316" x1="453.962" y1="263.013" x2="453.541" y2="130.682" gradientUnits="userSpaceOnUse">
<stop stop-color="#F6F6F6"/>
<stop offset="1" stop-color="#CCD5ED"/>
</linearGradient>
<linearGradient id="paint16_linear_66_1316" x1="415.797" y1="58.2778" x2="347.28" y2="299.676" gradientUnits="userSpaceOnUse">
<stop stop-color="#F6F6F6"/>
<stop offset="1" stop-color="#CCD5ED"/>
</linearGradient>
<linearGradient id="paint17_linear_66_1316" x1="567.482" y1="164.163" x2="567.187" y2="-0.407073" gradientUnits="userSpaceOnUse">
<stop stop-color="#F6F6F6"/>
<stop offset="1" stop-color="#CCD5ED"/>
</linearGradient>
<linearGradient id="paint18_linear_66_1316" x1="453.962" y1="197.307" x2="453.541" y2="64.9763" gradientUnits="userSpaceOnUse">
<stop stop-color="#F6F6F6"/>
<stop offset="1" stop-color="#CCD5ED"/>
</linearGradient>
<linearGradient id="paint19_linear_66_1316" x1="415.797" y1="-7.42819" x2="347.28" y2="233.97" gradientUnits="userSpaceOnUse">
<stop stop-color="#F6F6F6"/>
<stop offset="1" stop-color="#CCD5ED"/>
</linearGradient>
<linearGradient id="paint20_linear_66_1316" x1="283.006" y1="73.8071" x2="352.47" y2="153.417" gradientUnits="userSpaceOnUse">
<stop stop-color="#F6F6F6"/>
<stop offset="1" stop-color="#CCD5ED"/>
</linearGradient>
<linearGradient id="paint21_linear_66_1316" x1="688.337" y1="145.733" x2="568.192" y2="169.262" gradientUnits="userSpaceOnUse">
<stop stop-color="#4790CD"/>
<stop offset="1" stop-color="#DA62A5"/>
</linearGradient>
<linearGradient id="paint22_linear_66_1316" x1="666.341" y1="214.217" x2="664.818" y2="232.268" gradientUnits="userSpaceOnUse">
<stop stop-color="#4790CD"/>
<stop offset="1" stop-color="#DA62A5"/>
</linearGradient>
<linearGradient id="paint23_linear_66_1316" x1="666.341" y1="224.918" x2="664.818" y2="242.969" gradientUnits="userSpaceOnUse">
<stop stop-color="#4790CD"/>
<stop offset="1" stop-color="#DA62A5"/>
</linearGradient>
<linearGradient id="paint24_linear_66_1316" x1="666.341" y1="235.619" x2="664.818" y2="253.67" gradientUnits="userSpaceOnUse">
<stop stop-color="#4790CD"/>
<stop offset="1" stop-color="#DA62A5"/>
</linearGradient>
<linearGradient id="paint25_linear_66_1316" x1="666.341" y1="246.32" x2="664.818" y2="264.371" gradientUnits="userSpaceOnUse">
<stop stop-color="#4790CD"/>
<stop offset="1" stop-color="#DA62A5"/>
</linearGradient>
<linearGradient id="paint26_linear_66_1316" x1="662.531" y1="255.477" x2="661.413" y2="268.211" gradientUnits="userSpaceOnUse">
<stop stop-color="#4790CD"/>
<stop offset="1" stop-color="#DA62A5"/>
</linearGradient>
<linearGradient id="paint27_linear_66_1316" x1="591.716" y1="-106.439" x2="317.882" y2="-16.375" gradientUnits="userSpaceOnUse">
<stop stop-color="#4790CD"/>
<stop offset="1" stop-color="#DA62A5"/>
</linearGradient>
<linearGradient id="paint28_linear_66_1316" x1="437.323" y1="454.855" x2="565.194" y2="454.855" gradientUnits="userSpaceOnUse">
<stop stop-color="#4790CD"/>
<stop offset="1" stop-color="#DA62A5"/>
</linearGradient>
<linearGradient id="paint29_linear_66_1316" x1="442.884" y1="280.601" x2="525.446" y2="390.519" gradientUnits="userSpaceOnUse">
<stop stop-color="#F6F6F6"/>
<stop offset="1" stop-color="#CCD5ED"/>
</linearGradient>
<linearGradient id="paint30_linear_66_1316" x1="495.746" y1="364.849" x2="550.845" y2="391.688" gradientUnits="userSpaceOnUse">
<stop stop-color="#F6F6F6"/>
<stop offset="1" stop-color="#CCD5ED"/>
</linearGradient>
<linearGradient id="paint31_linear_66_1316" x1="430.746" y1="428.412" x2="431.135" y2="510.442" gradientUnits="userSpaceOnUse">
<stop stop-color="#F6F6F6"/>
<stop offset="1" stop-color="#CCD5ED"/>
</linearGradient>
<linearGradient id="paint32_linear_66_1316" x1="378.19" y1="471.631" x2="494.525" y2="519.873" gradientUnits="userSpaceOnUse">
<stop stop-color="#4790CD"/>
<stop offset="1" stop-color="#DA62A5"/>
</linearGradient>
<linearGradient id="paint33_linear_66_1316" x1="376.992" y1="473.371" x2="493.329" y2="521.608" gradientUnits="userSpaceOnUse">
<stop stop-color="#4790CD"/>
<stop offset="1" stop-color="#DA62A5"/>
</linearGradient>
<linearGradient id="paint34_linear_66_1316" x1="376.254" y1="474.44" x2="492.59" y2="522.677" gradientUnits="userSpaceOnUse">
<stop stop-color="#4790CD"/>
<stop offset="1" stop-color="#DA62A5"/>
</linearGradient>
<linearGradient id="paint35_linear_66_1316" x1="375.28" y1="475.847" x2="491.616" y2="524.087" gradientUnits="userSpaceOnUse">
<stop stop-color="#4790CD"/>
<stop offset="1" stop-color="#DA62A5"/>
</linearGradient>
<linearGradient id="paint36_linear_66_1316" x1="374.311" y1="477.25" x2="490.647" y2="525.491" gradientUnits="userSpaceOnUse">
<stop stop-color="#4790CD"/>
<stop offset="1" stop-color="#DA62A5"/>
</linearGradient>
<linearGradient id="paint37_linear_66_1316" x1="373.61" y1="478.269" x2="489.947" y2="526.507" gradientUnits="userSpaceOnUse">
<stop stop-color="#4790CD"/>
<stop offset="1" stop-color="#DA62A5"/>
</linearGradient>
<linearGradient id="paint38_linear_66_1316" x1="372.73" y1="479.541" x2="489.066" y2="527.782" gradientUnits="userSpaceOnUse">
<stop stop-color="#4790CD"/>
<stop offset="1" stop-color="#DA62A5"/>
</linearGradient>
<linearGradient id="paint39_linear_66_1316" x1="286.304" y1="505.409" x2="286.304" y2="538.979" gradientUnits="userSpaceOnUse">
<stop stop-color="#F6F6F6"/>
<stop offset="1" stop-color="#CCD5ED"/>
</linearGradient>
<linearGradient id="paint40_linear_66_1316" x1="309.325" y1="428.876" x2="328.383" y2="455.039" gradientUnits="userSpaceOnUse">
<stop stop-color="#4790CD"/>
<stop offset="1" stop-color="#DA62A5"/>
</linearGradient>
<linearGradient id="paint41_linear_66_1316" x1="361.891" y1="451.987" x2="347.828" y2="439.37" gradientUnits="userSpaceOnUse">
<stop stop-color="#FAD6C7"/>
<stop offset="1" stop-color="#E4857F"/>
</linearGradient>
<linearGradient id="paint42_linear_66_1316" x1="360.034" y1="513.97" x2="347" y2="511.474" gradientUnits="userSpaceOnUse">
<stop stop-color="#FAD6C7"/>
<stop offset="1" stop-color="#E4857F"/>
</linearGradient>
<linearGradient id="paint43_linear_66_1316" x1="352.426" y1="502.963" x2="330.502" y2="483.95" gradientUnits="userSpaceOnUse">
<stop stop-color="#FAD6C7"/>
<stop offset="1" stop-color="#E4857F"/>
</linearGradient>
<linearGradient id="paint44_linear_66_1316" x1="365.953" y1="493.271" x2="357.656" y2="425.653" gradientUnits="userSpaceOnUse">
<stop stop-color="#F6F6F6"/>
<stop offset="1" stop-color="#CCD5ED"/>
</linearGradient>
<linearGradient id="paint45_linear_66_1316" x1="364.041" y1="429.356" x2="367.319" y2="407.072" gradientUnits="userSpaceOnUse">
<stop stop-color="#FAD6C7"/>
<stop offset="1" stop-color="#E4857F"/>
</linearGradient>
<linearGradient id="paint46_linear_66_1316" x1="348.525" y1="453.094" x2="350.426" y2="436.219" gradientUnits="userSpaceOnUse">
<stop stop-color="#FAD6C7"/>
<stop offset="1" stop-color="#E4857F"/>
</linearGradient>
<linearGradient id="paint47_linear_66_1316" x1="355.7" y1="440.889" x2="355.49" y2="432.259" gradientUnits="userSpaceOnUse">
<stop stop-color="#F6F6F6"/>
<stop offset="1" stop-color="#CCD5ED"/>
</linearGradient>
<linearGradient id="paint48_linear_66_1316" x1="229.429" y1="486.948" x2="347.976" y2="510.164" gradientUnits="userSpaceOnUse">
<stop stop-color="#4790CD"/>
<stop offset="1" stop-color="#DA62A5"/>
</linearGradient>
<linearGradient id="paint49_linear_66_1316" x1="249.357" y1="463.241" x2="249.821" y2="468.743" gradientUnits="userSpaceOnUse">
<stop stop-color="#4790CD"/>
<stop offset="1" stop-color="#DA62A5"/>
</linearGradient>
<linearGradient id="paint50_linear_66_1316" x1="249.357" y1="466.503" x2="249.821" y2="472.004" gradientUnits="userSpaceOnUse">
<stop stop-color="#4790CD"/>
<stop offset="1" stop-color="#DA62A5"/>
</linearGradient>
<linearGradient id="paint51_linear_66_1316" x1="249.357" y1="469.764" x2="249.821" y2="475.266" gradientUnits="userSpaceOnUse">
<stop stop-color="#4790CD"/>
<stop offset="1" stop-color="#DA62A5"/>
</linearGradient>
<linearGradient id="paint52_linear_66_1316" x1="249.357" y1="473.026" x2="249.821" y2="478.527" gradientUnits="userSpaceOnUse">
<stop stop-color="#4790CD"/>
<stop offset="1" stop-color="#DA62A5"/>
</linearGradient>
<linearGradient id="paint53_linear_66_1316" x1="253.273" y1="475.606" x2="253.614" y2="479.487" gradientUnits="userSpaceOnUse">
<stop stop-color="#4790CD"/>
<stop offset="1" stop-color="#DA62A5"/>
</linearGradient>
<linearGradient id="paint54_linear_66_1316" x1="232.432" y1="456.297" x2="249.644" y2="498.59" gradientUnits="userSpaceOnUse">
<stop stop-color="#4790CD"/>
<stop offset="1" stop-color="#DA62A5"/>
</linearGradient>
<linearGradient id="paint55_linear_66_1316" x1="319.301" y1="392.625" x2="323.009" y2="401.534" gradientUnits="userSpaceOnUse">
<stop stop-color="#F6F6F6"/>
<stop offset="1" stop-color="#CCD5ED"/>
</linearGradient>
<linearGradient id="paint56_linear_66_1316" x1="597.625" y1="411.564" x2="597.625" y2="442.197" gradientUnits="userSpaceOnUse">
<stop stop-color="#F6F6F6"/>
<stop offset="1" stop-color="#CCD5ED"/>
</linearGradient>
<linearGradient id="paint57_linear_66_1316" x1="656.648" y1="456.464" x2="670.162" y2="449.561" gradientUnits="userSpaceOnUse">
<stop stop-color="#FAD6C7"/>
<stop offset="1" stop-color="#E4857F"/>
</linearGradient>
<linearGradient id="paint58_linear_66_1316" x1="667.401" y1="458.383" x2="680.915" y2="451.48" gradientUnits="userSpaceOnUse">
<stop stop-color="#FAD6C7"/>
<stop offset="1" stop-color="#E4857F"/>
</linearGradient>
<linearGradient id="paint59_linear_66_1316" x1="568.098" y1="329.623" x2="566.775" y2="433.434" gradientUnits="userSpaceOnUse">
<stop stop-color="#FAD6C7"/>
<stop offset="1" stop-color="#E4857F"/>
</linearGradient>
<linearGradient id="paint60_linear_66_1316" x1="624.14" y1="336.046" x2="621.944" y2="399.53" gradientUnits="userSpaceOnUse">
<stop stop-color="#4790CD"/>
<stop offset="1" stop-color="#DA62A5"/>
</linearGradient>
<linearGradient id="paint61_linear_66_1316" x1="670.127" y1="380.743" x2="674.744" y2="332.969" gradientUnits="userSpaceOnUse">
<stop stop-color="#F6F6F6"/>
<stop offset="1" stop-color="#CCD5ED"/>
</linearGradient>
<linearGradient id="paint62_linear_66_1316" x1="627.101" y1="347.344" x2="644.976" y2="376.432" gradientUnits="userSpaceOnUse">
<stop stop-color="#4790CD"/>
<stop offset="1" stop-color="#DA62A5"/>
</linearGradient>
<linearGradient id="paint63_linear_66_1316" x1="657.678" y1="334.651" x2="657.602" y2="331.45" gradientUnits="userSpaceOnUse">
<stop stop-color="#FAD6C7"/>
<stop offset="1" stop-color="#E4857F"/>
</linearGradient>
<linearGradient id="paint64_linear_66_1316" x1="657.449" y1="330.284" x2="657.857" y2="325.528" gradientUnits="userSpaceOnUse">
<stop stop-color="#FAD6C7"/>
<stop offset="1" stop-color="#E4857F"/>
</linearGradient>
<linearGradient id="paint65_linear_66_1316" x1="619.024" y1="338.592" x2="615.513" y2="452.052" gradientUnits="userSpaceOnUse">
<stop stop-color="#FAD6C7"/>
<stop offset="1" stop-color="#E4857F"/>
</linearGradient>
<linearGradient id="paint66_linear_66_1316" x1="645.959" y1="337.99" x2="643.637" y2="400.217" gradientUnits="userSpaceOnUse">
<stop stop-color="#4790CD"/>
<stop offset="1" stop-color="#DA62A5"/>
</linearGradient>
<linearGradient id="paint67_linear_66_1316" x1="617.273" y1="296.629" x2="570.587" y2="305.772" gradientUnits="userSpaceOnUse">
<stop stop-color="#4790CD"/>
<stop offset="1" stop-color="#DA62A5"/>
</linearGradient>
<linearGradient id="paint68_linear_66_1316" x1="578.313" y1="310.033" x2="573.541" y2="309.847" gradientUnits="userSpaceOnUse">
<stop stop-color="#4790CD"/>
<stop offset="1" stop-color="#DA62A5"/>
</linearGradient>
<linearGradient id="paint69_linear_66_1316" x1="577.344" y1="314.891" x2="572.426" y2="314.475" gradientUnits="userSpaceOnUse">
<stop stop-color="#4790CD"/>
<stop offset="1" stop-color="#DA62A5"/>
</linearGradient>
<linearGradient id="paint70_linear_66_1316" x1="579.58" y1="309.83" x2="574.769" y2="309.589" gradientUnits="userSpaceOnUse">
<stop stop-color="#4790CD"/>
<stop offset="1" stop-color="#DA62A5"/>
</linearGradient>
<linearGradient id="paint71_linear_66_1316" x1="582.204" y1="303.819" x2="577.461" y2="303.675" gradientUnits="userSpaceOnUse">
<stop stop-color="#4790CD"/>
<stop offset="1" stop-color="#DA62A5"/>
</linearGradient>
<linearGradient id="paint72_linear_66_1316" x1="603.472" y1="296.059" x2="603.142" y2="302.183" gradientUnits="userSpaceOnUse">
<stop stop-color="#4790CD"/>
<stop offset="1" stop-color="#DA62A5"/>
</linearGradient>
<linearGradient id="paint73_linear_66_1316" x1="121.788" y1="382.065" x2="121.788" y2="410.204" gradientUnits="userSpaceOnUse">
<stop stop-color="#F6F6F6"/>
<stop offset="1" stop-color="#CCD5ED"/>
</linearGradient>
<linearGradient id="paint74_linear_66_1316" x1="177.234" y1="416.35" x2="164.821" y2="410.009" gradientUnits="userSpaceOnUse">
<stop stop-color="#FAD6C7"/>
<stop offset="1" stop-color="#E4857F"/>
</linearGradient>
<linearGradient id="paint75_linear_66_1316" x1="167.357" y1="418.113" x2="154.943" y2="411.772" gradientUnits="userSpaceOnUse">
<stop stop-color="#FAD6C7"/>
<stop offset="1" stop-color="#E4857F"/>
</linearGradient>
<linearGradient id="paint76_linear_66_1316" x1="158.81" y1="314.253" x2="160.826" y2="372.568" gradientUnits="userSpaceOnUse">
<stop stop-color="#4790CD"/>
<stop offset="1" stop-color="#DA62A5"/>
</linearGradient>
<linearGradient id="paint77_linear_66_1316" x1="183.013" y1="351.666" x2="178.771" y2="307.782" gradientUnits="userSpaceOnUse">
<stop stop-color="#F6F6F6"/>
<stop offset="1" stop-color="#CCD5ED"/>
</linearGradient>
<linearGradient id="paint78_linear_66_1316" x1="176.708" y1="308.256" x2="160.288" y2="334.975" gradientUnits="userSpaceOnUse">
<stop stop-color="#4790CD"/>
<stop offset="1" stop-color="#DA62A5"/>
</linearGradient>
<linearGradient id="paint79_linear_66_1316" x1="174.063" y1="311.458" x2="174.133" y2="308.518" gradientUnits="userSpaceOnUse">
<stop stop-color="#FAD6C7"/>
<stop offset="1" stop-color="#E4857F"/>
</linearGradient>
<linearGradient id="paint80_linear_66_1316" x1="177.316" y1="307.03" x2="176.942" y2="302.661" gradientUnits="userSpaceOnUse">
<stop stop-color="#FAD6C7"/>
<stop offset="1" stop-color="#E4857F"/>
</linearGradient>
<linearGradient id="paint81_linear_66_1316" x1="123.886" y1="317.656" x2="127.111" y2="421.878" gradientUnits="userSpaceOnUse">
<stop stop-color="#FAD6C7"/>
<stop offset="1" stop-color="#E4857F"/>
</linearGradient>
<linearGradient id="paint82_linear_66_1316" x1="141.349" y1="316.066" x2="143.481" y2="373.225" gradientUnits="userSpaceOnUse">
<stop stop-color="#4790CD"/>
<stop offset="1" stop-color="#DA62A5"/>
</linearGradient>
<linearGradient id="paint83_linear_66_1316" x1="650.749" y1="585.399" x2="650.283" y2="571.434" gradientUnits="userSpaceOnUse">
<stop stop-color="#F6F6F6"/>
<stop offset="1" stop-color="#CCD5ED"/>
</linearGradient>
<linearGradient id="paint84_linear_66_1316" x1="653.151" y1="468.665" x2="653.151" y2="490.189" gradientUnits="userSpaceOnUse">
<stop stop-color="#F6F6F6"/>
<stop offset="1" stop-color="#CCD5ED"/>
</linearGradient>
<linearGradient id="paint85_linear_66_1316" x1="615.824" y1="505.617" x2="626.809" y2="533.856" gradientUnits="userSpaceOnUse">
<stop stop-color="#F6F6F6"/>
<stop offset="1" stop-color="#CCD5ED"/>
</linearGradient>
<linearGradient id="paint86_linear_66_1316" x1="582.941" y1="529.538" x2="581.725" y2="553.457" gradientUnits="userSpaceOnUse">
<stop stop-color="#F6F6F6"/>
<stop offset="1" stop-color="#CCD5ED"/>
</linearGradient>
<linearGradient id="paint87_linear_66_1316" x1="591.329" y1="485.254" x2="568.411" y2="526.779" gradientUnits="userSpaceOnUse">
<stop stop-color="#F6F6F6"/>
<stop offset="1" stop-color="#CCD5ED"/>
</linearGradient>
<linearGradient id="paint88_linear_66_1316" x1="519.648" y1="485.659" x2="533.762" y2="601.68" gradientUnits="userSpaceOnUse">
<stop stop-color="#4790CD"/>
<stop offset="1" stop-color="#EA6FAA"/>
</linearGradient>
<linearGradient id="paint89_linear_66_1316" x1="594.884" y1="470.359" x2="600.111" y2="478.855" gradientUnits="userSpaceOnUse">
<stop stop-color="#4790CD"/>
<stop offset="1" stop-color="#EA6FAA"/>
</linearGradient>
<linearGradient id="paint90_linear_66_1316" x1="537.171" y1="473.166" x2="577.389" y2="568.111" gradientUnits="userSpaceOnUse">
<stop stop-color="#4790CD"/>
<stop offset="1" stop-color="#EA6FAA"/>
</linearGradient>
<linearGradient id="paint91_linear_66_1316" x1="79.4957" y1="564.351" x2="79.961" y2="550.385" gradientUnits="userSpaceOnUse">
<stop stop-color="#F6F6F6"/>
<stop offset="1" stop-color="#CCD5ED"/>
</linearGradient>
<linearGradient id="paint92_linear_66_1316" x1="26.8297" y1="446.872" x2="26.8297" y2="468.395" gradientUnits="userSpaceOnUse">
<stop stop-color="#F6F6F6"/>
<stop offset="1" stop-color="#CCD5ED"/>
</linearGradient>
<linearGradient id="paint93_linear_66_1316" x1="62.1637" y1="472.194" x2="51.1785" y2="500.433" gradientUnits="userSpaceOnUse">
<stop stop-color="#F6F6F6"/>
<stop offset="1" stop-color="#CCD5ED"/>
</linearGradient>
<linearGradient id="paint94_linear_66_1316" x1="111.109" y1="508.447" x2="112.325" y2="532.367" gradientUnits="userSpaceOnUse">
<stop stop-color="#F6F6F6"/>
<stop offset="1" stop-color="#CCD5ED"/>
</linearGradient>
<linearGradient id="paint95_linear_66_1316" x1="67.9542" y1="490.283" x2="90.8723" y2="531.808" gradientUnits="userSpaceOnUse">
<stop stop-color="#F6F6F6"/>
<stop offset="1" stop-color="#CCD5ED"/>
</linearGradient>
<linearGradient id="paint96_linear_66_1316" x1="-6.88299" y1="440.13" x2="-20.9969" y2="556.15" gradientUnits="userSpaceOnUse">
<stop stop-color="#4790CD"/>
<stop offset="1" stop-color="#EA6FAA"/>
</linearGradient>
<linearGradient id="paint97_linear_66_1316" x1="103.919" y1="442.98" x2="98.6932" y2="451.476" gradientUnits="userSpaceOnUse">
<stop stop-color="#4790CD"/>
<stop offset="1" stop-color="#EA6FAA"/>
</linearGradient>
<linearGradient id="paint98_linear_66_1316" x1="59.524" y1="404.273" x2="19.3052" y2="499.218" gradientUnits="userSpaceOnUse">
<stop stop-color="#4790CD"/>
<stop offset="1" stop-color="#EA6FAA"/>
</linearGradient>
</defs>
</svg>
