<svg width="60" height="60" viewBox="0 0 60 60" fill="none" xmlns="http://www.w3.org/2000/svg">
<path d="M37.0396 21.7434H22.9603C21.8055 21.7434 20.8701 22.6809 20.8701 23.8357V25.2846C20.8701 26.4394 21.8055 27.3747 22.9603 27.3747H37.0396C38.1944 27.3747 39.1298 26.4394 39.1298 25.2846V23.8357C39.1298 23.2796 38.9103 22.7491 38.5182 22.3571C38.1262 21.965 37.5935 21.7434 37.0396 21.7434ZM23.8636 24.9714H23.039C22.8132 24.9714 22.6299 24.7882 22.6299 24.5623C22.6299 24.3365 22.8132 24.1511 23.039 24.1468H23.8636C23.9744 24.1468 24.0788 24.1916 24.1576 24.2683C24.2343 24.3471 24.2791 24.4515 24.2791 24.5623C24.2748 24.7882 24.0894 24.9714 23.8636 24.9714ZM26.2222 24.9714H25.3977C25.1718 24.9714 24.9864 24.7882 24.9822 24.5623C24.9822 24.3322 25.1675 24.1468 25.3977 24.1468H26.2222C26.3309 24.1468 26.4374 24.1916 26.5141 24.2683C26.593 24.3471 26.6356 24.4515 26.6356 24.5623C26.6334 24.7882 26.4481 24.9714 26.2222 24.9714ZM28.5809 24.9714H27.7563C27.5283 24.9714 27.343 24.7882 27.3408 24.5623C27.3408 24.3322 27.5262 24.1468 27.7563 24.1468H28.5788C28.8067 24.1511 28.9878 24.3365 28.9878 24.5623C28.9878 24.7882 28.8046 24.9714 28.5788 24.9714H28.5809ZM36.9607 24.9714H31.1762C30.9503 24.9714 30.7671 24.7882 30.7671 24.5623C30.7671 24.3365 30.9503 24.1511 31.1762 24.1468H36.9607C37.1865 24.1511 37.3698 24.3365 37.3698 24.5623C37.3698 24.7882 37.1865 24.9714 36.9607 24.9714ZM20.8698 32.0051V33.4496C20.8634 34.0079 21.0807 34.5469 21.4728 34.9433C21.8648 35.3417 22.4018 35.5675 22.96 35.5675H37.0393C38.1941 35.5654 39.1295 34.6279 39.1295 33.4709V32.005C39.1359 31.4468 38.9185 30.9077 38.5265 30.5114C38.1344 30.1129 37.5975 29.8871 37.0392 29.8871H22.96C22.4018 29.8871 21.8648 30.113 21.4727 30.5114C21.0807 30.9077 20.8634 31.4468 20.8698 32.0051ZM31.1762 32.3183H36.9607C37.1865 32.3183 37.3698 32.5015 37.3698 32.7274C37.3698 32.9532 37.1865 33.1364 36.9607 33.1364H31.1762C30.9503 33.1364 30.7671 32.9532 30.7671 32.7274C30.7671 32.5015 30.9503 32.3183 31.1762 32.3183ZM27.7671 32.3183H28.5789C28.8047 32.3183 28.988 32.5015 28.988 32.7274C28.988 32.9532 28.8047 33.1364 28.5789 33.1364H27.7564C27.5306 33.1364 27.3473 32.9532 27.3473 32.7274C27.3473 32.5015 27.5306 32.3183 27.7564 32.3183H27.7671ZM25.4084 32.3183H26.233C26.4588 32.3183 26.6421 32.5015 26.6421 32.7274C26.6421 32.9532 26.4588 33.1364 26.233 33.1364H25.3978C25.1719 33.1364 24.9887 32.9532 24.9887 32.7274C24.9887 32.5015 25.1719 32.3183 25.3978 32.3183H25.4084ZM23.0498 32.3183H23.8637C24.0895 32.3183 24.2728 32.5015 24.2728 32.7274C24.2728 32.9532 24.0895 33.1364 23.8637 33.1364H23.0391C22.8133 33.1364 22.63 32.9532 22.63 32.7274C22.63 32.5015 22.8133 32.3183 23.0391 32.3183H23.0498ZM20.8701 41.6188C20.8701 42.7737 21.8054 43.7111 22.9602 43.7111H37.0395C38.1944 43.7111 39.1297 42.7736 39.1297 41.6188V40.17C39.1297 39.616 38.9102 39.0833 38.5182 38.6913C38.1261 38.2993 37.5935 38.0798 37.0395 38.0798H22.9602C21.8054 38.0798 20.8701 39.0151 20.8701 40.17V41.6188ZM31.1764 40.4832H36.961C37.1868 40.4832 37.3701 40.6664 37.3701 40.8923C37.3701 41.1181 37.1868 41.3035 36.961 41.3078H31.1764C30.9506 41.3035 30.7673 41.1181 30.7673 40.8923C30.7673 40.6664 30.9506 40.4832 31.1764 40.4832ZM27.7673 40.4832H28.5791C28.805 40.4832 28.9882 40.6664 28.9882 40.8923C28.9882 41.1181 28.8071 41.3035 28.5791 41.3078H27.7567C27.5266 41.3078 27.3412 41.1224 27.3412 40.8923C27.3433 40.6664 27.5287 40.4832 27.7567 40.4832H27.7673ZM25.4087 40.4832H26.2332C26.4591 40.4832 26.6445 40.6664 26.6487 40.8923C26.6487 41.0031 26.604 41.1075 26.5273 41.1863C26.4484 41.263 26.344 41.3078 26.2332 41.3078H25.398C25.1679 41.3078 24.9826 41.1224 24.9826 40.8923C24.9868 40.6664 25.1722 40.4832 25.398 40.4832H25.4087ZM23.05 40.4832H23.864C24.0898 40.4832 24.2752 40.6664 24.2794 40.8923C24.2794 41.0031 24.2347 41.1075 24.158 41.1863C24.0792 41.263 23.9747 41.3078 23.864 41.3078H23.0394C22.8135 41.3035 22.6303 41.1181 22.6303 40.8923C22.6303 40.6664 22.8135 40.4832 23.0394 40.4832H23.05ZM22.0465 10.613C23.1204 10.5981 24.028 11.4142 24.1239 12.4859C24.2219 13.5554 23.4762 14.5207 22.4151 14.6996V16.7387C22.4151 17.1627 22.7582 17.5079 23.1821 17.5122H28.7327V18.3367L23.1821 18.3346C22.7603 18.3346 22.3533 18.1663 22.055 17.868C21.7567 17.5676 21.5905 17.1606 21.5905 16.7387V14.6826C20.5572 14.4611 19.8583 13.4937 19.9755 12.4412C20.0948 11.3907 20.9897 10.6002 22.0465 10.613ZM30.3881 14.6975V20.2546L30.386 20.2567C30.3839 20.4826 30.1985 20.6658 29.9727 20.6658C29.7468 20.6658 29.5636 20.4826 29.5636 20.2567V14.6997C28.5259 14.4866 27.8164 13.5235 27.9229 12.471C28.0295 11.4184 28.9158 10.6152 29.9748 10.6152C31.0337 10.6152 31.9201 11.4185 32.0266 12.471C32.1331 13.5235 31.4236 14.4866 30.386 14.6997L30.3881 14.6975ZM40.0083 12.6755H40.0062C40.0041 13.6578 39.3137 14.5015 38.3528 14.6996V16.7387C38.3528 17.6187 37.6411 18.3325 36.7612 18.3346H31.2106V17.5122H36.7677C37.1917 17.5079 37.5347 17.1627 37.5347 16.7387V14.6996C36.7549 14.5398 36.137 13.9433 35.9473 13.1719C35.7556 12.3985 36.0283 11.5846 36.6441 11.0818C37.2619 10.5768 38.1121 10.4745 38.8323 10.8154C39.5524 11.1563 40.0105 11.8808 40.0127 12.6755L40.0083 12.6755ZM37.9544 54.8419C36.8805 54.8568 35.9728 54.0407 35.8769 52.969C35.7789 51.8994 36.5247 50.9342 37.5857 50.7552V48.7162C37.5857 48.2922 37.2427 47.947 36.8187 47.9427H31.2556V47.1203H36.8187C37.2406 47.1203 37.6475 47.2886 37.9458 47.5869C38.2441 47.8873 38.4103 48.2943 38.4103 48.7161V50.7722C39.4437 50.9938 40.1426 51.9612 40.0254 53.0137C39.906 54.0642 39.0112 54.8547 37.9544 54.8419ZM29.6084 50.7552V45.2281C29.6105 45.0002 29.7959 44.819 30.0238 44.819C30.2497 44.819 30.4329 45.0023 30.4329 45.2281V50.7852C31.4705 50.9962 32.1779 51.9592 32.0714 53.0118C31.967 54.0665 31.0785 54.8676 30.0196 54.8676C28.9606 54.8676 28.0743 54.0664 27.9677 53.0118C27.8612 51.9592 28.5707 50.9962 29.6084 50.7852L29.6084 50.7552ZM19.9882 52.7794C19.9903 51.7971 20.6806 50.9533 21.6416 50.7552V48.7162C21.6416 47.8362 22.3532 47.1224 23.2332 47.1203H28.7903V47.9448L23.2332 47.9427C22.8092 47.947 22.4662 48.2921 22.4662 48.7162V50.7552C23.246 50.915 23.8639 51.5116 24.0536 52.2829C24.2453 53.0564 23.9726 53.8703 23.3568 54.3731C22.739 54.8781 21.8888 54.9804 21.1686 54.6395C20.4485 54.2985 19.9903 53.5741 19.9882 52.7794ZM41.3634 32.2948H46.9331C47.144 31.2572 48.1071 30.5498 49.1596 30.6563C50.2143 30.7607 51.0154 31.6492 51.0154 32.7082C51.0154 33.7671 50.2143 34.6535 49.1596 34.76C48.1071 34.8665 47.144 34.157 46.9331 33.1194H41.3634C41.1504 33.1109 40.9778 32.9404 40.9671 32.7273C40.9607 32.6165 40.9991 32.5079 41.0737 32.4269C41.1482 32.3459 41.2526 32.2991 41.3634 32.2948ZM8.97708 40.6812C8.96216 39.6073 9.77824 38.6996 10.85 38.6038C11.9195 38.5057 12.8848 39.2515 13.0637 40.3126H15.1028C15.3074 40.3147 15.5055 40.2337 15.6504 40.091C15.7974 39.9461 15.8805 39.7501 15.8805 39.5455V33.9824H16.7051V39.5455C16.7051 39.9674 16.5367 40.3743 16.2363 40.6726C15.938 40.9709 15.531 41.1371 15.1092 41.1371H13.051C12.8443 42.1854 11.8684 42.9013 10.8052 42.782C9.74415 42.6627 8.94942 41.7508 8.97708 40.6812ZM8.97708 32.7274C8.97069 31.6642 9.77393 30.7714 10.8329 30.6627C11.8897 30.5562 12.8549 31.27 13.0637 32.3118H18.6377C18.8635 32.3161 19.0468 32.5015 19.0468 32.7273C19.0468 32.9532 18.8635 33.1364 18.6377 33.1364H13.068C12.8763 34.1932 11.9026 34.924 10.8351 34.8175C9.76548 34.711 8.95788 33.8012 8.97708 32.7274ZM44.1207 25.9092V31.4597H43.2962V25.9092C43.2962 25.4873 43.4645 25.0804 43.7649 24.782C44.0632 24.4837 44.4702 24.3176 44.892 24.3176H46.9502C47.159 23.2756 48.1242 22.564 49.1832 22.6684C50.2401 22.775 51.0455 23.6656 51.0455 24.7267C51.0455 25.7899 50.2401 26.6805 49.1832 26.7849C48.1243 26.8914 47.1591 26.1776 46.9502 25.1357H44.892C44.4659 25.1357 44.1207 25.483 44.1207 25.9092ZM44.1207 33.9268V39.4877C44.1207 39.916 44.4659 40.2612 44.892 40.2612H46.9332C47.1442 39.2214 48.1093 38.5098 49.1662 38.6163C50.223 38.7207 51.0285 39.6113 51.0285 40.6724C51.0285 41.7356 50.223 42.6241 49.1662 42.7306C48.1094 42.8371 47.1442 42.1255 46.9332 41.0857H44.892C44.0099 41.0857 43.2962 40.3698 43.2962 39.4877V33.9372L44.1207 33.9268ZM15.8825 31.5064L15.8804 25.9602C15.8783 25.5362 15.5331 25.1932 15.1091 25.1932H13.0679C12.8569 26.2329 11.8918 26.9446 10.8349 26.838C9.77807 26.7336 8.97266 25.843 8.97266 24.7819C8.97266 23.7187 9.77807 22.8302 10.8349 22.7237C11.8917 22.6172 12.8569 23.3288 13.0679 24.3686H15.1091C15.9869 24.3686 16.7028 25.0802 16.705 25.9602V31.5173L15.8825 31.5064ZM22.9609 29.0902H22.7627V28.1825H22.9609H37.0402H37.2383V29.1093H37.0402L22.9609 29.0902ZM37.0402 36.3643H37.2383V37.272H37.0402H22.9609H22.7627V36.3473H22.9609L37.0402 36.3643Z" fill="#CB1F49"/>
</svg>
