<svg width="757" height="562" viewBox="0 0 757 562" fill="none" xmlns="http://www.w3.org/2000/svg">
<mask id="mask0_292_1433" style="mask-type:luminance" maskUnits="userSpaceOnUse" x="0" y="0" width="757" height="562">
<path d="M757 0.84082H0V561.805H757V0.84082Z" fill="white"/>
</mask>
<g mask="url(#mask0_292_1433)">
<path d="M664.615 533.327C740.498 475.628 774.293 315.633 651.081 237.178C569.51 185.248 518.778 214.873 427.012 180.518C314.986 138.59 298.288 11.9113 162.022 74.2439C89.8298 107.256 39.7849 200.3 30.9806 306.047C22.352 409.605 59.0552 480.662 134.059 529.285C310.192 536.778 486.676 535.421 664.615 533.327Z" fill="#DFF3FC"/>
<path d="M352.873 78.2347C341.413 124.253 383.974 169.809 428.815 188.696C473.655 207.599 525.076 205.345 573.113 196.333C593.841 192.45 615.148 186.986 631.25 173.771C647.353 160.557 656.688 137.612 647.863 119.076C640.075 102.73 621.115 94.3579 603.04 90.0594C584.965 85.7609 565.767 84.0034 549.664 74.9594C534.394 66.379 523.563 52.1732 510.282 40.9245C485.745 20.1681 451.277 9.87771 419.377 16.4449C387.46 23.0121 362.616 39.1187 352.873 78.2347Z" fill="#DFF3FC"/>
<path d="M671.648 332.503L691.71 304.051L680.921 296.444C683.133 290.555 684.465 284.472 684.981 278.367L697.996 276.105L692.063 241.798L679.043 244.039C676.507 238.463 673.209 233.179 669.148 228.376L676.755 217.587L648.303 197.526L640.696 208.314C634.807 206.103 628.724 204.771 622.62 204.255L620.357 191.239L586.05 197.172L588.291 210.192C582.715 212.728 577.444 216.034 572.628 220.086L561.84 212.48L541.778 240.933L552.566 248.539C550.367 254.436 549.023 260.512 548.507 266.616L535.491 268.878L541.424 303.185L554.444 300.944C556.981 306.521 560.287 311.791 564.339 316.607L556.732 327.396L585.184 347.457L592.791 336.669C598.688 338.868 604.764 340.212 610.868 340.728L613.13 353.744L647.437 347.811L645.196 334.791C650.773 332.255 656.056 328.957 660.859 324.896L671.648 332.503ZM599.37 297.148C585.751 287.546 582.495 268.721 592.098 255.103C601.689 241.5 620.514 238.244 634.132 247.846C647.735 257.437 650.991 276.263 641.4 289.865C631.798 303.484 612.972 306.74 599.37 297.148Z" fill="#A2C7EB"/>
<path d="M579.452 353.698L564.09 343.404L560.186 349.229C557.032 348.13 553.784 347.499 550.536 347.302L549.17 340.419L531.028 344.003L532.382 350.888C529.453 352.305 526.69 354.124 524.19 356.341L518.365 352.438L508.071 367.801L513.896 371.703C512.797 374.858 512.166 378.105 511.969 381.353L505.086 382.719L508.671 400.863L515.556 399.508C516.973 402.438 518.795 405.193 521.008 407.7L517.105 413.525L532.468 423.818L536.37 417.993C539.53 419.087 542.773 419.724 546.021 419.921L547.386 426.804L565.529 423.219L564.175 416.334C567.105 414.917 569.861 413.095 572.367 410.882L578.192 414.785L588.486 399.423L582.66 395.519C583.754 392.36 584.391 389.117 584.588 385.869L591.471 384.503L587.887 366.361L581.001 367.714C579.584 364.785 577.766 362.022 575.549 359.523L579.452 353.698ZM561.591 392.526C556.664 399.879 546.709 401.845 539.356 396.919C532.011 391.997 530.044 382.042 534.971 374.689C539.892 367.344 549.848 365.377 557.193 370.299C564.546 375.225 566.512 385.181 561.591 392.526Z" stroke="#A2C7EB" stroke-miterlimit="10"/>
<path d="M531.675 333.999L534.741 321.886L530.148 320.724C530.132 318.466 529.796 316.256 529.184 314.144L533.255 311.714L526.856 300.98L522.781 303.405C521.215 301.862 519.431 300.517 517.453 299.429L518.615 294.835L506.502 291.771L505.339 296.364C503.081 296.38 500.871 296.715 498.76 297.327L496.329 293.256L485.596 299.655L488.02 303.73C486.477 305.296 485.137 307.082 484.044 309.059L479.45 307.897L476.386 320.01L480.979 321.172C481 323.431 481.329 325.639 481.942 327.751L477.872 330.182L484.27 340.916L488.344 338.491C489.911 340.034 491.697 341.375 493.674 342.468L492.512 347.061L504.625 350.125L505.788 345.533C508.046 345.511 510.254 345.181 512.366 344.569L514.797 348.64L525.531 342.241L523.106 338.166C524.649 336.6 525.995 334.816 527.083 332.838L531.675 333.999ZM502.911 331.444C497.113 329.977 493.603 324.087 495.069 318.29C496.534 312.498 502.424 308.988 508.222 310.454C514.013 311.919 517.524 317.809 516.059 323.6C514.592 329.398 508.702 332.909 502.911 331.444Z" stroke="#A2C7EB" stroke-miterlimit="10"/>
<path d="M259.776 24.9878C288.503 24.8151 311.93 47.9632 312.102 76.69C312.275 105.417 289.127 128.843 260.4 129.016C231.673 129.188 208.247 106.04 208.074 77.3135C207.902 48.5867 231.05 25.1597 259.776 24.9878Z" fill="#CB1F49"/>
<path d="M261.507 77.3586L258.668 75.3565L283.84 39.6558L286.68 41.6579L261.507 77.3586Z" fill="white"/>
<path d="M260.307 76.4473L258.28 79.2689L222.316 53.4415L224.343 50.6192L260.307 76.4473Z" fill="white"/>
<path d="M264.876 77.0019C264.876 79.6461 262.732 81.7897 260.088 81.7897C257.444 81.7897 255.301 79.6461 255.301 77.0019C255.301 74.3577 257.444 72.2148 260.088 72.2148C262.732 72.2148 264.876 74.3577 264.876 77.0019Z" fill="white"/>
<path d="M400.428 428.822C396.811 381.308 417.061 331.863 451.784 303.317C453.407 351.093 433.355 399.689 400.428 428.822Z" fill="#A2C7EB"/>
<path d="M446.207 316.179C431.753 343.858 419.311 372.793 409.035 402.615C396.546 438.821 386.83 477.25 365.088 507.728" stroke="#6F8BBF" stroke-miterlimit="10" stroke-linecap="round"/>
<path d="M389.707 458.856C406.996 418.984 441.86 388.615 480.574 379.695C464.53 422.397 427.73 455.249 389.707 458.856Z" fill="#A2C7EB"/>
<path d="M471.149 388.542C444.904 412.167 418.205 435.142 391.05 457.452" stroke="#6F8BBF" stroke-miterlimit="10" stroke-linecap="round"/>
<path d="M379.63 493.535C402.927 457.878 446.436 438.917 482.722 448.609C456.512 483.851 412.909 502.861 379.63 493.535Z" fill="#A2C7EB"/>
<path d="M474.075 451.261C443.233 471.039 409.889 485.764 375.442 494.78" stroke="#6F8BBF" stroke-miterlimit="10" stroke-linecap="round"/>
<path d="M391.905 446.8C399.03 406.867 387.171 362.577 361.549 333.478C351.619 372.755 362.024 418.532 391.905 446.8Z" fill="#A2C7EB"/>
<path d="M364.268 343.61C369.669 380.622 378.927 415.242 393.049 449.024" stroke="#6F8BBF" stroke-miterlimit="10" stroke-linecap="round"/>
<path d="M379.28 480.882C375.592 439.951 354.166 401.713 323.218 380.823C325.235 402.501 331.238 423.351 340.607 442.262C351.382 463.985 367.004 477.664 379.28 480.882Z" fill="#A2C7EB"/>
<path d="M327.865 389.065C340.327 423.09 358.067 454.563 380.057 481.737" stroke="#6F8BBF" stroke-miterlimit="10" stroke-linecap="round"/>
<path d="M617.348 471.923C634.599 428.508 673.55 393.567 716.187 383.276C697.074 426.078 658.659 460.323 617.348 471.923Z" fill="#A2C7EB"/>
<path d="M705.78 392.219C681.254 410.432 657.921 430.608 636.135 452.495C609.661 479.075 584.639 508.772 552.531 526.341" stroke="#6F8BBF" stroke-miterlimit="10" stroke-linecap="round"/>
<path d="M595.066 493.805C627.321 466.059 670.855 454.212 708.534 462.913C676.165 493.694 629.867 506.9 595.066 493.805Z" fill="#A2C7EB"/>
<path d="M696.491 466.692C663.385 476.292 630.16 485.107 596.832 493.154" stroke="#6F8BBF" stroke-miterlimit="10" stroke-linecap="round"/>
<path d="M571.344 520.065C607.045 498.606 653.237 500.515 680.803 524.586C642.741 544.421 596.436 542.511 571.344 520.065Z" fill="#A2C7EB"/>
<path d="M672.11 523.21C636.651 527.447 601.143 526.153 567.166 519.363" stroke="#6F8BBF" stroke-miterlimit="10" stroke-linecap="round"/>
<path d="M602.174 484.121C625.562 451.977 634.223 407.858 624.327 371.249C598.754 401.611 588.184 446.412 602.174 484.121Z" fill="#A2C7EB"/>
<path d="M622.345 381.327C611.151 416.261 604.387 450.733 602.227 486.567" stroke="#6F8BBF" stroke-miterlimit="10" stroke-linecap="round"/>
<path d="M576.49 508.761C590.847 471.114 588.548 428.231 570.463 396.579C562.92 416.549 559.201 437.488 559.273 458.167C559.342 481.914 567.121 500.666 576.49 508.761Z" fill="#A2C7EB"/>
<path d="M570.967 405.822C567.246 441.143 569.231 476.48 576.782 509.835" stroke="#6F8BBF" stroke-miterlimit="10" stroke-linecap="round"/>
<path d="M143.022 394.249C126.521 341.796 79.3145 299.033 23.979 286.426C46.7912 331.901 88.6859 368.359 143.022 394.249Z" fill="#A2C7EB"/>
<path d="M145.825 402.39C108.635 380.803 61.793 375.611 20.9898 388.533C58.4833 407.79 103.103 413.539 145.825 402.39Z" fill="#A2C7EB"/>
<path d="M156.05 413.838C115.661 407.778 73.1899 417.273 40.0819 439.76C77.1803 453.72 121.971 445.439 156.05 413.838Z" fill="#A2C7EB"/>
<path d="M168.383 438.736C128.328 438.12 88.7285 456.716 64.8359 487.363C82.6233 491.135 101.579 489.213 118.017 481.99C134.456 474.767 148.301 462.28 168.383 438.736Z" fill="#A2C7EB"/>
<path d="M196.158 480.478C156.736 473.262 114.514 485.03 85.7345 511.256C102.662 517.903 121.685 519.149 139.129 514.758C156.574 510.367 172.348 500.357 196.158 480.478Z" fill="#A2C7EB"/>
<path d="M154.45 396.854C128.763 361.406 122.216 313.952 137.487 273.816C148.588 293.105 158.124 313.474 162.439 335.06C166.754 356.646 165.611 379.598 154.45 396.854Z" fill="#A2C7EB"/>
<path d="M170.004 430.951C164.246 393.531 177.462 354.089 204.741 327.341C207.411 366.017 195.146 405.25 170.004 430.951Z" fill="#A2C7EB"/>
<path d="M36.0181 295.927C114.831 347.61 176.064 424.015 207.87 510.397" stroke="#6F8BBF" stroke-miterlimit="10" stroke-linecap="round"/>
<path d="M139.746 292.377C148.96 331.693 154.386 371.787 155.922 411.957" stroke="#6F8BBF" stroke-miterlimit="10" stroke-linecap="round"/>
<path d="M198.641 342.439C195.123 374.036 184.999 404.844 169.069 432.516" stroke="#6F8BBF" stroke-miterlimit="10" stroke-linecap="round"/>
<path d="M37.6899 389.633C74.0062 396.962 110.955 401.13 147.948 402.095" stroke="#6F8BBF" stroke-miterlimit="10" stroke-linecap="round"/>
<path d="M59.0931 436.866C92.679 434.806 125.784 427.046 156.452 414.035" stroke="#6F8BBF" stroke-miterlimit="10" stroke-linecap="round"/>
<path d="M78.6961 481.875C109.835 466.777 140.976 451.661 172.115 436.563" stroke="#6F8BBF" stroke-miterlimit="10" stroke-linecap="round"/>
<path d="M98.5284 509.376C139.045 502.029 151.161 492.856 196.177 480.479" stroke="#6F8BBF" stroke-miterlimit="10" stroke-linecap="round"/>
<path d="M359.327 444.728C359.327 444.728 361.28 476.929 365.067 479.687C371.835 484.636 452.239 499.196 452.239 499.196L448.576 520.119C448.576 520.119 337.269 524.74 332.827 518.975C325.119 508.973 312.987 461.932 312.987 461.932L359.327 444.728Z" fill="#E06A58"/>
<path d="M309.95 359.639L319.96 338.582C319.96 338.582 343.689 351.187 351.008 365.673C358.837 381.16 365.384 461.776 365.384 461.776C365.384 461.776 322.016 469.546 314.338 464.961C306.661 460.376 309.95 359.639 309.95 359.639Z" fill="#F2AE30"/>
<path d="M249.592 256.169C243.68 253.041 225.637 261.106 218.943 261.921C212.248 262.736 204.829 268.464 202.8 274.467C201.363 278.722 202.334 283.618 199.937 287.501C197.643 291.219 192.834 294.777 188.286 295.302C183.72 295.828 179.082 295.801 174.561 296.598C160.603 299.102 150.546 316.663 155.718 328.951C157.779 333.847 161.749 338.43 161.134 343.657C160.476 349.251 154.81 353.166 152.657 358.432C149.793 365.438 153.961 373.59 160.451 377.971C166.933 382.346 175.152 380.045 183.121 380.868C194.094 382.001 207.211 377.807 217.878 375.021C228.545 372.234 230.475 357.902 237.199 349.852C240.184 346.291 242.272 342.092 245.62 338.823C252.539 332.073 263.371 330.566 272.318 326.334C282.095 321.683 290.238 311.15 286.169 301.484C282.242 292.192 269.236 288.469 265.07 279.274C263.346 275.476 263.39 271.24 262.485 267.23C261.55 263.2 258.331 260.794 249.592 256.169Z" fill="#0A2240"/>
<path d="M277.936 364.537C279.424 366.436 281.189 368.526 283.766 368.833C286.485 369.164 288.865 367.35 290.715 365.572C300.267 356.442 306.852 344.97 309.896 332.949C307.711 331.559 305.603 330.219 303.698 328.97C301.934 327.792 300.639 326.206 299.947 324.395C299.471 323.059 299.35 321.677 299.567 320.248C301.454 308.313 302.928 301.684 307.761 289.723C287.979 284.188 269.374 277.864 258.984 268.247C257.375 273.765 255.254 284.617 251.367 295.283C247.224 306.575 241.093 317.639 231.43 322.043C249.354 333.899 265.147 348.302 277.936 364.537Z" fill="#F9A07B"/>
<path d="M299.565 320.264C299.349 321.693 299.469 323.091 299.946 324.412C287.374 338.171 261.855 318.056 251.366 295.299C255.253 284.633 257.374 273.782 258.982 268.264C269.357 277.88 287.977 284.22 307.759 289.739C302.926 301.7 301.454 308.313 299.565 320.264Z" fill="#E06A58"/>
<path d="M323.695 495.566C320.195 512.764 337.949 532.37 337.94 541.65C298.221 539.627 214.893 537.817 172.817 529.899C171.431 519.109 193.576 496.125 194.785 472.38C194.945 469.236 194.993 465.783 194.926 462.067C194.795 451.437 193.873 438.75 192.792 425.736C189.834 390.818 185.434 353.413 190.47 345.957C200.329 331.435 222.119 322.338 232.89 318.502C236.589 317.186 238.993 316.492 239.173 316.405C251.253 339.643 277.194 360.259 287.403 359.915C290.239 359.836 298.766 357.342 305.723 329.745C307.815 331.084 309.911 332.327 311.994 333.537C322.232 339.546 331.863 344.564 334.345 351.746C340.902 370.655 345.881 417.739 343.408 434.268C340.911 450.941 333.525 463.396 327.945 479.975C326.643 483.861 325.425 487.991 324.382 492.449C324.124 493.444 323.91 494.489 323.695 495.566Z" fill="#FFC73C"/>
<path d="M337.94 541.649C298.221 539.627 214.893 537.816 172.817 529.898C171.431 519.108 193.576 496.124 194.785 472.379C194.945 469.235 194.992 465.782 194.926 462.067C194.795 451.436 193.873 438.75 192.792 425.735C199.904 434.049 212.574 401.095 216.925 411.156C240.478 465.474 260.467 480.459 296.436 482.29C307.16 482.836 317.129 481.856 327.945 479.975C326.643 483.861 325.425 487.99 324.382 492.449C324.139 493.46 323.909 494.505 323.694 495.581C320.197 512.746 337.949 532.354 337.94 541.649Z" fill="#FFBB33"/>
<path d="M311.994 333.537C309.654 345.849 303.745 362.3 288.808 365.955C268.621 370.895 241.74 332.28 232.889 318.502C236.589 317.187 238.992 316.492 239.173 316.405C251.253 339.644 277.194 360.26 287.403 359.916C290.239 359.836 298.766 357.342 305.723 329.746C307.815 331.068 309.912 332.311 311.994 333.537Z" fill="#FCE172"/>
<path d="M328.66 274.896C333.483 260.327 345.182 251.094 354.791 254.275C364.401 257.456 368.282 271.844 363.459 286.414C358.637 300.984 346.938 310.216 337.328 307.035C327.719 303.854 323.838 289.466 328.66 274.896Z" fill="#913276"/>
<path d="M369.876 239.498C366.267 252.262 358.502 265.814 347.872 280.509C346.665 267.12 346.92 251.045 346.446 234.87C345.929 218.657 344.685 202.345 340.544 188.59C339.605 185.543 338.537 182.608 337.314 179.862C340.859 180.006 344.359 180.821 347.605 182.215C352.685 184.342 357.254 187.738 360.795 191.929C366.695 198.813 370.082 207.564 371.589 216.509C372.819 223.934 372.184 231.556 369.876 239.498Z" fill="#0B2D50"/>
<path d="M358.099 251.601C357.655 254.153 357.125 256.742 356.534 259.306C347.186 300.929 325.565 327.413 298.508 323.727C260.304 318.522 241.379 272.306 247.097 230.334C252.737 188.933 282.184 162.417 311.398 169.929C328.245 174.224 339.978 181.612 347.725 191.149C352.844 197.491 356.176 204.766 358.035 212.776C360.181 221.761 360.464 231.637 359.38 242.084C359.375 242.115 359.403 242.152 359.399 242.183C359.108 245.272 358.648 248.402 358.099 251.601Z" fill="#F9A07B"/>
<path d="M358.099 251.6C357.513 247.376 356.361 243.171 354.535 239.294C330.4 248.004 302.93 248.89 278.058 241.115C272.663 244.492 267.387 247.822 262.08 251.146C264.785 232.002 266.821 219.072 275.559 210.812C283.758 203.06 295.905 201.376 307.182 201.461C319.881 201.53 332.553 203.321 344.751 206.822C349.426 208.136 354.226 209.838 358.046 212.81C360.193 221.795 360.476 231.67 359.391 242.117C359.387 242.148 359.414 242.185 359.41 242.216C359.107 245.271 358.647 248.401 358.099 251.6Z" fill="#E06A58"/>
<path d="M367.142 226.418C361.297 230.137 354.227 232.915 346.443 234.886C324.296 240.497 296.634 239.583 275.512 235.656C261.935 257.19 256.587 264.848 251.182 284.511C242.275 273.541 236.353 254.867 235.762 240.74C235.196 226.665 237.398 212.273 243.069 199.29C252.002 178.817 268.771 169.491 280.07 165.387C282.895 164.304 285.406 163.63 287.341 163.151C301.525 159.778 316.643 162.322 329.889 168.432C337.106 171.802 342.915 176.625 347.586 182.228C357.041 193.434 361.911 207.531 364.871 217.997C365.821 221.207 366.539 224.094 367.142 226.418Z" fill="#0B2D50"/>
<path d="M369.875 239.498C369.632 234.772 368.943 230.13 367.693 225.573C366.996 222.995 366.051 220.464 364.889 217.983C361.119 209.793 354.982 202.636 346.916 198.747C344.969 195.047 342.85 191.663 340.557 188.609C332.305 177.567 321.823 170.462 310.182 166.892C300.489 163.943 290.059 163.442 280.104 165.375C282.928 164.293 285.439 163.618 287.375 163.14C301.558 159.767 316.676 162.311 329.922 168.421C337.14 171.79 342.949 176.614 347.62 182.217C352.7 184.344 357.269 187.74 360.81 191.932C366.71 198.815 370.097 207.566 371.604 216.511C372.818 223.934 372.183 231.556 369.875 239.498Z" fill="#225570"/>
<path d="M285.375 254.288C292.986 251.213 300.565 250.39 310.329 255.542" stroke="#0B2D50" stroke-width="2" stroke-miterlimit="10" stroke-linecap="round"/>
<path d="M333.766 260.59C340.429 256.901 349.452 257.663 353.446 263.271" stroke="#0B2D50" stroke-width="2" stroke-miterlimit="10" stroke-linecap="round"/>
<path d="M323.331 282.616C323.513 285.898 322.216 292.929 320.263 295.904" stroke="#CC454E" stroke-width="2" stroke-miterlimit="10" stroke-linecap="round"/>
<path d="M300.391 272.616C302 272.835 303.042 274.943 302.717 277.323C302.393 279.704 300.826 281.457 299.216 281.237C297.607 281.018 296.566 278.91 296.891 276.53C297.215 274.149 298.782 272.396 300.391 272.616Z" fill="#262D40"/>
<path d="M338.759 275.666C340.369 275.885 341.409 277.993 341.085 280.374C340.761 282.754 339.194 284.507 337.585 284.288C335.975 284.069 334.934 281.961 335.258 279.58C335.583 277.199 337.15 275.447 338.759 275.666Z" fill="#262D40"/>
<path d="M256.561 242.051C256.546 242.154 256.532 242.25 256.52 242.336L251.44 240.555C251.482 240.398 251.535 240.2 251.599 239.965C251.78 239.294 252.048 238.319 252.395 237.104C253.089 234.672 254.096 231.279 255.35 227.43C257.859 219.727 261.348 210.228 265.278 202.978C269.195 195.77 275.638 189.088 282.813 183.772C289.989 178.454 297.86 174.529 304.6 172.808L304.601 172.808C317.706 169.451 333.163 171.984 343.082 176.024C350.58 179.08 355.836 184.356 359.222 188.885C360.428 190.497 361.394 192.012 362.139 193.293C360.517 191.543 358.204 189.288 355.22 186.966C348.801 181.973 339.264 176.66 326.809 175.411C306.17 173.331 283.524 181.064 269.749 204.472C264.275 213.771 260.948 223.388 258.99 230.675C258.011 234.319 257.373 237.384 256.98 239.54C256.783 240.618 256.648 241.469 256.561 242.051Z" fill="#913276" stroke="#913276"/>
<path d="M251.367 236.347C256.477 236.509 261.067 239.798 264.337 245.113C267.605 250.424 269.515 257.707 269.26 265.702C269.006 273.697 266.636 280.845 263.038 285.937C259.437 291.034 254.647 294.024 249.537 293.861C244.427 293.698 239.837 290.41 236.567 285.095C233.299 279.784 231.389 272.5 231.644 264.505C231.898 256.51 234.267 249.363 237.866 244.27C241.467 239.174 246.257 236.184 251.367 236.347Z" fill="#913276" stroke="#913276"/>
<path d="M244.779 244.951C247.985 244.907 251.017 247.156 253.299 251.044C255.572 254.918 257.036 260.327 257.119 266.349C257.202 272.372 255.887 277.819 253.721 281.754C251.547 285.704 248.578 288.035 245.372 288.079C242.167 288.123 239.135 285.874 236.853 281.986C234.58 278.111 233.117 272.703 233.034 266.68C232.951 260.658 234.265 255.211 236.431 251.276C238.605 247.326 241.574 244.995 244.779 244.951Z" fill="#913276" stroke="#913276"/>
<path d="M308.213 313.217C310.951 313.59 313.312 314.616 314.917 315.948C316.53 317.285 317.323 318.872 317.116 320.391C316.909 321.911 315.72 323.228 313.809 324.085C311.905 324.939 309.356 325.297 306.618 324.924C303.88 324.551 301.52 323.524 299.914 322.192C298.301 320.855 297.508 319.268 297.715 317.748C297.922 316.229 299.111 314.912 301.022 314.055C302.926 313.201 305.475 312.844 308.213 313.217Z" fill="#913276" stroke="#913276"/>
<path d="M259.089 290.861C259.089 290.861 271.445 312.154 297.219 317.681" stroke="#913276" stroke-width="2" stroke-miterlimit="10" stroke-linecap="round"/>
<path d="M312.632 482.848L310.85 508.171C310.85 508.171 263.023 521.182 230.35 524.906C217.165 526.604 206.484 526.335 202.246 523.543C195.043 518.881 189.171 495.064 185.061 471.853C180.767 447.465 178.389 423.807 178.389 423.807L232.995 415.748C232.995 415.748 231.479 448.741 232.419 467.901C232.74 475.035 233.439 480.25 234.66 481.155C239.286 484.523 312.632 482.848 312.632 482.848Z" fill="#F9A07B"/>
<path d="M232.421 467.869C222.439 470.599 203.23 474.64 185.061 471.837C180.768 447.449 178.39 423.791 178.39 423.791L232.995 415.732C232.996 415.716 231.48 448.709 232.421 467.869Z" fill="#E06A58"/>
<path d="M310.006 483.009C323.752 480.571 347.096 474.37 356.762 472.296C363.629 470.822 381.025 480.615 385.401 489.425C387.315 493.273 388.499 514.726 381.485 512.271C377.971 511.036 378.879 501.887 377.901 498.104C377.104 495.026 374.32 491.974 370.016 489.281C372.694 496.698 372.357 503.071 371.762 510.96C371.637 512.703 371.463 514.523 370.569 516.001C369.66 517.477 367.781 518.492 366.218 517.77C364.623 517.047 364.139 515.012 363.836 513.239C362.797 507.103 361.742 500.966 361.477 494.064C361.366 500.842 360.983 507.627 360.318 514.37C359.818 519.53 357.149 522.279 354.024 521.264C352.626 520.818 352.101 519.497 351.558 517.763C350.489 521.044 347.981 524.626 344.953 523.121C343.11 522.215 342.19 515.415 342.767 508.479C336.737 511.936 330.02 513.257 322.329 513.336C315.434 513.411 308.435 511.878 304.459 507.052C305.129 499.753 307.92 489.02 310.006 483.009Z" fill="#F9A07B"/>
<path d="M351.737 516.721C352.39 511.247 352.11 505.663 350.9 500.315" stroke="#CC454E" stroke-miterlimit="10" stroke-linecap="round"/>
<path d="M317.035 301.835C317.035 301.835 316.314 302.866 315.017 304.221C312.994 306.284 309.65 309.053 305.508 309.747L305.491 309.744C303.74 310.054 301.894 309.996 299.916 309.356C294.108 307.484 293.288 301.777 293.58 297.511C293.628 296.679 293.733 295.919 293.843 295.224C294.108 293.519 294.453 292.404 294.453 292.404C303.225 298.921 317.035 301.835 317.035 301.835Z" fill="#CC454E"/>
<path d="M317.034 301.835C317.034 301.835 316.313 302.866 315.016 304.221C310.18 303.497 300.608 299.661 293.843 295.224C294.107 293.518 294.453 292.404 294.453 292.404C303.225 298.921 317.034 301.835 317.034 301.835Z" fill="white"/>
<path d="M305.493 309.729C303.741 310.039 301.895 309.98 299.918 309.34C294.109 307.469 293.29 301.761 293.581 297.495C296.415 298.236 299.051 299.724 301.123 301.796C303.292 303.979 304.802 306.748 305.493 309.729Z" fill="#E8729B"/>
<path d="M229.518 361.932C226.111 350.687 212.792 327.379 212.792 327.379C212.792 327.379 190.417 335.478 181.901 350.611C167.485 376.232 170.654 451.883 170.654 451.883C188.069 460.155 223.721 461.941 239.001 460.514C239.001 460.514 236.35 384.407 229.518 361.932Z" fill="#FFC73C"/>
<path d="M309.889 515.656L309.745 529.509L557.415 530.979L557.926 515.272L309.889 515.656Z" fill="#325F73"/>
<path d="M664.76 392.06L659.247 386.468L478.848 385.286L388.344 516.167L393.074 519.97L664.76 392.06Z" fill="#325F73"/>
<path d="M482.331 390.126L393.073 519.969L563.566 520.816L664.759 392.06L482.331 390.126Z" fill="#0B2D50"/>
<path d="M525.409 453.163C536.369 453.163 545.255 457.606 545.255 463.086C545.255 468.565 536.369 473.009 525.409 473.009C514.448 473.009 505.563 468.565 505.563 463.086C505.563 457.606 514.448 453.163 525.409 453.163Z" fill="#3C738C"/>
<path d="M63.7061 526.425H693.713V542.228H63.7061V526.425Z" fill="#0B2D50"/>
<path d="M396.653 244.963V215.667C396.653 207.671 403.133 201.192 411.129 201.192H503.428C511.424 201.192 517.903 207.671 517.903 215.667V244.963C517.903 252.959 511.424 259.439 503.428 259.439H411.146C403.151 259.456 396.653 252.959 396.653 244.963Z" fill="#CB1F49"/>
<path d="M435.634 243.43L390.967 286.943L463.362 250.357" fill="#CB1F49"/>
<path d="M407.854 214.943V214.788C407.854 213.599 408.82 212.634 410.009 212.634H455.642C456.831 212.634 457.796 213.599 457.796 214.788V214.943C457.796 216.132 456.831 217.097 455.642 217.097H410.009C408.82 217.097 407.854 216.132 407.854 214.943Z" fill="white"/>
<path d="M459.846 214.943V214.788C459.846 213.599 460.812 212.634 462.001 212.634H501.826C503.015 212.634 503.98 213.599 503.98 214.788V214.943C503.98 216.132 503.015 217.097 501.826 217.097H462.001C460.812 217.097 459.846 216.132 459.846 214.943Z" fill="white"/>
<path d="M442.458 224.749V224.594C442.458 223.405 443.423 222.44 444.612 222.44H501.826C503.014 222.44 503.98 223.405 503.98 224.594V224.749C503.98 225.938 503.014 226.903 501.826 226.903H444.612C443.423 226.903 442.458 225.938 442.458 224.749Z" fill="white"/>
<path d="M407.854 224.749V224.594C407.854 223.405 408.82 222.44 410.009 222.44H435.565C436.754 222.44 437.72 223.405 437.72 224.594V224.749C437.72 225.938 436.754 226.903 435.565 226.903H410.009C408.82 226.903 407.854 225.938 407.854 224.749Z" fill="white"/>
<path d="M450.402 234.555V234.399C450.402 233.21 451.368 232.245 452.556 232.245H501.825C503.014 232.245 503.979 233.21 503.979 234.399V234.555C503.979 235.743 503.014 236.709 501.825 236.709H452.556C451.368 236.709 450.402 235.743 450.402 234.555Z" fill="white"/>
<path d="M407.854 234.555V234.399C407.854 233.21 408.82 232.245 410.009 232.245H444.044C445.232 232.245 446.198 233.21 446.198 234.399V234.555C446.198 235.743 445.232 236.709 444.044 236.709H410.009C408.82 236.709 407.854 235.743 407.854 234.555Z" fill="white"/>
<path d="M407.854 244.36V244.205C407.854 243.016 408.82 242.051 410.009 242.051H422.64C423.829 242.051 424.794 243.016 424.794 244.205V244.36C424.794 245.549 423.829 246.514 422.64 246.514H410.009C408.82 246.514 407.854 245.549 407.854 244.36Z" fill="white"/>
<path d="M429.257 244.36V244.205C429.257 243.016 430.223 242.051 431.411 242.051H501.825C503.014 242.051 503.979 243.016 503.979 244.205V244.36C503.979 245.549 503.014 246.514 501.825 246.514H431.411C430.223 246.514 429.257 245.549 429.257 244.36Z" fill="white"/>
</g>
</svg>
