<svg width="31" height="30" viewBox="0 0 31 30" fill="none" xmlns="http://www.w3.org/2000/svg">
<path d="M24.875 6.875L24.1004 19.4064C23.9024 22.608 23.8035 24.2089 23.001 25.3599C22.6041 25.9289 22.0934 26.4091 21.5009 26.77C20.3026 27.5 18.6987 27.5 15.4909 27.5C12.2789 27.5 10.6729 27.5 9.47381 26.7686C8.881 26.4071 8.37 25.926 7.97335 25.356C7.1711 24.2032 7.07431 22.6001 6.88076 19.394L6.125 6.875" stroke="white" stroke-width="1.5" stroke-linecap="round"/>
<path d="M4.25 6.875H26.75M20.5696 6.875L19.7164 5.11466C19.1495 3.94533 18.866 3.36065 18.3771 2.99601C18.2687 2.91513 18.1539 2.84317 18.0338 2.78087C17.4924 2.5 16.8426 2.5 15.5431 2.5C14.211 2.5 13.545 2.5 12.9946 2.79265C12.8726 2.85751 12.7562 2.93238 12.6466 3.01646C12.152 3.39588 11.8758 4.00194 11.3233 5.21407L10.5662 6.875" stroke="white" stroke-width="1.5" stroke-linecap="round"/>
<path d="M12.375 20.625V13.125" stroke="white" stroke-width="1.5" stroke-linecap="round"/>
<path d="M18.625 20.625V13.125" stroke="white" stroke-width="1.5" stroke-linecap="round"/>
</svg>
