<svg width="30" height="30" viewBox="0 0 30 30" fill="none" xmlns="http://www.w3.org/2000/svg">
<path fill-rule="evenodd" clip-rule="evenodd" d="M27.122 19.7916C27.122 22.325 25.0613 24.3825 22.5311 24.3825H7.46927C4.93914 24.3825 2.87834 22.325 2.87834 19.7916V10.208C2.87777 9.3915 3.09651 8.58984 3.51168 7.88679L10.861 15.2361C11.9605 16.3388 13.4329 16.9464 15.0017 16.9464C16.5674 16.9464 18.0398 16.3388 19.1393 15.2361L26.4887 7.88679C26.9039 8.58983 27.1226 9.39149 27.122 10.208V19.7916ZM22.5311 5.6171H7.46927C6.42443 5.6171 5.45991 5.97072 4.68836 6.55905L12.1116 13.9855C12.88 14.7506 13.9055 15.1751 15.0017 15.1751C16.0948 15.1751 17.1205 14.7506 17.8888 13.9855L25.312 6.55905C24.5405 5.97072 23.576 5.6171 22.5311 5.6171ZM22.5311 3.8457H7.46927C3.96179 3.8457 1.10693 6.70056 1.10693 10.208V19.7918C1.10693 23.3024 3.96179 26.154 7.46927 26.154H22.5311C26.0386 26.154 28.8935 23.3024 28.8935 19.7918V10.208C28.8935 6.7005 26.0386 3.8457 22.5311 3.8457Z" fill="white"/>
</svg>
