<svg width="712" height="669" viewBox="0 0 712 669" fill="none" xmlns="http://www.w3.org/2000/svg">
<path d="M25.1384 378.152L233.523 257.445L233.52 103.186L25.1384 223.886V378.152Z" fill="url(#paint0_linear_67_488)"/>
<path opacity="0.8" d="M233.523 77.4736L233.52 103.186L25.1384 223.886V198.176L233.523 77.4736Z" fill="#913276"/>
<g opacity="0.4">
<path d="M180.159 206.438L216.44 199.534C211.295 220.053 196.867 241.106 179.987 250.852C158.832 263.067 141.523 253.072 141.523 228.645C141.523 204.218 158.832 174.239 179.985 162.024C188.742 156.969 196.837 155.717 203.322 157.723L180.159 206.438Z" fill="#913276"/>
<path d="M228.31 176.752C228.31 181.689 227.603 186.854 226.301 192.054L190.019 198.959L213.182 150.244C222.363 153.076 228.31 162.434 228.31 176.752Z" fill="#913276"/>
</g>
<g opacity="0.4">
<path d="M115 242.6V293.638L102.289 300.977L102.288 249.604L115 242.6Z" fill="#913276"/>
<path d="M95.9319 272.449V305.047L83.2202 311.987V279.79L95.9319 272.449Z" fill="#913276"/>
<path d="M77.1688 271.291V315.726L64.4575 322.665V278.631L77.1688 271.291Z" fill="#913276"/>
<path d="M57.7144 255.192V326.582L45.0856 334.004L45.0027 262.533L57.7144 255.192Z" fill="#913276"/>
<path d="M134.706 190.354V281.939L122.077 289.361L121.994 197.695L134.706 190.354Z" fill="#913276"/>
</g>
<path opacity="0.8" d="M689.432 406.229L568.969 336.676L568.971 232.352L689.432 301.901V406.229Z" fill="#EEF0F4"/>
<path opacity="0.8" d="M568.969 214.963L568.971 232.352L689.432 301.901V284.513L568.969 214.963Z" fill="#913276"/>
<g opacity="0.4">
<path d="M674.808 309.202C674.477 309.202 674.141 309.118 673.834 308.94L626.68 281.719C625.747 281.18 625.427 279.986 625.965 279.053C626.505 278.12 627.698 277.799 628.631 278.338L675.785 305.56C676.719 306.099 677.038 307.293 676.5 308.226C676.138 308.851 675.482 309.202 674.808 309.202Z" fill="#913276"/>
</g>
<g opacity="0.4">
<path d="M674.808 320.911C674.477 320.911 674.141 320.827 673.834 320.649L626.68 293.428C625.747 292.889 625.427 291.695 625.965 290.762C626.505 289.829 627.698 289.508 628.631 290.047L675.785 317.269C676.719 317.808 677.038 319.002 676.5 319.935C676.138 320.56 675.482 320.911 674.808 320.911Z" fill="#913276"/>
</g>
<g opacity="0.4">
<path d="M674.808 332.62C674.477 332.62 674.141 332.535 673.834 332.357L626.68 305.136C625.747 304.597 625.427 303.404 625.965 302.47C626.505 301.537 627.698 301.217 628.631 301.756L675.785 328.977C676.719 329.517 677.038 330.71 676.5 331.643C676.138 332.269 675.482 332.62 674.808 332.62Z" fill="#913276"/>
</g>
<g opacity="0.4">
<path d="M674.808 344.329C674.477 344.329 674.141 344.245 673.834 344.067L626.68 316.846C625.747 316.307 625.427 315.113 625.965 314.18C626.505 313.247 627.698 312.926 628.631 313.465L675.785 340.687C676.719 341.226 677.038 342.42 676.5 343.353C676.138 343.978 675.482 344.329 674.808 344.329Z" fill="#913276"/>
</g>
<g opacity="0.4">
<path d="M657.888 346.15C657.557 346.15 657.221 346.066 656.914 345.888L626.68 328.554C625.747 328.016 625.427 326.822 625.965 325.889C626.505 324.956 627.698 324.635 628.631 325.174L658.865 342.508C659.799 343.047 660.118 344.241 659.58 345.174C659.218 345.799 658.562 346.15 657.888 346.15Z" fill="#913276"/>
</g>
<path opacity="0.4" d="M579.763 250.343C579.763 248.306 581.207 247.472 582.971 248.491L612.358 265.457C614.122 266.475 615.565 268.976 615.565 271.013L615.564 351.012C615.564 353.049 614.121 353.883 612.357 352.864L582.971 335.899C581.207 334.88 579.763 332.38 579.763 330.343V250.343H579.763Z" fill="#913276"/>
<path d="M321.339 432.182C323.823 429.953 326.737 427.84 330.108 425.894C355.713 411.111 397.612 411.111 423.217 425.894C426.588 427.84 429.502 429.953 431.986 432.182H442.42V463.796C442.42 473.539 436.019 483.282 423.217 490.674C397.612 505.458 355.713 505.458 330.108 490.674C317.306 483.282 310.905 473.539 310.904 463.796V432.182H321.339Z" fill="url(#paint1_linear_67_488)"/>
<path d="M423.217 459.061C448.822 444.276 448.822 420.085 423.217 405.302C397.612 390.519 355.713 390.519 330.108 405.302C304.503 420.085 304.503 444.276 330.108 459.061C355.713 473.845 397.612 473.845 423.217 459.061Z" fill="url(#paint2_linear_67_488)"/>
<path d="M325.126 420.825C327.44 418.749 330.155 416.781 333.295 414.968C357.147 401.196 396.177 401.196 420.029 414.968C423.169 416.781 425.884 418.749 428.198 420.825H437.918V429.74C437.918 438.816 431.955 447.893 420.029 454.779C396.177 468.551 357.147 468.551 333.295 454.779C321.369 447.893 315.406 438.816 315.406 429.74V420.825H325.126Z" fill="#913276"/>
<path d="M420.029 445.864C443.881 432.092 443.881 409.557 420.029 395.786C396.177 382.015 357.147 382.015 333.294 395.786C309.442 409.556 309.442 432.092 333.294 445.864C357.146 459.637 396.177 459.637 420.029 445.864Z" fill="#913276"/>
<path d="M321.339 410.202C323.823 407.972 326.737 405.86 330.108 403.913C355.713 389.13 397.612 389.13 423.217 403.913C426.588 405.86 429.502 407.972 431.986 410.202H442.42V419.771C442.42 429.515 436.019 439.258 423.217 446.65C397.612 461.434 355.713 461.434 330.108 446.65C317.306 439.258 310.905 429.515 310.904 419.771V410.202H321.339Z" fill="url(#paint3_linear_67_488)"/>
<path d="M423.217 437.081C448.822 422.297 448.822 398.106 423.217 383.323C397.612 368.54 355.713 368.54 330.108 383.323C304.503 398.106 304.503 422.297 330.108 437.081C355.713 451.865 397.612 451.865 423.217 437.081Z" fill="url(#paint4_linear_67_488)"/>
<path d="M326.198 410.201C326.198 408.805 326.357 407.422 326.669 406.062C328.163 399.511 333.209 393.516 341.255 388.874C360.781 377.601 392.549 377.601 412.07 388.874C420.115 393.516 425.167 399.51 426.655 406.068C426.967 407.427 427.127 408.805 427.127 410.201C427.127 414.016 425.957 417.708 423.71 421.132C423.942 420.048 424.065 418.952 424.065 417.843C424.065 416.552 423.899 415.278 423.581 414.023C422.166 408.451 417.654 403.276 410.539 399.168C408.941 398.243 407.251 397.398 405.493 396.633C387.363 391.563 365.962 391.556 347.831 396.633C346.074 397.398 344.384 398.243 342.786 399.168C335.67 403.276 331.158 408.451 329.743 414.023C329.425 415.278 329.259 416.552 329.259 417.843C329.259 418.952 329.382 420.048 329.614 421.132C327.367 417.708 326.198 414.016 326.198 410.201Z" fill="url(#paint5_linear_67_488)"/>
<path d="M329.262 417.843C329.262 418.952 329.384 420.047 329.617 421.131L329.623 421.137C332.17 425.013 336.095 428.546 341.257 431.529C351.017 437.162 363.839 439.979 376.667 439.979C389.489 439.979 402.312 437.162 412.072 431.529C417.234 428.546 421.159 425.014 423.706 421.137L423.712 421.131C423.944 420.047 424.067 418.951 424.067 417.843C424.067 416.551 423.901 415.278 423.583 414.022C422.168 408.45 417.656 403.276 410.541 399.167C391.859 388.384 361.469 388.384 342.787 399.167C335.672 403.276 331.159 408.45 329.745 414.022C329.427 415.278 329.262 416.551 329.262 417.843Z" fill="#913276"/>
<path d="M334.88 447.262L329.262 444.019L330.637 443.219L334.88 445.669V447.262Z" fill="url(#paint6_linear_67_488)"/>
<path d="M329.262 439.928V444.019L330.637 443.219V440.77L329.262 439.928Z" fill="url(#paint7_linear_67_488)"/>
<path d="M334.88 445.669V443.22L330.637 440.77V443.22L334.88 445.669Z" fill="url(#paint8_linear_67_488)"/>
<path d="M420.571 485.191L426.189 481.947L424.813 481.148L420.571 483.597V485.191Z" fill="url(#paint9_linear_67_488)"/>
<path d="M426.188 477.856V481.947L424.813 481.148V478.698L426.188 477.856Z" fill="url(#paint10_linear_67_488)"/>
<path d="M420.571 483.598V481.148L424.813 478.698V481.148L420.571 483.598Z" fill="url(#paint11_linear_67_488)"/>
<path d="M411.97 489.908L417.588 486.664L416.213 485.865L411.97 488.314V489.908Z" fill="url(#paint12_linear_67_488)"/>
<path d="M417.588 482.574V486.665L416.213 485.865V483.416L417.588 482.574Z" fill="url(#paint13_linear_67_488)"/>
<path d="M411.97 488.315V485.866L416.213 483.416V485.866L411.97 488.315Z" fill="url(#paint14_linear_67_488)"/>
<path opacity="0.7" d="M235.684 164.373L326.308 410.3C326.308 418.444 331.653 426.018 341.365 431.627C351.125 437.261 363.947 440.077 376.775 440.077C389.597 440.077 402.419 437.261 412.18 431.627C421.891 426.018 427.237 418.444 427.237 410.3L523.371 164.373L235.684 164.373Z" fill="url(#paint15_linear_67_488)"/>
<path opacity="0.5" d="M492.151 618.737C507.456 618.737 519.864 615.447 519.864 611.388C519.864 607.33 507.456 604.04 492.151 604.04C476.846 604.04 464.438 607.33 464.438 611.388C464.438 615.447 476.846 618.737 492.151 618.737Z" fill="url(#paint16_linear_67_488)"/>
<path d="M497.466 611.388L489.048 606.163L489.94 596.739L496.609 526.528L489.171 523.949L488.962 531.127L487.056 597.33L486.793 606.383L486.718 608.975L497.466 611.388Z" fill="url(#paint17_linear_67_488)"/>
<path d="M487.056 597.33L489.94 596.738L492.16 596.286L497.896 523.991L488.962 531.127L487.056 597.33Z" fill="#1D1D1B"/>
<path d="M486.793 606.383L486.718 608.975L497.466 611.388L489.048 606.163L486.793 606.383Z" fill="#1D1D1B"/>
<path d="M486.288 613.383L477.87 608.157L478.762 598.733L485.431 528.523L477.993 525.943L477.784 533.122L475.878 599.325L475.615 608.378L475.54 610.97L486.288 613.383Z" fill="url(#paint18_linear_67_488)"/>
<path d="M475.878 599.324L478.762 598.733L480.982 598.281L486.717 525.986L477.784 533.121L475.878 599.324Z" fill="#1D1D1B"/>
<path d="M475.615 608.378L475.54 610.97L486.288 613.383L477.87 608.158L475.615 608.378Z" fill="#1D1D1B"/>
<path d="M500.927 484.889L512.123 496.655L525.494 477.851L531.01 476.923L534.808 479.675L528.298 481.981C528.298 481.981 519.296 531.723 495.181 494.594L500.927 484.889Z" fill="url(#paint19_linear_67_488)"/>
<path d="M506.748 491.006L502.575 503.852L492.236 497.368L500.927 484.889L506.748 491.006Z" fill="url(#paint20_linear_67_488)"/>
<path d="M492.813 481.747L486.288 482.922C480.836 483.903 476.861 488.635 476.834 494.174L474.692 536.62C481.862 540.164 490.505 538.622 496.008 532.816L502.477 525.99L502.635 490.538C503.001 485.109 498.167 480.783 492.813 481.747Z" fill="url(#paint21_linear_67_488)"/>
<path d="M493.971 498.456L487.236 521.042L502.477 525.989L509.884 504.187L493.971 498.456Z" fill="url(#paint22_linear_67_488)"/>
<path d="M488.707 478.887C488.707 478.887 488.955 483.12 489.589 483.568C490.223 484.016 493.512 487.53 491.83 480.527C490.148 473.523 488.707 478.887 488.707 478.887Z" fill="url(#paint23_linear_67_488)"/>
<path d="M492.333 481.804C494.606 481.804 496.448 479.962 496.448 477.689C496.448 475.415 494.606 473.573 492.333 473.573C490.06 473.573 488.217 475.415 488.217 477.689C488.217 479.962 490.06 481.804 492.333 481.804Z" fill="url(#paint24_linear_67_488)"/>
<path d="M492.317 517.221L493.269 519.65L496.435 512.602L479.27 512.316L483.082 500.505L479.395 487.002C475.722 491.157 472.918 495.958 471.741 499.601C461.764 530.485 480.637 520.235 488.19 515.793C489.712 514.898 491.672 515.577 492.317 517.221Z" fill="url(#paint25_linear_67_488)"/>
<path d="M471.371 498.328L481.379 505.545L484.333 496.801C484.491 496.113 484.713 495.442 484.912 494.765C485.818 491.698 482.709 486.378 479.395 487.003C475.722 491.157 473.116 494.921 471.371 498.328Z" fill="url(#paint26_linear_67_488)"/>
<path d="M500.305 469.646C500.305 473.056 498.83 476.278 496.402 478.309C496.442 477.931 496.449 477.709 496.432 477.343L493.475 477.404C493.475 477.404 492.971 478.532 492.336 478.465C491.691 478.399 491.584 479.58 491.584 479.58C491.584 479.58 490.616 476.75 490.213 478.829C490.004 479.908 490.724 480.547 490.724 480.547C490.724 480.547 490.229 481.234 489.23 481.234C483.111 481.234 478.156 475.756 478.156 469.645C478.156 463.526 483.111 458.571 489.23 458.571C495.342 458.571 500.305 463.526 500.305 469.646Z" fill="#1D1D1B"/>
<path opacity="0.8" d="M514.228 523.852L572.377 490.278L572.376 439.92L514.228 473.492V523.852Z" fill="#F5F5F6"/>
<g opacity="0.4">
<path d="M566.292 458.045V489.801L558.383 494.367L558.383 462.403L566.292 458.045Z" fill="url(#paint27_linear_67_488)"/>
<path d="M554.428 476.617V496.899L546.519 501.217V481.184L554.428 476.617Z" fill="url(#paint28_linear_67_488)"/>
<path d="M542.754 475.897V503.544L534.845 507.862V480.464L542.754 475.897Z" fill="url(#paint29_linear_67_488)"/>
<path d="M530.649 473.813V510.299L522.792 514.916L522.74 478.381L530.649 473.813Z" fill="url(#paint30_linear_67_488)"/>
</g>
<path opacity="0.8" d="M572.377 431.526L572.376 439.92L514.228 473.492V465.098L572.377 431.526Z" fill="#913276"/>
<path d="M492.908 339.161L494.312 341.008L495.911 341.427L497.515 341.847L496.382 338.397L494.531 337.362C494.531 337.362 496.294 334.177 497.613 330.134C498.215 328.297 498.723 326.283 498.928 324.31C498.998 323.667 499.035 323.028 499.031 322.398C499.026 321.195 498.873 320.03 498.528 318.971C498.528 318.971 498.122 319.223 497.567 319.773C497.054 320.286 496.406 321.06 495.837 322.137C495.576 322.627 495.334 323.182 495.128 323.802C494.681 325.112 494.401 326.721 494.462 328.661C494.681 335.683 493.66 334.792 493.66 334.792L492.908 339.161Z" fill="url(#paint31_linear_67_488)"/>
<path opacity="0.5" d="M514.228 436.161C529.098 436.161 541.153 432.965 541.153 429.022C541.153 425.078 529.098 421.882 514.228 421.882C499.358 421.882 487.304 425.078 487.304 429.022C487.304 432.965 499.358 436.161 514.228 436.161Z" fill="url(#paint32_linear_67_488)"/>
<path d="M502.556 429.622L510.735 424.545L509.868 415.389L503.389 347.176L510.615 344.669L510.818 351.643L512.67 415.964L512.926 424.759L512.999 427.277L502.556 429.622Z" fill="url(#paint33_linear_67_488)"/>
<path d="M512.671 415.963L509.868 415.388L507.711 414.949L502.139 344.71L510.818 351.643L512.671 415.963Z" fill="#1D1D1B"/>
<path d="M512.926 424.759L512.999 427.276L502.556 429.621L510.735 424.544L512.926 424.759Z" fill="#1D1D1B"/>
<path d="M513.416 431.56L521.595 426.483L520.728 417.327L514.249 349.114L521.475 346.607L521.678 353.582L523.531 417.902L523.786 426.697L523.859 429.215L513.416 431.56Z" fill="url(#paint34_linear_67_488)"/>
<path d="M523.53 417.901L520.728 417.326L518.571 416.887L512.999 346.648L521.678 353.58L523.53 417.901Z" fill="#1D1D1B"/>
<path d="M523.786 426.697L523.859 429.215L513.416 431.56L521.595 426.483L523.786 426.697Z" fill="#1D1D1B"/>
<path d="M494.911 320.553L497.593 325.144L507.638 318.844L499.194 306.72L494.911 320.553Z" fill="url(#paint35_linear_67_488)"/>
<path d="M507.077 303.667L513.417 304.809C518.713 305.762 522.575 310.359 522.602 315.741L524.683 356.979C517.716 360.422 509.319 358.924 503.973 353.284L497.687 346.651L497.535 312.208C497.178 306.934 501.875 302.731 507.077 303.667Z" fill="url(#paint36_linear_67_488)"/>
<path d="M490.492 325.47L493.659 334.791L494.531 337.361L496.382 338.396L497.515 341.847L495.911 341.427L497.687 346.654L502.178 345.194L502.584 345.064L512.497 341.847L510.888 336.461L510.016 333.537L505.95 319.903L499.031 322.397L497.58 322.915L496.517 323.302L495.128 323.801L490.492 325.47Z" fill="url(#paint37_linear_67_488)"/>
<path d="M511.066 300.889C511.066 300.889 510.825 305.001 510.209 305.437C509.593 305.872 506.398 309.286 508.032 302.482C509.667 295.678 511.066 300.889 511.066 300.889Z" fill="url(#paint38_linear_67_488)"/>
<path d="M507.544 303.723C509.752 303.723 511.543 301.933 511.543 299.725C511.543 297.516 509.752 295.726 507.544 295.726C505.335 295.726 503.545 297.516 503.545 299.725C503.545 301.933 505.335 303.723 507.544 303.723Z" fill="url(#paint39_linear_67_488)"/>
<path d="M503.874 298.135C503.874 298.135 489.021 290.714 491.557 284.233C494.094 277.752 512.496 298.589 512.496 298.589L511.002 301.731C511.002 301.731 511.212 299.106 510.128 299.712C509.044 300.318 509.315 302.345 509.315 302.345L508.597 299.719L503.874 298.135Z" fill="#1D1D1B"/>
<path d="M507.559 338.133L506.634 340.493L503.558 333.646L520.235 333.367L516.532 321.893L520.114 308.773C523.682 312.81 526.407 317.475 527.55 321.014C537.244 351.02 518.907 341.062 511.569 336.746C510.09 335.876 508.186 336.536 507.559 338.133Z" fill="url(#paint40_linear_67_488)"/>
<path d="M527.909 319.777L518.186 326.788L515.316 318.293C515.163 317.624 514.948 316.972 514.753 316.315C513.874 313.335 516.894 308.167 520.114 308.773C523.682 312.81 526.214 316.467 527.909 319.777Z" fill="url(#paint41_linear_67_488)"/>
<path opacity="0.8" d="M258.201 605.297L150.227 542.955L150.229 449.447L258.201 511.785V605.297Z" fill="#E7EAF3"/>
<path opacity="0.8" d="M150.227 433.86L150.229 449.447L258.201 511.785V496.2L150.227 433.86Z" fill="#913276"/>
<g opacity="0.4">
<path d="M246.871 573.864C246.779 573.864 246.687 573.841 246.601 573.792L233.546 566.255C233.287 566.106 233.199 565.776 233.348 565.517C233.497 565.259 233.827 565.17 234.086 565.319L247.142 572.856C247.4 573.005 247.489 573.336 247.339 573.594C247.239 573.767 247.057 573.864 246.871 573.864Z" fill="url(#paint42_linear_67_488)"/>
</g>
<g opacity="0.4">
<path d="M246.871 577.106C246.779 577.106 246.687 577.083 246.601 577.034L233.546 569.497C233.287 569.348 233.199 569.018 233.348 568.759C233.497 568.501 233.827 568.412 234.086 568.561L247.142 576.098C247.4 576.247 247.489 576.578 247.339 576.836C247.239 577.009 247.057 577.106 246.871 577.106Z" fill="url(#paint43_linear_67_488)"/>
</g>
<g opacity="0.4">
<path d="M246.871 580.348C246.779 580.348 246.687 580.325 246.601 580.276L233.546 572.739C233.287 572.59 233.199 572.259 233.348 572.001C233.497 571.743 233.827 571.654 234.086 571.803L247.142 579.34C247.4 579.489 247.489 579.819 247.339 580.078C247.239 580.251 247.057 580.348 246.871 580.348Z" fill="url(#paint44_linear_67_488)"/>
</g>
<g opacity="0.4">
<path d="M246.871 583.59C246.779 583.59 246.687 583.567 246.601 583.518L233.546 575.981C233.287 575.832 233.199 575.501 233.348 575.243C233.497 574.985 233.827 574.896 234.086 575.045L247.142 582.582C247.4 582.731 247.489 583.062 247.339 583.32C247.239 583.493 247.057 583.59 246.871 583.59Z" fill="url(#paint45_linear_67_488)"/>
</g>
<g opacity="0.4">
<path d="M242.186 584.094C242.095 584.094 242.002 584.071 241.916 584.022L233.546 579.223C233.287 579.073 233.199 578.743 233.348 578.485C233.497 578.226 233.827 578.138 234.086 578.287L242.457 583.086C242.715 583.235 242.804 583.566 242.655 583.824C242.555 583.997 242.373 584.094 242.186 584.094Z" fill="url(#paint46_linear_67_488)"/>
</g>
<path opacity="0.4" d="M233.276 557.359C233.276 556.744 233.711 556.493 234.243 556.8L243.108 561.918C243.64 562.225 244.075 562.979 244.075 563.594L244.075 567.594C244.075 568.208 243.639 568.46 243.107 568.153L234.243 563.035C233.711 562.728 233.276 561.973 233.276 561.359V557.359Z" fill="url(#paint47_linear_67_488)"/>
<g opacity="0.7">
<path d="M196.029 549.473C194.738 549.473 193.323 549.194 191.759 548.554C183.88 545.33 181.632 533.446 179.457 521.953C177.701 512.668 175.884 503.068 171.162 501.155C169.873 500.633 168.783 500.71 167.729 501.394C161.773 505.262 159.798 525.77 159.539 533.345C159.514 534.076 158.903 534.649 158.17 534.623C157.439 534.598 156.867 533.986 156.892 533.254C156.992 530.325 158.104 504.485 166.286 499.172C168.054 498.024 170.084 497.86 172.156 498.699C178.218 501.154 180.084 511.017 182.06 521.46C184.103 532.258 186.216 543.423 192.763 546.102C198.579 548.482 201.445 544.512 204.763 539.915C208.089 535.309 212.228 529.576 219.967 534.193C221.736 535.249 223.278 535.575 224.682 535.191C227.842 534.326 230.246 529.91 232.571 525.639C235.114 520.967 237.516 516.555 241.297 515.573C243.107 515.104 245.034 515.504 247.024 516.764C247.642 517.155 247.826 517.973 247.434 518.591C247.043 519.21 246.225 519.393 245.607 519.002C244.242 518.138 243.05 517.853 241.962 518.137C239.293 518.83 237.059 522.934 234.898 526.904C232.308 531.662 229.629 536.583 225.381 537.746C223.275 538.322 220.997 537.892 218.609 536.468C213.218 533.251 210.771 536.119 206.911 541.466C204.278 545.114 201.13 549.472 196.029 549.473Z" fill="#913276"/>
</g>
<path opacity="0.4" d="M160.148 493.941C160.148 487.022 165.05 484.191 171.043 487.649C177.035 491.107 181.937 499.598 181.937 506.518C181.937 513.437 177.035 516.269 171.043 512.81C165.05 509.351 160.148 500.86 160.148 493.941Z" fill="#913276"/>
<path opacity="0.6" d="M164.947 496.711C164.947 492.84 167.69 491.255 171.043 493.19C174.396 495.125 177.139 499.876 177.139 503.748C177.139 507.62 174.396 509.204 171.043 507.269C167.69 505.333 164.947 500.582 164.947 496.711Z" fill="#913276"/>
<path d="M168.066 498.511C168.066 496.621 169.405 495.847 171.043 496.792C172.68 497.737 174.02 500.057 174.02 501.948C174.02 503.838 172.68 504.612 171.043 503.667C169.405 502.722 168.066 500.401 168.066 498.511Z" fill="url(#paint48_linear_67_488)"/>
<path d="M134.891 540.37L154.112 528.19L168.306 504.092L175.337 497.877L175.133 500.466C174.902 503.385 172.241 505.493 169.347 505.05L168.984 504.995L158.611 529.44L138.191 544.613L134.891 540.37Z" fill="url(#paint49_linear_67_488)"/>
<path opacity="0.5" d="M142.111 659.055C157.039 659.055 169.141 655.846 169.141 651.887C169.141 647.928 157.039 644.719 142.111 644.719C127.182 644.719 115.081 647.928 115.081 651.887C115.081 655.846 127.182 659.055 142.111 659.055Z" fill="url(#paint50_linear_67_488)"/>
<path d="M148.332 589.555L147.635 651.887H153.775L145.846 654.966L143.229 580.52L148.332 589.555Z" fill="url(#paint51_linear_67_488)"/>
<path d="M142.721 587.797L142.316 616.614L132.82 647.908L136.932 654.642L130.695 649.693L138.827 615.48L136.356 591.579L142.721 587.797Z" fill="url(#paint52_linear_67_488)"/>
<path d="M157.985 587.796L159.325 593.179C159.692 594.648 159.365 596.205 158.44 597.404L156.629 596.807L155.875 593.845L157.985 587.796Z" fill="url(#paint53_linear_67_488)"/>
<path d="M146.895 531.062L150.076 539.762C149.493 542.888 149.343 562.022 150.163 565.094L153.539 577.74C153.539 577.74 152.068 599.658 149.477 599.688C149.413 599.688 149.348 599.689 149.284 599.69C135.383 599.793 125.636 585.727 130.68 572.773C131.811 569.868 133.102 567.334 134.564 565.539C139.16 559.896 136.564 552.359 134.032 547.578C130.914 541.689 133.814 534.221 140.242 532.463C140.498 532.393 140.756 532.331 141.018 532.277L146.895 531.062Z" fill="url(#paint54_linear_67_488)"/>
<path d="M154.417 542.508L151.675 562.521L159.263 592.983L148.45 564.688L148.415 540.847L150.076 539.762C152.102 538.438 154.746 540.11 154.417 542.508Z" fill="url(#paint55_linear_67_488)"/>
<path d="M154.17 544.311L148.428 550.23L148.414 540.847L146.895 531.061L151.552 534.02C153.81 535.455 155.025 538.075 154.662 540.726L154.17 544.311Z" fill="url(#paint56_linear_67_488)"/>
<path d="M145.997 529.018C148.143 529.018 149.883 527.278 149.883 525.132C149.883 522.985 148.143 521.246 145.997 521.246C143.851 521.246 142.111 522.985 142.111 525.132C142.111 527.278 143.851 529.018 145.997 529.018Z" fill="url(#paint57_linear_67_488)"/>
<path d="M149.385 522.481C147.722 524.107 146.673 526.306 146.954 528.614C147.094 529.759 147.469 530.951 148.257 532.012C150.856 535.507 152.427 541.496 148.529 542.499C144.632 543.503 142.465 539.93 140.188 542.612C137.912 545.295 132.066 541.352 135.761 534.818C139.456 528.284 139.963 518.179 146.625 519.74C150.289 520.599 150.204 521.681 149.385 522.481Z" fill="#1D1D1B"/>
<path d="M153.775 651.887H147.635L145.782 653.151L145.846 654.966L153.775 651.887Z" fill="#1D1D1B"/>
<path d="M131.084 648.055L132.82 647.908L136.932 654.642L130.695 649.693L131.084 648.055Z" fill="#1D1D1B"/>
<g opacity="0.7">
<path fill-rule="evenodd" clip-rule="evenodd" d="M342.784 294.333C352.209 323.837 365.258 340.085 379.528 340.085C393.798 340.085 406.847 323.837 416.271 294.333C425.301 266.068 430.273 228.554 430.273 188.703C430.273 148.852 425.301 111.338 416.271 83.0725C406.846 53.5689 393.798 37.3203 379.528 37.3203C365.257 37.3203 352.209 53.5689 342.784 83.0725C333.755 111.338 328.782 148.852 328.782 188.703C328.782 228.554 333.755 266.068 342.784 294.333ZM335.8 188.703C335.8 102.348 358.41 44.3385 379.528 44.3385C400.645 44.3385 423.255 102.348 423.255 188.703C423.255 275.059 400.645 333.068 379.528 333.068C358.41 333.068 335.8 275.059 335.8 188.703Z" fill="url(#paint58_linear_67_488)"/>
</g>
<g opacity="0.7">
<path fill-rule="evenodd" clip-rule="evenodd" d="M459.561 266.822C466.527 267.727 472.954 268.175 478.8 268.175C498.731 268.175 511.901 262.971 516.585 252.982C522.645 240.062 513.475 221.348 490.765 200.288C469.008 180.111 437.155 159.681 401.074 142.759C364.994 125.839 328.919 114.412 299.495 110.585C268.779 106.59 248.529 111.505 242.47 124.425C236.41 137.345 245.58 156.058 268.29 177.119C290.047 197.295 321.9 217.726 357.981 234.647C394.061 251.568 430.136 262.994 459.561 266.822ZM248.823 127.405C252.247 120.105 263.415 116.199 280.269 116.199C307.562 116.199 349.76 126.444 398.095 149.113C433.536 165.735 464.753 185.736 485.993 205.433C505.985 223.973 514.821 240.218 510.233 250.002C501.264 269.12 439.143 264.959 360.961 228.293C325.519 211.671 294.302 191.67 273.063 171.973C253.07 153.432 244.235 137.188 248.823 127.405Z" fill="url(#paint59_linear_67_488)"/>
</g>
<g opacity="0.7">
<path fill-rule="evenodd" clip-rule="evenodd" d="M242.47 252.981C247.155 262.972 260.322 268.175 280.255 268.175C286.1 268.175 292.53 267.727 299.495 266.821C328.92 262.994 364.995 251.568 401.075 234.646C437.155 217.726 469.008 197.295 490.765 177.118C513.475 156.057 522.646 137.344 516.586 124.424C510.528 111.505 490.278 106.589 459.561 110.584C430.136 114.411 394.061 125.838 357.981 142.759C321.901 159.68 290.048 180.111 268.29 200.287C245.581 221.347 236.41 240.062 242.47 252.981ZM360.961 149.113C409.301 126.442 451.495 116.199 478.787 116.199C495.636 116.199 506.809 120.106 510.233 127.404C514.821 137.188 505.986 153.432 485.993 171.973C464.753 191.67 433.537 211.671 398.095 228.293C349.755 250.964 307.56 261.208 280.268 261.206C263.419 261.205 252.246 257.299 248.823 250.002C244.235 240.218 253.07 223.973 273.063 205.433C294.303 185.736 325.519 165.735 360.961 149.113Z" fill="url(#paint60_linear_67_488)"/>
</g>
<path opacity="0.4" d="M464.173 77.4733C468.918 77.4733 472.765 73.6266 472.765 68.8814C472.765 64.1363 468.918 60.2896 464.173 60.2896C459.428 60.2896 455.581 64.1363 455.581 68.8814C455.581 73.6266 459.428 77.4733 464.173 77.4733Z" fill="url(#paint61_linear_67_488)"/>
<path opacity="0.4" d="M424.813 31.7958C433.593 31.7958 440.711 24.678 440.711 15.8979C440.711 7.11772 433.593 0 424.813 0C416.033 0 408.915 7.11772 408.915 15.8979C408.915 24.678 416.033 31.7958 424.813 31.7958Z" fill="url(#paint62_linear_67_488)"/>
<path opacity="0.4" d="M272.97 322.7C276.312 322.7 279.022 319.99 279.022 316.648C279.022 313.306 276.312 310.596 272.97 310.596C269.628 310.596 266.918 313.306 266.918 316.648C266.918 319.99 269.628 322.7 272.97 322.7Z" fill="url(#paint63_linear_67_488)"/>
<path opacity="0.5" d="M213.582 445.397C230.553 445.397 244.31 441.749 244.31 437.249C244.31 432.749 230.553 429.101 213.582 429.101C196.612 429.101 182.855 432.749 182.855 437.249C182.855 441.749 196.612 445.397 213.582 445.397Z" fill="url(#paint64_linear_67_488)"/>
<path d="M184.335 311.162L197.896 308.659L202.293 329.071L189.223 332.75L184.335 311.162Z" fill="url(#paint65_linear_67_488)"/>
<path d="M226.98 311.441L227.819 328.494L222.418 348.676L220.55 350.7L225.127 329.488L223.243 310.863L226.98 311.441Z" fill="url(#paint66_linear_67_488)"/>
<path d="M224.729 351.028L222.313 392.362L224.729 438.145L217.166 436.297L222.781 434.458L217.695 391.39L216.275 351.028H224.729Z" fill="url(#paint67_linear_67_488)"/>
<path d="M224.603 435.757L222.781 434.458L217.167 436.297L224.729 438.145L224.603 435.757Z" fill="#1D1D1B"/>
<path d="M219.275 355.148L213.86 396.482L216.275 442.265L208.713 440.417L214.327 438.578L209.241 395.51L211.081 355.148H219.275Z" fill="url(#paint68_linear_67_488)"/>
<path d="M216.149 439.878L214.327 438.579L208.713 440.418L216.275 442.266L216.149 439.878Z" fill="#1D1D1B"/>
<path d="M229.91 356.127C228.912 360.997 226.967 360.53 227.325 365.488L227.359 370.279V370.291L223.955 371.88C222.357 372.626 220.497 372.551 218.964 371.68L216.729 370.386C210.234 366.626 205.603 372.44 206.118 364.953L208.982 322.581C206.663 320.181 204.927 316 207.138 313.493L212.084 306.914C214.192 304.11 217.732 302.781 221.164 303.505L223.909 304.084C223.909 304.084 228.192 306.117 226.737 315.712C225.575 323.368 220.09 325.855 223.978 333.947C227.629 341.546 230.815 351.709 229.91 356.127Z" fill="url(#paint69_linear_67_488)"/>
<path d="M218 301.034C220.44 301.034 222.418 299.057 222.418 296.617C222.418 294.177 220.44 292.199 218 292.199C215.561 292.199 213.583 294.177 213.583 296.617C213.583 299.057 215.561 301.034 218 301.034Z" fill="url(#paint70_linear_67_488)"/>
<path d="M215.044 290.302C213.783 290.693 213.21 292.156 213.84 293.316C214.891 295.251 216.898 299.238 216.937 301.52C216.964 303.115 216.911 304.803 216.642 305.824C216.46 306.514 216.772 307.232 217.423 307.523C220.786 309.023 228.31 311.874 228.312 307.35C228.313 305.078 226.312 299.277 225.871 296.617C225.065 291.746 222.612 290.442 217.933 290.057C216.781 289.963 215.804 290.067 215.044 290.302Z" fill="#1D1D1B"/>
<path d="M217.589 316.438L210.805 333.947L187.073 326.796L184.335 323.989L186.504 320.829L187.441 324.027L190.18 323.478L188.141 325.75L209.093 330.256L213.341 312.79L217.589 316.438Z" fill="url(#paint71_linear_67_488)"/>
<path d="M213.824 308.424C212.728 309.438 211.628 311.243 211.635 314.405L218.248 318.108C218.248 318.108 223.642 311.658 217.915 308.109C216.629 307.311 214.935 307.396 213.824 308.424Z" fill="url(#paint72_linear_67_488)"/>
<path opacity="0.5" d="M302.602 668.67C312.061 668.67 319.729 664.372 319.729 659.07C319.729 653.768 312.061 649.47 302.602 649.47C293.143 649.47 285.475 653.768 285.475 659.07C285.475 664.372 293.143 668.67 302.602 668.67Z" fill="url(#paint73_linear_67_488)"/>
<path d="M280.139 606.952L280.789 608.096C284.831 615.223 286.201 623.557 284.653 631.603L281.737 646.75C280.726 652.003 283.164 657.319 287.805 659.981L287.851 660.007C291.721 662.227 296.48 662.22 300.343 659.989C304.965 657.32 307.388 652.016 306.379 646.776L303.48 631.713C301.918 623.6 303.325 615.196 307.443 608.034L308.065 606.952H280.139V606.952Z" fill="url(#paint74_linear_67_488)"/>
<path d="M308.066 606.954C308.066 608.27 305.924 609.438 302.599 610.183C300.245 610.711 297.3 611.024 294.103 611.024C290.906 611.024 287.957 610.711 285.604 610.183C282.282 609.438 280.14 608.27 280.14 606.954C280.14 604.704 286.389 602.881 294.103 602.881C301.814 602.881 308.066 604.704 308.066 606.954Z" fill="url(#paint75_linear_67_488)"/>
<path d="M302.602 610.145C302.602 610.156 302.602 610.171 302.599 610.183C300.246 610.71 297.3 611.023 294.103 611.023C290.906 611.023 287.958 610.71 285.604 610.183C285.601 610.171 285.601 610.156 285.601 610.145C285.601 608.774 289.408 607.667 294.103 607.667C298.796 607.667 302.602 608.774 302.602 610.145Z" fill="url(#paint76_linear_67_488)"/>
<path d="M297.235 609.741C297.235 609.741 305.023 508.247 291.32 506.084C277.618 503.92 292.974 609.689 292.974 609.689L297.235 609.741Z" fill="url(#paint77_linear_67_488)"/>
<path d="M289.017 609.741C289.017 609.741 262.882 533.39 275.949 529.596C289.017 525.801 294.859 609.741 294.859 609.741H289.017Z" fill="url(#paint78_linear_67_488)"/>
<path d="M297.235 609.741C297.235 609.741 314.159 560.301 305.697 557.843C297.235 555.386 293.452 609.741 293.452 609.741H297.235Z" fill="url(#paint79_linear_67_488)"/>
<path opacity="0.5" d="M3.92114 493.215C3.92114 493.215 9.93537 528.535 33.5946 525.676L108.758 481.591C117.904 476.618 116.534 467.779 107.679 462.304L98.44 456.59L3.92114 493.215Z" fill="url(#paint80_linear_67_488)"/>
<path d="M80.6203 427.241L80.6191 417.982L104.676 431.872L96.5905 436.54L80.6203 427.241Z" fill="url(#paint81_linear_67_488)"/>
<path d="M104.676 449.207V431.872L24.4851 478.17V505.947L95.6322 464.872C101.229 461.641 104.676 455.669 104.676 449.207Z" fill="url(#paint82_linear_67_488)"/>
<path d="M9.18851 497.117L24.4853 505.948V478.171L0.429199 464.28V481.945C0.429199 488.204 3.76824 493.987 9.18851 497.117Z" fill="url(#paint83_linear_67_488)"/>
<path d="M0.429199 464.28L80.6192 417.982L80.6204 427.241L8.44843 468.91L0.429199 464.28Z" fill="url(#paint84_linear_67_488)"/>
<path d="M96.5906 436.54L80.6204 427.241L8.44849 468.91L24.4854 478.17L96.5906 436.54Z" fill="url(#paint85_linear_67_488)"/>
<path d="M80.6191 440.444C80.6191 440.444 74.1646 422.362 60.6804 427.971C47.1963 433.58 64.1972 447.488 45.8303 438.067C27.4634 428.646 31.7786 468.213 31.7786 468.213L80.6191 440.444Z" fill="url(#paint86_linear_67_488)"/>
<path d="M86.5401 437.078C86.5401 437.078 85.8403 413.301 74.9871 414.5C64.1339 415.7 79.0153 452.733 63.8689 436.913C48.7226 421.093 52.9917 455.01 37.8631 450.851C22.7345 446.692 12.7968 422.863 11.8577 448.552C10.9185 474.241 24.4035 472.408 24.4035 472.408L86.5401 437.078Z" fill="url(#paint87_linear_67_488)"/>
<path opacity="0.5" d="M707.823 481.112C707.823 481.112 701.809 516.432 678.15 513.573L602.987 469.488C593.84 464.515 595.211 455.676 604.065 450.201L613.304 444.487L707.823 481.112Z" fill="url(#paint88_linear_67_488)"/>
<path d="M631.124 415.138L631.125 405.879L607.068 419.769L615.154 424.437L631.124 415.138Z" fill="url(#paint89_linear_67_488)"/>
<path d="M607.068 437.104V419.769L687.259 466.067V493.844L616.112 452.769C610.516 449.538 607.068 443.566 607.068 437.104Z" fill="url(#paint90_linear_67_488)"/>
<path d="M702.556 485.013L687.259 493.845V466.067L711.315 452.177V469.842C711.315 476.1 707.976 481.884 702.556 485.013Z" fill="url(#paint91_linear_67_488)"/>
<path d="M711.315 452.177L631.125 405.879L631.124 415.138L703.296 456.807L711.315 452.177Z" fill="url(#paint92_linear_67_488)"/>
<path d="M615.154 424.437L631.124 415.138L703.296 456.806L687.259 466.067L615.154 424.437Z" fill="url(#paint93_linear_67_488)"/>
<path d="M631.125 428.341C631.125 428.341 637.58 410.259 651.064 415.868C664.548 421.477 647.547 435.385 665.914 425.964C684.281 416.543 679.966 456.11 679.966 456.11L631.125 428.341Z" fill="url(#paint94_linear_67_488)"/>
<path d="M625.204 424.975C625.204 424.975 625.904 401.198 636.757 402.397C647.61 403.597 632.729 440.63 647.875 424.81C663.022 408.989 658.753 442.907 673.881 438.748C689.01 434.589 698.947 410.76 699.887 436.449C700.826 462.138 687.341 460.304 687.341 460.304L625.204 424.975Z" fill="url(#paint95_linear_67_488)"/>
<defs>
<linearGradient id="paint0_linear_67_488" x1="25.1383" y1="378.152" x2="233.523" y2="378.152" gradientUnits="userSpaceOnUse">
<stop stop-color="#F6F6F6"/>
<stop offset="1" stop-color="#CCD5ED"/>
</linearGradient>
<linearGradient id="paint1_linear_67_488" x1="442.42" y1="414.807" x2="310.905" y2="414.807" gradientUnits="userSpaceOnUse">
<stop stop-color="#F6F6F6"/>
<stop offset="1" stop-color="#CCD5ED"/>
</linearGradient>
<linearGradient id="paint2_linear_67_488" x1="301.633" y1="414.991" x2="319.132" y2="481.299" gradientUnits="userSpaceOnUse">
<stop stop-color="#F6F6F6"/>
<stop offset="1" stop-color="#CCD5ED"/>
</linearGradient>
<linearGradient id="paint3_linear_67_488" x1="442.42" y1="392.826" x2="310.905" y2="392.826" gradientUnits="userSpaceOnUse">
<stop stop-color="#F6F6F6"/>
<stop offset="1" stop-color="#CCD5ED"/>
</linearGradient>
<linearGradient id="paint4_linear_67_488" x1="301.633" y1="393.011" x2="319.132" y2="459.319" gradientUnits="userSpaceOnUse">
<stop stop-color="#F6F6F6"/>
<stop offset="1" stop-color="#CCD5ED"/>
</linearGradient>
<linearGradient id="paint5_linear_67_488" x1="382.592" y1="380.65" x2="372.507" y2="414.003" gradientUnits="userSpaceOnUse">
<stop stop-color="#F6F6F6"/>
<stop offset="1" stop-color="#CCD5ED"/>
</linearGradient>
<linearGradient id="paint6_linear_67_488" x1="327.31" y1="441.797" x2="327.791" y2="447.949" gradientUnits="userSpaceOnUse">
<stop stop-color="#4790CD"/>
<stop offset="1" stop-color="#DA62A5"/>
</linearGradient>
<linearGradient id="paint7_linear_67_488" x1="331.213" y1="439.718" x2="328.441" y2="439.341" gradientUnits="userSpaceOnUse">
<stop stop-color="#4790CD"/>
<stop offset="1" stop-color="#DA62A5"/>
</linearGradient>
<linearGradient id="paint8_linear_67_488" x1="331.217" y1="432.719" x2="331.217" y2="436.279" gradientUnits="userSpaceOnUse">
<stop stop-color="#4790CD"/>
<stop offset="1" stop-color="#DA62A5"/>
</linearGradient>
<linearGradient id="paint9_linear_67_488" x1="419.638" y1="479.062" x2="419.158" y2="485.214" gradientUnits="userSpaceOnUse">
<stop stop-color="#4790CD"/>
<stop offset="1" stop-color="#DA62A5"/>
</linearGradient>
<linearGradient id="paint10_linear_67_488" x1="425.22" y1="484.86" x2="427.991" y2="484.482" gradientUnits="userSpaceOnUse">
<stop stop-color="#4790CD"/>
<stop offset="1" stop-color="#DA62A5"/>
</linearGradient>
<linearGradient id="paint11_linear_67_488" x1="421.15" y1="475.364" x2="421.15" y2="478.925" gradientUnits="userSpaceOnUse">
<stop stop-color="#4790CD"/>
<stop offset="1" stop-color="#DA62A5"/>
</linearGradient>
<linearGradient id="paint12_linear_67_488" x1="411.038" y1="483.779" x2="410.558" y2="489.931" gradientUnits="userSpaceOnUse">
<stop stop-color="#4790CD"/>
<stop offset="1" stop-color="#DA62A5"/>
</linearGradient>
<linearGradient id="paint13_linear_67_488" x1="416.619" y1="489.577" x2="419.391" y2="489.2" gradientUnits="userSpaceOnUse">
<stop stop-color="#4790CD"/>
<stop offset="1" stop-color="#DA62A5"/>
</linearGradient>
<linearGradient id="paint14_linear_67_488" x1="412.55" y1="475.365" x2="412.55" y2="478.925" gradientUnits="userSpaceOnUse">
<stop stop-color="#4790CD"/>
<stop offset="1" stop-color="#DA62A5"/>
</linearGradient>
<linearGradient id="paint15_linear_67_488" x1="521.185" y1="552.673" x2="521.185" y2="281.159" gradientUnits="userSpaceOnUse">
<stop stop-color="#DA62A5"/>
<stop offset="1" stop-color="#DA62A5" stop-opacity="0.01"/>
</linearGradient>
<linearGradient id="paint16_linear_67_488" x1="432.108" y1="564.079" x2="432.108" y2="595.923" gradientUnits="userSpaceOnUse">
<stop stop-color="#F6F6F6"/>
<stop offset="1" stop-color="#CCD5ED"/>
</linearGradient>
<linearGradient id="paint17_linear_67_488" x1="494.862" y1="602.876" x2="480.813" y2="595.7" gradientUnits="userSpaceOnUse">
<stop stop-color="#FAD6C7"/>
<stop offset="1" stop-color="#E4857F"/>
</linearGradient>
<linearGradient id="paint18_linear_67_488" x1="483.683" y1="604.871" x2="469.635" y2="597.695" gradientUnits="userSpaceOnUse">
<stop stop-color="#FAD6C7"/>
<stop offset="1" stop-color="#E4857F"/>
</linearGradient>
<linearGradient id="paint19_linear_67_488" x1="446.865" y1="480.644" x2="448.241" y2="588.557" gradientUnits="userSpaceOnUse">
<stop stop-color="#FAD6C7"/>
<stop offset="1" stop-color="#E4857F"/>
</linearGradient>
<linearGradient id="paint20_linear_67_488" x1="474.099" y1="487.335" x2="476.381" y2="553.328" gradientUnits="userSpaceOnUse">
<stop stop-color="#4790CD"/>
<stop offset="1" stop-color="#DA62A5"/>
</linearGradient>
<linearGradient id="paint21_linear_67_488" x1="501.401" y1="529.675" x2="496.601" y2="480.014" gradientUnits="userSpaceOnUse">
<stop stop-color="#F6F6F6"/>
<stop offset="1" stop-color="#CCD5ED"/>
</linearGradient>
<linearGradient id="paint22_linear_67_488" x1="494.261" y1="480.551" x2="475.679" y2="510.788" gradientUnits="userSpaceOnUse">
<stop stop-color="#4790CD"/>
<stop offset="1" stop-color="#DA62A5"/>
</linearGradient>
<linearGradient id="paint23_linear_67_488" x1="491.273" y1="484.174" x2="491.352" y2="480.847" gradientUnits="userSpaceOnUse">
<stop stop-color="#FAD6C7"/>
<stop offset="1" stop-color="#E4857F"/>
</linearGradient>
<linearGradient id="paint24_linear_67_488" x1="494.949" y1="479.164" x2="494.526" y2="474.22" gradientUnits="userSpaceOnUse">
<stop stop-color="#FAD6C7"/>
<stop offset="1" stop-color="#E4857F"/>
</linearGradient>
<linearGradient id="paint25_linear_67_488" x1="434.49" y1="491.188" x2="438.139" y2="609.131" gradientUnits="userSpaceOnUse">
<stop stop-color="#FAD6C7"/>
<stop offset="1" stop-color="#E4857F"/>
</linearGradient>
<linearGradient id="paint26_linear_67_488" x1="454.25" y1="489.388" x2="456.663" y2="554.073" gradientUnits="userSpaceOnUse">
<stop stop-color="#4790CD"/>
<stop offset="1" stop-color="#DA62A5"/>
</linearGradient>
<linearGradient id="paint27_linear_67_488" x1="581.786" y1="475.107" x2="588.273" y2="474.856" gradientUnits="userSpaceOnUse">
<stop stop-color="#4790CD"/>
<stop offset="1" stop-color="#DA62A5"/>
</linearGradient>
<linearGradient id="paint28_linear_67_488" x1="583.638" y1="472.378" x2="590.323" y2="471.813" gradientUnits="userSpaceOnUse">
<stop stop-color="#4790CD"/>
<stop offset="1" stop-color="#DA62A5"/>
</linearGradient>
<linearGradient id="paint29_linear_67_488" x1="580.218" y1="471.363" x2="586.757" y2="471.036" gradientUnits="userSpaceOnUse">
<stop stop-color="#4790CD"/>
<stop offset="1" stop-color="#DA62A5"/>
</linearGradient>
<linearGradient id="paint30_linear_67_488" x1="576.367" y1="470.466" x2="582.814" y2="470.271" gradientUnits="userSpaceOnUse">
<stop stop-color="#4790CD"/>
<stop offset="1" stop-color="#DA62A5"/>
</linearGradient>
<linearGradient id="paint31_linear_67_488" x1="497.88" y1="331.881" x2="498.92" y2="317.644" gradientUnits="userSpaceOnUse">
<stop stop-color="#FAD6C7"/>
<stop offset="1" stop-color="#E4857F"/>
</linearGradient>
<linearGradient id="paint32_linear_67_488" x1="455.894" y1="383.058" x2="455.894" y2="413.996" gradientUnits="userSpaceOnUse">
<stop stop-color="#F6F6F6"/>
<stop offset="1" stop-color="#CCD5ED"/>
</linearGradient>
<linearGradient id="paint33_linear_67_488" x1="508.995" y1="429.003" x2="522.643" y2="422.031" gradientUnits="userSpaceOnUse">
<stop stop-color="#FAD6C7"/>
<stop offset="1" stop-color="#E4857F"/>
</linearGradient>
<linearGradient id="paint34_linear_67_488" x1="519.855" y1="430.941" x2="533.504" y2="423.969" gradientUnits="userSpaceOnUse">
<stop stop-color="#FAD6C7"/>
<stop offset="1" stop-color="#E4857F"/>
</linearGradient>
<linearGradient id="paint35_linear_67_488" x1="479.318" y1="307.31" x2="476.598" y2="371.397" gradientUnits="userSpaceOnUse">
<stop stop-color="#4790CD"/>
<stop offset="1" stop-color="#DA62A5"/>
</linearGradient>
<linearGradient id="paint36_linear_67_488" x1="522.608" y1="352.529" x2="527.272" y2="304.279" gradientUnits="userSpaceOnUse">
<stop stop-color="#F6F6F6"/>
<stop offset="1" stop-color="#CCD5ED"/>
</linearGradient>
<linearGradient id="paint37_linear_67_488" x1="479.154" y1="318.801" x2="497.207" y2="348.179" gradientUnits="userSpaceOnUse">
<stop stop-color="#4790CD"/>
<stop offset="1" stop-color="#DA62A5"/>
</linearGradient>
<linearGradient id="paint38_linear_67_488" x1="510.036" y1="305.978" x2="509.959" y2="302.745" gradientUnits="userSpaceOnUse">
<stop stop-color="#FAD6C7"/>
<stop offset="1" stop-color="#E4857F"/>
</linearGradient>
<linearGradient id="paint39_linear_67_488" x1="509.805" y1="301.57" x2="510.217" y2="296.766" gradientUnits="userSpaceOnUse">
<stop stop-color="#FAD6C7"/>
<stop offset="1" stop-color="#E4857F"/>
</linearGradient>
<linearGradient id="paint40_linear_67_488" x1="470.998" y1="309.958" x2="467.452" y2="424.547" gradientUnits="userSpaceOnUse">
<stop stop-color="#FAD6C7"/>
<stop offset="1" stop-color="#E4857F"/>
</linearGradient>
<linearGradient id="paint41_linear_67_488" x1="498.2" y1="309.35" x2="495.855" y2="372.195" gradientUnits="userSpaceOnUse">
<stop stop-color="#4790CD"/>
<stop offset="1" stop-color="#DA62A5"/>
</linearGradient>
<linearGradient id="paint42_linear_67_488" x1="236.524" y1="566.48" x2="236.063" y2="571.948" gradientUnits="userSpaceOnUse">
<stop stop-color="#4790CD"/>
<stop offset="1" stop-color="#DA62A5"/>
</linearGradient>
<linearGradient id="paint43_linear_67_488" x1="236.524" y1="569.722" x2="236.063" y2="575.19" gradientUnits="userSpaceOnUse">
<stop stop-color="#4790CD"/>
<stop offset="1" stop-color="#DA62A5"/>
</linearGradient>
<linearGradient id="paint44_linear_67_488" x1="236.524" y1="572.963" x2="236.063" y2="578.432" gradientUnits="userSpaceOnUse">
<stop stop-color="#4790CD"/>
<stop offset="1" stop-color="#DA62A5"/>
</linearGradient>
<linearGradient id="paint45_linear_67_488" x1="236.524" y1="576.206" x2="236.063" y2="581.674" gradientUnits="userSpaceOnUse">
<stop stop-color="#4790CD"/>
<stop offset="1" stop-color="#DA62A5"/>
</linearGradient>
<linearGradient id="paint46_linear_67_488" x1="235.371" y1="578.979" x2="235.032" y2="582.837" gradientUnits="userSpaceOnUse">
<stop stop-color="#4790CD"/>
<stop offset="1" stop-color="#DA62A5"/>
</linearGradient>
<linearGradient id="paint47_linear_67_488" x1="222.359" y1="544.105" x2="205.25" y2="586.143" gradientUnits="userSpaceOnUse">
<stop stop-color="#4790CD"/>
<stop offset="1" stop-color="#DA62A5"/>
</linearGradient>
<linearGradient id="paint48_linear_67_488" x1="168.573" y1="494.001" x2="164.888" y2="502.858" gradientUnits="userSpaceOnUse">
<stop stop-color="#F6F6F6"/>
<stop offset="1" stop-color="#CCD5ED"/>
</linearGradient>
<linearGradient id="paint49_linear_67_488" x1="149.651" y1="506.025" x2="122.678" y2="527.763" gradientUnits="userSpaceOnUse">
<stop stop-color="#FAD6C7"/>
<stop offset="1" stop-color="#E4857F"/>
</linearGradient>
<linearGradient id="paint50_linear_67_488" x1="83.5488" y1="605.743" x2="83.5488" y2="636.802" gradientUnits="userSpaceOnUse">
<stop stop-color="#F6F6F6"/>
<stop offset="1" stop-color="#CCD5ED"/>
</linearGradient>
<linearGradient id="paint51_linear_67_488" x1="152.361" y1="611.271" x2="128.097" y2="598.285" gradientUnits="userSpaceOnUse">
<stop stop-color="#FAD6C7"/>
<stop offset="1" stop-color="#E4857F"/>
</linearGradient>
<linearGradient id="paint52_linear_67_488" x1="141.778" y1="611.388" x2="112.384" y2="586.016" gradientUnits="userSpaceOnUse">
<stop stop-color="#FAD6C7"/>
<stop offset="1" stop-color="#E4857F"/>
</linearGradient>
<linearGradient id="paint53_linear_67_488" x1="159.526" y1="601.729" x2="167.966" y2="597.61" gradientUnits="userSpaceOnUse">
<stop stop-color="#FAD6C7"/>
<stop offset="1" stop-color="#E4857F"/>
</linearGradient>
<linearGradient id="paint54_linear_67_488" x1="151.324" y1="589.078" x2="138.363" y2="538.12" gradientUnits="userSpaceOnUse">
<stop stop-color="#F6F6F6"/>
<stop offset="1" stop-color="#CCD5ED"/>
</linearGradient>
<linearGradient id="paint55_linear_67_488" x1="156.234" y1="536.565" x2="143.626" y2="534.945" gradientUnits="userSpaceOnUse">
<stop stop-color="#FAD6C7"/>
<stop offset="1" stop-color="#E4857F"/>
</linearGradient>
<linearGradient id="paint56_linear_67_488" x1="163.567" y1="589.067" x2="153.654" y2="536.803" gradientUnits="userSpaceOnUse">
<stop stop-color="#F6F6F6"/>
<stop offset="1" stop-color="#CCD5ED"/>
</linearGradient>
<linearGradient id="paint57_linear_67_488" x1="157.102" y1="529.163" x2="154.069" y2="508.546" gradientUnits="userSpaceOnUse">
<stop stop-color="#FAD6C7"/>
<stop offset="1" stop-color="#E4857F"/>
</linearGradient>
<linearGradient id="paint58_linear_67_488" x1="256.837" y1="464.632" x2="482.844" y2="477.522" gradientUnits="userSpaceOnUse">
<stop stop-color="#6C41FF"/>
<stop offset="1" stop-color="#6C41FF" stop-opacity="0.5"/>
</linearGradient>
<linearGradient id="paint59_linear_67_488" x1="43.7504" y1="333.559" x2="613.888" y2="503.081" gradientUnits="userSpaceOnUse">
<stop stop-color="#6C41FF"/>
<stop offset="1" stop-color="#6C41FF" stop-opacity="0.5"/>
</linearGradient>
<linearGradient id="paint60_linear_67_488" x1="43.7507" y1="333.559" x2="613.888" y2="503.081" gradientUnits="userSpaceOnUse">
<stop stop-color="#6C41FF"/>
<stop offset="1" stop-color="#6C41FF" stop-opacity="0.5"/>
</linearGradient>
<linearGradient id="paint61_linear_67_488" x1="247.836" y1="-3.48656" x2="402.906" y2="230.479" gradientUnits="userSpaceOnUse">
<stop stop-color="#4790CD"/>
<stop offset="1" stop-color="#DA62A5"/>
</linearGradient>
<linearGradient id="paint62_linear_67_488" x1="226.877" y1="-28.7073" x2="381.947" y2="205.258" gradientUnits="userSpaceOnUse">
<stop stop-color="#4790CD"/>
<stop offset="1" stop-color="#DA62A5"/>
</linearGradient>
<linearGradient id="paint63_linear_67_488" x1="0.894898" y1="160.184" x2="155.965" y2="394.149" gradientUnits="userSpaceOnUse">
<stop stop-color="#4790CD"/>
<stop offset="1" stop-color="#DA62A5"/>
</linearGradient>
<linearGradient id="paint64_linear_67_488" x1="147.01" y1="384.793" x2="147.01" y2="420.101" gradientUnits="userSpaceOnUse">
<stop stop-color="#F6F6F6"/>
<stop offset="1" stop-color="#CCD5ED"/>
</linearGradient>
<linearGradient id="paint65_linear_67_488" x1="171.221" y1="304.298" x2="191.266" y2="331.815" gradientUnits="userSpaceOnUse">
<stop stop-color="#4790CD"/>
<stop offset="1" stop-color="#DA62A5"/>
</linearGradient>
<linearGradient id="paint66_linear_67_488" x1="226.493" y1="328.608" x2="211.702" y2="315.336" gradientUnits="userSpaceOnUse">
<stop stop-color="#FAD6C7"/>
<stop offset="1" stop-color="#E4857F"/>
</linearGradient>
<linearGradient id="paint67_linear_67_488" x1="224.555" y1="393.798" x2="210.846" y2="391.173" gradientUnits="userSpaceOnUse">
<stop stop-color="#FAD6C7"/>
<stop offset="1" stop-color="#E4857F"/>
</linearGradient>
<linearGradient id="paint68_linear_67_488" x1="216.554" y1="382.22" x2="193.495" y2="362.223" gradientUnits="userSpaceOnUse">
<stop stop-color="#FAD6C7"/>
<stop offset="1" stop-color="#E4857F"/>
</linearGradient>
<linearGradient id="paint69_linear_67_488" x1="230.781" y1="372.027" x2="222.055" y2="300.908" gradientUnits="userSpaceOnUse">
<stop stop-color="#F6F6F6"/>
<stop offset="1" stop-color="#CCD5ED"/>
</linearGradient>
<linearGradient id="paint70_linear_67_488" x1="228.762" y1="304.811" x2="232.21" y2="281.374" gradientUnits="userSpaceOnUse">
<stop stop-color="#FAD6C7"/>
<stop offset="1" stop-color="#E4857F"/>
</linearGradient>
<linearGradient id="paint71_linear_67_488" x1="212.463" y1="329.784" x2="214.463" y2="312.035" gradientUnits="userSpaceOnUse">
<stop stop-color="#FAD6C7"/>
<stop offset="1" stop-color="#E4857F"/>
</linearGradient>
<linearGradient id="paint72_linear_67_488" x1="219.997" y1="316.933" x2="219.776" y2="307.856" gradientUnits="userSpaceOnUse">
<stop stop-color="#F6F6F6"/>
<stop offset="1" stop-color="#CCD5ED"/>
</linearGradient>
<linearGradient id="paint73_linear_67_488" x1="307.732" y1="672.827" x2="307.613" y2="668.401" gradientUnits="userSpaceOnUse">
<stop stop-color="#F6F6F6"/>
<stop offset="1" stop-color="#CCD5ED"/>
</linearGradient>
<linearGradient id="paint74_linear_67_488" x1="282.276" y1="593.881" x2="237.45" y2="624.532" gradientUnits="userSpaceOnUse">
<stop stop-color="#F6F6F6"/>
<stop offset="1" stop-color="#CCD5ED"/>
</linearGradient>
<linearGradient id="paint75_linear_67_488" x1="280.14" y1="611.023" x2="308.066" y2="611.023" gradientUnits="userSpaceOnUse">
<stop stop-color="#F6F6F6"/>
<stop offset="1" stop-color="#CCD5ED"/>
</linearGradient>
<linearGradient id="paint76_linear_67_488" x1="261.849" y1="602.143" x2="261.82" y2="615.058" gradientUnits="userSpaceOnUse">
<stop stop-color="#4790CD"/>
<stop offset="1" stop-color="#EA6FAA"/>
</linearGradient>
<linearGradient id="paint77_linear_67_488" x1="292.455" y1="477.353" x2="272.07" y2="480.765" gradientUnits="userSpaceOnUse">
<stop stop-color="#4790CD"/>
<stop offset="1" stop-color="#EA6FAA"/>
</linearGradient>
<linearGradient id="paint78_linear_67_488" x1="273.094" y1="549.942" x2="299.992" y2="604.162" gradientUnits="userSpaceOnUse">
<stop stop-color="#4790CD"/>
<stop offset="1" stop-color="#EA6FAA"/>
</linearGradient>
<linearGradient id="paint79_linear_67_488" x1="291.049" y1="598.089" x2="313.285" y2="603.404" gradientUnits="userSpaceOnUse">
<stop stop-color="#4790CD"/>
<stop offset="1" stop-color="#EA6FAA"/>
</linearGradient>
<linearGradient id="paint80_linear_67_488" x1="75.6923" y1="536.598" x2="75.2099" y2="522.118" gradientUnits="userSpaceOnUse">
<stop stop-color="#F6F6F6"/>
<stop offset="1" stop-color="#CCD5ED"/>
</linearGradient>
<linearGradient id="paint81_linear_67_488" x1="78.1834" y1="415.567" x2="78.1834" y2="437.883" gradientUnits="userSpaceOnUse">
<stop stop-color="#F6F6F6"/>
<stop offset="1" stop-color="#CCD5ED"/>
</linearGradient>
<linearGradient id="paint82_linear_67_488" x1="39.482" y1="453.878" x2="50.8715" y2="483.157" gradientUnits="userSpaceOnUse">
<stop stop-color="#F6F6F6"/>
<stop offset="1" stop-color="#CCD5ED"/>
</linearGradient>
<linearGradient id="paint83_linear_67_488" x1="5.38912" y1="478.68" x2="4.12778" y2="503.48" gradientUnits="userSpaceOnUse">
<stop stop-color="#F6F6F6"/>
<stop offset="1" stop-color="#CCD5ED"/>
</linearGradient>
<linearGradient id="paint84_linear_67_488" x1="14.0857" y1="432.766" x2="-9.6765" y2="475.82" gradientUnits="userSpaceOnUse">
<stop stop-color="#F6F6F6"/>
<stop offset="1" stop-color="#CCD5ED"/>
</linearGradient>
<linearGradient id="paint85_linear_67_488" x1="-60.2331" y1="433.186" x2="-45.5997" y2="553.477" gradientUnits="userSpaceOnUse">
<stop stop-color="#4790CD"/>
<stop offset="1" stop-color="#EA6FAA"/>
</linearGradient>
<linearGradient id="paint86_linear_67_488" x1="17.7713" y1="417.323" x2="23.19" y2="426.131" gradientUnits="userSpaceOnUse">
<stop stop-color="#4790CD"/>
<stop offset="1" stop-color="#EA6FAA"/>
</linearGradient>
<linearGradient id="paint87_linear_67_488" x1="-42.0667" y1="420.233" x2="-0.367298" y2="518.673" gradientUnits="userSpaceOnUse">
<stop stop-color="#4790CD"/>
<stop offset="1" stop-color="#EA6FAA"/>
</linearGradient>
<linearGradient id="paint88_linear_67_488" x1="659.237" y1="525.267" x2="659.719" y2="510.788" gradientUnits="userSpaceOnUse">
<stop stop-color="#F6F6F6"/>
<stop offset="1" stop-color="#CCD5ED"/>
</linearGradient>
<linearGradient id="paint89_linear_67_488" x1="604.632" y1="403.464" x2="604.632" y2="425.78" gradientUnits="userSpaceOnUse">
<stop stop-color="#F6F6F6"/>
<stop offset="1" stop-color="#CCD5ED"/>
</linearGradient>
<linearGradient id="paint90_linear_67_488" x1="641.267" y1="429.718" x2="629.877" y2="458.996" gradientUnits="userSpaceOnUse">
<stop stop-color="#F6F6F6"/>
<stop offset="1" stop-color="#CCD5ED"/>
</linearGradient>
<linearGradient id="paint91_linear_67_488" x1="692.013" y1="467.306" x2="693.274" y2="492.106" gradientUnits="userSpaceOnUse">
<stop stop-color="#F6F6F6"/>
<stop offset="1" stop-color="#CCD5ED"/>
</linearGradient>
<linearGradient id="paint92_linear_67_488" x1="647.271" y1="448.473" x2="671.033" y2="491.527" gradientUnits="userSpaceOnUse">
<stop stop-color="#F6F6F6"/>
<stop offset="1" stop-color="#CCD5ED"/>
</linearGradient>
<linearGradient id="paint93_linear_67_488" x1="569.679" y1="396.473" x2="555.045" y2="516.764" gradientUnits="userSpaceOnUse">
<stop stop-color="#4790CD"/>
<stop offset="1" stop-color="#EA6FAA"/>
</linearGradient>
<linearGradient id="paint94_linear_67_488" x1="684.56" y1="399.429" x2="679.141" y2="408.238" gradientUnits="userSpaceOnUse">
<stop stop-color="#4790CD"/>
<stop offset="1" stop-color="#EA6FAA"/>
</linearGradient>
<linearGradient id="paint95_linear_67_488" x1="638.53" y1="359.297" x2="596.83" y2="457.737" gradientUnits="userSpaceOnUse">
<stop stop-color="#4790CD"/>
<stop offset="1" stop-color="#EA6FAA"/>
</linearGradient>
</defs>
</svg>
