<svg width="325" height="64" viewBox="0 0 325 64" fill="none" xmlns="http://www.w3.org/2000/svg">
<path d="M19.5114 25.6074V35.4127C19.5114 38.1197 20.5329 40.4304 22.5766 42.3457C24.6203 44.2607 27.086 45.2183 29.9745 45.2183V52.5723C24.9063 52.5723 20.5875 50.9003 17.0182 47.5549C13.4485 44.2098 11.6641 40.1624 11.6641 35.4127V8.44745H19.5114V18.2531H29.9745V25.6074H19.5114Z" fill="white"/>
<path d="M60.913 28.48C58.8693 26.5647 56.4028 25.6074 53.5156 25.6074C50.6271 25.6074 48.1614 26.5647 46.1177 28.48C45.4364 29.1184 44.8776 29.7954 44.4421 30.5097H62.5886C62.1526 29.7954 61.5934 29.1184 60.913 28.48ZM46.1177 42.3457C48.1614 44.2607 50.6271 45.2183 53.5156 45.2183C56.4028 45.2183 58.8693 44.2607 60.913 42.3457L60.9541 42.3072L66.5121 47.5168L66.4714 47.5549C62.9017 50.9003 58.5833 52.5723 53.5156 52.5723C48.4474 52.5723 44.1286 50.9003 40.5593 47.5549C36.9896 44.2098 35.2056 40.1624 35.2056 35.4127C35.2056 30.6633 36.9896 26.6163 40.5593 23.2708C44.1286 19.9262 48.4474 18.2531 53.5156 18.2531C58.5833 18.2531 62.9017 19.9262 66.4714 23.2708C70.0407 26.6163 71.8255 30.6633 71.8255 35.4127C71.8255 36.2302 71.7434 37.0473 71.5802 37.8644H69.2095H43.3796C43.8151 39.5494 44.7281 41.0435 46.1177 42.3457Z" fill="white"/>
<path d="M108.323 47.5549C104.753 50.9003 100.435 52.5723 95.367 52.5723C90.2989 52.5723 85.9801 50.9003 82.4108 47.5549C78.8411 44.2095 77.0566 40.1624 77.0566 35.4127C77.0566 30.6633 78.8411 26.6163 82.4108 23.2708C85.9801 19.9262 90.2989 18.2531 95.367 18.2531C100.435 18.2531 104.753 19.9262 108.323 23.2708L108.364 23.3094L102.805 28.5181L102.764 28.48C100.721 26.5647 98.2543 25.6074 95.367 25.6074C92.4782 25.6074 90.0129 26.5647 87.9692 28.48C85.9255 30.3953 84.904 32.7064 84.904 35.4127C84.904 38.1197 85.9255 40.4304 87.9692 42.3457C90.0129 44.2607 92.4782 45.2183 95.367 45.2183C98.2543 45.2183 100.721 44.2607 102.764 42.3457L102.805 42.3072L108.364 47.5164L108.323 47.5549Z" fill="white"/>
<path d="M118.908 35.4127V52.5723H111.061V8.44783H118.908V21.2793C121.932 19.2623 125.42 18.2531 129.371 18.2531C134.439 18.2531 138.758 19.9262 142.327 23.2709C145.897 26.6163 147.681 30.6633 147.681 35.4127V52.5723H139.834V35.4127C139.834 32.7068 138.812 30.3953 136.769 28.48C134.725 26.5647 132.259 25.6074 129.371 25.6074C126.483 25.6074 124.017 26.5647 121.974 28.48C119.93 30.3953 118.908 32.7068 118.908 35.4127Z" fill="white"/>
<path d="M152.913 18.2531H189.533L168.607 45.2179H189.533V52.5723H152.913L173.838 25.6074H152.913V18.2531Z" fill="white"/>
<path d="M246.722 52.5723H238.875V35.4127C238.875 30.6633 240.659 26.6163 244.229 23.2708C247.798 19.9258 252.117 18.2531 257.185 18.2531C262.253 18.2531 266.572 19.9258 270.141 23.2708C273.711 26.6163 275.495 30.6633 275.495 35.4127V52.5723H267.648V35.4127C267.648 32.7064 266.626 30.3949 264.583 28.48C262.539 26.5647 260.073 25.6074 257.185 25.6074C254.297 25.6074 251.831 26.5647 249.788 28.48C247.744 30.3949 246.722 32.7064 246.722 35.4127V52.5723Z" fill="white"/>
<path d="M306.434 28.48C304.391 26.5647 301.924 25.6074 299.037 25.6074C296.149 25.6074 293.683 26.5647 291.639 28.48C290.958 29.1184 290.399 29.7954 289.964 30.5097H308.11C307.674 29.7954 307.115 29.1184 306.434 28.48ZM291.639 42.3457C293.683 44.2607 296.149 45.2183 299.037 45.2183C301.924 45.2183 304.391 44.2607 306.434 42.3457L306.476 42.3072L312.034 47.5168L311.993 47.5549C308.423 50.9003 304.105 52.5723 299.037 52.5723C293.969 52.5723 289.65 50.9003 286.081 47.5549C282.511 44.2098 280.727 40.1624 280.727 35.4127C280.727 30.6633 282.511 26.6163 286.081 23.2708C289.65 19.9262 293.969 18.2531 299.037 18.2531C304.105 18.2531 308.423 19.9262 311.993 23.2708C315.562 26.6163 317.347 30.6633 317.347 35.4127C317.347 36.2302 317.265 37.0473 317.102 37.8644H314.731H288.901C289.337 39.5494 290.25 41.0435 291.639 42.3457Z" fill="white"/>
<path fill-rule="evenodd" clip-rule="evenodd" d="M228.225 33.3398C230.462 33.3398 232.286 31.6302 232.286 29.5354C232.286 27.4384 230.462 25.7298 228.225 25.7298C225.989 25.7298 224.166 27.4384 224.166 29.5354C224.166 31.6302 225.989 33.3398 228.225 33.3398Z" fill="white"/>
<path fill-rule="evenodd" clip-rule="evenodd" d="M222.685 26.1914C224.278 26.1914 225.58 24.9731 225.58 23.4782C225.58 21.9834 224.278 20.7651 222.685 20.7651C221.091 20.7651 219.79 21.9834 219.79 23.4782C219.79 24.9731 221.091 26.1914 222.685 26.1914Z" fill="white"/>
<path fill-rule="evenodd" clip-rule="evenodd" d="M224.219 35.0923C224.219 40.6295 219.429 45.1182 213.521 45.1182V52.627C223.855 52.627 232.231 44.7767 232.231 35.0923H224.219ZM194.811 35.0923C194.811 25.408 203.186 17.5581 213.521 17.5581V25.0664C207.612 25.0664 202.823 29.5555 202.823 35.0923H194.811Z" fill="white"/>
<path fill-rule="evenodd" clip-rule="evenodd" d="M198.816 44.4551C201.052 44.4551 202.875 42.7454 202.875 40.6495C202.875 38.5536 201.052 36.8451 198.816 36.8451C196.579 36.8451 194.755 38.5536 194.755 40.6495C194.755 42.7454 196.579 44.4551 198.816 44.4551Z" fill="white"/>
<path fill-rule="evenodd" clip-rule="evenodd" d="M204.356 49.4189C205.95 49.4189 207.252 48.2006 207.252 46.7058C207.252 45.211 205.95 43.9926 204.356 43.9926C202.763 43.9926 201.461 45.211 201.461 46.7058C201.461 48.2006 202.763 49.4189 204.356 49.4189Z" fill="white"/>
</svg>
