<svg width="36" height="36" viewBox="0 0 36 36" fill="none" xmlns="http://www.w3.org/2000/svg">
<path d="M18 17.25C20.0711 17.25 21.75 15.5711 21.75 13.5C21.75 11.4289 20.0711 9.75 18 9.75C15.9289 9.75 14.25 11.4289 14.25 13.5C14.25 15.5711 15.9289 17.25 18 17.25Z" stroke="#CB1F49" stroke-width="1.5"/>
<path d="M13.5 25.5L27 9" stroke="#CB1F49" stroke-width="1.5" stroke-linecap="round" stroke-linejoin="round"/>
<path d="M9 18L21 3.75" stroke="#CB1F49" stroke-width="1.5" stroke-linecap="round" stroke-linejoin="round"/>
<path d="M10.5 7.5L15 11.25" stroke="#CB1F49" stroke-width="1.5" stroke-linecap="round" stroke-linejoin="round"/>
<path d="M18.0145 33C17.484 33 17.2366 32.773 16.9627 32.0115C16.2424 29.4775 14.8958 27.2866 13.2629 25.2292C11.784 23.2546 9.60282 21.0054 8.46937 18.4446C5.3191 11.4823 10.2021 2.98857 17.989 3.00004C25.9914 2.97798 30.8038 11.7766 27.3847 18.8169C26.3793 20.5906 25.2042 22.2649 23.8755 23.817C21.8038 26.2642 19.9419 28.9129 19.0585 32.0154C18.8554 32.6139 18.5932 33 18.0145 33Z" stroke="#CB1F49" stroke-width="1.5" stroke-linecap="round" stroke-linejoin="round"/>
</svg>
