<svg width="36" height="36" viewBox="0 0 36 36" fill="none" xmlns="http://www.w3.org/2000/svg">
<rect x="0.5" y="0.5" width="35" height="35" stroke="white" stroke-opacity="0.4"/>
<path d="M14.125 24H11.2188V14.6562H14.125V24ZM12.6562 13.4062C11.75 13.4062 11 12.625 11 11.6875C11 10.7812 11.75 10.0312 12.6562 10.0312C13.5938 10.0312 14.3438 10.7812 14.3438 11.6875C14.3438 12.625 13.5938 13.4062 12.6562 13.4062ZM24.9688 24H22.0938V19.4688C22.0938 18.375 22.0625 17 20.5625 17C19.0625 17 18.8438 18.1562 18.8438 19.375V24H15.9375V14.6562H18.7188V15.9375H18.75C19.1562 15.2188 20.0938 14.4375 21.5 14.4375C24.4375 14.4375 25 16.375 25 18.875V24H24.9688Z" fill="white" fill-opacity="0.8"/>
</svg>
