<svg width="813" height="629" viewBox="0 0 813 629" fill="none" xmlns="http://www.w3.org/2000/svg">
<path d="M628.386 559.95C800.801 529.913 809.339 444.965 765.682 369.093C711.279 274.545 762.348 209.316 692.473 194.831C619.94 179.788 619.009 363.225 452.076 361.275C205.385 358.366 411.045 597.835 628.386 559.95Z" fill="#F8F9FD"/>
<path d="M161.658 60.5685C9.93272 87.0011 2.41935 161.755 40.8375 228.522C88.7122 311.725 43.7714 369.126 105.261 381.873C169.091 395.11 169.91 233.686 316.811 235.402C533.899 237.962 352.918 27.2292 161.658 60.5685Z" fill="#F8F9FD"/>
<path d="M118.308 90.5254C118.308 76.8894 129.379 65.818 143.015 65.818H632.839C646.475 65.818 657.547 76.8894 657.547 90.5254V429.152C657.547 442.788 646.475 453.859 632.839 453.859H143.015C129.379 453.859 118.308 442.788 118.308 429.152V90.5254Z" fill="url(#paint0_linear_145_4157)"/>
<mask id="mask0_145_4157" style="mask-type:alpha" maskUnits="userSpaceOnUse" x="118" y="65" width="540" height="389">
<path d="M118.306 90.528C118.306 76.8875 129.379 65.8206 143.014 65.8206H632.837C646.478 65.8206 657.545 76.8875 657.545 90.528V429.151C657.545 442.791 646.478 453.858 632.837 453.858H143.014C129.379 453.858 118.306 442.791 118.306 429.151V90.528Z" fill="#FF0000"/>
<path d="M118.308 90.5254C118.308 76.8894 129.379 65.818 143.015 65.818H632.839C646.475 65.818 657.546 76.8894 657.546 90.5254V429.152C657.546 442.788 646.475 453.859 632.839 453.859H143.015C129.379 453.859 118.308 442.788 118.308 429.152V90.5254Z" fill="url(#paint1_linear_145_4157)"/>
</mask>
<g mask="url(#mask0_145_4157)">
<g opacity="0.999999">
<path d="M192.582 310.215C192.582 302.64 198.732 296.489 206.308 296.489H520.298C527.873 296.489 534.024 302.64 534.024 310.215V509.247C534.024 516.822 527.873 522.973 520.298 522.973H206.308C198.732 522.973 192.582 516.822 192.582 509.247V310.215Z" fill="#BCC1C6"/>
</g>
</g>
<path d="M376.516 164.744L209.981 299.314V324.399H385.61H561.238V299.314L394.703 164.744C389.402 160.472 381.818 160.472 376.516 164.744Z" fill="#CB1F49"/>
<mask id="mask1_145_4157" style="mask-type:luminance" maskUnits="userSpaceOnUse" x="209" y="160" width="353" height="305">
<path d="M209.74 160.32H561.477V464.015H209.74V160.32Z" fill="white"/>
</mask>
<g mask="url(#mask1_145_4157)">
<path d="M528.855 463.467H249.232C241.237 463.467 234.751 456.981 234.751 448.986V174.802C234.751 166.807 241.237 160.321 249.232 160.321H528.855C536.85 160.321 543.336 166.807 543.336 174.802V448.986C543.336 456.981 536.85 463.467 528.855 463.467Z" fill="#F8F9FD"/>
<path d="M457.381 237.173C457.381 277.048 424.986 309.373 385.026 309.373C345.082 309.373 312.688 277.048 312.688 237.173C312.688 197.281 345.082 164.955 385.026 164.955C424.986 164.955 457.381 197.281 457.381 237.173Z" fill="white"/>
<mask id="mask2_145_4157" style="mask-type:luminance" maskUnits="userSpaceOnUse" x="305" y="183" width="151" height="140">
<path d="M305.824 183.77H455.098V322.749H305.824V183.77Z" fill="white"/>
</mask>
<g mask="url(#mask2_145_4157)">
<path d="M392.689 265.153C399.792 265.153 405.214 265.719 405.214 260.983C405.214 256.248 400.307 253.794 393.204 253.794C386.083 253.794 379.992 255.87 379.992 260.606C379.992 265.359 385.569 265.153 392.689 265.153Z" fill="#7E330F"/>
<path d="M378.93 225.359C386.205 225.359 392.107 219.491 392.107 212.284C392.107 205.061 386.205 199.21 378.93 199.21C371.655 199.21 365.753 205.061 365.753 212.284C365.753 219.491 371.655 225.359 378.93 225.359ZM406.004 223.924C413.279 223.924 419.181 218.056 419.181 210.85C419.181 203.626 413.279 197.776 406.004 197.776C398.729 197.776 392.826 203.626 392.826 210.85C392.826 218.056 398.729 223.924 406.004 223.924ZM404.847 213.895C412.122 213.895 418.024 208.027 418.024 200.821C418.024 193.598 412.122 187.747 404.847 187.747C397.572 187.747 391.67 193.598 391.67 200.821C391.67 208.027 397.572 213.895 404.847 213.895ZM379.448 215C386.723 215 392.626 209.132 392.626 201.926C392.626 194.703 386.723 188.852 379.448 188.852C372.173 188.852 366.271 194.703 366.271 201.926C366.271 209.132 372.173 215 379.448 215ZM392.149 209.918C399.424 209.918 405.326 204.05 405.326 196.844C405.326 189.62 399.424 183.77 392.149 183.77C384.874 183.77 378.971 189.62 378.971 196.844C378.971 204.05 384.874 209.918 392.149 209.918Z" fill="#363636"/>
<path d="M387.113 266.812L384.796 265.679C383.184 264.89 381.948 263.483 381.382 261.785C380.833 260.069 380.987 258.216 381.828 256.637C384.196 252.245 384.196 247.681 383.492 243.975C383.132 242.036 383.647 240.028 384.934 238.518C386.203 237.009 388.091 236.134 390.081 236.134C393.77 236.134 396.773 239.102 396.773 242.774V260.841C396.773 263.14 395.572 265.268 393.616 266.486C391.642 267.704 389.189 267.824 387.113 266.812ZM398.09 267.222C396.014 268.234 393.561 268.114 391.605 266.896C389.649 265.695 388.448 263.567 388.448 261.268V243.201C388.448 241.434 389.151 239.735 390.404 238.5C391.656 237.247 393.355 236.544 395.139 236.544C397.13 236.544 399.017 237.419 400.287 238.929C401.556 240.438 402.088 242.446 401.728 244.385C401.007 248.091 401.024 252.655 403.392 257.047C404.233 258.626 404.387 260.479 403.821 262.195C403.272 263.893 402.037 265.3 400.407 266.09L398.09 267.222Z" fill="#7A5D45"/>
<path d="M373.544 236.486C376.839 236.486 379.515 233.843 379.515 230.566C379.515 227.289 376.839 224.647 373.544 224.647C370.25 224.647 367.573 227.289 367.573 230.566C367.573 233.843 370.25 236.486 373.544 236.486Z" fill="#997559"/>
<path d="M410.86 236.323C414.154 236.323 416.831 233.68 416.831 230.403C416.831 227.126 414.154 224.484 410.86 224.484C407.565 224.484 404.889 227.126 404.889 230.403C404.889 233.68 407.565 236.323 410.86 236.323Z" fill="#997559"/>
<path d="M415.818 223.015C415.818 231.937 411.735 243.587 404.288 247.465C401.045 249.146 398.798 254.277 392.312 254.105C385.586 253.951 383.853 248.958 380.542 247.173C373.249 243.244 369.08 231.817 369.08 223.015C369.234 210.318 379.649 200.109 392.449 200.109C405.249 200.109 415.664 210.318 415.818 223.015Z" fill="#997559"/>
<path d="M392.299 195.826C362.015 194.728 369.05 225.338 369.05 225.338C370.405 221.735 371.538 218.012 373.013 214.477C373.682 212.83 374.54 211.286 375.604 209.879C376.513 208.729 377.388 207.288 378.864 206.773C380.408 206.241 382.038 206.962 383.582 207.082C384.2 207.116 391.303 207.477 392.299 207.099C393.311 207.477 400.397 207.116 401.015 207.082C402.576 206.962 404.206 206.241 405.75 206.773C407.209 207.271 408.101 208.729 408.993 209.879C410.057 211.286 410.932 212.83 411.584 214.477C413.077 218.012 414.209 221.735 415.548 225.338C415.548 225.338 422.582 194.728 392.299 195.826Z" fill="#232323"/>
<path d="M381.669 259.503C383.762 263.192 394.194 264.29 392.478 264.29V316.158L362.778 314.099C361.508 307.596 360.547 276.97 365.884 272.989C366.913 272.182 368.972 266.057 371.031 262.694C372.043 261.013 372.97 261.39 373.948 260.738C379.85 256.792 380.897 257.735 380.897 257.735L381.669 259.503ZM403.502 259.496L404.309 257.729C404.309 257.729 410.038 260.714 419.2 267.8C424.536 271.781 427.112 300.744 425.842 307.246L392.365 308.876V264.283C392.365 264.283 401.409 263.185 403.502 259.496Z" fill="#FFC852"/>
<g opacity="0.31">
<path d="M374.455 290.485C374.455 290.485 374.73 309.376 371.024 309.376C367.318 309.376 362.445 307.299 362.445 307.299L374.455 290.485Z" fill="#994016"/>
</g>
<mask id="mask3_145_4157" style="mask-type:luminance" maskUnits="userSpaceOnUse" x="317" y="242" width="27" height="47">
<path d="M334.514 242.85L317.746 246.49L326.846 288.408L343.614 284.768L334.514 242.85Z" fill="white"/>
</mask>
<g mask="url(#mask3_145_4157)">
<path d="M342.427 279.301C342.427 279.301 336.393 265.335 336.181 264.363C335.97 263.39 335.477 256.509 332.397 251.542C330.669 248.757 329.656 249.346 329.916 252.081C330.029 253.25 330.836 256.885 330.836 256.885C330.836 256.885 327.636 247.888 325.378 246.868C325.005 246.686 323.884 245.647 323.096 245.819C322.241 246.004 321.122 245.703 320.279 246.43C319.432 247.141 319.075 248.324 318.899 249.293C318.782 249.968 318.919 250.922 319.279 252.178C319.792 253.892 320.786 258.47 323.713 263.945C324.837 266.053 328.374 270.131 328.374 270.131L333.717 285.282L342.641 280.29L342.427 279.301Z" fill="#997559"/>
<mask id="mask4_145_4157" style="mask-type:alpha" maskUnits="userSpaceOnUse" x="318" y="245" width="25" height="41">
<path d="M342.427 279.301C342.427 279.301 336.393 265.335 336.181 264.363C335.97 263.39 335.477 256.509 332.397 251.542C330.669 248.757 329.656 249.346 329.916 252.081C330.029 253.25 330.836 256.885 330.836 256.885C330.836 256.885 327.636 247.888 325.378 246.868C325.005 246.686 323.884 245.647 323.096 245.819C322.241 246.004 321.122 245.703 320.279 246.43C319.432 247.141 319.075 248.324 318.899 249.293C318.782 249.968 318.919 250.922 319.279 252.178C319.792 253.892 320.786 258.47 323.713 263.945C324.837 266.053 328.374 270.131 328.374 270.131L333.717 285.282L342.641 280.29L342.427 279.301Z" fill="#FF0000"/>
<path d="M342.427 279.301C342.427 279.301 336.393 265.335 336.181 264.363C335.97 263.39 335.477 256.509 332.397 251.542C330.669 248.757 329.656 249.346 329.916 252.081C330.029 253.25 330.836 256.885 330.836 256.885C330.836 256.885 327.636 247.888 325.378 246.868C325.005 246.686 323.884 245.647 323.096 245.819C322.241 246.004 321.122 245.703 320.279 246.43C319.432 247.141 319.075 248.324 318.899 249.293C318.782 249.968 318.919 250.922 319.279 252.178C319.792 253.892 320.786 258.47 323.713 263.945C324.837 266.053 328.374 270.131 328.374 270.131L333.717 285.282L342.641 280.29L342.427 279.301Z" fill="#997559"/>
</mask>
<g mask="url(#mask4_145_4157)">
<path d="M342.539 279.819L341.906 276.901C341.906 276.901 338.604 279.321 337.231 279.953C335.858 280.584 331.815 281.128 331.815 281.128L333.404 283.838L342.539 279.819Z" fill="#795D46"/>
</g>
</g>
<path d="M348.116 286.756C347.363 285.146 344.523 278.371 344.523 278.371L331.229 283.294C331.229 283.294 339.261 311.556 343.662 317.273C346.279 320.672 349.784 322.018 352.383 321.454C362.813 319.19 348.999 288.636 348.116 286.756Z" fill="#FFC852"/>
<path d="M371.022 262.696C371.022 262.696 362.152 267.277 356.455 285.911C354.414 292.585 356.181 289.926 355.718 287.901C355.323 286.168 349.867 322.714 352.526 322.714C363.198 322.714 372.635 293.872 372.635 293.872L371.022 262.696Z" fill="#FFC852"/>
<path d="M413.672 237.276C414.753 237.276 415.645 236.401 415.645 235.32C415.645 234.222 414.753 233.347 413.672 233.347C412.574 233.347 411.682 234.222 411.682 235.32C411.682 236.401 412.574 237.276 413.672 237.276Z" fill="#B5B8B8"/>
<path d="M371.561 237.81C372.642 237.81 373.534 236.935 373.534 235.854C373.534 234.756 372.642 233.881 371.561 233.881C370.463 233.881 369.571 234.756 369.571 235.854C369.571 236.935 370.463 237.81 371.561 237.81Z" fill="#B5B8B8"/>
<path d="M393.329 243.822C397.121 243.822 400.193 238.675 400.193 238.675H386.466C386.466 238.675 389.538 243.822 393.329 243.822Z" fill="white"/>
<path d="M381.319 223.044C381.319 223.044 384.751 220.384 388.182 223.044" stroke="#795D46" stroke-width="3" stroke-linecap="round"/>
<path d="M396.749 223.044C396.749 223.044 400.181 220.384 403.612 223.044" stroke="#795D46" stroke-width="3" stroke-linecap="round"/>
<g opacity="0.31">
<path d="M411.14 286.717L410.059 307.306L415.36 303.875L411.14 286.717Z" fill="#994016"/>
</g>
</g>
<mask id="mask5_145_4157" style="mask-type:alpha" maskUnits="userSpaceOnUse" x="312" y="164" width="148" height="148">
<path d="M458.53 164.896V310.738H312.688V164.896H458.53Z" stroke="#4BC1FB" stroke-opacity="0.5"/>
</mask>
<g mask="url(#mask5_145_4157)">
<path d="M457.382 237.172C457.382 277.047 424.987 309.372 385.027 309.372C345.083 309.372 312.689 277.047 312.689 237.172C312.689 197.28 345.083 164.954 385.027 164.954C424.987 164.954 457.382 197.28 457.382 237.172Z" fill="#FF0000"/>
<path d="M457.381 237.173C457.381 277.048 424.986 309.373 385.026 309.373C345.082 309.373 312.688 277.048 312.688 237.173C312.688 197.281 345.082 164.955 385.026 164.955C424.986 164.955 457.381 197.281 457.381 237.173Z" fill="white"/>
</g>
<path d="M437.048 357.355C435.83 357.355 434.92 357.029 434.302 356.377C433.685 355.708 433.376 354.85 433.376 353.786C433.376 352.551 433.719 351.556 434.423 350.818C435.126 350.08 436.104 349.703 437.374 349.703C438.575 349.703 439.484 349.994 440.102 350.595C440.72 351.178 441.028 352.053 441.028 353.203C441.028 354.472 440.685 355.468 439.965 356.223C439.244 356.978 438.283 357.355 437.048 357.355ZM438.599 347.513C438.05 347.513 437.604 347.393 437.243 347.153C436.883 346.896 436.711 346.518 436.711 346.003L436.746 345.66C437.226 342.589 437.844 339.089 438.65 335.16C439.44 331.248 440.177 327.85 440.864 325.002C441.31 323.235 442.511 322.36 444.45 322.36C446.217 322.36 447.092 322.926 447.092 324.041C447.092 324.299 447.041 324.573 446.972 324.865C446.251 327.782 445.308 331.299 444.124 335.434C442.94 339.569 441.824 343.155 440.744 346.209C440.452 347.084 439.731 347.513 438.599 347.513ZM421.794 352.908C422.721 352.908 423.51 352.41 424.162 351.398C424.814 350.368 425.123 348.893 425.123 346.937C425.123 345.427 424.848 344.294 424.299 343.522C423.75 342.75 423.098 342.373 422.326 342.373C421.348 342.373 420.525 342.87 419.873 343.883C419.238 344.878 418.912 346.371 418.912 348.344C418.912 349.905 419.186 351.055 419.735 351.81C420.284 352.547 420.971 352.908 421.794 352.908ZM421.348 357.365C419.718 357.365 418.346 356.954 417.196 356.147C416.064 355.341 415.206 354.277 414.622 352.956C414.056 351.635 413.764 350.228 413.764 348.718C413.764 346.624 414.159 344.771 414.931 343.141C415.72 341.494 416.784 340.225 418.123 339.298C419.478 338.389 420.988 337.925 422.652 337.925C424.282 337.925 425.672 338.337 426.822 339.144C427.971 339.95 428.829 341.014 429.412 342.335C429.996 343.656 430.27 345.063 430.27 346.573C430.27 348.666 429.876 350.519 429.086 352.149C428.28 353.779 427.216 355.066 425.844 355.976C424.488 356.902 422.995 357.365 421.348 357.365ZM410.546 322.524C409.911 322.524 409.19 323.657 408.401 325.939C407.612 328.221 406.908 331.052 406.308 334.432C405.69 337.795 405.364 341.038 405.312 344.143C407.268 340.935 408.813 337.709 409.962 334.484C411.112 331.258 411.695 328.324 411.695 325.647C411.695 323.571 411.318 322.524 410.546 322.524ZM412.128 355.955C410.738 356.899 409.176 357.362 407.409 357.362C404.99 357.362 403.205 356.264 402.039 354.068C400.872 351.871 400.289 349.023 400.289 345.54C400.289 342.194 400.718 338.385 401.593 334.096C402.451 329.806 403.72 326.134 405.419 323.063C407.1 319.992 409.108 318.448 411.441 318.448C412.762 318.448 413.809 319.065 414.564 320.284C415.319 321.502 415.696 323.252 415.696 325.534C415.696 328.794 414.787 332.586 412.968 336.893C411.167 341.199 408.696 345.471 405.608 349.709C405.796 350.825 406.105 351.631 406.551 352.112C406.98 352.592 407.564 352.832 408.284 352.832C409.399 352.832 410.395 352.506 411.235 351.871C412.093 351.219 412.454 351.391 413.758 349.83C414.101 349.435 413.517 355.028 412.128 355.955ZM396.164 322.524C395.529 322.524 394.808 323.657 394.019 325.939C393.23 328.221 392.526 331.052 391.926 334.432C391.308 337.795 390.982 341.038 390.931 344.143C392.887 340.935 394.431 337.709 395.581 334.484C396.73 331.258 397.313 328.324 397.313 325.647C397.313 323.571 396.936 322.524 396.164 322.524ZM400.285 353.776C399.101 355.234 399.136 355.028 397.746 355.955C396.356 356.899 394.795 357.362 393.027 357.362C390.608 357.362 388.824 356.264 387.657 354.068C386.49 351.871 385.907 349.023 385.907 345.54C385.907 342.194 386.336 338.385 387.211 334.096C388.069 329.806 389.338 326.134 391.037 323.063C392.719 319.992 394.726 318.448 397.06 318.448C398.381 318.448 399.427 319.065 400.182 320.284C400.937 321.502 401.315 323.252 401.315 325.534C401.315 328.794 400.405 332.586 398.587 336.893C396.785 341.199 394.314 345.471 391.226 349.709C391.415 350.825 391.723 351.631 392.17 352.112C392.598 352.592 393.182 352.832 393.902 352.832C395.018 352.832 396.013 352.506 396.854 351.871C397.712 351.219 398.792 350.121 400.114 348.543C400.44 348.165 400.817 353.175 400.285 353.776ZM376.463 342.002C375.451 342.002 374.593 342.585 373.889 343.769C373.186 344.953 372.843 346.377 372.843 348.059V348.145C374.456 347.75 375.743 347.184 376.669 346.412C377.613 345.64 378.076 344.747 378.076 343.735C378.076 343.203 377.922 342.791 377.647 342.483C377.355 342.157 376.961 342.002 376.463 342.002ZM386.459 352.825C385.447 354.061 384.761 354.747 382.908 355.794C381.055 356.84 379.081 357.355 376.954 357.355C374.071 357.355 371.841 356.583 370.245 355.022C368.649 353.443 367.86 351.315 367.86 348.587C367.86 346.7 368.255 344.933 369.061 343.303C369.851 341.673 370.949 340.369 372.373 339.408C373.78 338.447 375.375 337.967 377.16 337.967C378.755 337.967 380.042 338.447 381.003 339.391C381.964 340.334 382.444 341.621 382.444 343.234C382.444 345.139 381.758 346.751 380.403 348.124C379.047 349.48 376.748 350.56 373.505 351.35C374.191 352.619 375.495 353.237 377.417 353.237C378.653 353.237 380.059 352.808 381.638 351.95C383.217 351.075 384.572 349.943 385.739 348.553C385.91 348.33 385.962 349.634 386.168 350.818C386.322 351.762 386.7 352.568 386.459 352.825ZM358.787 324.625C358.187 324.625 357.552 325.174 356.883 326.272C356.196 327.37 355.561 328.863 354.961 330.767C354.36 332.655 353.88 334.731 353.52 336.978C355.716 336.069 357.329 334.782 358.375 333.101C359.422 331.436 359.937 329.274 359.937 326.649C359.937 326.014 359.834 325.517 359.611 325.156C359.388 324.796 359.113 324.625 358.787 324.625ZM364.35 347.98C364.71 347.98 364.985 348.134 365.19 348.46C365.396 348.804 365.499 349.25 365.499 349.833C365.499 350.897 365.242 351.755 364.727 352.372C361.999 355.701 359.099 357.365 356.028 357.365C353.369 357.365 351.241 356.336 349.645 354.277C348.05 352.218 347.26 349.267 347.26 345.423C347.26 344.48 347.295 343.553 347.381 342.627C345.579 342.953 343.589 343.193 341.461 343.364C340.02 343.467 339.059 343.536 338.527 343.57C337.978 346.367 337.206 349.799 336.228 353.865C335.645 356.25 334.546 357.451 332.934 357.451C331.166 357.451 330.291 356.645 330.291 355.049C330.291 354.706 330.36 354.208 330.497 353.573C331.441 349.816 332.179 346.624 332.728 344.016L330.755 344.102C329.845 344.102 329.176 343.948 328.764 343.622C328.352 343.313 328.147 342.798 328.147 342.078C328.147 341.185 328.421 340.516 328.936 340.087C329.451 339.658 330.326 339.418 331.527 339.367L333.706 339.281C334.426 335.42 334.787 332.469 334.787 330.427C334.787 329.141 334.598 328.266 334.203 327.802C333.826 327.322 333.311 327.099 332.676 327.099C330.755 327.099 328.593 328.694 326.173 331.92C325.813 332.383 325.418 332.606 324.989 332.606C324.595 332.606 324.269 332.435 323.994 332.075C323.72 331.714 323.583 331.268 323.583 330.719C323.583 329.861 323.926 328.969 324.612 328.008C325.813 326.327 327.34 324.954 329.176 323.856C331.029 322.775 332.882 322.243 334.787 322.243C336.571 322.243 337.944 322.844 338.922 324.062C339.9 325.297 340.38 327.185 340.38 329.775C340.38 332.057 340.054 335.146 339.402 339.041L343.434 338.835C345.167 338.749 346.643 338.612 347.878 338.423C348.376 335.403 349.131 332.572 350.143 329.93C351.155 327.305 352.425 325.16 353.935 323.513C355.445 321.866 357.126 321.042 358.996 321.042C360.369 321.042 361.45 321.591 362.256 322.672C363.046 323.753 363.44 325.177 363.44 326.927C363.44 333.739 359.974 338.457 353.025 341.1C352.94 342.198 352.905 343.33 352.905 344.514C352.905 347.397 353.266 349.438 353.969 350.657C354.69 351.858 355.685 352.458 356.972 352.458C358.104 352.458 359.134 352.166 360.06 351.583C361.004 350.983 362.051 349.97 363.234 348.546C363.56 348.169 363.938 347.98 364.35 347.98Z" fill="#CB1F49"/>
</g>
<mask id="mask6_145_4157" style="mask-type:luminance" maskUnits="userSpaceOnUse" x="209" y="299" width="353" height="214">
<path d="M209.74 299.299H561.477V512.057H209.74V299.299Z" fill="white"/>
</mask>
<g mask="url(#mask6_145_4157)">
<path d="M561.238 299.635V497.586C561.238 505.582 554.752 512.05 546.757 512.05H224.463C216.467 512.05 209.981 505.582 209.981 497.586V299.635L387.531 439.678L561.238 299.635Z" fill="#CB1F49"/>
<path d="M559.284 504.827L396.627 373.672C391.325 369.4 383.759 369.4 378.457 373.672L213.312 506.817C215.971 510.026 219.969 512.051 224.447 512.051H546.759C552.112 512.051 556.779 509.134 559.284 504.827Z" fill="#CB1F49"/>
</g>
<path d="M520.533 52.4867L538.216 37.4227L550.191 51.4752L532.495 66.5275L520.533 52.4867Z" fill="white"/>
<path d="M301.207 57.1097L319.3 41.6966L331.553 56.0748L313.446 71.476L301.207 57.1097Z" fill="#CB1F49"/>
<path d="M288.379 561.155L306.926 545.356L319.486 560.094L300.926 575.881L288.379 561.155Z" fill="#CB1F49"/>
<path d="M65.6412 178.886L83.3249 163.822L95.3 177.875L77.6036 192.927L65.6412 178.886Z" fill="#CB1F49"/>
<path d="M438.306 460.682L444.237 444.56L457.052 449.284L451.12 465.406L438.306 460.682Z" fill="#E4E6EB"/>
<path d="M98.7794 360.511L115.858 362.366L114.374 375.943L97.2958 374.088L98.7794 360.511Z" fill="#CB1F49"/>
<path d="M358.161 173.442L364.093 157.32L376.908 162.044L370.976 178.166L358.161 173.442Z" fill="#D9D9D9"/>
<path d="M700.842 270.803L717.921 272.658L716.437 286.235L699.359 284.38L700.842 270.803Z" fill="#CB1F49"/>
<path d="M280.359 316.416L269.134 303.411L279.479 294.493L290.704 307.498L280.359 316.416Z" fill="#CB1F49"/>
<path d="M611.594 187.902L639.781 172.786L652.26 196.032L624.074 211.149L611.594 187.902Z" fill="#CB1F49"/>
<mask id="mask7_145_4157" style="mask-type:luminance" maskUnits="userSpaceOnUse" x="516" y="359" width="121" height="171">
<path d="M516.866 359.352H636.972V529.215H516.866V359.352Z" fill="white"/>
</mask>
<g mask="url(#mask7_145_4157)">
<path d="M516.866 363.243C516.866 361.096 518.61 359.352 520.758 359.352H632.308C634.456 359.352 636.199 361.096 636.199 363.243V524.706C636.199 526.854 634.456 528.598 632.308 528.598H520.758C518.61 528.598 516.866 526.854 516.866 524.706V363.243Z" fill="white"/>
<path d="M552.898 486.883H589.002V491.87H552.898V486.883Z" fill="#C8C8C8" fill-opacity="0.47"/>
<path d="M542.088 471.797H589.436V478.248H542.088V471.797Z" fill="#C8C8C8" fill-opacity="0.47"/>
<path d="M575.718 456.242C557.153 456.242 542.088 441.246 542.088 422.75C542.088 404.254 557.153 389.258 575.718 389.258C594.282 389.258 609.347 404.254 609.347 422.75C609.347 441.246 594.282 456.242 575.718 456.242ZM575.718 438.309C584.348 438.309 591.331 431.342 591.331 422.746C591.331 414.167 584.348 407.201 575.718 407.201C567.087 407.201 560.104 414.167 560.104 422.746C560.104 431.342 567.087 438.309 575.718 438.309Z" fill="#E8E8E8"/>
<mask id="mask8_145_4157" style="mask-type:alpha" maskUnits="userSpaceOnUse" x="542" y="389" width="68" height="68">
<path d="M575.718 456.244C557.153 456.244 542.088 441.248 542.088 422.752C542.088 404.256 557.153 389.26 575.718 389.26C594.282 389.26 609.347 404.256 609.347 422.752C609.347 441.248 594.282 456.244 575.718 456.244ZM575.718 438.308C584.348 438.308 591.331 431.342 591.331 422.746C591.331 414.167 584.348 407.201 575.718 407.201C567.087 407.201 560.104 414.167 560.104 422.746C560.104 431.342 567.087 438.308 575.718 438.308Z" fill="#FF0000"/>
<path d="M575.718 456.242C557.153 456.242 542.088 441.246 542.088 422.75C542.088 404.254 557.153 389.258 575.718 389.258C594.282 389.258 609.347 404.254 609.347 422.75C609.347 441.246 594.282 456.242 575.718 456.242ZM575.718 438.309C584.348 438.309 591.331 431.342 591.331 422.746C591.331 414.167 584.348 407.201 575.718 407.201C567.087 407.201 560.104 414.167 560.104 422.746C560.104 431.342 567.087 438.309 575.718 438.309Z" fill="#E8E8E8"/>
</mask>
<g mask="url(#mask8_145_4157)">
<path d="M575.745 407.504L577.062 483.007L599.87 449.985L648.456 379.641L616.857 368.358L575.146 370.417L575.745 407.504Z" fill="#CB1F49"/>
</g>
</g>
<path d="M623.63 267.886C632.141 249.973 653.605 242.338 671.535 250.848C689.483 259.341 697.118 280.771 688.607 298.684C680.886 314.916 662.562 322.705 645.85 317.712L635.95 324.524L634.972 312.342C621.228 302.39 616.081 283.774 623.63 267.886Z" fill="#CB1F49"/>
<path d="M654.388 299.649L640.404 289.44L645.225 282.852L652.826 288.394L667.925 269.16L674.359 274.204L654.388 299.649Z" fill="#FFFEFE"/>
<mask id="mask9_145_4157" style="mask-type:luminance" maskUnits="userSpaceOnUse" x="177" y="388" width="124" height="133">
<path d="M177.14 388.235H300.677V520.35H177.14V388.235Z" fill="white"/>
</mask>
<g mask="url(#mask9_145_4157)">
<path d="M176.568 415.855V513.896C176.568 518.408 180.017 522.063 184.289 522.063H292.384C296.656 522.063 300.105 518.408 300.105 513.896V415.855H176.568Z" fill="white"/>
<path d="M176.568 389.95H300.105V423.631H176.568V389.95Z" fill="#E8E8E8"/>
<path d="M192.01 402.902H199.731V410.675H192.01V402.902Z" fill="white"/>
<path d="M207.452 402.902H215.173V410.675H207.452V402.902Z" fill="white"/>
<path d="M280.802 410.675H226.755C224.627 410.675 222.894 408.925 222.894 406.78C222.894 404.635 224.627 402.902 226.755 402.902H280.802C282.93 402.902 284.663 404.635 284.663 406.78C284.663 408.925 282.93 410.675 280.802 410.675Z" fill="white"/>
<path d="M194.583 493.568H217.747V501.346H194.583V493.568Z" fill="#CB1F49"/>
<path d="M225.468 459.707H248.631V501.35H225.468V459.707Z" fill="#CB1F49"/>
<path d="M256.352 455.427H279.515V501.349H256.352V455.427Z" fill="#CB1F49"/>
<path d="M283.376 506.524H190.723C188.595 506.524 186.862 504.774 186.862 502.629C186.862 500.484 188.595 498.751 190.723 498.751H283.376C285.503 498.751 287.236 500.484 287.236 502.629C287.236 504.774 285.503 506.524 283.376 506.524Z" fill="#77959E"/>
</g>
<defs>
<linearGradient id="paint0_linear_145_4157" x1="696.856" y1="89.3706" x2="312.371" y2="531.02" gradientUnits="userSpaceOnUse">
<stop stop-color="#F8F9FD"/>
<stop offset="0.18" stop-color="#ECEFF5"/>
<stop offset="0.35" stop-color="#E1E6ED"/>
<stop offset="0.68" stop-color="#E2E5EC"/>
<stop offset="1" stop-color="#E3E5EA"/>
</linearGradient>
<linearGradient id="paint1_linear_145_4157" x1="696.855" y1="89.3706" x2="312.371" y2="531.02" gradientUnits="userSpaceOnUse">
<stop stop-color="#F8F9FD"/>
<stop offset="0.18" stop-color="#ECEFF5"/>
<stop offset="0.35" stop-color="#E1E6ED"/>
<stop offset="0.68" stop-color="#E2E5EC"/>
<stop offset="1" stop-color="#E3E5EA"/>
</linearGradient>
</defs>
</svg>
