<svg width="30" height="30" viewBox="0 0 30 30" fill="none" xmlns="http://www.w3.org/2000/svg">
<mask id="mask0_108_8091" style="mask-type:luminance" maskUnits="userSpaceOnUse" x="0" y="0" width="30" height="30">
<path d="M30 0H0V30H30V0Z" fill="white"/>
</mask>
<g mask="url(#mask0_108_8091)">
<path d="M28.1579 21.1819C28.1082 21.1407 22.4869 17.1413 20.9691 17.3859C20.2369 17.5154 19.8188 18.015 18.9797 19.0143C18.7477 19.2925 18.5105 19.5665 18.2682 19.8357C17.7378 19.6629 17.2206 19.4523 16.7204 19.2057C14.138 17.9484 12.0516 15.8621 10.7944 13.2797C10.5477 12.7795 10.3371 12.2622 10.1644 11.7319C10.44 11.4797 10.8263 11.1544 10.9913 11.0156C11.9859 10.1812 12.4847 9.76218 12.6141 9.02905C12.8794 7.51125 8.85938 1.89187 8.81812 1.84125C8.63505 1.58161 8.39663 1.36587 8.12004 1.20958C7.84346 1.05329 7.53561 0.960361 7.21875 0.9375C5.58938 0.9375 0.9375 6.97125 0.9375 7.98843C0.9375 8.0475 1.02281 14.0512 8.42625 21.5821C15.9487 28.9771 21.9525 29.0625 22.0116 29.0625C23.0279 29.0625 29.0625 24.4105 29.0625 22.7812C29.0394 22.4643 28.9462 22.1565 28.7898 21.8799C28.6333 21.6033 28.4175 21.365 28.1579 21.1819ZM21.9075 27.1819C21.0938 27.1125 16.05 26.4478 9.75 20.2594C3.53156 13.9284 2.88375 8.87625 2.81905 8.09344C4.04791 6.16467 5.53199 4.41096 7.23093 2.88C7.26843 2.9175 7.31812 2.97375 7.38188 3.04688C8.68483 4.82553 9.80726 6.72963 10.7325 8.73093C10.4316 9.03363 10.1136 9.3188 9.78 9.585C9.26268 9.97917 8.78764 10.4259 8.3625 10.9181C8.29056 11.0191 8.23935 11.1333 8.21184 11.2541C8.18431 11.3749 8.18105 11.5001 8.20218 11.6222C8.40059 12.4816 8.70445 13.3132 9.10687 14.0981C10.5486 17.0588 12.941 19.4508 15.9018 20.8921C16.6866 21.2952 17.5182 21.5994 18.3778 21.7979C18.5 21.8195 18.6252 21.8165 18.7461 21.7888C18.867 21.7612 18.9811 21.7098 19.082 21.6375C19.5758 21.2106 20.0241 20.7337 20.4197 20.2143C20.7141 19.8638 21.1068 19.3959 21.2559 19.2638C23.2623 20.188 25.1707 21.3118 26.9521 22.618C27.03 22.6838 27.0854 22.7343 27.1218 22.7671C25.5909 24.4667 23.8368 25.9511 21.9075 27.18V27.1819ZM21.5625 14.0625H23.4375C23.4352 12.0741 22.6443 10.1677 21.2383 8.76167C19.8323 7.35563 17.9259 6.56473 15.9375 6.5625V8.4375C17.4289 8.43898 18.8588 9.0321 19.9134 10.0867C20.9679 11.1412 21.561 12.5711 21.5625 14.0625Z" fill="white"/>
<path d="M26.25 14.0625H28.125C28.1213 10.8313 26.8361 7.73353 24.5513 5.44875C22.2665 3.16395 19.1686 1.87872 15.9375 1.875V3.75C18.6716 3.75322 21.2927 4.84075 23.226 6.77403C25.1592 8.70729 26.2467 11.3285 26.25 14.0625Z" fill="white"/>
</g>
</svg>
