<svg width="36" height="36" viewBox="0 0 36 36" fill="none" xmlns="http://www.w3.org/2000/svg">
<path d="M22.4156 5.625C24.3239 6.13712 26.0638 7.14214 27.4608 8.53919C28.8579 9.93624 29.8629 11.6762 30.375 13.5844" stroke="#CB1F49" stroke-width="2" stroke-linecap="round" stroke-linejoin="round"/>
<path d="M21.2484 9.9707C22.3961 10.2755 23.4428 10.8783 24.2824 11.7179C25.1221 12.5576 25.7249 13.6043 26.0297 14.752" stroke="#CB1F49" stroke-width="2" stroke-linecap="round" stroke-linejoin="round"/>
<path d="M13.0078 17.5497C14.1655 19.9403 16.0986 21.8685 18.4922 23.02C18.6687 23.1036 18.864 23.1398 19.0588 23.125C19.2536 23.1102 19.4412 23.0449 19.6031 22.9356L23.1187 20.5872C23.2741 20.4818 23.4536 20.4175 23.6404 20.4003C23.8273 20.3831 24.0155 20.4135 24.1875 20.4887L30.7687 23.3153C30.9937 23.4089 31.1816 23.5739 31.3036 23.7848C31.4255 23.9957 31.4748 24.2408 31.4437 24.4825C31.2352 26.1106 30.4405 27.6068 29.2084 28.6914C27.9764 29.7759 26.3914 30.3743 24.75 30.3747C19.6777 30.3747 14.8132 28.3597 11.2266 24.7731C7.63995 21.1865 5.625 16.3219 5.625 11.2497C5.62537 9.6083 6.2238 8.02329 7.30832 6.79124C8.39283 5.55919 9.88912 4.76452 11.5172 4.55593C11.7588 4.52489 12.004 4.57415 12.2149 4.69612C12.4258 4.81808 12.5908 5.006 12.6844 5.23093L15.5109 11.8262C15.5844 11.9955 15.6152 12.1802 15.6005 12.3641C15.5858 12.548 15.526 12.7255 15.4266 12.8809L13.0781 16.4528C12.9736 16.6144 12.9122 16.8 12.8999 16.9921C12.8876 17.1841 12.9247 17.3761 13.0078 17.5497V17.5497Z" stroke="#CB1F49" stroke-width="2" stroke-linecap="round" stroke-linejoin="round"/>
</svg>
