<svg width="493" height="510" viewBox="0 0 493 510" fill="none" xmlns="http://www.w3.org/2000/svg">
<mask id="mask0_145_4445" style="mask-type:luminance" maskUnits="userSpaceOnUse" x="0" y="0" width="493" height="510">
<path d="M492.77 0H0V510H492.77V0Z" fill="white"/>
</mask>
<g mask="url(#mask0_145_4445)">
<path d="M436.266 195.255L442.07 198.396L439.46 202.763L433.606 199.302L433.711 205.746H428.707L428.76 199.248L422.903 202.763L420.347 198.396L426.15 195.255L420.347 192.061L422.903 187.695L428.76 191.208L428.707 184.712H433.711L433.606 191.208L439.46 187.695L442.07 192.061L436.266 195.255Z" fill="#F4F2F2"/>
<g opacity="0.015">
<path d="M460.437 195.255L466.241 198.396L463.631 202.763L457.776 199.302L457.881 205.746H452.877L452.929 199.248L447.073 202.763L444.516 198.396L450.32 195.255L444.516 192.061L447.073 187.695L452.929 191.208L452.877 184.712H457.881L457.776 191.208L463.631 187.695L466.241 192.061L460.437 195.255Z" fill="#F4F2F2"/>
</g>
<path d="M238.694 470.198V505.878H290.871H348.42V470.198H238.694Z" fill="#F4F2F2"/>
<path d="M234.09 460.223V470.198H352.256V460.223H290.871H234.09Z" fill="#F4F2F2"/>
<path d="M293.173 505.879H348.419V470.198H352.255V460.222H290.871V469.275L293.173 505.879Z" fill="#F4F2F2"/>
<path d="M254.04 475.952V481.323H276.291V475.952H254.04Z" fill="#F4F2F2"/>
<path d="M279.749 499.378H251.175V488.038H279.749V499.378Z" fill="white"/>
<path d="M255.574 424.589V460.269H307.751H365.3V424.589H255.574Z" fill="#F4F2F2"/>
<path d="M250.971 414.615V424.59H369.139V414.615H307.752H250.971Z" fill="#F4F2F2"/>
<path d="M310.055 460.27H365.3V424.59H369.139V414.615H307.752V423.669L310.055 460.27Z" fill="#F4F2F2"/>
<path d="M270.92 430.343V435.714H293.174V430.343H270.92Z" fill="#F4F2F2"/>
<path d="M296.632 453.77H268.058V442.431H296.632V453.77Z" fill="white"/>
<path d="M491.78 506.152C491.78 506.317 381.682 506.451 245.902 506.451C110.074 506.451 0 506.317 0 506.152C0 505.987 110.074 505.853 245.902 505.853C381.682 505.853 491.78 505.987 491.78 506.152Z" fill="#0D161C"/>
<path d="M390.283 226.571H185.093C180.933 226.571 177.558 223.197 177.558 219.036V30.2577C177.558 26.0961 180.933 22.7225 185.093 22.7225H390.283C394.446 22.7225 397.819 26.0961 397.819 30.2577V219.036C397.819 223.197 394.446 226.571 390.283 226.571Z" fill="white"/>
<path d="M390.283 226.571C390.283 226.571 390.466 226.551 390.824 226.528C391.184 226.504 391.72 226.43 392.401 226.233C393.076 226.021 393.903 225.675 394.745 225.042C395.578 224.415 396.443 223.504 397.026 222.246C397.677 221.005 397.809 219.436 397.745 217.721C397.74 216.003 397.736 214.126 397.73 212.092C397.722 208.024 397.714 203.33 397.703 198.048C397.68 176.907 397.648 146.327 397.608 108.544C397.597 89.6486 397.584 68.9545 397.57 46.7373C397.561 41.1882 397.551 35.5437 397.54 29.8085C397.407 27.0265 395.488 24.4076 392.825 23.4473C391.507 22.8983 390.064 22.9867 388.585 22.9833C387.118 22.9844 385.644 22.9844 384.164 22.9856C372.329 22.9902 360.148 22.9936 347.658 22.9982C297.696 23.0051 242.768 23.0131 185.114 23.0212C183.378 23.0223 181.663 23.6587 180.36 24.7935C179.046 25.9158 178.167 27.5262 177.939 29.2319C177.82 30.0704 177.867 30.9756 177.858 31.8704V34.5513C177.857 36.3375 177.857 38.119 177.857 39.8994C177.857 47.0187 177.857 54.0921 177.856 61.1127C177.854 75.1549 177.853 88.9904 177.851 102.586C177.845 129.775 177.839 156.004 177.834 180.988C177.829 193.481 177.826 205.662 177.821 217.498C177.827 218.233 177.802 218.99 177.853 219.689C177.933 220.395 178.076 221.096 178.349 221.752C178.879 223.069 179.801 224.212 180.956 225.017C182.115 225.817 183.498 226.272 184.898 226.303C186.342 226.307 187.78 226.311 189.212 226.316C194.953 226.318 200.603 226.321 206.158 226.324C228.377 226.337 249.073 226.349 267.967 226.36C305.752 226.4 336.328 226.432 357.466 226.455C368.028 226.479 376.228 226.499 381.799 226.511C384.576 226.524 386.695 226.534 388.127 226.541C389.553 226.55 390.283 226.571 390.283 226.571C390.283 226.571 389.553 226.592 388.127 226.602C386.695 226.609 384.576 226.618 381.799 226.632C376.228 226.644 368.028 226.664 357.466 226.688C336.328 226.71 305.752 226.742 267.967 226.783C249.073 226.794 228.377 226.806 206.158 226.819C200.603 226.822 194.953 226.825 189.212 226.827C187.775 226.825 186.333 226.821 184.883 226.819C183.387 226.787 181.902 226.3 180.661 225.444C179.422 224.583 178.433 223.359 177.865 221.948C177.571 221.245 177.414 220.492 177.332 219.735C177.274 218.962 177.303 218.242 177.295 217.498C177.292 205.662 177.287 193.481 177.282 180.988C177.277 156.004 177.271 129.775 177.265 102.586C177.264 88.9904 177.263 75.1549 177.261 61.1127C177.261 54.0921 177.261 47.0187 177.259 39.8994C177.259 38.119 177.259 36.3375 177.259 34.5513V31.8704C177.271 30.9802 177.218 30.0854 177.347 29.1481C177.595 27.301 178.546 25.5562 179.968 24.3421C181.376 23.1131 183.24 22.4227 185.114 22.4227C242.768 22.4308 297.696 22.44 347.658 22.4469C360.148 22.4514 372.329 22.4549 384.164 22.4595C385.644 22.4595 387.118 22.4606 388.585 22.4606C390.022 22.4652 391.589 22.3722 393.007 22.9614C395.859 23.9929 397.91 26.7979 398.05 29.7775C398.056 35.5231 398.062 41.1779 398.066 46.7373C398.054 68.9545 398.042 89.6486 398.031 108.544C397.991 146.327 397.957 176.907 397.936 198.048C397.925 203.33 397.916 208.024 397.908 212.092C397.903 214.126 397.899 216.003 397.894 217.721C397.952 219.422 397.806 221.051 397.135 222.299C396.534 223.572 395.649 224.488 394.799 225.116C393.942 225.747 393.102 226.087 392.419 226.291C391.729 226.48 391.187 226.544 390.827 226.559C390.466 226.572 390.283 226.571 390.283 226.571Z" fill="#0D161C"/>
<path d="M194.181 36.8498C194.181 38.9529 192.474 40.6575 190.371 40.6575C188.269 40.6575 186.565 38.9529 186.565 36.8498C186.565 34.7466 188.269 33.042 190.371 33.042C192.474 33.042 194.181 34.7466 194.181 36.8498Z" fill="#0D161C"/>
<path d="M205.303 36.8498C205.303 38.9529 203.598 40.6575 201.495 40.6575C199.392 40.6575 197.687 38.9529 197.687 36.8498C197.687 34.7466 199.392 33.042 201.495 33.042C203.598 33.042 205.303 34.7466 205.303 36.8498Z" fill="#0D161C"/>
<path d="M216.423 36.8498C216.423 38.9529 214.719 40.6575 212.615 40.6575C210.513 40.6575 208.81 38.9529 208.81 36.8498C208.81 34.7466 210.513 33.042 212.615 33.042C214.719 33.042 216.423 34.7466 216.423 36.8498Z" fill="#0D161C"/>
<path d="M397.819 47.6517C397.819 47.8171 348.508 47.9503 287.694 47.9503C226.859 47.9503 177.558 47.8171 177.558 47.6517C177.558 47.4863 226.859 47.353 287.694 47.353C348.508 47.353 397.819 47.4863 397.819 47.6517Z" fill="#0D161C"/>
<path d="M319.069 124.141C319.069 124.141 319.155 124.017 319.329 123.784L319.475 123.588L319.623 123.329C319.727 123.139 319.858 122.926 319.95 122.656C320.001 122.523 320.061 122.385 320.112 122.235C320.153 122.082 320.195 121.92 320.24 121.751C320.293 121.583 320.321 121.401 320.346 121.211C320.368 121.021 320.418 120.827 320.423 120.619C320.502 119.79 320.437 118.825 320.261 117.762C319.909 115.628 318.976 113.12 317.559 110.4C316.145 107.673 314.207 104.746 311.831 101.698C309.454 98.648 306.6 95.5033 303.327 92.3494C300.05 89.1989 296.345 86.038 292.196 83.0496C290.12 81.5577 287.933 80.1141 285.628 78.7556C283.326 77.3936 280.901 76.1283 278.344 75.0355C275.789 73.9565 273.095 73.0202 270.259 72.5944C268.845 72.3912 267.39 72.3022 265.96 72.5345C265.247 72.6512 264.548 72.8551 263.891 73.1585C263.243 73.4824 262.65 73.9114 262.161 74.4508C261.692 75.0072 261.346 75.653 261.11 76.3378C260.898 77.0305 260.79 77.7507 260.77 78.4735C260.732 79.9213 261.018 81.353 261.408 82.7261C262.213 85.4791 263.502 88.0235 264.917 90.4104C266.345 92.796 267.927 95.0295 269.586 97.1278C271.245 99.2283 272.97 101.202 274.729 103.057C278.25 106.764 281.882 110.011 285.445 112.833C289.012 115.652 292.515 118.053 295.856 119.997C299.198 121.939 302.361 123.466 305.253 124.499C308.14 125.535 310.75 126.121 312.911 126.183C313.988 126.214 314.953 126.148 315.762 125.957C315.967 125.925 316.154 125.849 316.34 125.801C316.524 125.749 316.7 125.699 316.86 125.624C317.021 125.556 317.175 125.492 317.322 125.43C317.463 125.36 317.591 125.282 317.717 125.214C317.972 125.086 318.166 124.927 318.34 124.798L318.577 124.619L318.751 124.447C318.96 124.242 319.069 124.141 319.069 124.141C319.069 124.141 318.968 124.25 318.763 124.459L318.589 124.635L318.355 124.819C318.183 124.95 317.989 125.112 317.733 125.243C317.609 125.314 317.481 125.394 317.339 125.467C317.192 125.528 317.037 125.594 316.875 125.664C316.715 125.74 316.539 125.792 316.353 125.846C316.166 125.895 315.979 125.972 315.774 126.006C314.96 126.203 313.991 126.274 312.908 126.248C310.737 126.197 308.117 125.618 305.221 124.587C302.319 123.56 299.146 122.04 295.797 120.101C292.445 118.161 288.934 115.761 285.358 112.943C281.786 110.122 278.145 106.874 274.615 103.164C272.853 101.306 271.123 99.3319 269.46 97.2279C267.795 95.1262 266.208 92.8882 264.774 90.4958C263.354 88.1009 262.057 85.5462 261.246 82.7715C260.852 81.3869 260.562 79.9426 260.601 78.4684C260.621 77.733 260.731 76.9966 260.949 76.2844C261.191 75.5811 261.548 74.9157 262.033 74.3396C262.539 73.7817 263.152 73.3386 263.817 73.0053C264.492 72.6926 265.207 72.4862 265.933 72.3671C267.388 72.131 268.858 72.2234 270.284 72.4276C273.141 72.8578 275.846 73.7985 278.411 74.882C280.974 75.9793 283.404 77.2503 285.71 78.6157C288.019 79.9788 290.21 81.4281 292.288 82.9234C296.44 85.9198 300.147 89.0887 303.425 92.2472C306.699 95.4104 309.549 98.5643 311.925 101.623C314.299 104.681 316.234 107.621 317.642 110.357C319.055 113.088 319.981 115.606 320.327 117.751C320.499 118.82 320.558 119.79 320.472 120.623C320.467 120.832 320.415 121.029 320.392 121.219C320.364 121.41 320.335 121.593 320.282 121.761C320.235 121.93 320.191 122.093 320.149 122.247C320.096 122.398 320.034 122.535 319.981 122.668C319.887 122.939 319.752 123.153 319.645 123.341L319.493 123.599L319.342 123.795C319.164 124.025 319.069 124.141 319.069 124.141Z" fill="#17A1C8"/>
<path d="M328.786 93.4944C328.786 93.4944 328.748 93.3491 328.68 93.0656L328.623 92.8268C328.597 92.7401 328.556 92.6488 328.52 92.5475C328.442 92.3457 328.365 92.1077 328.216 91.8633C328.148 91.739 328.082 91.6039 328 91.4679C327.909 91.3379 327.811 91.203 327.711 91.0592C327.616 90.9112 327.495 90.7741 327.368 90.631C327.237 90.4908 327.119 90.3277 326.962 90.1905C326.382 89.5955 325.601 89.0234 324.673 88.4739C322.814 87.3699 320.296 86.4687 317.303 85.8C314.306 85.1262 310.817 84.7224 306.956 84.5761C303.092 84.4302 298.848 84.587 294.327 85.0598C289.808 85.5382 285.003 86.3361 280.045 87.5853C277.567 88.2121 275.053 88.9549 272.529 89.8432C270.005 90.727 267.473 91.7678 264.991 93.0194C262.52 94.2785 260.07 95.7378 257.917 97.6324C256.853 98.5825 255.846 99.6388 255.103 100.882C254.734 101.503 254.437 102.168 254.248 102.867C254.079 103.571 254.025 104.301 254.123 105.022C254.246 105.739 254.514 106.421 254.888 107.042C255.28 107.65 255.761 108.196 256.302 108.676C257.383 109.639 258.665 110.343 259.966 110.928C262.592 112.086 265.368 112.737 268.106 113.193C270.85 113.637 273.577 113.866 276.251 113.947C278.926 114.032 281.547 113.983 284.098 113.833C289.204 113.528 294.024 112.839 298.478 111.932C302.932 111.019 307.026 109.886 310.666 108.582C314.303 107.277 317.507 105.841 320.159 104.293C322.811 102.753 324.941 101.134 326.381 99.5203C327.099 98.7166 327.67 97.9368 328.044 97.1946C328.153 97.0161 328.216 96.8252 328.298 96.652C328.377 96.4771 328.45 96.3101 328.496 96.1403C328.548 95.9731 328.601 95.8137 328.647 95.6624C328.685 95.5078 328.708 95.3591 328.735 95.2201C328.802 94.9423 328.804 94.6921 328.818 94.4762C328.822 94.3686 328.833 94.2692 328.832 94.1788L328.814 93.9351C328.794 93.6442 328.786 93.4944 328.786 93.4944C328.786 93.4944 328.805 93.6425 328.831 93.9336L328.854 94.1788C328.857 94.2703 328.846 94.3695 328.843 94.478C328.833 94.6947 328.833 94.9457 328.768 95.2254C328.742 95.3654 328.719 95.5166 328.684 95.6719C328.638 95.8244 328.587 95.9856 328.536 96.1538C328.492 96.3246 328.418 96.4941 328.339 96.6701C328.258 96.8442 328.196 97.0374 328.089 97.2166C327.715 97.9659 327.147 98.7534 326.428 99.5641C324.991 101.191 322.862 102.823 320.208 104.375C317.553 105.934 314.346 107.38 310.704 108.694C307.062 110.009 302.967 111.149 298.508 112.069C294.049 112.984 289.221 113.679 284.107 113.989C281.553 114.141 278.926 114.193 276.246 114.109C273.566 114.029 270.832 113.803 268.079 113.358C265.333 112.901 262.543 112.248 259.898 111.082C258.584 110.491 257.293 109.782 256.189 108.803C255.64 108.313 255.149 107.756 254.745 107.131C254.361 106.493 254.081 105.789 253.953 105.047C253.851 104.302 253.909 103.548 254.083 102.825C254.278 102.107 254.582 101.427 254.957 100.795C255.715 99.5311 256.731 98.4653 257.806 97.5066C259.976 95.5977 262.437 94.1345 264.916 92.8706C267.407 91.6165 269.946 90.5758 272.476 89.6911C275.006 88.8029 277.525 88.0605 280.006 87.4344C284.974 86.1882 289.784 85.3931 294.312 84.9203C298.841 84.4534 303.091 84.3025 306.96 84.457C310.828 84.6115 314.322 85.0227 317.322 85.7075C320.322 86.3855 322.844 87.299 324.707 88.4177C325.635 88.9751 326.417 89.5528 326.998 90.1546C327.155 90.2932 327.271 90.4589 327.402 90.6002C327.53 90.7443 327.651 90.8836 327.746 91.0341C327.845 91.1792 327.94 91.3178 328.032 91.449C328.112 91.5865 328.178 91.7227 328.247 91.8482C328.393 92.0952 328.468 92.3358 328.544 92.5391C328.579 92.6406 328.619 92.7344 328.644 92.8212L328.697 93.0618C328.759 93.3473 328.786 93.4944 328.786 93.4944Z" fill="#17A1C8"/>
<path d="M319.707 71.831C319.707 71.831 319.593 71.7333 319.377 71.5383L319.194 71.3741L318.952 71.2042C318.773 71.0824 318.572 70.9305 318.312 70.8137C318.185 70.751 318.053 70.6772 317.909 70.6119C317.759 70.5574 317.603 70.4996 317.438 70.4392C317.277 70.3713 317.099 70.3264 316.913 70.2825C316.726 70.2421 316.535 70.1743 316.329 70.1505C315.513 69.9919 314.546 69.9659 313.471 70.0404C311.313 70.1895 308.729 70.8805 305.887 72.0327C303.038 73.1816 299.939 74.8334 296.679 76.9101C293.418 78.9866 290.016 81.5285 286.566 84.4883C283.12 87.4521 279.622 90.8427 276.254 94.6891C274.574 96.6135 272.928 98.6536 271.357 100.819C269.783 102.982 268.292 105.277 266.962 107.717C265.646 110.159 264.46 112.753 263.766 115.536C263.43 116.923 263.203 118.364 263.299 119.81C263.349 120.53 263.483 121.246 263.723 121.929C263.985 122.603 264.355 123.234 264.846 123.773C265.356 124.292 265.966 124.699 266.625 124.998C267.295 125.275 268.001 125.451 268.718 125.539C270.156 125.714 271.608 125.566 273.013 125.307C275.83 124.767 278.485 123.723 280.995 122.543C283.506 121.347 285.879 119.984 288.124 118.53C290.374 117.081 292.5 115.547 294.515 113.973C298.54 110.82 302.115 107.511 305.262 104.231C308.406 100.947 311.13 97.6895 313.381 94.5469C315.632 91.4042 317.451 88.4006 318.754 85.6194C320.059 82.8444 320.889 80.3018 321.156 78.1556C321.29 77.086 321.314 76.1205 321.201 75.2964C321.189 75.0888 321.131 74.8963 321.101 74.7069C321.067 74.5179 321.034 74.3373 320.975 74.1724C320.923 74.0051 320.874 73.8443 320.827 73.6928C320.769 73.5456 320.704 73.41 320.647 73.2802C320.543 73.0144 320.405 72.8047 320.292 72.621L320.137 72.3681L319.981 72.1779C319.799 71.951 319.707 71.831 319.707 71.831C319.707 71.831 319.807 71.943 319.994 72.1672L320.152 72.3555L320.315 72.6072C320.429 72.791 320.573 72.9992 320.678 73.2653C320.736 73.3951 320.803 73.531 320.861 73.6795C320.91 73.8323 320.961 73.9924 321.015 74.16C321.075 74.3263 321.11 74.5071 321.146 74.6963C321.177 74.8859 321.238 75.0812 321.251 75.2901C321.37 76.1187 321.349 77.0895 321.222 78.1646C320.963 80.3213 320.14 82.8744 318.839 85.6593C317.542 88.4507 315.727 91.4654 313.479 94.6165C311.23 97.7688 308.509 101.036 305.365 104.329C302.217 107.617 298.639 110.934 294.612 114.096C292.595 115.673 290.465 117.212 288.212 118.667C285.963 120.124 283.585 121.492 281.068 122.692C278.548 123.878 275.884 124.928 273.044 125.472C271.627 125.735 270.161 125.886 268.698 125.707C267.967 125.617 267.244 125.438 266.558 125.153C265.88 124.847 265.25 124.427 264.724 123.89C264.216 123.334 263.833 122.682 263.563 121.988C263.318 121.285 263.181 120.554 263.13 119.821C263.033 118.351 263.265 116.894 263.602 115.496C264.302 112.691 265.496 110.087 266.817 107.638C268.151 105.189 269.648 102.89 271.226 100.723C272.8 98.5548 274.451 96.5109 276.136 94.5849C279.514 90.7354 283.019 87.3448 286.475 84.3811C289.934 81.4216 293.344 78.8835 296.614 76.8094C299.883 74.7364 302.991 73.0883 305.849 71.9444C308.703 70.7986 311.298 70.1139 313.466 69.9746C314.546 69.9043 315.518 69.9358 316.337 70.1007C316.546 70.126 316.736 70.196 316.924 70.2378C317.111 70.2841 317.289 70.329 317.451 70.3983C317.617 70.4611 317.773 70.52 317.924 70.577C318.068 70.6446 318.2 70.7185 318.328 70.7835C318.587 70.9037 318.79 71.0582 318.966 71.1831L319.208 71.3577L319.389 71.5262C319.602 71.7265 319.707 71.831 319.707 71.831Z" fill="#17A1C8"/>
<path d="M253.184 112.931C253.733 113.479 253.733 114.369 253.184 114.917C252.636 115.466 251.747 115.466 251.199 114.917C250.65 114.369 250.65 113.479 251.199 112.931C251.747 112.382 252.636 112.382 253.184 112.931Z" fill="#17A1C8"/>
<path d="M332.426 67.3417C332.426 68.117 331.797 68.7465 331.021 68.7465C330.246 68.7465 329.616 68.117 329.616 67.3417C329.616 66.5663 330.246 65.9369 331.021 65.9369C331.797 65.9369 332.426 66.5663 332.426 67.3417Z" fill="#17A1C8"/>
<path d="M262.054 119.501C262.054 119.697 261.893 119.857 261.697 119.857C261.5 119.857 261.34 119.697 261.34 119.501C261.34 119.303 261.5 119.142 261.697 119.142C261.893 119.142 262.054 119.303 262.054 119.501Z" fill="#17A1C8"/>
<path d="M269.672 80.1435C269.672 80.3399 269.512 80.5007 269.315 80.5007C269.117 80.5007 268.957 80.3399 268.957 80.1435C268.957 79.9459 269.117 79.7863 269.315 79.7863C269.512 79.7863 269.672 79.9459 269.672 80.1435Z" fill="#17A1C8"/>
<path d="M325.371 99.2731C325.371 99.4695 325.21 99.6304 325.014 99.6304C324.817 99.6304 324.656 99.4695 324.656 99.2731C324.656 99.0756 324.817 98.9159 325.014 98.9159C325.21 98.9159 325.371 99.0756 325.371 99.2731Z" fill="#17A1C8"/>
<path d="M330.331 82.6337C330.331 82.8313 330.171 82.9909 329.975 82.9909C329.777 82.9909 329.616 82.8313 329.616 82.6337C329.616 82.4373 329.777 82.2765 329.975 82.2765C330.171 82.2765 330.331 82.4373 330.331 82.6337Z" fill="#17A1C8"/>
<path d="M306.277 96.4348H301.862V83.0979C301.862 79.1637 299.634 75.7396 296.376 74.0201C296.339 74.0006 296.303 73.9822 296.267 73.9638C294.867 73.247 293.284 72.8427 291.608 72.8427C288.208 72.8427 285.189 74.5048 283.322 77.0594C283.29 77.1042 283.258 77.149 283.226 77.1938C282.045 78.8639 281.351 80.9016 281.351 83.0979L281.344 99.8084L276.938 96.4348V83.0979C276.938 75.0091 283.519 68.4285 291.608 68.4285C299.695 68.4285 306.277 75.0091 306.277 83.0979V86.5254V86.6518V95.2333V95.4309V96.4348Z" fill="#4F4F7B"/>
<path d="M308.788 121.8H274.425C272.996 121.8 271.838 120.641 271.838 119.214V99.0216C271.838 97.5927 272.996 96.4337 274.425 96.4337H276.95H308.788C310.217 96.4337 311.375 97.5927 311.375 99.0216V119.214C311.375 120.641 310.217 121.8 308.788 121.8Z" fill="#17A1C8"/>
<path d="M292.508 113.918H290.705V108.977C289.321 108.583 288.302 107.323 288.302 105.812C288.302 103.987 289.782 102.508 291.608 102.508C293.432 102.508 294.911 103.987 294.911 105.812C294.911 107.323 293.892 108.583 292.508 108.977V113.918Z" fill="#4F4F7B"/>
<path d="M273.947 119.394C273.855 119.394 273.783 115.164 273.783 109.946C273.783 104.728 273.855 100.499 273.947 100.499C274.038 100.499 274.11 104.728 274.11 109.946C274.11 115.164 274.038 119.394 273.947 119.394Z" fill="#FAFAF7"/>
<path d="M289.017 110.049C289.007 110.065 288.863 109.998 288.631 109.829C288.398 109.663 288.088 109.377 287.78 108.961C287.162 108.152 286.598 106.684 286.965 105.099C287.348 103.517 288.511 102.457 289.425 102.012C289.887 101.778 290.291 101.662 290.574 101.618C290.857 101.572 291.018 101.575 291.021 101.595C291.034 101.657 290.393 101.716 289.537 102.215C288.692 102.692 287.637 103.713 287.284 105.174C286.945 106.637 287.43 108.025 287.971 108.829C288.513 109.658 289.058 109.999 289.017 110.049Z" fill="#FAFAF7"/>
<path d="M350.306 166.26H228.572C222.662 166.26 217.87 161.468 217.87 155.557V154.239C217.87 148.328 222.662 143.537 228.572 143.537H350.306C356.217 143.537 361.008 148.328 361.008 154.239V155.557C361.008 161.468 356.217 166.26 350.306 166.26Z" fill="#F4F2F2"/>
<path d="M351.359 197.416H229.625C223.714 197.416 218.923 192.625 218.923 186.714V185.396C218.923 179.486 223.714 174.693 229.625 174.693H351.359C357.27 174.693 362.059 179.486 362.059 185.396V186.714C362.059 192.625 357.27 197.416 351.359 197.416Z" fill="#F4F2F2"/>
<path d="M39.8386 505.464H29.5548L25.7424 459.17H37.8515L39.8386 505.464Z" fill="#0D161C"/>
<path d="M128.963 505.464H139.246L143.06 459.17H130.949L128.963 505.464Z" fill="#3B3B77"/>
<path d="M150.128 465.032L17.7607 468.139L13.7324 382.643C13.3384 374.272 20.0189 367.269 28.3995 367.269H141.176C149.685 367.269 156.414 374.48 155.825 382.969L150.128 465.032Z" fill="#17A1C8"/>
<path d="M156.914 382.351C156.914 382.361 156.788 382.371 156.545 382.382C156.268 382.39 155.91 382.401 155.459 382.415C154.466 382.429 153.068 382.451 151.287 382.477C147.623 382.49 142.391 382.509 135.943 382.532C122.987 382.554 105.088 382.408 85.3309 382.866C65.5638 383.523 47.6483 383.411 34.695 383.214C28.2166 383.112 22.9754 382.986 19.3548 382.877C17.5756 382.816 16.1788 382.768 15.1852 382.734C14.7349 382.712 14.3777 382.695 14.1009 382.681C13.8574 382.666 13.7322 382.654 13.7322 382.642C13.7322 382.632 13.8574 382.625 14.102 382.619C14.3789 382.619 14.7372 382.617 15.1875 382.615C16.1811 382.621 17.579 382.631 19.3594 382.645C23.0224 382.679 28.2534 382.73 34.7008 382.792C47.6552 382.88 65.5512 382.925 85.316 382.269C105.088 381.81 122.989 382.023 135.944 382.109C142.392 382.166 147.623 382.212 151.287 382.244C153.068 382.266 154.466 382.283 155.459 382.293C155.91 382.305 156.267 382.314 156.545 382.321C156.788 382.331 156.914 382.339 156.914 382.351Z" fill="#0D161C"/>
<path d="M62.0157 368.605C62.0525 368.805 57.868 368.877 53.4215 371.183C48.9418 373.431 46.4286 376.777 46.2884 376.63C46.2356 376.591 46.7789 375.71 47.9287 374.503C49.0716 373.297 50.8761 371.815 53.1493 370.652C55.4248 369.495 57.6842 368.902 59.3313 368.685C60.9842 368.461 62.0157 368.54 62.0157 368.605Z" fill="#CB1F49"/>
<path d="M116.457 213.16L132.639 242.717C132.639 242.717 136.134 248.503 137.046 254.644C137.832 259.945 136.255 265.657 134.069 266.401C129.352 268.007 120.417 268.3 115.307 261.908C110.655 256.088 97.1174 225.524 97.1174 225.524L116.457 213.16Z" fill="#FBA586"/>
<path d="M175.264 438.549C175.303 438.548 175.341 438.158 175.232 437.462C175.117 436.77 174.833 435.761 174.132 434.691C173.951 434.43 173.772 434.148 173.476 433.892C173.196 433.637 172.711 433.441 172.244 433.614C172.011 433.688 171.78 433.901 171.699 434.162C171.612 434.426 171.655 434.688 171.724 434.9C171.877 435.338 172.105 435.65 172.297 436.012C172.725 436.731 173.077 437.447 173.623 438.257C173.898 438.67 174.519 439.012 175.085 438.915C175.642 438.845 176.092 438.574 176.498 438.289C177.285 437.718 177.977 437.069 178.573 436.376C178.871 436.03 179.142 435.673 179.391 435.311C179.624 434.952 179.901 434.588 180.006 434.088C180.112 433.606 179.929 432.973 179.382 432.755C178.827 432.555 178.376 432.833 178.067 433.052C177.44 433.572 177.063 434.107 176.681 434.623C175.952 435.654 175.549 436.6 175.322 437.26C175.099 437.925 175.046 438.309 175.085 438.321C175.198 438.367 175.571 436.833 177.05 434.896C177.418 434.437 177.874 433.878 178.383 433.49C178.642 433.304 178.967 433.184 179.164 433.284C179.372 433.358 179.487 433.669 179.419 433.97C179.353 434.279 179.12 434.611 178.88 434.957C178.639 435.298 178.377 435.633 178.092 435.958C177.521 436.608 176.859 437.224 176.118 437.76C175.762 438.018 175.372 438.229 175.012 438.273C174.649 438.317 174.363 438.174 174.124 437.863C173.67 437.203 173.235 436.388 172.815 435.71C172.614 435.356 172.372 435.013 172.267 434.718C172.156 434.406 172.218 434.206 172.434 434.118C172.932 433.914 173.417 434.476 173.754 434.954C175.155 436.94 175.138 438.59 175.264 438.549Z" fill="#CB1F49"/>
<path d="M147.036 439.516L133.02 469.892L110.404 459.442L124.9 421.848L147.036 439.516Z" fill="#FBA586"/>
<path d="M135.669 467.865L127.479 483.48C127.479 483.48 148.441 505.154 146.472 510L97.1953 486.374L110.733 455.051L135.669 467.865Z" fill="#283C46"/>
<path d="M146.472 510C146.757 509.299 146.563 508.248 146.022 506.961C146.469 507.617 147.193 508.962 146.472 510Z" fill="white"/>
<path d="M146.472 510L139.008 506.421L97.1953 486.373L99.2457 482.444L145.726 506.566C145.726 506.566 145.854 506.714 146.022 506.96C146.563 508.247 146.757 509.299 146.472 510Z" fill="#F4F2F2"/>
<path d="M128.399 483.611C128.276 483.848 127.019 483.381 125.464 483.588C123.904 483.752 122.794 484.503 122.617 484.301C122.419 484.147 123.469 482.882 125.356 482.664C127.24 482.431 128.557 483.416 128.399 483.611Z" fill="#CB1F49"/>
<path d="M132.543 488.229C132.485 488.487 131.247 488.397 129.941 489.023C128.618 489.61 127.884 490.612 127.649 490.487C127.405 490.417 127.914 488.927 129.552 488.18C131.181 487.419 132.647 487.997 132.543 488.229Z" fill="#CB1F49"/>
<path d="M132.511 495.821C132.268 495.767 132.51 494.406 133.759 493.384C135.002 492.353 136.385 492.377 136.392 492.627C136.432 492.89 135.363 493.247 134.35 494.1C133.317 494.931 132.761 495.912 132.511 495.821Z" fill="#CB1F49"/>
<path d="M130.748 477.597C130.542 477.768 129.597 476.906 128.193 476.347C126.8 475.758 125.523 475.707 125.497 475.441C125.44 475.201 126.901 474.804 128.548 475.488C130.197 476.157 130.957 477.465 130.748 477.597Z" fill="#CB1F49"/>
<path d="M140.286 463.811L177.231 371.35C177.231 371.35 176.401 355.575 173.495 350.593C170.589 345.611 82.5775 316.55 82.5775 316.55C82.5775 316.55 60.1594 311.153 45.2143 316.55C30.2692 321.947 19.0596 340.628 21.1352 351.008C23.2108 361.386 31.9715 369.01 31.9715 369.01L96.6921 370.934L131.969 383.804L108.213 451.888L140.286 463.811Z" fill="#CB1F49"/>
<path d="M173.148 400.628L173.98 434.072L149.073 434.682L145.485 394.548L173.148 400.628Z" fill="#FBA586"/>
<path d="M175.462 431.084L175.008 448.713C175.008 448.713 203.385 458.906 203.758 464.122L149.111 464.675L147.43 430.595L175.462 431.084Z" fill="#283C46"/>
<path d="M158.086 446.514C157.032 446.814 156.313 448.011 156.569 449.077C156.825 450.144 158.035 450.885 159.095 450.603C160.154 450.322 161.062 448.911 160.688 447.881C160.315 446.85 158.843 446.058 157.883 446.585" fill="#F4F2F2"/>
<path d="M203.758 464.122C203.704 463.368 203.066 462.511 202.015 461.597C202.707 461.989 203.944 462.874 203.758 464.122Z" fill="white"/>
<path d="M149.11 464.676L149.216 460.246L201.571 461.372C201.571 461.372 201.753 461.449 202.014 461.597C203.065 462.511 203.704 463.368 203.758 464.122L150.151 464.665L149.11 464.676Z" fill="#F4F2F2"/>
<path d="M175.89 448.424C175.884 448.691 174.551 448.825 173.247 449.697C171.92 450.533 171.255 451.697 171.008 451.594C170.761 451.544 171.144 449.945 172.742 448.917C174.329 447.877 175.946 448.179 175.89 448.424Z" fill="#CB1F49"/>
<path d="M181.646 450.737C181.71 450.995 180.558 451.46 179.663 452.597C178.735 453.709 178.519 454.933 178.252 454.923C178.003 454.967 177.803 453.406 178.943 452.014C180.069 450.61 181.638 450.483 181.646 450.737Z" fill="#CB1F49"/>
<path d="M184.971 457.564C184.729 457.622 184.344 456.293 185.015 454.825C185.674 453.352 186.928 452.763 187.042 452.983C187.195 453.202 186.392 453.994 185.862 455.208C185.301 456.409 185.236 457.534 184.971 457.564Z" fill="#0D161C"/>
<path d="M175.345 441.989C175.236 442.233 174.007 441.877 172.5 441.996C170.99 442.083 169.822 442.6 169.681 442.373C169.523 442.182 170.659 441.182 172.436 441.069C174.212 440.941 175.473 441.777 175.345 441.989Z" fill="#0D161C"/>
<path d="M158.603 307.778C158.603 307.778 173.525 306.585 175.186 322.776C176.846 338.967 178.477 414.525 178.477 414.525L143.604 417.43L138.208 340.214L82.5789 316.551C82.5789 316.551 148.639 305.702 158.603 307.778Z" fill="#CB1F49"/>
<path d="M97.0941 285.93C97.0941 285.93 106.15 311.321 104.426 314.151C102.701 316.981 79.4118 328.626 79.4118 328.626L21.1362 351.008C21.1362 351.008 15.1506 341.486 15.1506 326.862C15.1506 312.237 35.4208 285.93 35.4208 285.93H97.0941Z" fill="#CB1F49"/>
<path d="M79.8209 315.255C79.8175 315.264 79.9093 315.313 80.0943 315.402C80.3068 315.5 80.5802 315.626 80.9213 315.784C81.6897 316.126 82.7683 316.607 84.149 317.22C87.0103 318.466 91.119 320.257 96.2627 322.498C106.657 326.972 121.226 333.244 138.085 340.501L137.897 340.235C138.425 347.862 138.997 356.101 139.587 364.624C141.005 384.546 142.312 402.915 143.346 417.449L143.364 417.712L143.626 417.689C154.233 416.758 162.936 415.995 169.032 415.459C172.029 415.179 174.381 414.96 176.026 414.806C176.8 414.725 177.407 414.662 177.855 414.616C178.267 414.569 178.478 414.538 178.477 414.525C178.476 414.512 178.262 414.516 177.848 414.538C177.399 414.566 176.791 414.604 176.013 414.653C174.366 414.775 172.008 414.947 169.007 415.166C162.908 415.648 154.197 416.335 143.582 417.173L143.864 417.413C142.866 402.876 141.604 384.504 140.236 364.578C139.637 356.057 139.057 347.819 138.519 340.192L138.505 340.001L138.331 339.926C121.435 332.754 106.834 326.557 96.4177 322.135C91.2431 319.966 87.1102 318.233 84.2329 317.026C82.8349 316.452 81.7426 316.004 80.9638 315.684C80.6135 315.546 80.3355 315.436 80.1161 315.351C79.9243 315.28 79.8243 315.245 79.8209 315.255Z" fill="#283C46"/>
<path d="M33.4754 317.794C33.4903 317.837 34.0715 317.675 35.1111 317.347C36.2678 316.974 37.7403 316.5 39.4989 315.933C43.201 314.758 48.3378 313.123 54.1832 312.222C60.0287 311.321 65.4377 311.6 69.2156 312.415C73.0107 313.201 75.192 314.284 75.2403 314.161C75.2563 314.128 74.728 313.83 73.724 313.395C72.7213 312.955 71.2223 312.423 69.3144 311.967C65.5101 311.022 60.0034 310.665 54.0856 311.579C48.1701 312.49 43.0241 314.209 39.3519 315.497C37.514 316.149 36.0392 316.709 35.0261 317.109C34.013 317.511 33.4605 317.753 33.4754 317.794Z" fill="#283C46"/>
<path d="M41.7113 304.41C41.7274 304.512 43.6628 304.136 46.8067 304.38C48.3757 304.491 50.2434 304.732 52.3225 304.972C54.3993 305.219 56.6782 305.499 59.0375 305.946C63.7722 306.789 67.8453 308.437 70.4562 310.181C73.0912 311.896 74.3249 313.46 74.4156 313.371C74.4409 313.35 74.1744 312.932 73.5691 312.275C72.9649 311.621 72.0287 310.715 70.7135 309.8C68.1176 307.919 63.9514 306.157 59.1581 305.306C56.7689 304.854 54.4716 304.591 52.388 304.376C50.3055 304.169 48.4263 303.974 46.8308 303.922C45.2376 303.865 43.942 303.955 43.0598 304.09C42.1765 304.224 41.7032 304.371 41.7113 304.41Z" fill="#283C46"/>
<path d="M79.0649 110.669L52.3209 116.334C49.7341 116.506 47.7091 118.63 47.6597 121.223L47.9813 179.098C48.0031 183.052 49.3275 186.889 51.75 190.013L54.3 193.303C60.1156 200.802 71.895 200.046 76.3368 191.66C76.647 191.074 76.8618 190.561 76.9525 190.146C77.0421 189.625 77.1811 189.281 77.2052 188.839L77.7141 183.197C77.9748 178.043 78.0104 172.807 78.0116 172.856C78.0116 172.856 88.9559 171.473 91.7597 157.371C93.1542 150.358 93.2495 138.775 93.021 129.295C92.8142 120.763 87.581 110.1 79.0649 110.669Z" fill="#FBA586"/>
<path d="M78.084 169.303C78.084 169.303 67.6899 169.511 58.4536 163.46C58.4536 163.46 60.9416 170.997 65.7613 173.741C68.6169 175.366 72.5544 176.569 77.8566 176.28L78.084 169.303Z" fill="#FB7E53"/>
<path d="M118.673 213.736C118.673 213.736 108.249 196.353 105.357 192.839C102.645 189.543 99.1493 187.6 96.8175 186.578C95.5196 186.011 94.155 185.62 92.7594 185.378L77.7683 182.058C77.7683 182.058 77.7419 192.291 67.0216 192.924C56.3001 193.556 47.2729 178.622 47.2729 178.622C47.2729 178.622 29.9524 181.3 25.8081 183.432C21.6637 185.564 15.1521 188.272 11.5683 206.217L9.05273 223.773L38.9164 226.533L41.7743 270.911L56.585 281.224C56.585 281.224 97.6457 291.9 100.269 292.606C102.893 293.312 103.761 226.533 103.761 226.533C103.761 226.533 114.308 219.715 118.673 213.736Z" fill="#17A1C8"/>
<path d="M99.0171 206.272C99.0561 206.257 99.2583 206.713 99.5937 207.552C99.9348 208.388 100.37 209.621 100.855 211.162C101.828 214.241 102.895 218.596 103.499 223.495C104.095 228.398 104.109 232.882 103.908 236.105C103.809 237.717 103.685 239.018 103.555 239.911C103.432 240.806 103.345 241.298 103.304 241.293C103.262 241.289 103.272 240.788 103.323 239.891C103.381 238.992 103.442 237.692 103.485 236.086C103.578 232.877 103.496 228.433 102.905 223.568C102.306 218.706 101.313 214.375 100.449 211.281C100.02 209.734 99.6477 208.485 99.3743 207.629C99.1078 206.769 98.978 206.286 99.0171 206.272Z" fill="#283C46"/>
<path d="M41.587 266.723L38.9176 226.677L10.7527 224.222C10.7527 224.222 11.6785 251.698 12.6399 259.864C14.0229 271.613 22.7584 287.306 27.9009 290.775C28.8887 291.441 33.6786 285.549 36.17 279.223C38.8394 272.444 41.587 266.723 41.587 266.723Z" fill="#FBA586"/>
<path d="M68.7452 99.8421C62.0576 98.5999 56.1239 101.091 50.4118 104.783C44.6997 108.476 40.3547 114.115 37.7985 120.418C35.1074 127.057 34.3616 134.563 36.2464 141.474C38.1313 148.386 42.7481 154.617 49.0852 157.96C57.7391 162.523 68.916 161.148 76.8095 155.369C84.7018 149.589 89.3133 139.903 89.8376 130.134C90.1993 123.404 88.6947 116.489 85.0179 110.842C81.34 105.193 75.3984 100.923 68.7452 99.8421Z" fill="#0D161C"/>
<path d="M49.328 122.349C50.3482 119.799 50.0131 116.929 50.4418 114.216C51.3881 108.243 56.2843 103.517 61.8984 101.268C67.1219 99.1761 73.4532 99.7477 79.6736 101.865C83.9375 103.316 87.9329 105.793 90.737 109.318C94.4574 113.996 95.6942 120.543 93.9351 126.256L63.3749 121.327C60.4707 123.655 57.4981 126.023 53.999 127.292C52.972 127.665 51.8707 127.939 50.7949 127.751C49.7191 127.563 48.6817 126.815 48.4419 125.749C48.1806 124.585 48.8848 123.456 49.328 122.349Z" fill="#0D161C"/>
<path d="M80.1985 110.331L53.3708 115.586C50.7817 115.718 48.7244 117.811 48.6352 120.402L48.3544 159.469C52.4329 163.643 62.5662 168.445 67.656 170.578C72.0425 172.416 78.1912 172.469 78.1919 172.495C78.1919 172.495 89.1562 171.28 92.1759 157.222C93.6777 150.232 93.9506 138.652 93.8674 129.17C93.7915 120.635 88.7223 109.893 80.1985 110.331Z" fill="#FBA586"/>
<path d="M89.6339 139.969C89.6157 140.931 88.7859 141.709 87.7807 141.708C86.7778 141.708 85.9776 140.928 85.9946 139.966C86.0128 139.005 86.8427 138.226 87.8456 138.226C88.8507 138.227 89.6521 139.008 89.6339 139.969Z" fill="#0D161C"/>
<path d="M91.034 135.047C90.7962 135.272 89.4735 134.178 87.5164 134.076C85.5631 133.948 84.0727 134.877 83.8732 134.626C83.775 134.514 84.0272 134.099 84.677 133.677C85.3175 133.257 86.3906 132.874 87.6096 132.945C88.8285 133.017 89.8282 133.521 90.3928 134.012C90.9688 134.507 91.1516 134.947 91.034 135.047Z" fill="#0D161C"/>
<path d="M72.0904 139.26C72.0733 140.222 71.2435 141 70.2383 140.999C69.2354 140.998 68.4352 140.22 68.4534 139.258C68.4704 138.297 69.3003 137.518 70.3032 137.518C71.3083 137.519 72.1086 138.297 72.0904 139.26Z" fill="#0D161C"/>
<path d="M72.4492 134.287C72.2102 134.51 70.8864 133.417 68.9304 133.316C66.9771 133.187 65.4878 134.117 65.2884 133.865C65.1901 133.754 65.44 133.338 66.0921 132.916C66.7327 132.496 67.8058 132.113 69.0247 132.183C70.2436 132.256 71.2445 132.761 71.8091 133.252C72.3839 133.746 72.5656 134.186 72.4492 134.287Z" fill="#0D161C"/>
<path d="M78.0957 149.266C78.0928 149.154 79.3196 149.01 81.3046 148.865C81.807 148.84 82.2849 148.767 82.3877 148.431C82.5253 148.076 82.3441 147.526 82.1338 146.933C81.73 145.697 81.3076 144.404 80.8631 143.048C79.1052 137.52 77.8617 132.985 78.0845 132.916C78.3072 132.847 79.9143 137.272 81.6722 142.8C82.0936 144.162 82.4964 145.461 82.8794 146.704C83.0383 147.282 83.3291 147.944 83.033 148.679C82.878 149.045 82.4962 149.297 82.1712 149.365C81.846 149.446 81.5647 149.436 81.3165 149.437C79.328 149.436 78.0974 149.377 78.0957 149.266Z" fill="#0D161C"/>
<path d="M77.0131 153.939C76.3605 152.969 75.1539 152.39 73.9226 152.456C73.0684 152.501 72.1897 152.864 71.6362 153.528C71.0826 154.191 70.9206 155.169 71.3547 155.853C71.8426 156.625 72.9361 156.855 73.8837 156.641C74.8324 156.426 75.6695 155.854 76.4663 155.282C76.6859 155.124 76.9124 154.961 77.056 154.734C77.2007 154.51 77.2444 154.208 77.0924 154.007" fill="#FB7E53"/>
<path d="M72.2631 150.307C72.5824 150.306 72.4706 152.431 74.2071 154.036C75.9388 155.648 78.2175 155.532 78.2175 155.83C78.2396 155.964 77.6912 156.216 76.7347 156.189C75.7952 156.172 74.4431 155.796 73.3806 154.813C72.3216 153.829 71.9113 152.569 71.8857 151.693C71.8522 150.801 72.1186 150.287 72.2631 150.307Z" fill="#0D161C"/>
<path d="M72.4292 128.473C72.2075 128.995 70.267 128.637 67.9568 128.788C65.6426 128.895 63.7556 129.466 63.4771 128.972C63.3544 128.737 63.7041 128.253 64.4799 127.779C65.25 127.305 66.4593 126.881 67.8459 126.803C69.2325 126.726 70.4826 127.013 71.3004 127.399C72.125 127.784 72.5261 128.226 72.4292 128.473Z" fill="#0D161C"/>
<path d="M90.929 126.462C90.5606 126.887 89.2385 126.352 87.6181 126.243C86.0032 126.077 84.6085 126.379 84.3172 125.897C84.191 125.665 84.4308 125.231 85.0537 124.843C85.6673 124.456 86.6758 124.167 87.7875 124.261C88.8992 124.356 89.8423 124.812 90.3816 125.297C90.9302 125.784 91.093 126.253 90.929 126.462Z" fill="#0D161C"/>
<path d="M44.4894 118.145C47.3868 110.044 59.6611 99.1352 68.2161 100.036L81.6211 108.733C80.6275 113.371 76.8807 117.308 72.2979 118.529C69.8502 119.18 66.9273 119.28 65.4142 121.312C63.8695 123.386 64.6188 126.513 63.1729 128.658C61.1686 131.631 55.9892 131.303 54.4507 134.541C53.7788 135.955 54.0418 137.683 53.3448 139.086C52.4155 140.955 47.5241 143.192 45.5578 142.492C43.5927 141.791 43.7066 138.406 43.1184 136.61C42.1143 133.54 42.6276 131.984 43.0531 130.304C44.0607 126.326 43.1068 122.009 44.4894 118.145Z" fill="#0D161C"/>
<path d="M51.3659 144.375C51.42 143.319 50.3345 140.763 49.3005 140.544C46.5398 139.958 41.5088 139.91 41.0788 146.98C40.4918 156.642 50.3135 155.24 50.3476 154.964C50.3751 154.748 51.1767 148.02 51.3659 144.375Z" fill="#FBA586"/>
<path d="M47.6184 151.123C47.5776 151.09 47.4433 151.23 47.1521 151.344C46.8666 151.453 46.3833 151.511 45.8915 151.292C44.893 150.856 44.1329 149.183 44.1918 147.439C44.2203 146.557 44.4558 145.731 44.8096 145.056C45.1476 144.368 45.6338 143.902 46.1539 143.842C46.6722 143.755 47.0175 144.084 47.1189 144.363C47.233 144.642 47.1589 144.83 47.2091 144.85C47.234 144.876 47.4263 144.7 47.3727 144.296C47.3447 144.102 47.2449 143.867 47.0297 143.667C46.8088 143.465 46.474 143.348 46.113 143.365C45.365 143.372 44.6532 144.018 44.2639 144.757C43.8344 145.499 43.5491 146.425 43.5167 147.415C43.4603 149.365 44.3459 151.249 45.7181 151.738C46.3868 151.956 46.9672 151.786 47.2737 151.576C47.5873 151.355 47.6514 151.143 47.6184 151.123Z" fill="#FB7E53"/>
<path d="M42.4571 115.604C42.5345 112.579 38.7862 110.543 35.8496 109.812C32.9142 109.083 29.7846 109.929 27.1081 111.343C25.5422 112.169 23.9605 113.355 23.5871 115.086C23.2125 116.816 24.8518 118.91 26.5187 118.314C23.3264 119.352 21.6511 123.568 23.2602 126.514C24.8693 129.46 29.3224 130.329 31.9202 128.205C31.0497 130.964 29.2041 133.404 26.7868 134.992C31.7513 135.779 37.0659 133.734 40.2241 129.826C43.3823 125.917 44.2658 120.293 42.4571 115.604Z" fill="#0D161C"/>
<path d="M35.5084 130.883C35.4393 130.892 35.1977 129.79 35.1911 127.974C35.1798 126.163 35.4874 123.636 36.4122 121.012C37.345 118.39 38.6969 116.232 39.8441 114.832C40.9915 113.424 41.8719 112.721 41.9194 112.772C42.0955 112.899 38.8028 116.063 37.0154 121.226C35.1561 126.361 35.7265 130.893 35.5084 130.883Z" fill="#943333"/>
<path d="M78.8567 105.766C79.6864 109.717 85.5939 114.858 88.1735 117.963C93.096 123.888 94.0539 125.846 93.804 138.92C96.2404 134.44 98.1194 130.044 98.0161 124.946C97.9127 119.848 96.1143 114.716 92.6285 110.995C89.1427 107.275 83.9133 105.113 78.8567 105.766Z" fill="#0D161C"/>
<path d="M126.951 296.611C126.476 297.35 125.605 297.771 124.741 297.604C124.57 297.571 124.392 297.519 124.211 297.439C123.017 296.913 123.397 294.406 123.397 294.406L117.572 292.815C117.572 292.815 109.343 296.975 106.255 299.981C103.167 302.987 96.4533 299.584 96.4533 299.584L89.5408 289.639L107.301 277.979C107.301 277.979 106.569 278.497 107.515 276.731C108.461 274.964 111.816 276.022 111.816 276.022C112.445 275.166 114.719 275.074 114.719 275.074L124.171 277.182C126.119 277.617 127.765 278.91 128.649 280.699L132.022 287.529C132.022 287.529 133.673 292.365 133.218 293.401C132.528 294.965 130.856 294.424 130.856 294.424C130.856 294.424 130.067 297.407 129.259 297.428C128.452 297.45 126.951 296.611 126.951 296.611Z" fill="#FBA586"/>
<path d="M107.54 285.399C107.54 285.5 108.825 285.515 110.859 285.818C112.887 286.132 115.672 286.788 118.515 288.102C119.936 288.752 121.233 289.493 122.36 290.244C123.447 291.018 124.597 291.678 124.879 292.56C125.022 292.992 124.894 293.403 124.655 293.69C124.42 293.976 124.123 294.151 123.869 294.226C123.344 294.38 123.034 294.203 123.016 294.258C122.992 294.27 123.286 294.554 123.922 294.456C124.23 294.407 124.597 294.244 124.913 293.917C125.233 293.608 125.46 293.019 125.296 292.442C125.147 291.862 124.717 291.381 124.247 290.971C123.761 290.576 123.253 290.169 122.678 289.779C121.544 288.984 120.224 288.21 118.77 287.544C115.86 286.199 112.988 285.597 110.914 285.389C108.829 285.192 107.537 285.331 107.54 285.399Z" fill="#FB7E53"/>
<path d="M106.23 291.429C106.223 291.612 110.133 291.858 114.887 292.641C119.645 293.407 123.432 294.413 123.483 294.238C123.505 294.16 122.584 293.81 121.055 293.373C119.525 292.934 117.383 292.427 114.985 292.035C112.589 291.647 110.397 291.447 108.808 291.377C107.218 291.307 106.234 291.349 106.23 291.429Z" fill="#FB7E53"/>
<path d="M126.921 296.363C126.954 296.36 127.034 296.012 127.149 295.357C127.258 294.701 127.399 293.75 127.449 292.554C127.472 291.958 127.476 291.299 127.386 290.586C127.309 289.871 127.053 289.1 126.666 288.403C125.941 287.007 124.885 285.529 123.466 284.354C122.052 283.192 120.622 282.187 119.133 281.56C117.655 280.937 116.241 280.674 115.066 280.497C113.887 280.331 112.931 280.257 112.271 280.213C111.61 280.17 111.243 280.167 111.238 280.208C111.224 280.306 112.681 280.509 114.993 280.924C116.143 281.153 117.511 281.455 118.909 282.079C120.296 282.691 121.701 283.697 123.067 284.821C124.435 285.959 125.424 287.315 126.169 288.672C126.967 289.976 126.994 291.379 127.016 292.548C127.002 294.888 126.789 296.353 126.921 296.363Z" fill="#FB7E53"/>
<path d="M114.926 277.554C114.916 277.645 116.344 277.832 118.602 278.336C120.768 278.906 124.274 279.436 125.961 282.682C127.844 285.67 129.419 288.473 130.003 290.695C130.636 292.909 130.405 294.37 130.532 294.372C130.564 294.376 130.657 294.022 130.694 293.364C130.735 292.707 130.695 291.74 130.422 290.588C129.925 288.253 128.373 285.356 126.478 282.351C125.994 281.595 125.46 280.87 124.816 280.276C124.175 279.67 123.397 279.276 122.676 278.982C121.211 278.397 119.838 278.127 118.688 277.911C116.382 277.512 114.933 277.476 114.926 277.554Z" fill="#FB7E53"/>
<path d="M108.564 298.162C108.575 298.177 108.785 298.049 109.177 297.788C109.622 297.502 110.198 297.131 110.915 296.67C112.443 295.725 114.706 294.391 117.659 292.999L117.52 293.011C119.256 293.498 121.213 294.047 123.334 294.641L123.158 294.369C123.093 294.852 123.071 295.328 123.115 295.829C123.164 296.322 123.263 296.859 123.637 297.326C123.834 297.554 124.132 297.708 124.385 297.768C124.642 297.863 124.926 297.92 125.214 297.905C125.787 297.883 126.351 297.641 126.774 297.244C126.882 297.147 126.977 297.036 127.067 296.92L127.132 296.831L127.163 296.787L127.179 296.763L127.181 296.762C127.261 296.741 126.495 296.932 126.819 296.852L126.826 296.855L126.838 296.862L127.017 296.957C127.257 297.082 127.502 297.199 127.754 297.308C128.007 297.418 128.267 297.518 128.544 297.598C128.684 297.637 128.826 297.671 128.98 297.691C129.123 297.712 129.296 297.734 129.539 297.642C129.898 297.438 130.048 297.17 130.202 296.919C130.349 296.662 130.474 296.402 130.581 296.136C130.804 295.604 130.979 295.065 131.139 294.5L130.768 294.702C131.521 294.918 132.447 294.828 133.054 294.182C133.328 293.88 133.567 293.496 133.587 293.032C133.611 292.615 133.556 292.241 133.498 291.863C133.236 290.366 132.796 288.911 132.312 287.431L132.307 287.413L132.296 287.394C131.723 286.232 131.114 284.999 130.498 283.75C130.116 282.974 129.734 282.206 129.357 281.442C128.976 280.699 128.65 279.877 128.077 279.187C127.527 278.501 126.841 277.936 126.079 277.534C125.326 277.11 124.457 276.933 123.692 276.77C120.56 276.081 117.573 275.423 114.78 274.808L114.742 274.801L114.709 274.803C114.145 274.839 113.613 274.913 113.083 275.052C112.566 275.2 112.017 275.37 111.608 275.869L111.951 275.8C110.982 275.279 109.809 275.151 108.86 275.648C107.908 276.142 107.397 277.046 107.085 277.912L107.17 277.794C103.742 280.282 100.944 282.312 98.9418 283.764C98.0171 284.453 91.4638 287.946 90.9062 288.361C90.4027 288.746 90.1426 288.956 90.1558 288.974C90.1688 288.993 90.4541 288.817 90.9827 288.468C91.5585 288.078 98.1349 284.618 99.0886 283.972C101.118 282.56 103.957 280.584 107.434 278.165L107.49 278.127L107.519 278.048C107.802 277.285 108.298 276.462 109.081 276.085C109.847 275.678 110.872 275.801 111.684 276.245L111.884 276.354L112.026 276.176C112.265 275.879 112.744 275.687 113.217 275.567C113.697 275.445 114.22 275.375 114.731 275.347L114.662 275.341C117.451 275.97 120.433 276.645 123.563 277.352C124.361 277.526 125.108 277.679 125.797 278.067C126.485 278.434 127.105 278.945 127.601 279.566C128.108 280.171 128.415 280.943 128.808 281.712C129.185 282.476 129.566 283.247 129.948 284.022C130.565 285.269 131.175 286.502 131.749 287.664L131.734 287.628C132.212 289.076 132.652 290.536 132.905 291.96C132.963 292.314 133.01 292.676 132.992 292.991C132.995 293.267 132.826 293.546 132.625 293.773C132.23 294.223 131.519 294.303 130.946 294.147L130.653 294.067L130.575 294.35C130.428 294.883 130.256 295.417 130.051 295.916C129.857 296.39 129.58 296.961 129.297 297.132C129.283 297.137 129.178 297.158 129.054 297.133C128.938 297.12 128.816 297.09 128.695 297.058C128.452 296.991 128.21 296.898 127.972 296.798C127.733 296.698 127.499 296.588 127.27 296.47L127.101 296.382L127.091 296.375L127.087 296.374C127.411 296.292 126.642 296.483 126.722 296.465L126.719 296.467L126.708 296.484L126.683 296.521L126.633 296.593L126.403 296.847C126.07 297.165 125.631 297.355 125.193 297.375C124.972 297.39 124.758 297.346 124.545 297.269C124.312 297.212 124.162 297.128 124.028 296.985C123.525 296.338 123.554 295.279 123.639 294.443L123.661 294.225L123.463 294.171C121.334 293.605 119.37 293.084 117.627 292.621L117.552 292.601L117.488 292.632C114.529 294.086 112.296 295.479 110.795 296.484C110.047 296.993 109.483 297.405 109.11 297.697C108.739 297.989 108.552 298.147 108.564 298.162Z" fill="#FB7E53"/>
<path d="M40.4697 267.724C39.293 267.239 33.5446 265.624 26.9277 271.57C20.4294 277.409 23.7096 289.134 24.7962 290.476C25.8829 291.818 40.1733 293.896 40.1733 293.896L96.3952 299.841L95.1825 285.962C95.1825 285.962 41.6465 268.209 40.4697 267.724Z" fill="#FBA586"/>
<path d="M158.733 231.927L133.865 243.072C133.865 243.072 122.485 248.199 121.193 255.684C119.987 262.678 125.283 266.912 127.358 267.088C128.395 267.176 131.721 267.459 133.666 266.615C134.597 266.211 169.737 236.392 169.737 236.392L158.733 231.927Z" fill="#FBA586"/>
<path d="M193.843 203.715C193.557 203.108 192.974 202.694 192.307 202.625L180.99 201.461C179.994 201.375 179.008 201.717 178.279 202.402L147.009 231.806L148.519 233.21L160.722 235.784L194.083 204.225L193.843 203.715Z" fill="#0D161C"/>
<path d="M184.984 206.363C185.168 206.624 185.599 206.639 185.949 206.394C186.297 206.149 186.432 205.738 186.248 205.477C186.064 205.215 185.633 205.202 185.284 205.447C184.934 205.691 184.801 206.102 184.984 206.363Z" fill="white"/>
<path d="M194.083 204.225C194.077 204.272 193.288 204.236 191.864 204.129C190.328 203.997 188.297 203.822 185.84 203.61C184.558 203.49 183.169 203.359 181.685 203.221C180.98 203.115 180.282 203.322 179.75 203.804C179.17 204.354 178.573 204.919 177.963 205.499C175.498 207.823 172.801 210.365 169.972 213.033C164.287 218.367 159.117 223.168 155.352 226.616C153.523 228.272 152.01 229.64 150.866 230.676C149.797 231.623 149.192 232.129 149.16 232.096C149.128 232.062 149.672 231.489 150.685 230.482C151.792 229.407 153.254 227.984 155.022 226.265C158.704 222.726 163.824 217.871 169.508 212.538C172.351 209.883 175.061 207.355 177.537 205.044C178.156 204.469 178.76 203.907 179.35 203.361C180.005 202.761 180.953 202.527 181.73 202.659C183.212 202.828 184.601 202.986 185.881 203.132C188.332 203.431 190.358 203.679 191.891 203.866C193.307 204.055 194.088 204.179 194.083 204.225Z" fill="#283C46"/>
<path d="M178.887 213.757C178.887 213.757 177.955 213.344 176.769 215.884C175.584 218.424 171.992 225.662 171.992 225.662L167.541 221.697L160.939 220.97C160.939 220.97 159.228 221.918 160.082 222.869C160.934 223.818 164.802 225.528 164.802 225.528L166.738 230.544L159.185 224.329C159.185 224.329 156.148 224.376 156.558 226.323C156.97 228.27 161.411 235.132 161.411 235.132L157.202 233.761L152.857 229.42C152.857 229.42 151.276 229.11 151.535 230.585C151.793 232.059 155.92 238.168 155.92 238.168L161.591 242.859C161.591 242.859 165.168 243.44 165.756 242.491C166.345 241.541 166.79 240.092 166.79 240.092C166.79 240.092 168.776 240.045 169.345 239.226C169.913 238.407 170.038 236.922 170.038 236.922C170.038 236.922 172.84 238.149 173.6 236.607C174.361 235.065 174.839 231.779 174.85 230.452C174.861 229.125 179.247 217.844 179.214 217.462C179.181 217.08 180.91 213.434 178.887 213.757Z" fill="#FBA586"/>
<path d="M165.979 242.559C165.981 242.64 165.293 242.761 164.174 242.671C163.058 242.583 161.518 242.226 159.982 241.444C158.449 240.657 157.258 239.616 156.534 238.763C155.806 237.907 155.501 237.279 155.569 237.234C155.731 237.097 157.337 239.359 160.291 240.84C163.218 242.368 165.993 242.348 165.979 242.559Z" fill="#FB7E53"/>
<path d="M165.018 239.88C164.881 240.005 163.887 239.13 162.914 237.833C161.939 236.539 161.376 235.341 161.532 235.245C161.694 235.145 162.501 236.158 163.457 237.426C164.409 238.695 165.16 239.754 165.018 239.88Z" fill="#FB7E53"/>
<path d="M169.755 235.158C169.621 235.283 168.63 234.424 167.748 233.089C166.861 231.756 166.454 230.511 166.621 230.436C166.796 230.356 167.458 231.43 168.313 232.714C169.163 234 169.897 235.03 169.755 235.158Z" fill="#FB7E53"/>
<path d="M174.404 231.556C174.21 231.588 173.859 230.223 173.161 228.66C172.475 227.09 171.702 225.912 171.856 225.79C171.99 225.671 173.052 226.723 173.781 228.385C174.52 230.044 174.581 231.537 174.404 231.556Z" fill="#FB7E53"/>
<path d="M203.189 248.152L129.125 248.754C126.723 248.754 124.427 249.907 124.068 252.282L115.973 306.264H77.8244C76.5965 306.264 75.6006 307.259 75.6006 308.487C75.6006 309.716 76.5965 310.712 77.8244 310.712H115.307H122.422H199.667L207.994 253.739C208.439 250.799 206.163 248.152 203.189 248.152Z" fill="#F4F2F2"/>
<path d="M203.189 248.152C203.189 248.152 203.592 248.101 204.356 248.262C205.098 248.434 206.265 248.893 207.185 250.139C207.645 250.748 207.993 251.561 208.101 252.501C208.221 253.455 207.948 254.46 207.828 255.548C207.518 257.729 207.161 260.241 206.76 263.065C205.13 274.382 202.78 290.692 199.892 310.744L199.865 310.942H199.666C168.138 310.96 126.706 310.984 81.4622 311.012C80.3997 311.012 79.3383 311.012 78.2804 311.012C77.79 311.032 77.1065 311.004 76.5977 310.69C76.0716 310.401 75.6627 309.916 75.4582 309.353C75.0148 308.224 75.5444 306.841 76.608 306.28C77.1157 305.972 77.7923 305.947 78.277 305.966H79.8438C84.0168 305.967 88.1473 305.967 92.2239 305.967C100.378 305.97 108.32 305.972 115.973 305.975L115.688 306.222C118.601 286.89 121.32 268.855 123.758 252.676C123.843 251.652 124.306 250.543 125.128 249.855C125.932 249.142 126.95 248.765 127.961 248.608C128.991 248.45 129.971 248.534 130.946 248.501C131.923 248.494 132.893 248.488 133.854 248.481C137.7 248.455 141.421 248.43 145.005 248.406C152.173 248.361 158.802 248.318 164.821 248.28C176.846 248.218 186.433 248.17 193.032 248.136C196.312 248.13 198.845 248.125 200.578 248.122C201.426 248.127 202.073 248.13 202.527 248.132C202.965 248.136 203.189 248.152 203.189 248.152C203.189 248.152 202.966 248.17 202.527 248.183C202.074 248.192 201.426 248.207 200.579 248.224C198.846 248.249 196.312 248.285 193.033 248.332C186.433 248.406 176.847 248.512 164.823 248.646C158.803 248.705 152.174 248.771 145.007 248.842C141.422 248.877 137.702 248.913 133.857 248.949C132.895 248.959 131.926 248.967 130.948 248.975C129.974 249.009 128.971 248.934 128.035 249.082C127.095 249.23 126.162 249.588 125.453 250.222C124.725 250.856 124.34 251.739 124.248 252.751C121.834 268.932 119.144 286.969 116.259 306.307L116.223 306.553H115.973C108.32 306.555 100.378 306.557 92.2239 306.561C88.1473 306.561 84.0168 306.562 79.8438 306.563H78.277C77.7245 306.547 77.311 306.569 76.8963 306.802C76.0854 307.231 75.681 308.287 76.0199 309.148C76.175 309.576 76.4874 309.949 76.8894 310.168C77.3064 310.405 77.721 310.428 78.2804 310.412C79.3383 310.412 80.3997 310.412 81.4622 310.412C126.706 310.44 168.138 310.464 199.666 310.483L199.44 310.678C202.413 290.638 204.829 274.339 206.506 263.027C206.93 260.207 207.307 257.698 207.634 255.518C207.765 254.428 208.044 253.426 207.936 252.518C207.842 251.609 207.516 250.816 207.077 250.216C206.2 248.991 205.066 248.518 204.34 248.326C203.592 248.147 203.187 248.181 203.189 248.152Z" fill="#0D161C"/>
<path d="M158.379 278.745C158.379 281.305 160.455 283.382 163.016 283.382C165.577 283.382 167.654 281.305 167.654 278.745C167.654 276.183 165.577 274.109 163.016 274.109C160.455 274.109 158.379 276.183 158.379 278.745Z" fill="white"/>
<path d="M118.975 310.212C119.08 310.231 121.438 296.485 124.24 279.516C127.043 262.541 129.231 248.77 129.126 248.753C129.021 248.734 126.664 262.479 123.86 279.454C121.059 296.423 118.871 310.196 118.975 310.212Z" fill="#0D161C"/>
<path d="M242.452 159.104L243.831 159.128L243.926 153.672L242.456 153.647L242.388 157.517C242.199 157.847 241.851 158.013 241.357 158.005C240.84 157.996 240.593 157.716 240.603 157.141L240.664 153.616L239.206 153.59L239.143 157.162C239.132 157.816 239.284 158.313 239.588 158.652C239.893 158.99 240.326 159.17 240.912 159.18C241.555 159.191 242.052 158.982 242.428 158.552L242.452 159.104Z" fill="black" stroke="black" stroke-width="0.01" stroke-linejoin="round"/>
<path d="M247.693 158.104C247.542 158.205 247.334 158.258 247.047 158.253C246.748 158.248 246.52 158.175 246.338 158.034C246.168 157.893 246.069 157.685 246.062 157.432L244.683 157.408C244.678 157.741 244.764 158.041 244.966 158.332C245.168 158.623 245.44 158.846 245.793 159.013C246.146 159.191 246.546 159.279 247.006 159.287C247.683 159.299 248.237 159.147 248.668 158.856C249.098 158.553 249.323 158.155 249.332 157.65C249.344 156.961 248.962 156.46 248.198 156.16C247.946 156.075 247.649 155.978 247.283 155.903C246.928 155.827 246.666 155.731 246.518 155.636C246.359 155.53 246.292 155.403 246.295 155.242C246.298 155.07 246.37 154.922 246.498 154.82C246.638 154.708 246.834 154.654 247.075 154.658C247.362 154.663 247.568 154.736 247.703 154.876C247.839 155.016 247.893 155.189 247.889 155.396L249.348 155.422C249.357 154.905 249.158 154.476 248.75 154.136C248.342 153.807 247.794 153.637 247.093 153.625C246.45 153.613 245.919 153.765 245.511 154.079C245.104 154.394 244.901 154.804 244.893 155.286C244.878 156.113 245.512 156.676 246.805 156.974C247.194 157.061 247.479 157.158 247.65 157.265C247.832 157.371 247.91 157.51 247.907 157.694C247.904 157.866 247.832 158.003 247.693 158.104Z" fill="black" stroke="black" stroke-width="0.01" stroke-linejoin="round"/>
<path d="M253.382 155.17C253.54 155.357 253.627 155.611 253.622 155.933L253.62 156.048L251.598 156.012C251.651 155.646 251.77 155.372 251.958 155.18C252.133 154.988 252.376 154.888 252.663 154.893C252.974 154.899 253.213 154.995 253.382 155.17ZM254.002 159.145C254.373 158.979 254.676 158.743 254.899 158.436L254.201 157.62C253.872 158.028 253.433 158.216 252.87 158.206C252.502 158.199 252.206 158.091 251.98 157.868C251.742 157.658 251.598 157.368 251.558 157.011L255.038 157.072L255.048 156.475C255.064 155.602 254.869 154.932 254.44 154.453C254.024 153.975 253.442 153.735 252.695 153.722C252.19 153.713 251.752 153.821 251.357 154.044C250.962 154.278 250.658 154.606 250.432 155.027C250.218 155.46 250.106 155.952 250.097 156.491L250.094 156.641C250.08 157.456 250.321 158.115 250.806 158.618C251.303 159.109 251.953 159.373 252.757 159.387C253.205 159.395 253.62 159.31 254.002 159.145Z" fill="black" stroke="black" stroke-width="0.01" stroke-linejoin="round"/>
<path d="M259.016 153.89C258.867 153.853 258.719 153.827 258.558 153.825C258.041 153.816 257.635 154.061 257.327 154.55L257.304 153.906L255.926 153.882L255.831 159.337L257.289 159.363L257.352 155.791C257.531 155.415 257.89 155.237 258.441 155.247C258.59 155.25 258.774 155.264 258.968 155.302L259.016 153.89Z" fill="black" stroke="black" stroke-width="0.01" stroke-linejoin="round"/>
<path d="M259.661 153.947L259.566 159.402L261.024 159.428L261.091 155.581C261.304 155.228 261.617 155.061 262.031 155.068C262.341 155.074 262.558 155.147 262.693 155.287C262.829 155.427 262.894 155.658 262.888 155.968L262.827 159.459L264.286 159.485L264.347 155.959C264.348 155.281 264.207 154.773 263.938 154.424C263.656 154.086 263.234 153.906 262.649 153.896C261.994 153.885 261.473 154.117 261.074 154.592L261.039 153.971L259.661 153.947Z" fill="black" stroke="black" stroke-width="0.01" stroke-linejoin="round"/>
<path d="M266.846 158.335C266.71 158.217 266.655 158.067 266.659 157.883L266.66 157.803C266.715 157.298 267.11 157.053 267.845 157.065L268.384 157.075L268.368 158.017C268.285 158.176 268.145 158.3 267.959 158.389C267.774 158.477 267.578 158.531 267.36 158.527C267.141 158.524 266.97 158.463 266.846 158.335ZM270.029 159.585L270.031 159.505C269.886 159.226 269.824 158.835 269.833 158.318L269.874 155.952C269.885 155.343 269.698 154.858 269.302 154.518C268.918 154.166 268.381 153.996 267.715 153.984C267.267 153.977 266.863 154.038 266.505 154.193C266.146 154.336 265.867 154.538 265.667 154.81C265.467 155.071 265.358 155.368 265.353 155.678L266.811 155.703C266.815 155.497 266.898 155.337 267.038 155.225C267.178 155.112 267.374 155.058 267.615 155.063C267.891 155.067 268.096 155.14 268.22 155.303C268.355 155.455 268.409 155.651 268.405 155.903L268.399 156.225L267.733 156.213C266.918 156.199 266.295 156.338 265.865 156.64C265.434 156.943 265.208 157.387 265.198 157.961C265.19 158.432 265.355 158.826 265.706 159.142C266.045 159.458 266.49 159.627 267.03 159.636C267.593 159.646 268.056 159.459 268.419 159.063C268.438 159.259 268.481 159.432 268.548 159.559L270.029 159.585Z" fill="black" stroke="black" stroke-width="0.01" stroke-linejoin="round"/>
<path d="M271.026 154.146L270.931 159.601L272.389 159.626L272.457 155.767C272.646 155.426 272.948 155.259 273.362 155.266C273.66 155.271 273.877 155.344 273.99 155.484C274.113 155.636 274.178 155.866 274.173 156.177L274.112 159.656L275.571 159.682L275.625 155.926C275.804 155.516 276.106 155.314 276.543 155.322C276.853 155.327 277.07 155.4 277.182 155.551C277.306 155.691 277.36 155.922 277.354 156.232L277.293 159.712L278.752 159.737L278.813 156.246C278.825 155.557 278.696 155.038 278.415 154.688C278.122 154.338 277.689 154.159 277.092 154.148C276.391 154.136 275.835 154.402 275.447 154.947C275.192 154.391 274.714 154.107 274.002 154.094C273.348 154.083 272.827 154.303 272.428 154.779L272.393 154.169L271.026 154.146Z" fill="black" stroke="black" stroke-width="0.01" stroke-linejoin="round"/>
<path d="M283.017 155.688C283.175 155.874 283.262 156.128 283.257 156.45L283.255 156.565L281.233 156.53C281.286 156.163 281.405 155.889 281.593 155.697C281.768 155.505 282.011 155.406 282.298 155.411C282.609 155.416 282.848 155.512 283.017 155.688ZM283.637 159.662C284.008 159.496 284.311 159.26 284.534 158.954L283.836 158.137C283.507 158.545 283.068 158.733 282.505 158.723C282.137 158.717 281.841 158.608 281.615 158.386C281.377 158.175 281.233 157.885 281.193 157.528L284.673 157.589L284.683 156.992C284.699 156.119 284.504 155.449 284.075 154.971C283.659 154.493 283.077 154.253 282.33 154.24C281.825 154.231 281.387 154.338 280.992 154.561C280.597 154.795 280.293 155.123 280.067 155.544C279.853 155.977 279.741 156.469 279.732 157.009L279.729 157.158C279.715 157.974 279.956 158.633 280.441 159.135C280.938 159.626 281.588 159.89 282.392 159.904C282.84 159.912 283.255 159.828 283.637 159.662Z" fill="black" stroke="black" stroke-width="0.01" stroke-linejoin="round"/>
<path d="M289.135 156.3C289.359 155.982 289.66 155.815 290.051 155.822C290.189 155.824 290.315 155.849 290.452 155.898L290.192 158.283C290.095 158.557 289.965 158.761 289.813 158.896C289.662 159.043 289.511 159.109 289.339 159.106C289.086 159.102 288.904 158.984 288.793 158.752C288.683 158.521 288.654 158.187 288.696 157.74C288.776 157.109 288.922 156.629 289.135 156.3ZM293.421 154.939C293.134 154.267 292.684 153.731 292.081 153.364C291.479 152.986 290.747 152.801 289.909 152.786C289.082 152.772 288.332 152.954 287.659 153.345C286.986 153.735 286.459 154.3 286.067 155.028C285.664 155.757 285.442 156.591 285.38 157.521C285.329 158.485 285.441 159.314 285.738 160.02C286.036 160.726 286.498 161.263 287.112 161.629C287.737 161.997 288.492 162.194 289.377 162.209C289.733 162.215 290.078 162.175 290.424 162.101C290.781 162.027 291.059 161.928 291.268 161.794L291.086 161.01C290.866 161.109 290.6 161.196 290.289 161.248C289.978 161.3 289.691 161.33 289.415 161.325C288.347 161.306 287.56 160.971 287.043 160.307C286.515 159.643 286.301 158.72 286.368 157.538C286.427 156.747 286.6 156.06 286.898 155.457C287.207 154.853 287.617 154.389 288.129 154.065C288.64 153.752 289.228 153.59 289.871 153.601C290.917 153.62 291.692 153.955 292.209 154.596C292.726 155.237 292.952 156.137 292.874 157.319C292.841 157.904 292.718 158.373 292.505 158.725C292.292 159.089 292.024 159.257 291.714 159.251C291.519 159.248 291.371 159.176 291.281 159.037C291.192 158.898 291.161 158.69 291.2 158.427L291.515 155.514L291.198 155.29C290.857 155.066 290.457 154.944 289.974 154.936C289.584 154.929 289.214 155.037 288.877 155.261C288.54 155.485 288.247 155.813 288.022 156.246C287.796 156.679 287.649 157.17 287.571 157.72C287.502 158.397 287.584 158.949 287.852 159.368C288.109 159.786 288.485 159.999 288.978 160.008C289.518 160.017 289.959 159.784 290.312 159.319C290.411 159.562 290.568 159.737 290.773 159.867C290.989 159.997 291.229 160.059 291.528 160.064C292.182 160.075 292.704 159.832 293.103 159.333C293.502 158.835 293.721 158.149 293.782 157.288C293.832 156.405 293.708 155.621 293.421 154.939Z" fill="black" stroke="black" stroke-width="0.01" stroke-linejoin="round"/>
<path d="M296.325 156.092C296.536 155.809 296.814 155.676 297.159 155.682C297.595 155.689 297.914 155.867 298.103 156.204L298.063 158.501C297.862 158.83 297.538 158.985 297.09 158.978C296.745 158.972 296.484 158.829 296.282 158.55C296.091 158.259 295.995 157.867 296.004 157.373C296.013 156.81 296.124 156.376 296.325 156.092ZM294.546 157.302C294.531 158.152 294.726 158.833 295.119 159.357C295.523 159.869 296.047 160.143 296.702 160.154C297.253 160.164 297.693 159.976 298.044 159.603L298.039 159.902C298.032 160.281 297.912 160.566 297.69 160.769C297.48 160.972 297.168 161.07 296.789 161.063C296.272 161.054 295.828 160.851 295.479 160.431L294.809 161.316C295 161.56 295.283 161.772 295.66 161.94C296.047 162.107 296.436 162.194 296.827 162.201C297.355 162.21 297.828 162.127 298.221 161.95C298.615 161.773 298.93 161.503 299.154 161.162C299.367 160.809 299.489 160.398 299.498 159.916L299.59 154.644L298.269 154.621L298.203 155.125C297.876 154.718 297.409 154.503 296.812 154.492C296.134 154.48 295.59 154.724 295.179 155.234C294.78 155.732 294.561 156.406 294.547 157.244L294.546 157.302Z" fill="black" stroke="black" stroke-width="0.01" stroke-linejoin="round"/>
<path d="M300.712 154.664L300.617 160.119L302.075 160.144L302.143 156.286C302.332 155.944 302.634 155.777 303.047 155.784C303.346 155.79 303.563 155.862 303.675 156.002C303.799 156.154 303.864 156.385 303.859 156.695L303.798 160.175L305.256 160.2L305.31 156.444C305.49 156.034 305.792 155.832 306.229 155.84C306.539 155.845 306.756 155.918 306.868 156.069C306.992 156.209 307.045 156.44 307.04 156.75L306.979 160.23L308.438 160.256L308.499 156.764C308.511 156.075 308.382 155.556 308.101 155.206C307.808 154.857 307.375 154.677 306.778 154.666C306.077 154.654 305.521 154.92 305.132 155.465C304.878 154.909 304.4 154.625 303.688 154.612C303.034 154.601 302.513 154.822 302.114 155.297L302.079 154.688L300.712 154.664Z" fill="black" stroke="black" stroke-width="0.01" stroke-linejoin="round"/>
<path d="M311.021 159.106C310.885 158.989 310.831 158.838 310.834 158.655L310.835 158.574C310.89 158.07 311.285 157.824 312.02 157.837L312.56 157.846L312.543 158.788C312.46 158.947 312.32 159.071 312.135 159.16C311.949 159.248 311.753 159.302 311.535 159.299C311.317 159.295 311.145 159.234 311.021 159.106ZM314.205 160.356L314.206 160.276C314.062 159.998 313.999 159.606 314.008 159.089L314.05 156.723C314.06 156.115 313.874 155.629 313.477 155.289C313.093 154.937 312.556 154.767 311.89 154.755C311.442 154.748 311.039 154.81 310.68 154.964C310.321 155.107 310.042 155.309 309.842 155.581C309.642 155.842 309.534 156.139 309.528 156.449L310.987 156.474C310.99 156.268 311.074 156.108 311.213 155.996C311.353 155.883 311.549 155.829 311.791 155.834C312.066 155.838 312.272 155.911 312.395 156.074C312.531 156.226 312.585 156.422 312.58 156.675L312.575 156.996L311.908 156.985C311.093 156.97 310.47 157.109 310.04 157.411C309.609 157.714 309.383 158.158 309.373 158.732C309.365 159.203 309.531 159.597 309.881 159.913C310.22 160.229 310.666 160.398 311.205 160.407C311.768 160.417 312.231 160.23 312.594 159.834C312.613 160.03 312.656 160.203 312.723 160.33L314.205 160.356Z" fill="black" stroke="black" stroke-width="0.01" stroke-linejoin="round"/>
<path d="M315.423 154.047C315.57 154.188 315.776 154.26 316.017 154.265C316.258 154.269 316.466 154.203 316.618 154.068C316.769 153.933 316.841 153.751 316.845 153.521C316.849 153.303 316.783 153.129 316.637 152.977C316.49 152.837 316.296 152.764 316.043 152.76C315.79 152.756 315.594 152.821 315.442 152.956C315.29 153.103 315.218 153.274 315.215 153.492C315.21 153.722 315.276 153.907 315.423 154.047ZM316.74 154.944L315.27 154.918L315.175 160.373L316.645 160.399L316.74 154.944Z" fill="black" stroke="black" stroke-width="0.01" stroke-linejoin="round"/>
<path d="M319.52 152.694L318.05 152.669L317.915 160.421L319.385 160.447L319.52 152.694Z" fill="black" stroke="black" stroke-width="0.01" stroke-linejoin="round"/>
<path d="M320.899 160.312C321.046 160.464 321.24 160.537 321.481 160.541C321.722 160.545 321.919 160.479 322.082 160.333C322.234 160.198 322.317 160.015 322.321 159.786C322.326 159.544 322.248 159.359 322.102 159.207C321.943 159.067 321.749 158.983 321.508 158.979C321.267 158.975 321.07 159.052 320.919 159.187C320.755 159.333 320.672 159.516 320.668 159.757C320.664 159.986 320.741 160.172 320.899 160.312Z" fill="black" stroke="black" stroke-width="0.01" stroke-linejoin="round"/>
<path d="M325.096 159.099C324.927 158.855 324.854 158.451 324.864 157.888L324.867 157.728C324.876 157.176 324.975 156.776 325.152 156.526C325.328 156.288 325.583 156.166 325.928 156.172C326.203 156.177 326.42 156.273 326.589 156.448C326.747 156.635 326.835 156.866 326.841 157.153L328.208 157.177C328.208 156.522 328.01 156.002 327.604 155.604C327.197 155.218 326.649 155.013 325.971 155.001C325.19 154.988 324.566 155.23 324.109 155.716C323.652 156.213 323.423 156.875 323.408 157.725L323.406 157.817C323.391 158.69 323.609 159.383 324.048 159.885C324.487 160.386 325.103 160.65 325.884 160.663C326.297 160.671 326.678 160.585 327.025 160.431C327.373 160.264 327.653 160.028 327.853 159.721C328.065 159.415 328.163 159.083 328.181 158.716L326.814 158.692C326.799 158.933 326.703 159.127 326.54 159.273C326.365 159.42 326.146 159.485 325.882 159.48C325.526 159.474 325.263 159.354 325.096 159.099Z" fill="black" stroke="black" stroke-width="0.01" stroke-linejoin="round"/>
<path d="M330.565 156.667C330.765 156.395 331.054 156.262 331.41 156.268C331.766 156.274 332.04 156.417 332.241 156.708C332.432 156.987 332.517 157.379 332.508 157.895C332.497 158.493 332.398 158.916 332.198 159.188C331.986 159.46 331.709 159.582 331.353 159.576C330.997 159.569 330.712 159.427 330.521 159.159C330.342 158.88 330.246 158.476 330.255 157.96C330.265 157.374 330.376 156.951 330.565 156.667ZM328.797 157.9C328.782 158.761 329 159.454 329.462 159.968C329.924 160.481 330.551 160.745 331.332 160.758C332.124 160.772 332.76 160.531 333.229 160.033C333.708 159.536 333.95 158.863 333.964 158.024L333.971 157.657C333.927 156.875 333.674 156.261 333.222 155.806C332.759 155.338 332.166 155.109 331.431 155.096C330.902 155.087 330.453 155.194 330.058 155.417C329.664 155.64 329.348 155.968 329.134 156.389C328.919 156.81 328.808 157.291 328.798 157.831L328.797 157.9Z" fill="black" stroke="black" stroke-width="0.01" stroke-linejoin="round"/>
<path d="M334.919 155.261L334.823 160.716L336.282 160.742L336.349 156.883C336.539 156.541 336.841 156.374 337.254 156.381C337.553 156.387 337.77 156.459 337.882 156.599C338.006 156.751 338.071 156.982 338.065 157.292L338.005 160.772L339.463 160.797L339.517 157.041C339.697 156.631 339.999 156.429 340.435 156.437C340.745 156.442 340.963 156.515 341.075 156.666C341.199 156.806 341.252 157.037 341.247 157.347L341.186 160.827L342.644 160.853L342.705 157.361C342.717 156.672 342.589 156.153 342.308 155.803C342.015 155.454 341.582 155.274 340.984 155.263C340.284 155.251 339.728 155.517 339.339 156.062C339.085 155.506 338.607 155.222 337.895 155.209C337.24 155.198 336.72 155.419 336.321 155.894L336.285 155.285L334.919 155.261Z" fill="black" stroke="black" stroke-width="0.01" stroke-linejoin="round"/>
<path d="M256.699 191.273L258.215 192.295L259.927 189.607L261.661 192.399L263.178 191.319L261.179 188.78L264.234 187.93L263.672 186.196L260.777 187.368L260.972 183.968H259.1L259.295 187.299L256.32 186.104L255.757 187.827L258.755 188.677L256.699 191.273Z" fill="black" stroke="black" stroke-width="0.01" stroke-linejoin="round"/>
<path d="M265.547 191.273L267.063 192.295L268.774 189.607L270.509 192.399L272.025 191.319L270.026 188.78L273.082 187.93L272.519 186.196L269.624 187.368L269.82 183.968H267.947L268.143 187.299L265.168 186.104L264.605 187.827L267.603 188.677L265.547 191.273Z" fill="black" stroke="black" stroke-width="0.01" stroke-linejoin="round"/>
<path d="M274.395 191.273L275.911 192.295L277.622 189.607L279.357 192.399L280.873 191.319L278.874 188.78L281.93 187.93L281.367 186.196L278.472 187.368L278.668 183.968H276.795L276.99 187.299L274.015 186.104L273.453 187.827L276.451 188.677L274.395 191.273Z" fill="black" stroke="black" stroke-width="0.01" stroke-linejoin="round"/>
<path d="M283.242 191.273L284.758 192.295L286.47 189.607L288.204 192.399L289.721 191.319L287.722 188.78L290.777 187.93L290.214 186.196L287.32 187.368L287.515 183.968H285.643L285.838 187.299L282.863 186.104L282.3 187.827L285.298 188.677L283.242 191.273Z" fill="black" stroke="black" stroke-width="0.01" stroke-linejoin="round"/>
<path d="M292.09 191.273L293.606 192.295L295.318 189.607L297.052 192.399L298.568 191.319L296.57 188.78L299.625 187.93L299.062 186.196L296.168 187.368L296.363 183.968H294.491L294.686 187.299L291.711 186.104L291.148 187.827L294.146 188.677L292.09 191.273Z" fill="black" stroke="black" stroke-width="0.01" stroke-linejoin="round"/>
<path d="M300.937 191.273L302.454 192.295L304.165 189.607L305.9 192.399L307.416 191.319L305.417 188.78L308.473 187.93L307.91 186.196L305.015 187.368L305.21 183.968H303.338L303.533 187.299L300.558 186.104L299.996 187.827L302.994 188.677L300.937 191.273Z" fill="black" stroke="black" stroke-width="0.01" stroke-linejoin="round"/>
<path d="M309.785 191.273L311.302 192.295L313.013 189.607L314.748 192.399L316.264 191.319L314.265 188.78L317.321 187.93L316.758 186.196L313.863 187.368L314.058 183.968H312.186L312.381 187.299L309.406 186.104L308.844 187.827L311.841 188.677L309.785 191.273Z" fill="black" stroke="black" stroke-width="0.01" stroke-linejoin="round"/>
<path d="M318.633 191.273L320.149 192.295L321.861 189.607L323.595 192.399L325.111 191.319L323.113 188.78L326.168 187.93L325.605 186.196L322.711 187.368L322.906 183.968H321.034L321.229 187.299L318.254 186.104L317.691 187.827L320.689 188.677L318.633 191.273Z" fill="black" stroke="black" stroke-width="0.01" stroke-linejoin="round"/>
<path d="M416.804 353.484H245.624C241.577 353.484 238.298 350.206 238.298 346.159V257.552C238.298 253.505 241.577 250.226 245.624 250.226H416.804C420.85 250.226 424.13 253.505 424.13 257.552V346.159C424.13 350.206 420.85 353.484 416.804 353.484Z" fill="white"/>
<path d="M416.804 353.483C416.802 353.451 417.303 353.493 418.248 353.31C419.172 353.106 420.597 352.626 421.936 351.301C422.595 350.64 423.201 349.759 423.596 348.678C423.81 348.142 423.923 347.546 424.007 346.924C424.054 346.3 424.044 345.637 424.04 344.947C424.033 342.191 424.024 339.015 424.013 335.438C423.99 321.117 423.958 300.412 423.918 274.831C423.915 271.632 423.911 268.359 423.908 265.012C423.907 263.337 423.904 261.644 423.903 259.933C423.862 258.222 424.085 256.469 423.383 254.903C422.75 253.336 421.529 251.995 419.986 251.222C419.218 250.835 418.375 250.587 417.509 250.499C416.655 250.434 415.722 250.477 414.824 250.465C411.194 250.468 407.498 250.47 403.737 250.473C388.692 250.481 372.617 250.49 355.702 250.499C321.871 250.508 284.677 250.517 245.638 250.525C244.465 250.531 243.303 250.826 242.272 251.374C241.257 251.944 240.364 252.747 239.734 253.727C239.113 254.707 238.699 255.832 238.626 256.991C238.568 258.152 238.61 259.394 238.597 260.587C238.597 265.408 238.596 270.198 238.596 274.953C238.595 284.461 238.592 293.829 238.591 303.034C238.589 312.241 238.587 321.284 238.584 330.14C238.582 334.568 238.581 338.949 238.579 343.281C238.587 344.357 238.56 345.457 238.596 346.506C238.645 347.54 238.923 348.558 239.404 349.468C240.372 351.292 242.162 352.631 244.155 353.052C245.139 353.284 246.19 353.187 247.249 353.21C248.299 353.21 249.347 353.211 250.391 353.212C252.478 353.213 254.554 353.214 256.615 353.215C260.736 353.218 264.801 353.22 268.809 353.221C276.822 353.227 284.604 353.231 292.126 353.235C307.17 353.249 321.185 353.261 333.979 353.273C359.56 353.313 380.262 353.344 394.583 353.367C401.73 353.391 407.281 353.411 411.059 353.423C412.934 353.436 414.367 353.447 415.343 353.454C416.309 353.465 416.804 353.483 416.804 353.483C416.804 353.483 416.309 353.504 415.343 353.514C414.367 353.52 412.934 353.531 411.059 353.545C407.281 353.558 401.73 353.576 394.583 353.601C380.262 353.623 359.56 353.655 333.979 353.694C321.185 353.706 307.17 353.717 292.126 353.731C284.604 353.736 276.822 353.743 268.809 353.747C264.801 353.749 260.736 353.751 256.615 353.753C254.554 353.754 252.478 353.755 250.391 353.756C249.347 353.756 248.299 353.758 247.249 353.758C246.213 353.736 245.131 353.841 244.04 353.592C241.889 353.138 239.958 351.699 238.913 349.733C238.394 348.749 238.09 347.65 238.038 346.534C238 345.432 238.026 344.37 238.017 343.281C238.016 338.949 238.015 334.568 238.012 330.14C238.01 321.284 238.008 312.241 238.005 303.034C238.004 293.829 238.002 284.461 238.001 274.953C238.001 270.198 238 265.408 238 260.587C238.013 259.373 237.969 258.199 238.03 256.943C238.11 255.687 238.558 254.463 239.232 253.401C239.916 252.338 240.884 251.468 241.986 250.849C243.103 250.254 244.369 249.931 245.638 249.925C284.677 249.933 321.871 249.942 355.702 249.95C372.617 249.96 388.692 249.969 403.737 249.978C407.498 249.98 411.194 249.983 414.824 249.985C415.739 249.999 416.616 249.955 417.556 250.026C418.479 250.122 419.38 250.387 420.199 250.802C421.841 251.629 423.14 253.061 423.811 254.732C424.152 255.565 424.333 256.458 424.348 257.349C424.351 258.215 424.353 259.076 424.356 259.933C424.355 261.644 424.352 263.337 424.351 265.012C424.348 268.359 424.344 271.632 424.341 274.831C424.301 300.412 424.268 321.117 424.245 335.438C424.235 339.015 424.227 342.191 424.219 344.947C424.218 345.634 424.224 346.297 424.17 346.94C424.079 347.575 423.959 348.183 423.737 348.729C423.323 349.829 422.697 350.72 422.022 351.386C420.646 352.719 419.196 353.184 418.26 353.369C417.781 353.444 417.418 353.485 417.172 353.48C416.927 353.488 416.804 353.483 416.804 353.483Z" fill="#4F4F7B"/>
<path d="M303.043 286.711V288.001H297.666V281.057H302.913V282.347H299.264V283.854H302.487V285.105H299.264V286.711H303.043Z" fill="#4F4F7B"/>
<path d="M310.694 281.057V288.001H309.374L305.912 283.785V288.001H304.325V281.057H305.653L309.107 285.272V281.057H310.694Z" fill="#4F4F7B"/>
<path d="M313.781 282.367H311.559V281.057H317.61V282.367H315.389V288.001H313.781V282.367Z" fill="#4F4F7B"/>
<path d="M323.85 286.711V288.001H318.474V281.057H323.721V282.347H320.072V283.854H323.294V285.105H320.072V286.711H323.85Z" fill="#4F4F7B"/>
<path d="M329.557 288.001L328.218 286.066H328.139H326.74V288.001H325.133V281.057H328.139C329.993 281.057 331.154 282.019 331.154 283.577C331.154 284.618 330.628 285.382 329.726 285.769L331.283 288.001H329.557ZM328.049 282.367H326.74V284.788H328.049C329.032 284.788 329.528 284.331 329.528 283.577C329.528 282.813 329.032 282.367 328.049 282.367Z" fill="#4F4F7B"/>
<path d="M334.798 284.529C334.798 282.437 336.405 280.938 338.567 280.938C339.768 280.938 340.769 281.374 341.425 282.168L340.393 283.12C339.926 282.585 339.341 282.307 338.647 282.307C337.348 282.307 336.424 283.219 336.424 284.529C336.424 285.839 337.348 286.752 338.647 286.752C339.341 286.752 339.926 286.472 340.393 285.927L341.425 286.881C340.769 287.684 339.768 288.12 338.558 288.12C336.405 288.12 334.798 286.622 334.798 284.529Z" fill="#4F4F7B"/>
<path d="M341.924 284.529C341.924 282.465 343.531 280.938 345.723 280.938C347.905 280.938 349.521 282.455 349.521 284.529C349.521 286.603 347.905 288.12 345.723 288.12C343.531 288.12 341.924 286.592 341.924 284.529ZM347.895 284.529C347.895 283.21 346.963 282.307 345.723 282.307C344.483 282.307 343.549 283.21 343.549 284.529C343.549 285.848 344.483 286.752 345.723 286.752C346.963 286.752 347.895 285.848 347.895 284.529Z" fill="#4F4F7B"/>
<path d="M350.734 281.057H353.888C356.161 281.057 357.718 282.426 357.718 284.53C357.718 286.633 356.161 288.001 353.888 288.001H350.734V281.057ZM353.81 286.682C355.188 286.682 356.091 285.858 356.091 284.53C356.091 283.201 355.188 282.377 353.81 282.377H352.342V286.682H353.81Z" fill="#4F4F7B"/>
<path d="M364.306 286.711V288.001H358.931V281.057H364.178V282.347H360.527V283.854H363.752V285.105H360.527V286.711H364.306Z" fill="#4F4F7B"/>
<path d="M276.694 334.435H259.828C257.321 334.435 255.288 332.403 255.288 329.895V303.628C255.288 301.119 257.321 299.089 259.828 299.089H276.694C279.202 299.089 281.234 301.119 281.234 303.628V329.895C281.234 332.403 279.202 334.435 276.694 334.435Z" fill="#F4F2F2"/>
<path d="M406.158 334.026H389.292C386.784 334.026 384.751 331.994 384.751 329.486V303.219C384.751 300.71 386.784 298.68 389.292 298.68H406.158C408.665 298.68 410.697 300.71 410.697 303.219V329.486C410.697 331.994 408.665 334.026 406.158 334.026Z" fill="#F4F2F2"/>
<path d="M309.094 334.435H292.229C289.721 334.435 287.688 332.403 287.688 329.895V303.628C287.688 301.119 289.721 299.089 292.229 299.089H309.094C311.602 299.089 313.634 301.119 313.634 303.628V329.895C313.634 332.403 311.602 334.435 309.094 334.435Z" fill="#F4F2F2"/>
<path d="M341.494 334.435H324.63C322.121 334.435 320.089 332.403 320.089 329.895V303.628C320.089 301.119 322.121 299.089 324.63 299.089H341.494C344.003 299.089 346.033 301.119 346.033 303.628V329.895C346.033 332.403 344.003 334.435 341.494 334.435Z" fill="#F4F2F2"/>
<path d="M373.896 334.435H357.03C354.522 334.435 352.489 332.403 352.489 329.895V303.628C352.489 301.119 354.522 299.089 357.03 299.089H373.896C376.403 299.089 378.435 301.119 378.435 303.628V329.895C378.435 332.403 376.403 334.435 373.896 334.435Z" fill="#F4F2F2"/>
<path d="M273.335 325.513C273.335 325.679 270.643 325.812 267.323 325.812C264.001 325.812 261.311 325.679 261.311 325.513C261.311 325.348 264.001 325.215 267.323 325.215C270.643 325.215 273.335 325.348 273.335 325.513Z" fill="#17A1C8"/>
<path d="M252.909 260.529C252.909 262.084 251.649 263.344 250.096 263.344C248.542 263.344 247.283 262.084 247.283 260.529C247.283 258.976 248.542 257.715 250.096 257.715C251.649 257.715 252.909 258.976 252.909 260.529Z" fill="#4F4F7B"/>
<path d="M261.02 260.529C261.02 262.084 259.76 263.344 258.206 263.344C256.651 263.344 255.391 262.084 255.391 260.529C255.391 258.976 256.651 257.715 258.206 257.715C259.76 257.715 261.02 258.976 261.02 260.529Z" fill="#4F4F7B"/>
<path d="M268.98 260.529C268.98 262.084 267.721 263.344 266.167 263.344C264.613 263.344 263.354 262.084 263.354 260.529C263.354 258.976 264.613 257.715 266.167 257.715C267.721 257.715 268.98 258.976 268.98 260.529Z" fill="#4F4F7B"/>
<path d="M424.407 268.459C424.407 268.623 382.802 268.756 331.489 268.756C280.16 268.756 238.562 268.623 238.562 268.459C238.562 268.292 280.16 268.159 331.489 268.159C382.802 268.159 424.407 268.292 424.407 268.459Z" fill="#4F4F7B"/>
<mask id="mask1_145_4445" style="mask-type:alpha" maskUnits="userSpaceOnUse" x="423" y="74" width="53" height="62">
<path d="M455.139 103.731C460.435 101.51 464.2 96.0505 464.231 89.6157C464.265 81.1869 457.888 74.3238 449.983 74.287C442.083 74.2503 435.647 81.0537 435.612 89.4825C435.586 95.9758 439.376 101.503 444.729 103.731C422.708 107.049 423.707 135.002 423.707 135.002L475.781 135.242C475.781 135.242 476.969 107.028 455.139 103.731Z" fill="#F4F2F2"/>
</mask>
<g mask="url(#mask1_145_4445)">
<path d="M485.592 67.9138V129.367H409.063V67.9138H485.592Z" fill="#F4F2F2"/>
</g>
<path d="M438.374 447.593C452.813 439.949 469.086 425.952 475.511 409.949C459.905 417.827 446.698 431.216 438.374 447.593Z" fill="#4F4F7B"/>
<path d="M439.519 423.514C453.957 415.87 470.232 401.874 476.657 385.869C461.051 393.747 447.843 407.137 439.519 423.514Z" fill="#4F4F7B"/>
<path d="M441.872 399.988C456.31 392.344 472.585 378.346 479.01 362.343C463.404 370.22 450.194 383.611 441.872 399.988Z" fill="#4F4F7B"/>
<path d="M445.229 375.28C458.646 365.682 473.134 349.526 477.611 332.759C463.065 342.753 451.547 357.878 445.229 375.28Z" fill="#4F4F7B"/>
<path d="M449.449 356.233C458.595 341.877 466.479 321.01 464.865 303.648C454.805 318.83 449.323 337.533 449.449 356.233Z" fill="#4F4F7B"/>
<path d="M447.324 365.298C443.684 347.261 434.634 324.963 421.435 312.333C425.018 331.688 434.226 350.528 447.324 365.298Z" fill="#4F4F7B"/>
<path d="M444.189 385.639C438.912 367.171 427.653 344.736 412.865 332.732C418.189 352.578 429.329 371.396 444.189 385.639Z" fill="#4F4F7B"/>
<path d="M440.705 410.414C435.43 391.945 424.171 369.512 409.383 357.509C414.707 377.354 425.848 396.171 440.705 410.414Z" fill="#4F4F7B"/>
<path d="M438.797 440.629C433.522 422.161 422.262 399.727 407.475 387.723C412.798 407.569 423.94 426.386 438.797 440.629Z" fill="#4F4F7B"/>
<path d="M449.841 352.604C449.831 352.601 449.8 352.7 449.749 352.894C449.693 353.121 449.623 353.405 449.536 353.759C449.354 354.566 449.098 355.682 448.775 357.097C448.116 359.997 447.252 364.212 446.263 369.437C445.265 374.659 444.209 380.904 443.164 387.856C442.148 394.813 441.165 402.481 440.342 410.553C439.539 418.631 438.979 426.343 438.585 433.364C438.221 440.386 438.014 446.716 437.949 452.033C437.875 457.349 437.881 461.652 437.947 464.624C437.981 466.075 438.008 467.219 438.026 468.047C438.041 468.409 438.052 468.702 438.062 468.937C438.074 469.137 438.084 469.24 438.094 469.239C438.103 469.24 438.112 469.136 438.12 468.936C438.127 468.702 438.136 468.408 438.145 468.045C438.154 467.218 438.163 466.073 438.178 464.623C438.182 461.651 438.236 457.352 438.362 452.04C438.481 446.73 438.732 440.408 439.125 433.394C439.547 426.382 440.124 418.68 440.926 410.613C441.748 402.548 442.717 394.888 443.701 387.933C444.715 380.984 445.726 374.738 446.672 369.51C447.607 364.282 448.41 360.056 448.999 357.144C449.275 355.72 449.494 354.597 449.651 353.785C449.715 353.426 449.766 353.138 449.808 352.906C449.839 352.709 449.851 352.605 449.841 352.604Z" fill="#4F4F7B"/>
<path d="M434.601 456.751C443.129 444.655 450.852 426.924 450.226 411.949C440.876 424.73 435.318 440.667 434.601 456.751Z" fill="#4F4F7B"/>
<path d="M427.047 437.923C435.574 425.827 443.299 408.097 442.672 393.123C433.321 405.905 427.762 421.838 427.047 437.923Z" fill="#4F4F7B"/>
<path d="M420.621 418.991C429.147 406.895 436.871 389.166 436.245 374.19C426.894 386.972 421.337 402.906 420.621 418.991Z" fill="#4F4F7B"/>
<path d="M414.561 398.726C421.61 385.585 427.19 366.99 424.786 352.279C416.998 366.211 413.361 382.732 414.561 398.726Z" fill="#4F4F7B"/>
<path d="M411.156 382.393C413.222 367.488 412.021 348.175 404.679 335.661C402.195 351.592 404.501 368.214 411.156 382.393Z" fill="#4F4F7B"/>
<path d="M412.687 390.216C403.535 378.069 388.691 365.031 374.013 361.156C383.584 374.331 397.338 384.668 412.687 390.216Z" fill="#4F4F7B"/>
<path d="M417.386 407.064C406.815 395.299 390.205 383.118 374.516 380.411C385.608 393.203 400.859 402.682 417.386 407.064Z" fill="#4F4F7B"/>
<path d="M423.371 427.436C412.798 415.673 396.19 403.491 380.501 400.783C391.594 413.575 406.842 423.055 423.371 427.436Z" fill="#4F4F7B"/>
<path d="M432.488 451.266C421.915 439.502 405.307 427.32 389.618 424.613C400.711 437.404 415.959 446.885 432.488 451.266Z" fill="#4F4F7B"/>
<path d="M410.188 379.458C410.178 379.461 410.188 379.548 410.215 379.716C410.251 379.915 410.295 380.158 410.349 380.456C410.488 381.151 410.679 382.099 410.919 383.296C411.413 385.762 412.209 389.313 413.262 393.685C415.363 402.43 418.635 414.429 423.027 427.436C425.234 433.938 427.504 440.071 429.669 445.612C431.863 451.14 433.925 456.083 435.759 460.191C437.579 464.303 439.111 467.603 440.218 469.861C440.757 470.957 441.183 471.823 441.495 472.459C441.634 472.729 441.747 472.948 441.841 473.13C441.921 473.279 441.966 473.354 441.975 473.35C441.984 473.345 441.956 473.262 441.892 473.105C441.813 472.918 441.717 472.689 441.598 472.411C441.308 471.764 440.914 470.883 440.416 469.769C439.37 467.483 437.894 464.161 436.121 460.031C434.337 455.909 432.315 450.955 430.15 445.424C428.015 439.881 425.762 433.75 423.559 427.257C419.173 414.268 415.844 402.302 413.645 393.59C412.546 389.234 411.691 385.699 411.131 383.248C410.847 382.063 410.624 381.122 410.459 380.433C410.384 380.139 410.321 379.9 410.271 379.703C410.225 379.54 410.198 379.456 410.188 379.458Z" fill="#0D161C"/>
<path d="M403.349 458.404H466.709V470.616H460.198L454.714 505.443H415.55L409.911 470.616H403.349V458.404Z" fill="#17A1C8"/>
<path d="M403.349 470.36C403.349 470.199 417.432 470.066 434.798 470.066C452.171 470.066 466.251 470.199 466.251 470.36C466.251 470.523 452.171 470.655 434.798 470.655C417.432 470.655 403.349 470.523 403.349 470.36Z" fill="#0D161C"/>
</g>
</svg>
