<svg width="171" height="128" viewBox="0 0 171 128" fill="none" xmlns="http://www.w3.org/2000/svg">
<g clip-path="url(#clip0_17_1828)">
<path d="M111.328 75.4098C102.601 86.3843 86.8873 94.0078 73.8182 85.2717C67.7353 81.2198 64.0924 73.4002 65.7512 66.1478C67.0399 60.5193 72.8093 56.9448 77.5355 61.2672C79.1196 62.8287 80.3072 64.7464 80.9991 66.8604C81.6911 68.9743 81.8673 71.2231 81.513 73.419C78.923 90.1832 58.0055 88.8372 47.1735 81.8223C34.5987 73.6982 27.1141 59.4687 26.3818 44.6997C26.2731 42.5574 22.939 42.5336 23.0477 44.6759C23.8447 60.6896 31.9137 75.9535 45.527 84.7215C56.6061 91.8759 73.1595 93.5236 81.7394 81.583C83.567 79.0371 84.6802 76.0486 84.9634 72.9275C85.2466 69.8063 84.6896 66.6663 83.3501 63.833C81.1841 59.2376 76.2418 54.6297 70.7465 55.7256C64.4474 56.9394 61.9654 64.5645 62.0745 70.1936C62.1631 73.3157 62.9094 76.3839 64.2645 79.1979C65.6197 82.0119 67.5532 84.5084 69.9389 86.5243C84.0244 98.3529 103.509 90.5777 113.702 77.7445C115.015 76.0888 112.665 73.7279 111.328 75.4098Z" fill="#CB1F49"/>
<path d="M20.3432 59.9549C21.4963 54.2425 22.9831 48.6026 24.796 43.0641L22.3643 44.0706C28.1461 47.7844 34.2436 50.982 40.5862 53.6265C42.5398 54.4344 44.2111 51.5336 42.2327 50.7272C35.8909 48.0887 29.795 44.8941 24.0164 41.1809C23.7942 41.0577 23.5471 40.9862 23.2935 40.9718C23.0398 40.9574 22.7862 41.0004 22.5515 41.0977C22.3168 41.195 22.1071 41.344 21.9381 41.5337C21.769 41.7233 21.645 41.9487 21.5752 42.1929C19.7565 47.7184 18.2623 53.3455 17.1002 59.0453C16.6785 61.1349 19.9048 62.0157 20.3155 59.9069L20.3432 59.9549Z" fill="#CB1F49"/>
</g>
<path d="M106.741 103.542C106.525 103.866 106.189 104.352 105.733 105C104.773 104.58 103.915 104.37 103.159 104.37C102.163 104.37 101.665 104.742 101.665 105.486C101.665 105.822 101.779 106.086 102.007 106.278C102.235 106.47 102.709 106.704 103.429 106.98C104.725 107.484 105.655 108.03 106.219 108.618C106.795 109.206 107.083 109.914 107.083 110.742C107.083 111.906 106.645 112.806 105.769 113.442C105.049 113.958 104.155 114.216 103.087 114.216C101.827 114.216 100.483 113.76 99.0551 112.848L100.099 111.39C100.795 111.858 101.689 112.092 102.781 112.092C104.017 112.092 104.635 111.594 104.635 110.598C104.635 109.95 103.969 109.398 102.637 108.942C100.489 108.222 99.4151 107.07 99.4151 105.486C99.4151 104.526 99.7751 103.764 100.495 103.2C101.167 102.66 102.061 102.39 103.177 102.39C104.449 102.39 105.637 102.774 106.741 103.542ZM115.708 114H113.89L113.71 113.226C112.918 113.886 112.114 114.216 111.298 114.216C109.486 114.216 108.58 113.334 108.58 111.57C108.58 110.694 108.958 110.01 109.714 109.518C110.482 109.014 111.616 108.762 113.116 108.762H113.494V108.726C113.494 108.21 113.386 107.856 113.17 107.664C112.954 107.472 112.564 107.376 112 107.376C111.208 107.376 110.482 107.628 109.822 108.132C109.606 107.736 109.402 107.346 109.21 106.962C109.894 106.434 110.488 106.08 110.992 105.9C111.508 105.708 112.12 105.612 112.828 105.612C114.748 105.612 115.708 106.812 115.708 109.212V114ZM113.422 110.148H113.152C112.468 110.148 111.916 110.268 111.496 110.508C111.076 110.748 110.866 111.066 110.866 111.462C110.866 112.206 111.19 112.578 111.838 112.578C112.234 112.578 112.582 112.464 112.882 112.236C113.182 112.008 113.362 111.72 113.422 111.372V110.148ZM122.151 114H120.387L117.201 105.828H119.487L121.233 111.228L123.087 105.828H125.463L125.121 106.674L124.725 107.646C123.609 110.406 122.751 112.524 122.151 114ZM134.346 110.652H128.73C128.778 111.204 129 111.666 129.396 112.038C129.804 112.398 130.284 112.578 130.836 112.578C131.616 112.578 132.432 112.338 133.284 111.858L133.86 113.064C132.996 113.832 131.916 114.216 130.62 114.216C129.228 114.216 128.142 113.82 127.362 113.028C126.618 112.284 126.246 111.258 126.246 109.95C126.246 108.666 126.666 107.604 127.506 106.764C128.262 105.996 129.222 105.612 130.386 105.612C131.682 105.612 132.69 106.05 133.41 106.926C134.034 107.67 134.346 108.636 134.346 109.824V110.652ZM128.604 108.978H132.078C132.018 107.802 131.448 107.214 130.368 107.214C129.324 107.214 128.736 107.802 128.604 108.978ZM140.08 114V112.002C140.368 111.678 140.752 111.24 141.232 110.688C141.988 109.848 142.546 109.212 142.906 108.78C143.71 107.82 144.214 107.166 144.418 106.818C144.622 106.458 144.724 106.062 144.724 105.63C144.724 105.27 144.592 104.97 144.328 104.73C144.064 104.49 143.728 104.37 143.32 104.37C142.612 104.37 141.832 104.658 140.98 105.234L139.99 103.794C141.19 102.846 142.444 102.372 143.752 102.372C144.796 102.372 145.63 102.654 146.254 103.218C146.866 103.77 147.172 104.532 147.172 105.504C147.172 106.224 146.932 106.98 146.452 107.772C145.984 108.552 145.066 109.716 143.698 111.264C143.362 111.648 143.116 111.93 142.96 112.11H147.046V114H140.08ZM155.269 104.496H151.291V106.8C151.435 106.74 151.633 106.71 151.885 106.71C153.205 106.71 154.231 107.04 154.963 107.7C155.659 108.336 156.007 109.206 156.007 110.31C156.007 111.474 155.575 112.44 154.711 113.208C153.955 113.88 153.037 114.216 151.957 114.216C150.517 114.216 149.263 113.694 148.195 112.65L149.167 111.156C150.043 111.816 150.889 112.146 151.705 112.146C152.965 112.146 153.595 111.582 153.595 110.454C153.595 109.194 152.785 108.564 151.165 108.564C150.601 108.564 149.863 108.666 148.951 108.87V102.606H155.269V104.496ZM160.166 114L165.62 103.398H167.384L161.93 114H160.166ZM162.182 106.278C162.182 107.178 161.978 107.898 161.57 108.438C161.162 108.978 160.616 109.248 159.932 109.248C159.212 109.248 158.648 108.99 158.24 108.474C157.832 107.946 157.628 107.22 157.628 106.296C157.628 105.42 157.832 104.73 158.24 104.226C158.66 103.722 159.224 103.47 159.932 103.47C160.592 103.47 161.132 103.734 161.552 104.262C161.972 104.778 162.182 105.45 162.182 106.278ZM160.868 106.314C160.868 105.846 160.772 105.456 160.58 105.144C160.4 104.82 160.172 104.658 159.896 104.658C159.62 104.658 159.386 104.814 159.194 105.126C159.014 105.438 158.924 105.834 158.924 106.314C158.924 106.83 159.014 107.256 159.194 107.592C159.374 107.916 159.608 108.078 159.896 108.078C160.184 108.078 160.418 107.916 160.598 107.592C160.778 107.256 160.868 106.83 160.868 106.314ZM169.814 111.084C169.814 111.984 169.61 112.704 169.202 113.244C168.794 113.784 168.248 114.054 167.564 114.054C166.844 114.054 166.28 113.79 165.872 113.262C165.464 112.734 165.26 112.014 165.26 111.102C165.26 110.226 165.464 109.536 165.872 109.032C166.292 108.516 166.856 108.258 167.564 108.258C168.224 108.258 168.764 108.522 169.184 109.05C169.604 109.578 169.814 110.256 169.814 111.084ZM168.482 111.12C168.482 110.652 168.392 110.262 168.212 109.95C168.032 109.626 167.804 109.464 167.528 109.464C167.24 109.464 167.006 109.62 166.826 109.932C166.646 110.232 166.556 110.628 166.556 111.12C166.556 111.636 166.646 112.062 166.826 112.398C167.006 112.722 167.24 112.884 167.528 112.884C167.804 112.884 168.032 112.722 168.212 112.398C168.392 112.062 168.482 111.636 168.482 111.12Z" fill="#CB1F49"/>
<defs>
<clipPath id="clip0_17_1828">
<rect width="92.8109" height="92.8109" fill="white" transform="translate(46.4053 127.377) rotate(-120)"/>
</clipPath>
</defs>
</svg>
