<svg width="63" height="64" viewBox="0 0 63 64" fill="none" xmlns="http://www.w3.org/2000/svg">
<rect width="62.5157" height="63.8458" rx="17.2916" fill="#F0BB1F"/>
<path d="M17.5417 28.4583H33.1251" stroke="white" stroke-width="1.5" stroke-linecap="round" stroke-linejoin="round"/>
<path d="M38.7917 28.4583H44.4584" stroke="white" stroke-width="1.5" stroke-linecap="round" stroke-linejoin="round"/>
<path d="M27.4583 45.4583V28.4583" stroke="white" stroke-width="1.5"/>
<path d="M27.4583 24.2084V18.5417" stroke="white" stroke-width="1.5" stroke-linecap="round" stroke-linejoin="round"/>
<path d="M38.0834 39.0834C35.2501 39.0834 32.4167 41.3817 32.4167 45.4584H28.8751C23.5325 45.4584 20.8612 45.4584 19.2015 43.7986C17.5417 42.139 17.5417 39.4676 17.5417 34.1251V29.8751C17.5417 24.5325 17.5417 21.8612 19.2015 20.2015C20.8612 18.5417 23.5325 18.5417 28.8751 18.5417H33.1251C38.4676 18.5417 41.139 18.5417 42.7986 20.2015C44.4584 21.8612 44.4584 24.5325 44.4584 29.8751V40.2779C44.4584 43.139 42.139 45.4584 39.2779 45.4584" stroke="white" stroke-width="1.5" stroke-linecap="round" stroke-linejoin="round"/>
</svg>
