<svg width="60" height="60" viewBox="0 0 60 60" fill="none" xmlns="http://www.w3.org/2000/svg">
<path d="M20 40H38.158C49.377 40 51.0832 32.952 53.1525 22.6727C53.7495 19.7078 54.048 18.2253 53.3302 17.2377C52.6125 16.25 51.2368 16.25 48.4853 16.25H15" stroke="#CB1F49" stroke-width="4" stroke-linecap="round"/>
<path d="M20 40L13.4468 8.78733C12.8904 6.56148 10.8905 5 8.59613 5H6.25" stroke="#CB1F49" stroke-width="4" stroke-linecap="round"/>
<path d="M22.2 40H21.1714C17.763 40 15 42.8782 15 46.4285C15 47.0202 15.4605 47.5 16.0286 47.5H43.75" stroke="#CB1F49" stroke-width="4" stroke-linecap="round" stroke-linejoin="round"/>
<path d="M26.25 55C28.3211 55 30 53.3211 30 51.25C30 49.1789 28.3211 47.5 26.25 47.5C24.1789 47.5 22.5 49.1789 22.5 51.25C22.5 53.3211 24.1789 55 26.25 55Z" stroke="#CB1F49" stroke-width="4"/>
<path d="M43.75 55C45.8211 55 47.5 53.3211 47.5 51.25C47.5 49.1789 45.8211 47.5 43.75 47.5C41.6789 47.5 40 49.1789 40 51.25C40 53.3211 41.6789 55 43.75 55Z" stroke="#CB1F49" stroke-width="4"/>
</svg>
