<svg width="20" height="20" viewBox="0 0 20 20" fill="none" xmlns="http://www.w3.org/2000/svg">
<path d="M6.66667 13.3334H12.7193C16.459 13.3334 17.0277 10.9841 17.7175 7.55765C17.9165 6.56934 18.016 6.07519 17.7767 5.74597C17.5375 5.41675 17.0789 5.41675 16.1617 5.41675H5" stroke="white" stroke-width="1.5" stroke-linecap="round"/>
<path d="M6.66683 13.3334L4.48244 2.92919C4.29695 2.18724 3.63031 1.66675 2.86554 1.66675H2.0835" stroke="white" stroke-width="1.5" stroke-linecap="round"/>
<path d="M7.4 13.3333H7.05714C5.92102 13.3333 5 14.2927 5 15.4761C5 15.6733 5.1535 15.8333 5.34286 15.8333H14.5833" stroke="white" stroke-width="1.5" stroke-linecap="round" stroke-linejoin="round"/>
<path d="M8.75 18.3333C9.44036 18.3333 10 17.7736 10 17.0833C10 16.3929 9.44036 15.8333 8.75 15.8333C8.05964 15.8333 7.5 16.3929 7.5 17.0833C7.5 17.7736 8.05964 18.3333 8.75 18.3333Z" stroke="white" stroke-width="1.5"/>
<path d="M14.5835 18.3333C15.2739 18.3333 15.8335 17.7736 15.8335 17.0833C15.8335 16.3929 15.2739 15.8333 14.5835 15.8333C13.8931 15.8333 13.3335 16.3929 13.3335 17.0833C13.3335 17.7736 13.8931 18.3333 14.5835 18.3333Z" stroke="white" stroke-width="1.5"/>
</svg>
