<svg width="63" height="64" viewBox="0 0 63 64" fill="none" xmlns="http://www.w3.org/2000/svg">
<rect width="62.5157" height="63.8458" rx="17.2916" fill="#006380"/>
<path d="M39.4999 17.8333V29.1666M45.1666 23.4999H33.8333" stroke="white" stroke-width="1.5" stroke-linecap="round" stroke-linejoin="round"/>
<path d="M16.8333 23.4999C16.8333 21.5164 16.8333 20.5246 17.2193 19.767C17.5588 19.1006 18.1006 18.5588 18.767 18.2193C19.5246 17.8333 20.5164 17.8333 22.4999 17.8333C24.4834 17.8333 25.4752 17.8333 26.2328 18.2193C26.8992 18.5588 27.441 19.1006 27.7806 19.767C28.1666 20.5246 28.1666 21.5164 28.1666 23.4999C28.1666 25.4834 28.1666 26.4752 27.7806 27.2328C27.441 27.8992 26.8992 28.441 26.2328 28.7806C25.4752 29.1666 24.4834 29.1666 22.4999 29.1666C20.5164 29.1666 19.5246 29.1666 18.767 28.7806C18.1006 28.441 17.5588 27.8992 17.2193 27.2328C16.8333 26.4752 16.8333 25.4834 16.8333 23.4999Z" stroke="white" stroke-width="1.5"/>
<path d="M16.8333 40.4999C16.8333 38.5164 16.8333 37.5246 17.2193 36.767C17.5588 36.1006 18.1006 35.5589 18.767 35.2193C19.5246 34.8333 20.5164 34.8333 22.4999 34.8333C24.4834 34.8333 25.4752 34.8333 26.2328 35.2193C26.8992 35.5589 27.441 36.1006 27.7806 36.767C28.1666 37.5246 28.1666 38.5164 28.1666 40.4999C28.1666 42.4834 28.1666 43.4752 27.7806 44.2328C27.441 44.8992 26.8992 45.441 26.2328 45.7805C25.4752 46.1666 24.4834 46.1666 22.4999 46.1666C20.5164 46.1666 19.5246 46.1666 18.767 45.7805C18.1006 45.441 17.5588 44.8992 17.2193 44.2328C16.8333 43.4752 16.8333 42.4834 16.8333 40.4999Z" stroke="white" stroke-width="1.5"/>
<path d="M33.8333 40.4999C33.8333 38.5164 33.8333 37.5246 34.2193 36.767C34.5589 36.1006 35.1006 35.5589 35.767 35.2193C36.5246 34.8333 37.5164 34.8333 39.4999 34.8333C41.4834 34.8333 42.4752 34.8333 43.2328 35.2193C43.8992 35.5589 44.441 36.1006 44.7805 36.767C45.1666 37.5246 45.1666 38.5164 45.1666 40.4999C45.1666 42.4834 45.1666 43.4752 44.7805 44.2328C44.441 44.8992 43.8992 45.441 43.2328 45.7805C42.4752 46.1666 41.4834 46.1666 39.4999 46.1666C37.5164 46.1666 36.5246 46.1666 35.767 45.7805C35.1006 45.441 34.5589 44.8992 34.2193 44.2328C33.8333 43.4752 33.8333 42.4834 33.8333 40.4999Z" stroke="white" stroke-width="1.5"/>
</svg>
