<svg width="224" height="224" viewBox="0 0 224 224" fill="none" xmlns="http://www.w3.org/2000/svg">
<g clip-path="url(#clip0_103_2272)">
<path d="M216.117 111.995C219.576 107.967 222 103.155 223.179 97.9778C224.358 92.8003 224.255 87.4134 222.881 82.2843C221.507 77.1553 218.901 72.4391 215.292 68.5448C211.682 64.6505 207.176 61.6957 202.166 59.9369C203.148 54.7182 202.841 49.3388 201.273 44.2654C199.705 39.192 196.923 34.5778 193.168 30.8231C189.413 27.0685 184.798 24.2868 179.725 22.7194C174.651 21.152 169.272 20.8462 164.053 21.8285C162.296 16.8171 159.341 12.3105 155.447 8.69983C151.553 5.08918 146.836 2.48367 141.706 1.10952C136.576 -0.264638 131.189 -0.3659 126.011 0.814522C120.833 1.99494 116.022 4.42137 111.994 7.88314C107.966 4.42375 103.154 1.99951 97.9768 0.820721C92.7993 -0.35807 87.4123 -0.25581 82.2832 1.11863C77.1542 2.49306 72.438 5.09817 68.5437 8.70794C64.6494 12.3177 61.6947 16.8231 59.9358 21.8334C54.7175 20.8526 49.3387 21.1598 44.2659 22.7282C39.1932 24.2967 34.5797 27.0791 30.8256 30.8341C27.0716 34.5891 24.2904 39.2033 22.7232 44.2765C21.156 49.3496 20.8502 54.7285 21.8323 59.9466C16.8221 61.7054 12.3167 64.6602 8.70688 68.5545C5.0971 72.4488 2.49198 77.165 1.11755 82.294C-0.256889 87.4231 -0.359164 92.81 0.819627 97.9875C1.99842 103.165 4.42271 107.977 7.88209 112.005C4.42165 116.034 1.99662 120.846 0.817494 126.024C-0.361632 131.202 -0.259268 136.589 1.11577 141.719C2.49081 146.848 5.09693 151.565 8.70795 155.459C12.319 159.353 16.8258 162.306 21.8372 164.064C20.8542 169.282 21.1597 174.661 22.727 179.735C24.2944 184.808 27.0764 189.422 30.8313 193.177C34.5863 196.931 39.2009 199.713 44.2745 201.279C49.3481 202.846 54.7274 203.151 59.9455 202.167C61.7044 207.178 64.6591 211.683 68.5534 215.293C72.4477 218.902 77.1639 221.508 82.293 222.882C87.422 224.256 92.8089 224.359 97.9864 223.18C103.164 222.001 107.976 219.577 112.004 216.118C116.033 219.578 120.845 222.003 126.023 223.182C131.201 224.361 136.588 224.259 141.718 222.884C146.847 221.509 151.564 218.903 155.458 215.292C159.352 211.681 162.305 207.174 164.063 202.162C169.281 203.145 174.66 202.839 179.734 201.272C184.807 199.705 189.422 196.923 193.177 193.168C196.931 189.413 199.713 184.799 201.281 179.725C202.848 174.652 203.154 169.272 202.171 164.054C207.182 162.296 211.688 159.341 215.297 155.447C218.907 151.552 221.512 146.836 222.886 141.706C224.261 136.577 224.362 131.19 223.182 126.012C222.003 120.835 219.577 116.023 216.117 111.995Z" fill="#18C07A"/>
<path d="M91.8949 154.749L60.7714 123.645C59.5902 122.462 58.9268 120.858 58.9268 119.186C58.9268 117.514 59.5902 115.911 60.7714 114.728L64.5526 110.942C65.7357 109.761 67.3392 109.097 69.011 109.097C70.6828 109.097 72.2863 109.761 73.4694 110.942L96.0936 133.552L149.375 76.9302C150.522 75.7138 152.104 75.0019 153.775 74.9509C155.446 74.9 157.069 75.5141 158.287 76.6584L162.17 80.3231C163.388 81.4698 164.101 83.0532 164.152 84.7252C164.203 86.3973 163.588 88.0211 162.442 89.2398L100.962 154.608C100.383 155.225 99.6862 155.719 98.9125 156.061C98.1388 156.403 97.3042 156.587 96.4584 156.6C95.6125 156.613 94.7726 156.456 93.9886 156.138C93.2047 155.82 92.4927 155.347 91.8949 154.749Z" fill="white"/>
</g>
<defs>
<clipPath id="clip0_103_2272">
<rect width="224" height="224" fill="white"/>
</clipPath>
</defs>
</svg>
