<svg width="165" height="164" viewBox="0 0 165 164" fill="none" xmlns="http://www.w3.org/2000/svg">
<path fill-rule="evenodd" clip-rule="evenodd" d="M120.596 53.1457C122.888 55.4284 122.896 59.137 120.613 61.429L71.2605 110.982C68.9778 113.274 65.2694 113.282 62.9774 110.999L44.9788 93.0751C42.6867 90.7925 42.679 87.084 44.9616 84.7918C47.2442 82.4997 50.9527 82.492 53.2448 84.7746L67.0935 98.5658L112.313 53.1625C114.596 50.8705 118.304 50.863 120.596 53.1457Z" fill="#CB1F49"/>
<path fill-rule="evenodd" clip-rule="evenodd" d="M82.1586 16.7143C51.1114 16.7143 25.065 38.3937 18.379 67.4361L18.379 67.4362C17.2906 72.1635 16.7143 77.0909 16.7143 82.1586C16.7143 118.275 46.0421 147.603 82.1586 147.603C118.275 147.603 147.603 118.275 147.603 82.1586C147.603 46.0421 118.275 16.7143 82.1586 16.7143ZM6.96331 64.808C14.8455 30.5697 45.53 5 82.1586 5C124.745 5 159.317 39.5725 159.317 82.1586C159.317 124.745 124.745 159.317 82.1586 159.317C39.5725 159.317 5 124.745 5 82.1586C5 76.1999 5.67796 70.3909 6.96331 64.808Z" fill="#FCC1CF"/>
</svg>
