<svg width="20" height="16" viewBox="0 0 20 16" fill="none" xmlns="http://www.w3.org/2000/svg">
<path d="M13 5.5C12.9583 3.9375 12.3229 2.64583 11.0938 1.625C9.86458 0.583333 8.33333 0.041667 6.5 0C4.66667 0.041667 3.13542 0.583333 1.90625 1.625C0.677083 2.64583 0.0416667 3.9375 0 5.5C0.0208333 6.8125 0.489583 7.95833 1.40625 8.9375C1.15625 9.4375 0.895833 9.86458 0.625 10.2188C0.375 10.5521 0.229167 10.7292 0.1875 10.75C0 10.9792 -0.0416667 11.25 0.0625 11.5625C0.208333 11.8333 0.4375 11.9792 0.75 12C1.58333 11.9792 2.33333 11.8438 3 11.5938C3.66667 11.3438 4.22917 11.0729 4.6875 10.7812C5.25 10.9271 5.85417 11 6.5 11C8.33333 10.9583 9.86458 10.4167 11.0938 9.375C12.3229 8.35417 12.9583 7.0625 13 5.5ZM6.5 10C5.95833 10 5.42708 9.9375 4.90625 9.8125L4.5 9.6875L4.125 9.9375C3.8125 10.1667 3.41667 10.375 2.9375 10.5625C2.45833 10.7708 1.91667 10.9062 1.3125 10.9688C1.64583 10.5729 1.97917 10.0312 2.3125 9.34375L2.625 8.75L2.15625 8.25C1.38542 7.4375 1 6.52083 1 5.5C1.04167 4.22917 1.57292 3.16667 2.59375 2.3125C3.63542 1.47917 4.9375 1.04167 6.5 1C8.0625 1.04167 9.36458 1.47917 10.4062 2.3125C11.4271 3.16667 11.9583 4.22917 12 5.5C11.9583 6.77083 11.4167 7.83333 10.375 8.6875C9.35417 9.52083 8.0625 9.95833 6.5 10ZM18.9375 13.5938C19.625 12.6979 19.9792 11.6667 20 10.5C19.9583 8.9375 19.375 7.64583 18.25 6.625C17.125 5.58333 15.7083 5.04167 14 5C13.9792 5 13.9688 5 13.9688 5C13.9688 5.02083 13.9688 5.04167 13.9688 5.0625C13.9896 5.20833 14 5.35417 14 5.5C14 5.66667 13.9896 5.83333 13.9688 6C13.9688 6 13.9792 6 14 6C15.4167 6.04167 16.5938 6.47917 17.5312 7.3125C18.4688 8.16667 18.9583 9.22917 19 10.5C19 11.4167 18.7188 12.25 18.1562 13L17.75 13.5625L18.0938 14.125C18.3021 14.4583 18.5 14.7396 18.6875 14.9688C18.1042 14.9062 17.5312 14.7604 16.9688 14.5312L16.5938 14.375L16.1875 14.5312C15.5 14.8438 14.7708 15 14 15C12.8125 14.9792 11.7812 14.6562 10.9062 14.0312C10.0312 13.3854 9.44792 12.5625 9.15625 11.5625C8.84375 11.6667 8.52083 11.7604 8.1875 11.8438C8.54167 13.0521 9.23958 14.0417 10.2812 14.8125C11.3229 15.5833 12.5625 15.9792 14 16C14.9375 16 15.8021 15.8125 16.5938 15.4375C17.3438 15.7917 18.2292 15.9792 19.25 16C19.5625 15.9792 19.7917 15.8333 19.9375 15.5625C20.0417 15.25 19.9896 14.9792 19.7812 14.75C19.7604 14.7083 19.6667 14.5833 19.5 14.375C19.3333 14.1875 19.1458 13.9271 18.9375 13.5938Z" fill="white"/>
</svg>
