<svg width="305" height="60" viewBox="0 0 305 60" fill="none" xmlns="http://www.w3.org/2000/svg">
<path d="M18.3107 24.0063V33.1988C18.3107 35.7366 19.2693 37.9029 21.1873 39.6985C23.1052 41.4938 25.4192 42.3916 28.1299 42.3916V49.2859C23.3736 49.2859 19.3206 47.7184 15.971 44.5821C12.6209 41.4461 10.9463 37.6517 10.9463 33.1988V7.91887H18.3107V17.1117H28.1299V24.0063H18.3107Z" fill="#472667"/>
<path d="M57.1645 26.6994C55.2466 24.9038 52.9318 24.0063 50.2223 24.0063C47.5116 24.0063 45.1976 24.9038 43.2797 26.6994C42.6403 27.2979 42.1159 27.9325 41.7072 28.6022H58.737C58.3278 27.9325 57.803 27.2979 57.1645 26.6994ZM43.2797 39.6985C45.1976 41.4938 47.5116 42.3916 50.2223 42.3916C52.9318 42.3916 55.2466 41.4938 57.1645 39.6985L57.2031 39.6624L62.419 44.5464L62.3808 44.5821C59.0308 47.7184 54.9782 49.2859 50.2223 49.2859C45.466 49.2859 41.413 47.7184 38.0633 44.5821C34.7133 41.4461 33.0391 37.6517 33.0391 33.1988C33.0391 28.7462 34.7133 24.9522 38.0633 21.8158C41.413 18.6802 45.466 17.1117 50.2223 17.1117C54.9782 17.1117 59.0308 18.6802 62.3808 21.8158C65.7305 24.9522 67.4055 28.7462 67.4055 33.1988C67.4055 33.9652 67.3284 34.7312 67.1753 35.4972H64.9504H40.7101C41.1188 37.077 41.9756 38.4776 43.2797 39.6985Z" fill="#472667"/>
<path d="M101.657 44.5821C98.307 47.7184 94.2545 49.2859 89.4985 49.2859C84.7422 49.2859 80.6893 47.7184 77.3396 44.5821C73.9896 41.4458 72.3149 37.6517 72.3149 33.1988C72.3149 28.7462 73.9896 24.9522 77.3396 21.8158C80.6893 18.6802 84.7422 17.1117 89.4985 17.1117C94.2545 17.1117 98.307 18.6802 101.657 21.8158L101.695 21.8519L96.4789 26.7351L96.4408 26.6994C94.5228 24.9038 92.2081 24.0063 89.4985 24.0063C86.7874 24.0063 84.4739 24.9038 82.5559 26.6994C80.638 28.495 79.6794 30.6617 79.6794 33.1988C79.6794 35.7366 80.638 37.9029 82.5559 39.6985C84.4739 41.4938 86.7874 42.3916 89.4985 42.3916C92.2081 42.3916 94.5228 41.4938 96.4408 39.6985L96.4789 39.6624L101.695 44.546L101.657 44.5821Z" fill="#472667"/>
<path d="M111.59 33.1988V49.2859H104.226V7.91922H111.59V19.9487C114.428 18.0578 117.701 17.1117 121.409 17.1117C126.165 17.1117 130.218 18.6802 133.568 21.8158C136.917 24.9522 138.592 28.7462 138.592 33.1988V49.2859H131.228V33.1988C131.228 30.662 130.269 28.495 128.351 26.6994C126.433 24.9038 124.119 24.0063 121.409 24.0063C118.698 24.0063 116.385 24.9038 114.467 26.6994C112.549 28.495 111.59 30.662 111.59 33.1988Z" fill="#472667"/>
<path d="M143.501 17.1117H177.868L158.23 42.3912H177.868V49.2859H143.501L163.139 24.0063H143.501V17.1117Z" fill="#472667"/>
<path d="M231.544 49.2859H224.179V33.1988C224.179 28.7462 225.854 24.9522 229.204 21.8158C232.554 18.6798 236.607 17.1117 241.363 17.1117C246.119 17.1117 250.171 18.6798 253.521 21.8158C256.871 24.9522 258.546 28.7462 258.546 33.1988V49.2859H251.182V33.1988C251.182 30.6617 250.223 28.4946 248.305 26.6994C246.387 24.9038 244.072 24.0063 241.363 24.0063C238.652 24.0063 236.338 24.9038 234.42 26.6994C232.502 28.4946 231.544 30.6617 231.544 33.1988V49.2859Z" fill="#472667"/>
<path d="M287.576 26.6994C285.658 24.9038 283.343 24.0063 280.633 24.0063C277.923 24.0063 275.609 24.9038 273.691 26.6994C273.051 27.2979 272.527 27.9325 272.118 28.6022H289.148C288.739 27.9325 288.214 27.2979 287.576 26.6994ZM273.691 39.6985C275.609 41.4938 277.923 42.3916 280.633 42.3916C283.343 42.3916 285.658 41.4938 287.576 39.6985L287.614 39.6624L292.83 44.5464L292.792 44.5821C289.442 47.7184 285.389 49.2859 280.633 49.2859C275.877 49.2859 271.824 47.7184 268.474 44.5821C265.124 41.4461 263.45 37.6517 263.45 33.1988C263.45 28.7462 265.124 24.9522 268.474 21.8158C271.824 18.6802 275.877 17.1117 280.633 17.1117C285.389 17.1117 289.442 18.6802 292.792 21.8158C296.142 24.9522 297.817 28.7462 297.817 33.1988C297.817 33.9652 297.74 34.7312 297.586 35.4972H295.362H271.121C271.53 37.077 272.387 38.4776 273.691 39.6985Z" fill="#472667"/>
<path fill-rule="evenodd" clip-rule="evenodd" d="M214.173 31.2563C216.272 31.2563 217.984 29.6535 217.984 27.6897C217.984 25.7237 216.272 24.122 214.173 24.122C212.075 24.122 210.364 25.7237 210.364 27.6897C210.364 29.6535 212.075 31.2563 214.173 31.2563Z" fill="#17A1C8"/>
<path fill-rule="evenodd" clip-rule="evenodd" d="M208.98 24.554C210.475 24.554 211.696 23.4118 211.696 22.0104C211.696 20.609 210.475 19.4668 208.98 19.4668C207.484 19.4668 206.263 20.609 206.263 22.0104C206.263 23.4118 207.484 24.554 208.98 24.554Z" fill="#CB1F49"/>
<path fill-rule="evenodd" clip-rule="evenodd" d="M203.362 21.6515C204.249 21.4141 204.779 20.4971 204.541 19.61C204.303 18.7228 203.385 18.1936 202.498 18.431C201.611 18.6684 201.081 19.5853 201.319 20.4725C201.557 21.3597 202.475 21.8889 203.362 21.6515Z" fill="#919113"/>
<path fill-rule="evenodd" clip-rule="evenodd" d="M210.417 32.8987C210.417 38.0898 205.922 42.298 200.377 42.298V49.3374C210.075 49.3374 217.936 41.9778 217.936 32.8987H210.417ZM182.818 32.8987C182.818 23.8196 190.678 16.4603 200.377 16.4603V23.4994C194.831 23.4994 190.337 27.7079 190.337 32.8987H182.818Z" fill="#913276"/>
<path fill-rule="evenodd" clip-rule="evenodd" d="M186.577 41.676C188.676 41.676 190.387 40.0732 190.387 38.1083C190.387 36.1434 188.676 34.5416 186.577 34.5416C184.479 34.5416 182.767 36.1434 182.767 38.1083C182.767 40.0732 184.479 41.676 186.577 41.676Z" fill="#17A1C8"/>
<path fill-rule="evenodd" clip-rule="evenodd" d="M191.778 46.3306C193.274 46.3306 194.495 45.1884 194.495 43.787C194.495 42.3856 193.274 41.2434 191.778 41.2434C190.283 41.2434 189.062 42.3856 189.062 43.787C189.062 45.1884 190.283 46.3306 191.778 46.3306Z" fill="#CB1F49"/>
<path fill-rule="evenodd" clip-rule="evenodd" d="M197.355 48.318C198.242 48.0806 198.773 47.1636 198.535 46.2765C198.297 45.3893 197.379 44.8601 196.491 45.0975C195.604 45.3349 195.074 46.2518 195.312 47.139C195.55 48.0262 196.468 48.5554 197.355 48.318Z" fill="#919113"/>
</svg>
