<svg width="36" height="36" viewBox="0 0 36 36" fill="none" xmlns="http://www.w3.org/2000/svg">
<rect x="0.5" y="0.5" width="35" height="35" stroke="white" stroke-opacity="0.4"/>
<path d="M24.3438 14.75C24.3438 14.9062 24.3438 15.0312 24.3438 15.1875C24.3438 19.5312 21.0625 24.5 15.0312 24.5C13.1562 24.5 11.4375 23.9688 10 23.0312C10.25 23.0625 10.5 23.0938 10.7812 23.0938C12.3125 23.0938 13.7188 22.5625 14.8438 21.6875C13.4062 21.6562 12.1875 20.7188 11.7812 19.4062C12 19.4375 12.1875 19.4688 12.4062 19.4688C12.6875 19.4688 13 19.4062 13.25 19.3438C11.75 19.0312 10.625 17.7188 10.625 16.125V16.0938C11.0625 16.3438 11.5938 16.4688 12.125 16.5C11.2188 15.9062 10.6562 14.9062 10.6562 13.7812C10.6562 13.1562 10.8125 12.5938 11.0938 12.125C12.7188 14.0938 15.1562 15.4062 17.875 15.5625C17.8125 15.3125 17.7812 15.0625 17.7812 14.8125C17.7812 13 19.25 11.5312 21.0625 11.5312C22 11.5312 22.8438 11.9062 23.4688 12.5625C24.1875 12.4062 24.9062 12.125 25.5312 11.75C25.2812 12.5312 24.7812 13.1562 24.0938 13.5625C24.75 13.5 25.4062 13.3125 25.9688 13.0625C25.5312 13.7188 24.9688 14.2812 24.3438 14.75Z" fill="white" fill-opacity="0.8"/>
</svg>
