<svg width="110" height="112" viewBox="0 0 110 112" fill="none" xmlns="http://www.w3.org/2000/svg">
<rect x="0.5" y="0.5" width="109" height="111" rx="17.5" fill="#F7F7FD" stroke="#4C535F" stroke-dasharray="5 5"/>
<path d="M26.423 67.29C26.423 69.8753 25.3403 71.168 23.175 71.168C21.0097 71.168 19.927 69.8753 19.927 67.29V62.138H21.243V67.584C21.243 69.2267 21.887 70.048 23.175 70.048C24.463 70.048 25.107 69.2267 25.107 67.584V62.138H26.423V67.29ZM28.7688 64.644H29.7068L29.8468 65.302C30.3694 64.7513 31.0134 64.476 31.7788 64.476C32.7214 64.476 33.4634 64.8213 34.0048 65.512C34.4621 66.0907 34.6908 66.8187 34.6908 67.696C34.6908 68.8533 34.3548 69.7493 33.6828 70.384C33.1414 70.9067 32.4834 71.168 31.7088 71.168C30.9714 71.168 30.3928 70.944 29.9728 70.496V73.506H28.7688V64.644ZM29.9728 66.618V69.166C30.0381 69.4553 30.2201 69.7073 30.5188 69.922C30.8174 70.1367 31.1394 70.244 31.4848 70.244C32.0541 70.244 32.5161 70.02 32.8708 69.572C33.2254 69.124 33.4028 68.5453 33.4028 67.836C33.4028 67.024 33.2161 66.4033 32.8428 65.974C32.5161 65.6007 32.0961 65.414 31.5828 65.414C31.2374 65.414 30.9014 65.54 30.5748 65.792C30.2481 66.0347 30.0474 66.31 29.9728 66.618ZM37.6564 61.97V71H36.4524V62.614L37.6564 61.97ZM42.531 71.168C41.5696 71.168 40.7903 70.8087 40.193 70.09C39.6796 69.474 39.423 68.7227 39.423 67.836C39.423 66.8093 39.7356 65.9787 40.361 65.344C40.921 64.7653 41.6396 64.476 42.517 64.476C43.525 64.476 44.3183 64.8447 44.897 65.582C45.373 66.198 45.611 66.9493 45.611 67.836C45.611 68.8533 45.2843 69.684 44.631 70.328C44.0523 70.888 43.3523 71.168 42.531 71.168ZM42.503 70.216C43.063 70.216 43.5063 70.0013 43.833 69.572C44.169 69.1427 44.337 68.564 44.337 67.836C44.337 67.08 44.1596 66.478 43.805 66.03C43.4783 65.61 43.049 65.4 42.517 65.4C41.9756 65.4 41.537 65.624 41.201 66.072C40.865 66.52 40.697 67.108 40.697 67.836C40.697 68.62 40.8836 69.2267 41.257 69.656C41.5836 70.0293 41.999 70.216 42.503 70.216ZM52.1922 71H51.2542L51.1142 70.342C50.6102 70.8927 49.9288 71.168 49.0702 71.168C48.4168 71.168 47.8988 70.9907 47.5162 70.636C47.1428 70.272 46.9562 69.782 46.9562 69.166C46.9562 68.466 47.2408 67.9293 47.8102 67.556C48.3888 67.1733 49.2055 66.982 50.2602 66.982H51.0022V66.912C51.0022 65.9413 50.5122 65.456 49.5322 65.456C48.9068 65.456 48.3235 65.6567 47.7822 66.058L47.4182 65.414C48.1462 64.7887 48.9815 64.476 49.9242 64.476C51.4362 64.476 52.1922 65.3767 52.1922 67.178V71ZM50.9882 67.794H50.3722C48.9348 67.794 48.2162 68.2233 48.2162 69.082C48.2162 69.4367 48.3188 69.7167 48.5242 69.922C48.7388 70.1273 49.0235 70.23 49.3782 70.23C49.7328 70.23 50.0642 70.1413 50.3722 69.964C50.6802 69.7773 50.8855 69.544 50.9882 69.264V67.794ZM58.8718 71L58.6898 70.328C58.2698 70.888 57.6398 71.168 56.7998 71.168C55.8572 71.168 55.1152 70.8227 54.5738 70.132C54.1165 69.5533 53.8878 68.8253 53.8878 67.948C53.8878 66.7907 54.2238 65.8947 54.8958 65.26C55.4372 64.7373 56.0952 64.476 56.8698 64.476C57.5792 64.476 58.1578 64.7 58.6058 65.148V62.67L59.8098 61.998V71H58.8718ZM58.6058 68.998V66.478C58.5405 66.1887 58.3538 65.9367 58.0458 65.722C57.7472 65.5073 57.4252 65.4 57.0798 65.4C56.5105 65.4 56.0485 65.624 55.6938 66.072C55.3392 66.52 55.1618 67.0987 55.1618 67.808C55.1618 68.62 55.3485 69.2407 55.7218 69.67C56.0485 70.0433 56.4685 70.23 56.9818 70.23C57.3365 70.23 57.6678 70.1133 57.9758 69.88C58.2932 69.6373 58.5032 69.3433 58.6058 68.998ZM70.551 64.644L67.821 71.952C67.3823 73.1 66.7897 73.674 66.043 73.674C65.539 73.674 65.0163 73.4733 64.475 73.072L64.839 72.456C65.1563 72.6427 65.4317 72.736 65.665 72.736C66.0943 72.736 66.435 72.428 66.687 71.812L67.009 71H66.757L64.377 64.644H65.623L67.429 69.684L69.291 64.644H70.551ZM74.4001 71.168C73.4388 71.168 72.6595 70.8087 72.0621 70.09C71.5488 69.474 71.2921 68.7227 71.2921 67.836C71.2921 66.8093 71.6048 65.9787 72.2301 65.344C72.7901 64.7653 73.5088 64.476 74.3861 64.476C75.3941 64.476 76.1875 64.8447 76.7661 65.582C77.2421 66.198 77.4801 66.9493 77.4801 67.836C77.4801 68.8533 77.1535 69.684 76.5001 70.328C75.9215 70.888 75.2215 71.168 74.4001 71.168ZM74.3721 70.216C74.9321 70.216 75.3755 70.0013 75.7021 69.572C76.0381 69.1427 76.2061 68.564 76.2061 67.836C76.2061 67.08 76.0288 66.478 75.6741 66.03C75.3475 65.61 74.9181 65.4 74.3861 65.4C73.8448 65.4 73.4061 65.624 73.0701 66.072C72.7341 66.52 72.5661 67.108 72.5661 67.836C72.5661 68.62 72.7528 69.2267 73.1261 69.656C73.4528 70.0293 73.8681 70.216 74.3721 70.216ZM83.3333 64.644H84.5373V71H83.6133L83.5153 70.272H83.4313C83.2167 70.5333 82.9227 70.748 82.5493 70.916C82.1853 71.084 81.826 71.168 81.4713 71.168C79.9873 71.168 79.2453 70.2627 79.2453 68.452V64.644H80.4493V68.186C80.4493 69.4833 80.916 70.132 81.8493 70.132C82.12 70.132 82.4 70.062 82.6893 69.922C82.9787 69.782 83.1933 69.614 83.3333 69.418V64.644ZM87.8718 65.274H87.9278C88.3665 64.742 88.8798 64.476 89.4678 64.476C90.2145 64.476 90.7652 64.7653 91.1198 65.344L90.1118 65.974C89.8038 65.666 89.4678 65.512 89.1038 65.512C88.6372 65.512 88.2452 65.75 87.9278 66.226V71H86.7238V64.644H87.7598L87.8718 65.274ZM45.5591 88V79.138H50.9631V80.216H46.8611V82.876H50.3051V83.954H46.8611V88H45.5591ZM53.9129 81.644V88H52.7089V81.644H53.9129ZM52.6109 79.684C52.6109 79.488 52.6809 79.32 52.8209 79.18C52.9609 79.04 53.1289 78.97 53.3249 78.97C53.5209 78.97 53.6889 79.04 53.8289 79.18C53.9782 79.32 54.0529 79.488 54.0529 79.684C54.0529 79.8893 53.9829 80.062 53.8429 80.202C53.7029 80.342 53.5302 80.412 53.3249 80.412C53.1195 80.412 52.9469 80.342 52.8069 80.202C52.6762 80.062 52.6109 79.8893 52.6109 79.684ZM57.3302 78.97V88H56.1262V79.614L57.3302 78.97ZM64.9208 85.228H60.4408C60.5061 85.844 60.7301 86.334 61.1128 86.698C61.4955 87.0527 61.9855 87.23 62.5828 87.23C63.1615 87.23 63.7495 87.0527 64.3468 86.698L64.7108 87.384C64.0575 87.9067 63.2828 88.168 62.3868 88.168C61.3601 88.168 60.5435 87.846 59.9368 87.202C59.3768 86.6047 59.0968 85.8207 59.0968 84.85C59.0968 83.8607 59.4001 83.0347 60.0068 82.372C60.5575 81.7747 61.2341 81.476 62.0368 81.476C63.0168 81.476 63.7681 81.8447 64.2908 82.582C64.7108 83.17 64.9208 83.912 64.9208 84.808V85.228ZM60.3988 84.29H63.6888C63.6701 83.6833 63.5161 83.2167 63.2268 82.89C62.9468 82.554 62.5641 82.386 62.0788 82.386C61.6121 82.386 61.2248 82.5587 60.9168 82.904C60.6181 83.2493 60.4455 83.7113 60.3988 84.29Z" fill="#4C535F"/>
<path d="M46.75 20.75C45.0369 21.0323 43.8011 21.557 42.8369 22.5323C40.75 24.6432 40.75 28.0407 40.75 34.8358C40.75 41.6306 40.75 45.0281 42.8369 47.139C44.9237 49.25 48.2825 49.25 55 49.25C61.7175 49.25 65.0763 49.25 67.1632 47.139C69.25 45.0281 69.25 41.6306 69.25 34.8358C69.25 28.0407 69.25 24.6432 67.1632 22.5323C66.1989 21.557 64.9631 21.0323 63.25 20.75" stroke="#8D98AA" stroke-width="3" stroke-linecap="round" stroke-linejoin="round"/>
<path d="M51.25 24.5C51.9873 23.7415 53.9497 20.75 55 20.75M55 20.75C56.0503 20.75 58.0128 23.7415 58.75 24.5M55 20.75V32.75" stroke="#8D98AA" stroke-width="3" stroke-linecap="round" stroke-linejoin="round"/>
<path d="M69.25 37.25H61.8615C60.5983 37.25 59.6059 38.3054 59.0493 39.4208C58.4445 40.6326 57.2333 41.75 55 41.75C52.7667 41.75 51.5556 40.6326 50.9508 39.4208C50.3941 38.3054 49.4017 37.25 48.1385 37.25H40.75" stroke="#8D98AA" stroke-width="3" stroke-linejoin="round"/>
</svg>
