<svg width="60" height="60" viewBox="0 0 60 60" fill="none" xmlns="http://www.w3.org/2000/svg">
<path d="M41.2568 33.7097C38.5018 33.7097 35.8598 34.8049 33.91 36.7523C31.9626 38.7019 30.8696 41.344 30.8696 44.099C30.8696 46.854 31.9647 49.496 33.9143 51.4436C35.8617 53.391 38.5038 54.4841 41.2588 54.4841C44.0138 54.4819 46.6558 53.3868 48.6034 51.4372C50.5508 49.4898 51.6439 46.8456 51.6417 44.0905C51.6375 41.3376 50.5423 38.6999 48.5949 36.7547C46.6474 34.8072 44.0096 33.714 41.2568 33.7097ZM36.8186 42.4839L36.45 42.7737C35.8875 43.2275 35.6616 43.9817 35.8811 44.67C36.1921 45.6523 35.8896 46.7261 35.114 47.4037L33.6758 48.6927C33.499 48.8504 33.2284 48.8334 33.0707 48.6565C32.9152 48.4797 32.9301 48.2091 33.1091 48.0514L34.5451 46.7666C35.0629 46.3085 35.2632 45.5905 35.0565 44.932C34.7262 43.8987 35.0693 42.7651 35.9215 42.0919L36.2901 41.8021C36.9805 41.2545 37.1531 40.2786 36.6928 39.5286L35.5572 37.6472C35.4912 37.4619 35.5593 37.2552 35.7234 37.1465C35.8896 37.04 36.1069 37.0592 36.2497 37.1934L37.4194 39.0748H37.4215C38.1182 40.1977 37.8584 41.6657 36.8186 42.4839ZM50.5635 43.5236C50.5592 43.758 50.3717 43.9455 50.1374 43.9498H46.8923C45.7844 43.9519 44.7744 44.5869 44.2908 45.5861C43.7602 46.6963 42.7162 47.4718 41.4996 47.6593L41.2439 47.6998C40.4172 47.8319 39.6864 48.3156 39.2453 49.0272C38.8021 49.7389 38.6892 50.6082 38.9385 51.4093L39.1942 52.2211C39.2283 52.3298 39.2197 52.447 39.1665 52.5471C39.1153 52.6473 39.0237 52.724 38.915 52.7559C38.8746 52.7644 38.832 52.7644 38.7893 52.7559C38.6018 52.7538 38.4378 52.6323 38.3802 52.4555L38.1246 51.6437V51.6416C37.7986 50.6039 37.9435 49.4768 38.5166 48.5521C39.0919 47.6295 40.0401 47.0031 41.1139 46.8347L41.3696 46.7943V46.7964C42.3007 46.6558 43.104 46.0699 43.5237 45.2282C44.148 43.9349 45.4562 43.1103 46.8923 43.1082H50.1373C50.3674 43.1082 50.5571 43.2914 50.5635 43.5236ZM49.2446 39.1153V39.1132C49.4108 39.2793 49.4108 39.5499 49.2446 39.7162L48.3987 40.5684C48.1174 40.8475 47.7382 41.0052 47.3419 41.0052H42.893C42.0834 41.0031 41.4229 40.3554 41.4037 39.5457C41.4143 39.1984 41.1437 38.9086 40.7964 38.8916H39.8525C39.0301 38.8916 38.3631 38.2268 38.3631 37.4043V36.1366C38.3631 35.9022 38.5549 35.7105 38.7893 35.7105C39.0258 35.7105 39.2154 35.9022 39.2154 36.1366V37.398C39.2154 37.7495 39.5009 38.035 39.8525 38.035H40.7964C41.6167 38.05 42.2687 38.7254 42.2559 39.5457C42.2559 39.8972 42.5415 40.1828 42.893 40.1828H47.3419C47.5123 40.1806 47.6743 40.1146 47.7957 39.9953L48.6416 39.143C48.8035 38.9704 49.0741 38.964 49.2446 39.126L49.2446 39.1153ZM17.9938 42.0236V36.7055L15.3923 39.3028V39.3006C15.3135 39.3816 15.2048 39.4285 15.0919 39.4285C14.9768 39.4285 14.8682 39.3816 14.7893 39.3006C14.6231 39.1344 14.6231 38.866 14.7893 38.6998L17.3461 36.1366C17.6231 35.8553 17.9981 35.6976 18.3923 35.6998C18.7865 35.6998 19.1658 35.8574 19.4428 36.1366L22.0464 38.7338C22.1274 38.8127 22.1721 38.9213 22.1721 39.0343C22.1721 39.1472 22.1274 39.2559 22.0464 39.3347C21.9676 39.4157 21.8568 39.4625 21.7439 39.4604C21.6309 39.4604 21.5223 39.4157 21.4434 39.3347L18.8462 36.7374H18.8185V42.0513C18.8185 42.7332 19.3703 43.2871 20.0521 43.2892H27.1599C27.3943 43.2892 27.5861 43.481 27.5861 43.7154C27.5861 43.9519 27.3943 44.1415 27.1599 44.1415H20.0565C19.5004 44.1415 18.9677 43.9178 18.5757 43.5215C18.1858 43.1252 17.9684 42.5904 17.9727 42.0343L17.9938 42.0236ZM40.0848 30.1644V24.8462C40.0741 24.175 39.5244 23.6359 38.8532 23.6359H31.7389C31.5045 23.6359 31.3127 23.4463 31.3127 23.2098C31.3127 22.9754 31.5045 22.7837 31.7389 22.7837H38.8532C40.0038 22.7837 40.937 23.7169 40.937 24.8696V30.1878L43.5343 27.5862C43.7048 27.4222 43.9732 27.4222 44.1416 27.5862C44.3078 27.7524 44.3078 28.0209 44.1416 28.1871L41.54 30.7886V30.7908C41.2609 31.0678 40.8838 31.2233 40.4896 31.2212C40.0975 31.2233 39.7204 31.0678 39.4434 30.7908L36.8419 28.1892V28.1871C36.7566 28.1083 36.7076 27.9996 36.7055 27.8845C36.7034 27.7674 36.7481 27.6566 36.8312 27.5756C36.9122 27.4925 37.023 27.4477 37.1402 27.4499C37.2552 27.452 37.3639 27.501 37.4427 27.5862L40.0443 30.1878C40.0464 30.1878 40.0805 30.1537 40.0848 30.1644ZM27.9102 13.2106C27.891 11.9812 26.9002 10.9904 25.6709 10.9712H10.5961C9.36885 10.9904 8.37596 11.9812 8.35889 13.2106V14.7617C8.35889 15.9975 9.36029 17.0011 10.5961 17.0011H25.6709C26.9066 17.0011 27.9102 15.9976 27.9102 14.7617V13.2106ZM11.5679 14.4272H10.6815C10.5664 14.4272 10.4535 14.3824 10.3704 14.2993C10.2894 14.2184 10.2426 14.1055 10.2447 13.9883C10.2426 13.8711 10.2894 13.7582 10.3704 13.6751C10.4535 13.592 10.5643 13.5451 10.6815 13.5451H11.5679C11.685 13.5451 11.798 13.592 11.8789 13.6751C11.962 13.7582 12.0068 13.8711 12.0068 13.9883C12.0068 14.1055 11.962 14.2184 11.8789 14.2993C11.798 14.3824 11.685 14.4272 11.5679 14.4272ZM14.0906 14.4272H13.2042C13.0892 14.4272 12.9762 14.3824 12.8931 14.2993C12.8122 14.2184 12.7653 14.1055 12.7674 13.9883C12.7653 13.8711 12.8122 13.7582 12.8931 13.6751C12.9762 13.592 13.087 13.5451 13.2042 13.5451H14.0906C14.3335 13.5493 14.5295 13.7454 14.5295 13.9883C14.5295 14.2312 14.3335 14.4272 14.0906 14.4272ZM16.6133 14.4272H15.7269C15.6076 14.4272 15.4947 14.3803 15.4095 14.2972C15.3264 14.212 15.2816 14.0969 15.2838 13.9776C15.2838 13.7326 15.4819 13.5344 15.7269 13.5344H16.6133C16.8562 13.5366 17.0522 13.7347 17.0522 13.9776C17.0544 14.0948 17.0096 14.2099 16.9265 14.2951C16.8455 14.3782 16.7326 14.4272 16.6133 14.4272ZM25.5795 14.4272H19.3918C19.2768 14.4272 19.1639 14.3824 19.0808 14.2993C18.9998 14.2184 18.9529 14.1055 18.9551 13.9883C18.9529 13.8711 18.9998 13.7582 19.0808 13.6751C19.1639 13.592 19.2747 13.5451 19.3918 13.5451H25.5795C25.8203 13.5451 26.0163 13.7368 26.0227 13.9776C26.0269 14.0969 25.9801 14.212 25.897 14.2972C25.8139 14.3803 25.6988 14.4272 25.5795 14.4272ZM27.9104 21.9316C27.9104 21.3392 27.6739 20.7682 27.2542 20.3485C26.8344 19.9287 26.2656 19.6944 25.6711 19.6944H10.5964C9.36061 19.6944 8.35916 20.6958 8.35916 21.9316V23.4828C8.37621 24.7122 9.36912 25.7029 10.5964 25.7221H25.6711C26.9005 25.703 27.8913 24.7122 27.9105 23.4828L27.9104 21.9316ZM11.5681 23.1716H10.6817C10.5645 23.1716 10.4537 23.1247 10.3706 23.0416C10.2897 22.9585 10.2428 22.8456 10.2449 22.7284C10.2428 22.6112 10.2897 22.4983 10.3706 22.4173C10.4537 22.3342 10.5667 22.2895 10.6817 22.2895H11.5681C11.6853 22.2895 11.7982 22.3342 11.8791 22.4173C11.9622 22.4983 12.007 22.6112 12.007 22.7284C12.007 22.8456 11.9622 22.9585 11.8791 23.0416C11.7982 23.1247 11.6853 23.1716 11.5681 23.1716ZM14.0908 23.1716H13.2044C13.0872 23.1716 12.9764 23.1247 12.8934 23.0416C12.8124 22.9585 12.7655 22.8456 12.7676 22.7284C12.7655 22.6112 12.8124 22.4983 12.8934 22.4173C12.9764 22.3342 13.0894 22.2895 13.2044 22.2895H14.0908C14.3337 22.2895 14.5297 22.4855 14.5297 22.7284C14.5297 22.9713 14.3337 23.1673 14.0908 23.1716ZM16.6135 23.1716H15.7272C15.4821 23.1716 15.284 22.9734 15.284 22.7284C15.284 22.6112 15.3309 22.4983 15.4139 22.4173C15.497 22.3342 15.61 22.2895 15.7272 22.2895H16.6135C16.8564 22.2895 17.0524 22.4855 17.0524 22.7284C17.0524 22.9713 16.8564 23.1673 16.6135 23.1716ZM25.5797 23.1716H19.3921C19.2749 23.1716 19.1641 23.1247 19.081 23.0416C19 22.9585 18.9531 22.8456 18.9553 22.7284C18.9531 22.6112 19 22.4983 19.081 22.4173C19.1641 22.3342 19.277 22.2895 19.3921 22.2895H25.5797C25.6969 22.2895 25.8098 22.3342 25.8929 22.4173C25.976 22.4983 26.0229 22.6112 26.0229 22.7284C26.0229 22.8456 25.976 22.9585 25.8929 23.0416C25.8098 23.1247 25.6969 23.1716 25.5797 23.1716ZM27.9085 30.695L27.9107 30.6929C27.8915 29.4656 26.9007 28.4728 25.6713 28.4557H10.5966C9.36929 28.4727 8.3764 29.4656 8.35933 30.6929V32.2441C8.37637 33.4735 9.36929 34.4642 10.5966 34.4834H25.6713C26.9007 34.4643 27.8915 33.4735 27.9107 32.2441L27.9085 30.695ZM11.5683 31.9096H10.682C10.4369 31.9096 10.2388 31.7114 10.2388 31.4664C10.2388 31.2213 10.4369 31.0232 10.682 31.0232H11.5683C11.7921 31.0488 11.9625 31.2384 11.9625 31.4642C11.9625 31.688 11.7921 31.8776 11.5683 31.9032V31.9096ZM14.0911 31.9096H13.2047C12.981 31.884 12.8127 31.6944 12.8127 31.4685C12.8127 31.2448 12.981 31.0552 13.2047 31.0296H14.0911C14.3148 31.0552 14.4852 31.2448 14.4852 31.4685C14.4852 31.6944 14.3148 31.884 14.0911 31.9096ZM16.6138 31.9096H15.7274C15.6017 31.9245 15.4781 31.884 15.3823 31.8009C15.2885 31.7157 15.2352 31.5963 15.2352 31.4685C15.2352 31.3428 15.2885 31.2235 15.3823 31.1382C15.4781 31.0552 15.6017 31.0147 15.7274 31.0296H16.6138C16.8375 31.0551 17.008 31.2448 17.008 31.4685C17.008 31.6944 16.8375 31.884 16.6138 31.9096ZM25.58 31.9096H19.3923C19.1686 31.884 19.0003 31.6944 19.0003 31.4685C19.0003 31.2448 19.1686 31.0552 19.3923 31.0296H25.58C25.7057 31.0147 25.8314 31.0552 25.9251 31.1382C26.021 31.2235 26.0743 31.3428 26.0743 31.4685C26.0743 31.5963 26.021 31.7157 25.9251 31.8009C25.8314 31.884 25.7057 31.9245 25.58 31.9096ZM10.5969 18.8421H10.3817V17.8641H10.5969H25.8822V18.8527H25.6712L10.5969 18.8421ZM10.5969 27.5803H10.3817V26.6023H10.5969H25.6716H25.8826V27.6144H25.6716L10.5969 27.5803Z" fill="#CB1F49"/>
</svg>
