<svg width="70" height="70" viewBox="0 0 70 70" fill="none" xmlns="http://www.w3.org/2000/svg">
<rect width="70" height="70" fill="#1E1E1E"/>
<g id="Transfer Domains to Us">
<g clip-path="url(#clip0_0_1)">
<rect x="-120" y="-2475" width="1728" height="6692" rx="20" fill="white"/>
<g id="Group 1000004939">
<g id="Grid - Header">
<mask id="mask0_0_1" style="mask-type:alpha" maskUnits="userSpaceOnUse" x="-30" y="-263" width="349" height="122">
<path id="Union" opacity="0.7" fill-rule="evenodd" clip-rule="evenodd" d="M-20.9458 -249.346C-11.0744 -244.671 8.66855 -231.574 8.66855 -216.586C8.66855 -215.537 8.65197 -214.303 8.6333 -212.913C8.31841 -189.477 7.40712 -121.65 75.3008 -147.32C84.9109 -150.954 94.7853 -154.488 104.493 -157.962C117.865 -162.748 130.92 -167.42 142.53 -172.083C183.748 -148.394 222.139 -133.525 264.914 -165.211C322.627 -207.963 338.66 -281.116 290.863 -255.556C282.478 -250.185 258.332 -239.134 228.832 -237.893C226.767 -237.806 224.337 -237.713 221.6 -237.607C203.725 -236.918 172.739 -235.722 144.738 -232.649C64.1114 -262.517 -65.4034 -274.517 -20.9458 -249.346Z" fill="url(#paint0_linear_0_1)"/>
</mask>
<g mask="url(#mask0_0_1)">
</g>
</g>
</g>
<rect id="Rectangle 619" x="-30" y="-30" width="756" height="263" rx="30" fill="#FAF7FD"/>
<g id="Component 3" clip-path="url(#clip1_0_1)">
<path id="Vector" d="M55.2637 6.35059H64.1294" stroke="#913276" stroke-width="1.16124" stroke-miterlimit="10" stroke-linecap="round" stroke-linejoin="round"/>
<path id="Vector_2" d="M50.2285 6.35059H51.3092" stroke="#913276" stroke-width="1.16124" stroke-miterlimit="10" stroke-linecap="round" stroke-linejoin="round"/>
<path id="Vector_3" d="M50.2285 11.124H64.129" stroke="#913276" stroke-width="1.16124" stroke-miterlimit="10" stroke-linecap="round" stroke-linejoin="round"/>
<path id="Vector_4" d="M43.0961 24.7637V28.921C43.0961 30.6383 41.7041 32.0302 39.9868 32.0302H37.4238" stroke="#CB1F49" stroke-width="1.16124" stroke-miterlimit="10" stroke-linecap="round" stroke-linejoin="round"/>
<path id="Vector_5" d="M51.5152 64.2241H3.53055C2.32385 64.2241 1.3457 65.2022 1.3457 66.4089C1.3457 67.6155 2.32385 68.5936 3.53055 68.5936H51.5152C52.7221 68.5936 53.7002 67.6155 53.7002 66.4089C53.7002 65.2022 52.7221 64.2241 51.5152 64.2241Z" stroke="#CB1F49" stroke-width="1.16124" stroke-miterlimit="10" stroke-linecap="round" stroke-linejoin="round"/>
<path id="Vector_6" d="M30.2496 64.2244C30.2496 62.4338 30.9203 60.7125 32.1183 59.3819C32.1272 59.3719 32.1362 59.3619 32.1451 59.3518C33.1248 58.2559 33.7205 56.8095 33.7205 55.2237C33.7205 52.9129 32.4555 50.8976 30.5802 49.8321C30.2244 49.6299 29.7827 49.8842 29.7827 50.2933V54.9037C29.7827 55.6766 29.1562 56.3029 28.3832 56.3029H26.6633C25.8906 56.3029 25.2639 55.6766 25.2639 54.9037V50.2933C25.2639 49.8842 24.822 49.6299 24.4662 49.8321C22.5912 50.8976 21.3262 52.9129 21.3262 55.2237C21.3262 56.8095 21.9218 58.2559 22.9014 59.3518C22.9105 59.3619 22.9193 59.3719 22.9284 59.3819C24.1262 60.7125 24.7971 62.4338 24.7971 64.2244" stroke="#CB1F49" stroke-width="1.16124" stroke-miterlimit="10" stroke-linecap="round" stroke-linejoin="round"/>
<path id="Vector_7" d="M6.58398 60.2593L6.79913 64.2244" stroke="#CB1F49" stroke-width="1.16124" stroke-miterlimit="10" stroke-linecap="round" stroke-linejoin="round"/>
<path id="Vector_8" d="M48.2474 64.2245L49.2545 45.6719C49.3513 43.8854 47.9291 42.3838 46.14 42.3838H8.90712C7.11814 42.3838 5.69577 43.8854 5.79277 45.6719L6.32844 55.5435" stroke="#CB1F49" stroke-width="1.16124" stroke-miterlimit="10" stroke-linecap="round" stroke-linejoin="round"/>
<path id="Vector_9" d="M52.8874 64.7097V60.4533C52.8874 56.3538 51.4629 52.537 49.0449 49.522" stroke="#CB1F49" stroke-width="1.16124" stroke-miterlimit="10" stroke-linecap="round" stroke-linejoin="round"/>
<path id="Vector_10" d="M6.0016 49.522C3.5836 52.537 2.15918 56.3538 2.15918 60.4533V64.7097" stroke="#CB1F49" stroke-width="1.16124" stroke-miterlimit="10" stroke-linecap="round" stroke-linejoin="round"/>
<path id="Vector_11" d="M37.8675 9.67999H37.7535C37.1228 9.67999 36.6116 9.16885 36.6116 8.5382C36.6116 6.67091 35.0981 5.15723 33.2307 5.15723H22.4699C17.6809 5.15723 13.7988 9.03933 13.7988 13.8283V19.5586C13.7988 20.4004 14.3314 21.1499 15.1264 21.4267L17.2622 22.1703C18.0088 22.4304 18.7885 21.8752 18.7873 21.0847L18.7824 17.044C18.7743 15.0789 20.3414 13.4791 22.2828 13.4706L22.3251 13.4705C22.9194 13.4679 23.5072 13.5601 24.0685 13.7407C25.0632 14.0602 26.0939 14.254 27.1387 14.2495H27.9084C28.9532 14.254 29.9839 14.0602 30.9786 13.7407C31.5399 13.5601 32.1277 13.4679 32.722 13.4705L32.7643 13.4706C34.7057 13.4791 36.2727 15.0789 36.2647 17.044L36.2608 21.085C36.2597 21.8756 37.0392 22.4304 37.7857 22.1703L39.9209 21.4267C40.7157 21.1499 41.2483 20.4005 41.2483 19.5587V13.061C41.2483 11.1937 39.7346 9.67999 37.8675 9.67999Z" stroke="#CB1F49" stroke-width="1.16124" stroke-miterlimit="10" stroke-linecap="round" stroke-linejoin="round"/>
<path id="Vector_12" d="M16.4346 27.3193H16.4534C16.5283 30.2665 17.7638 33.0984 19.9825 35.0157C21.769 36.5593 24.2763 37.9025 27.5813 37.9258C30.8859 37.8744 33.3822 36.5097 35.1554 34.951C37.3145 33.0531 38.5186 30.2846 38.6131 27.3997" stroke="#CB1F49" stroke-width="1.16124" stroke-miterlimit="10" stroke-linecap="round" stroke-linejoin="round"/>
<path id="Vector_13" d="M13.7988 19.1138C12.7479 19.3072 11.9512 20.2262 11.9512 21.3332V25.1923C11.9512 26.4398 12.9624 27.451 14.2099 27.451H16.4344V21.8824" stroke="#CB1F49" stroke-width="1.16124" stroke-miterlimit="10" stroke-linecap="round" stroke-linejoin="round"/>
<path id="Vector_14" d="M38.6133 21.8825V27.4509H40.8378C42.0851 27.4509 43.0964 26.4397 43.0964 25.1923V21.3332C43.0964 20.2262 42.2997 19.3071 41.2488 19.1138" stroke="#CB1F49" stroke-width="1.16124" stroke-miterlimit="10" stroke-linecap="round" stroke-linejoin="round"/>
<path id="Vector_15" d="M35.1913 33.6256H32.6415C31.6686 33.6256 30.8799 32.837 30.8799 31.8641C30.8799 30.8911 31.6686 30.1025 32.6415 30.1025H35.1913C36.1642 30.1025 36.9529 30.8911 36.9529 31.8641C36.9529 32.837 36.1642 33.6256 35.1913 33.6256Z" stroke="#CB1F49" stroke-width="1.16124" stroke-miterlimit="10" stroke-linecap="round" stroke-linejoin="round"/>
<path id="Vector_16" d="M34.7297 42.3836C33.7961 41.8775 33.1797 40.893 33.1797 39.7845V36.3784" stroke="#CB1F49" stroke-width="1.16124" stroke-miterlimit="10" stroke-linecap="round" stroke-linejoin="round"/>
<path id="Vector_17" d="M21.8675 36.3677V39.7843C21.8675 40.9119 21.2331 41.8839 20.3145 42.3835" stroke="#CB1F49" stroke-width="1.16124" stroke-miterlimit="10" stroke-linecap="round" stroke-linejoin="round"/>
<path id="Vector_18" d="M68.678 6.26768V4.30109C68.678 2.66912 67.3551 1.34619 65.7231 1.34619H48.6338C47.0017 1.34619 45.6787 2.66912 45.6787 4.30109V12.8481C45.6787 14.4801 47.0017 15.8029 48.6338 15.8029C49.5869 15.8029 50.3594 16.5756 50.3594 17.5287V22.8144C50.3594 23.4853 51.2432 23.73 51.5882 23.1546L55.4942 16.6412C55.806 16.1212 56.3678 15.8029 56.9742 15.8029H65.7231C67.3551 15.8029 68.678 14.4801 68.678 12.8481V11.0181" stroke="#913276" stroke-width="1.16124" stroke-miterlimit="10" stroke-linecap="round" stroke-linejoin="round"/>
</g>
</g>
</g>
<defs>
<linearGradient id="paint0_linear_0_1" x1="315.334" y1="-270.671" x2="237.927" y2="-111.839" gradientUnits="userSpaceOnUse">
<stop stop-color="white"/>
<stop offset="1" stop-color="white"/>
</linearGradient>
<clipPath id="clip0_0_1">
<rect x="-120" y="-2475" width="1728" height="6692" rx="20" fill="white"/>
</clipPath>
<clipPath id="clip1_0_1">
<rect width="70" height="70" fill="white"/>
</clipPath>
</defs>
</svg>
