<svg width="70" height="70" viewBox="0 0 70 70" fill="none" xmlns="http://www.w3.org/2000/svg">
<g clip-path="url(#clip0_72_4387)">
<path d="M8.16625 4.6665H6.99963C6.35528 4.6665 5.83301 5.18877 5.83301 5.83312C5.83301 6.47749 6.35528 6.99988 6.99963 6.99988H8.16625C8.8106 6.99988 9.33287 6.47761 9.33287 5.83326C9.33287 5.18891 8.8106 4.6665 8.16625 4.6665Z" fill="#CB1F49"/>
<path d="M14.0002 4.6665H12.8336C12.1892 4.6665 11.667 5.18877 11.667 5.83312C11.667 6.47749 12.1894 6.99974 12.8336 6.99974H14.0002C14.6447 6.99974 15.1669 6.47749 15.1669 5.83312C15.1669 5.18877 14.6447 4.6665 14.0002 4.6665Z" fill="#CB1F49"/>
<path d="M19.8332 4.6665H18.6666C18.0223 4.6665 17.5 5.18877 17.5 5.83312C17.5 6.47749 18.0223 6.99974 18.6666 6.99974H19.8332C20.4777 6.99974 20.9999 6.47749 20.9999 5.83312C20.9999 5.18877 20.4775 4.6665 19.8332 4.6665Z" fill="#CB1F49"/>
<path d="M55.9996 4.6665H24.4996C23.8553 4.6665 23.333 5.18877 23.333 5.83312C23.333 6.47749 23.8553 6.99974 24.4996 6.99974H55.9996C56.644 6.99974 57.1662 6.47749 57.1662 5.83312C57.1662 5.18877 56.644 4.6665 55.9996 4.6665Z" fill="#CB1F49"/>
<path d="M67.6666 42H66.5V36.1666C66.499 32.9 65.2466 29.7578 63 27.3862V5.83338C62.9962 2.61324 60.3868 0.00382813 57.1666 0H5.83338C2.61324 0.00382813 0.00382813 2.61324 0 5.83338V52.5C0.00382813 55.72 2.61324 58.3295 5.83338 58.3334H37.3334V61.8334C37.3386 66.3415 40.9919 69.995 45.5 70H61.8334C66.3415 69.9948 69.995 66.3415 70 61.8334V44.3334C70 43.0447 68.9553 42 67.6666 42ZM64.1666 36.1666V42H43.1666V36.1666C43.1666 30.3677 47.8677 25.6666 53.6666 25.6666C59.4656 25.6666 64.1666 30.3677 64.1666 36.1666ZM2.33338 5.83338C2.33338 3.90046 3.90046 2.33338 5.83338 2.33338H57.1668C59.0997 2.33338 60.6668 3.90046 60.6668 5.83338V9.33338H2.33338V5.83338ZM37.3334 44.3334V56H5.83338C3.90046 56 2.33338 54.433 2.33338 52.5V11.6666H60.6668V25.424C56.7253 22.8458 51.6873 22.6367 47.546 24.88C43.4046 27.123 40.8272 31.4567 40.8334 36.1666V42H39.6668C38.3781 42 37.3334 43.0447 37.3334 44.3334ZM67.6666 46.6666H64.1666C63.5222 46.6666 63 47.1888 63 47.8332C63 48.4777 63.5222 48.9999 64.1666 48.9999H67.6666V51.3332H64.1666C63.5222 51.3332 63 51.8554 63 52.4999C63 53.1443 63.5222 53.6665 64.1666 53.6665H67.6666V56H64.1666C63.5222 56 63 56.5222 63 57.1666C63 57.811 63.5222 58.3332 64.1666 58.3332H67.6666V60.6666H64.1666C63.5222 60.6666 63 61.189 63 61.8332C63 62.4777 63.5222 62.9999 64.1666 62.9999H67.55C66.9918 65.714 64.6043 67.6631 61.8334 67.6665H45.5C42.7291 67.663 40.3414 65.714 39.7834 62.9999H43.1668C43.8112 62.9999 44.3334 62.4775 44.3334 61.8332C44.3334 61.1888 43.8112 60.6666 43.1668 60.6666H39.6668V58.3332H43.1668C43.8112 58.3332 44.3334 57.811 44.3334 57.1666C44.3334 56.5222 43.8112 56 43.1668 56H39.6668V53.6666H43.1668C43.8112 53.6666 44.3334 53.1444 44.3334 52.5C44.3334 51.8556 43.8112 51.3334 43.1668 51.3334H39.6668V49H43.1668C43.8112 49 44.3334 48.4778 44.3334 47.8334C44.3334 47.189 43.8112 46.6668 43.1668 46.6668H39.6668V44.3334H67.6668L67.6666 46.6666Z" fill="#CB1F49"/>
<path d="M52.5001 56.9517V59.4999C52.5001 60.1442 53.0225 60.6665 53.6667 60.6665C54.3111 60.6665 54.8333 60.1442 54.8333 59.4999V56.9517C56.4394 56.3861 57.4031 54.7447 57.1146 53.0665C56.8262 51.3884 55.3694 50.1632 53.6667 50.1665C51.964 50.1632 50.5073 51.3886 50.2188 53.0665C49.9304 54.7447 50.8941 56.3861 52.5001 56.9517ZM53.6667 52.4999C54.3111 52.4999 54.8333 53.0222 54.8333 53.6665C54.8333 54.3108 54.311 54.8331 53.6667 54.8331C53.0224 54.8331 52.5001 54.3107 52.5001 53.6665C52.5001 53.0222 53.0225 52.4999 53.6667 52.4999Z" fill="#CB1F49"/>
<path d="M19.8334 23.3335C19.189 23.3335 18.6668 23.8558 18.6668 24.5001V28.0001H9.33338V18.6667H14C14.6444 18.6667 15.1666 18.1445 15.1666 17.5001C15.1666 16.8558 14.6444 16.3335 14 16.3335H9.33338C8.04467 16.3335 7 17.3782 7 18.6669V28.0001C7 29.289 8.04467 30.3335 9.33338 30.3335H18.6668C19.9555 30.3335 21.0001 29.289 21.0001 28.0001V24.5001C21 23.8558 20.4777 23.3335 19.8334 23.3335Z" fill="#913276"/>
<path d="M12.4918 21.342C12.0341 20.8997 11.3063 20.906 10.8564 21.3561C10.4063 21.8062 10.4 22.5338 10.8422 22.9916L13.1755 25.325C13.3943 25.5436 13.691 25.6667 14.0004 25.6667H14.0529C14.3801 25.6521 14.6863 25.5007 14.8964 25.2491L20.7298 18.2491C20.9969 17.929 21.0731 17.4907 20.9294 17.0991C20.7857 16.7077 20.4442 16.4226 20.0333 16.3512C19.6226 16.2798 19.2048 16.4331 18.9377 16.7533L13.9211 22.7733L12.4918 21.342Z" fill="#913276"/>
<path d="M19.8334 43.1664C19.189 43.1664 18.6668 43.6886 18.6668 44.333V47.833H9.33338V38.4997H14C14.6444 38.4997 15.1666 37.9773 15.1666 37.3331C15.1666 36.6887 14.6444 36.1665 14 36.1665H9.33338C8.04467 36.1665 7 37.211 7 38.4999V47.8333C7 49.122 8.04467 50.1665 9.33338 50.1665H18.6668C19.9555 50.1665 21.0001 49.122 21.0001 47.8333V44.3333C21 43.6887 20.4777 43.1664 19.8334 43.1664Z" fill="#913276"/>
<path d="M12.4918 41.1752C12.0341 40.7331 11.3063 40.7394 10.8564 41.1895C10.4063 41.6394 10.4 42.3671 10.8422 42.8248L13.1755 45.1582C13.3943 45.377 13.691 45.5001 14.0004 45.5001H14.0529C14.3801 45.4854 14.6863 45.3339 14.8964 45.0823L20.7298 38.0823C20.9969 37.7623 21.0731 37.3239 20.9294 36.9325C20.7857 36.541 20.4442 36.256 20.0333 36.1847C19.6226 36.1133 19.2048 36.2666 18.9377 36.5868L13.9211 42.6068L12.4918 41.1752Z" fill="#913276"/>
<path d="M25.6666 19.8334H35C35.6444 19.8334 36.1666 19.3112 36.1666 18.6668C36.1666 18.0223 35.6444 17.5 35 17.5H25.6666C25.0222 17.5 24.5 18.0222 24.5 18.6666C24.5 19.311 25.0223 19.8334 25.6666 19.8334Z" fill="#CB1F49"/>
<path d="M42 24.5001C42 23.8558 41.4778 23.3335 40.8334 23.3335H25.6666C25.0222 23.3335 24.5 23.8558 24.5 24.5001C24.5 25.1445 25.0222 25.6667 25.6666 25.6667H40.8332C41.4778 25.6667 42 25.1445 42 24.5001Z" fill="#CB1F49"/>
<path d="M35 37.3335H25.6666C25.0222 37.3335 24.5 37.856 24.5 38.5003C24.5 39.1444 25.0222 39.6669 25.6666 39.6669H35C35.6444 39.6669 36.1666 39.1445 36.1666 38.5003C36.1666 37.8558 35.6444 37.3335 35 37.3335Z" fill="#CB1F49"/>
<path d="M33.8332 43.1665H25.6666C25.0222 43.1665 24.5 43.6887 24.5 44.3331C24.5 44.9774 25.0222 45.4997 25.6666 45.4997H33.8332C34.4777 45.4997 34.9999 44.9774 34.9999 44.3331C34.9999 43.6887 34.4777 43.1665 33.8332 43.1665Z" fill="#CB1F49"/>
</g>
<defs>
<clipPath id="clip0_72_4387">
<rect width="70" height="70" fill="white"/>
</clipPath>
</defs>
</svg>
