<svg width="70" height="70" viewBox="0 0 70 70" fill="none" xmlns="http://www.w3.org/2000/svg">
<g clip-path="url(#clip0_72_4370)">
<path d="M63.6241 0H6.38707C2.86857 0 0 2.75824 0 6.14141V13.5003V62.8148C0 66.1979 2.86857 68.9562 6.38707 68.9562H63.6129C67.1314 68.9562 70 66.1979 70 62.8148V13.4895V6.14141C70.0112 2.75824 67.1426 0 63.6241 0ZM1.91612 6.14141C1.91612 3.77103 3.92188 1.83164 6.39827 1.83164H63.6241C66.0892 1.83164 68.1062 3.76027 68.1062 6.14141V12.5737H1.91612V6.14141ZM68.095 62.8148C68.095 65.1851 66.0892 67.1245 63.6129 67.1245H6.38707C3.92188 67.1245 1.90491 65.1958 1.90491 62.8148V14.4161H68.0838V62.8148H68.095Z" fill="#CB1F49"/>
<path d="M8.57207 4.19141C6.84644 4.19141 5.43457 5.54898 5.43457 7.20823C5.43457 8.86749 6.84644 10.2251 8.57207 10.2251C10.2977 10.2251 11.7096 8.86749 11.7096 7.20823C11.7096 5.53821 10.2977 4.19141 8.57207 4.19141ZM8.57207 8.38264C7.89975 8.38264 7.33948 7.85469 7.33948 7.19746C7.33948 6.551 7.88855 6.01227 8.57207 6.01227C9.24439 6.01227 9.80466 6.54022 9.80466 7.19746C9.80466 7.85469 9.24439 8.38264 8.57207 8.38264Z" fill="#CB1F49"/>
<path d="M17.1218 4.19141C15.3963 4.19141 13.9844 5.54898 13.9844 7.20823C13.9844 8.86749 15.3963 10.2251 17.1218 10.2251C18.8475 10.2251 20.2594 8.86749 20.2594 7.20823C20.2482 5.53821 18.8475 4.19141 17.1218 4.19141ZM17.1218 8.38264C16.4495 8.38264 15.8893 7.85469 15.8893 7.19746C15.8893 6.551 16.4383 6.01227 17.1218 6.01227C17.7942 6.01227 18.3545 6.54022 18.3545 7.19746C18.3433 7.85469 17.7942 8.38264 17.1218 8.38264Z" fill="#CB1F49"/>
<path d="M25.66 4.19141C23.9344 4.19141 22.5225 5.54898 22.5225 7.20823C22.5225 8.86749 23.9344 10.2251 25.66 10.2251C27.3856 10.2251 28.7975 8.86749 28.7975 7.20823C28.7975 5.53821 27.3968 4.19141 25.66 4.19141ZM25.66 8.38264C24.9877 8.38264 24.4274 7.85469 24.4274 7.19746C24.4274 6.551 24.9765 6.01227 25.66 6.01227C26.3324 6.01227 26.8926 6.54022 26.8926 7.19746C26.8926 7.85469 26.3436 8.38264 25.66 8.38264Z" fill="#CB1F49"/>
<path d="M7.21633 55.3914H21.1558C21.6825 55.3914 22.1083 54.9821 22.1083 54.4756V46.718C22.1083 46.2117 21.6825 45.8022 21.1558 45.8022H7.21633C6.68968 45.8022 6.26388 46.2117 6.26388 46.718V54.4756C6.25267 54.9821 6.68968 55.3914 7.21633 55.3914ZM8.16879 47.634H20.1922V53.5599H8.16879V47.634Z" fill="#CB1F49"/>
<path d="M7.21613 59.7334H21.1556C21.6823 59.7334 22.108 59.3241 22.108 58.8176C22.108 58.3112 21.6823 57.9019 21.1556 57.9019H7.21613C6.68948 57.9019 6.26367 58.3112 6.26367 58.8176C6.26367 59.3241 6.68948 59.7334 7.21613 59.7334Z" fill="#CB1F49"/>
<path d="M41.8514 45.8022H27.9233C27.3966 45.8022 26.9707 46.2117 26.9707 46.718V54.4756C26.9707 54.9821 27.3966 55.3914 27.9233 55.3914H41.8626C42.3893 55.3914 42.8152 54.9821 42.8152 54.4756V46.718C42.8152 46.2117 42.3893 45.8022 41.8514 45.8022ZM40.899 53.5599H28.8757V47.634H40.899V53.5599Z" fill="#CB1F49"/>
<path d="M41.8514 57.8906H27.9233C27.3966 57.8906 26.9707 58.3001 26.9707 58.8065C26.9707 59.3128 27.3966 59.7223 27.9233 59.7223H41.8626C42.3893 59.7223 42.8152 59.3128 42.8152 58.8065C42.8152 58.3001 42.3893 57.8906 41.8514 57.8906Z" fill="#CB1F49"/>
<path d="M62.5707 45.8022H48.6311C48.1044 45.8022 47.6787 46.2117 47.6787 46.718V54.4756C47.6787 54.9821 48.1044 55.3914 48.6311 55.3914H62.5707C63.0973 55.3914 63.5231 54.9821 63.5231 54.4756V46.718C63.5231 46.2117 63.0973 45.8022 62.5707 45.8022ZM61.6182 53.5599H49.5836V47.634H61.607V53.5599H61.6182Z" fill="#CB1F49"/>
<path d="M62.5707 57.8906H48.6311C48.1044 57.8906 47.6787 58.3001 47.6787 58.8065C47.6787 59.3128 48.1044 59.7223 48.6311 59.7223H62.5707C63.0973 59.7223 63.5231 59.3128 63.5231 58.8065C63.5231 58.3001 63.0973 57.8906 62.5707 57.8906Z" fill="#CB1F49"/>
<path d="M7.21633 63.9352H16.7857C17.3124 63.9352 17.7382 63.5257 17.7382 63.0194C17.7382 62.513 17.3124 62.1035 16.7857 62.1035H7.21633C6.68968 62.1035 6.26388 62.513 6.26388 63.0194C6.25267 63.515 6.68968 63.9352 7.21633 63.9352Z" fill="#CB1F49"/>
<path d="M37.4925 62.0928H27.9233C27.3966 62.0928 26.9707 62.5021 26.9707 63.0086C26.9707 63.515 27.3966 63.9243 27.9233 63.9243H37.4925C38.0192 63.9243 38.4451 63.515 38.4451 63.0086C38.4451 62.5021 38.0192 62.0928 37.4925 62.0928Z" fill="#CB1F49"/>
<path d="M58.2005 62.0928H48.6311C48.1044 62.0928 47.6787 62.5021 47.6787 63.0086C47.6787 63.515 48.1044 63.9243 48.6311 63.9243H58.2005C58.7272 63.9243 59.153 63.515 59.153 63.0086C59.153 62.5021 58.7272 62.0928 58.2005 62.0928Z" fill="#CB1F49"/>
<path d="M15.6313 33.0018L15.127 35.8139C15.0598 36.1588 15.2166 36.5036 15.5079 36.7083C15.6761 36.8268 15.8666 36.8806 16.0682 36.8806C16.2252 36.8806 16.3708 36.8483 16.5165 36.7729L19.1386 35.4476L21.7606 36.7729C22.0856 36.9345 22.4665 36.9129 22.769 36.6974C23.0604 36.4928 23.2061 36.148 23.1501 35.8032L22.6458 32.9911L24.7748 30.9978C25.0326 30.75 25.1334 30.3945 25.0214 30.0605C24.9094 29.7265 24.6068 29.4894 24.2481 29.4356L21.3123 29.0261L20.0014 26.4726C19.6764 25.8477 18.6119 25.8477 18.2869 26.4726L16.9758 29.0261L14.04 29.4356C13.6815 29.4894 13.379 29.7265 13.2669 30.0605C13.1549 30.3945 13.2445 30.7607 13.5134 30.9978L15.6313 33.0018ZM17.7491 30.7823C18.0628 30.7392 18.3317 30.5561 18.4663 30.276L19.1498 28.9507L19.8332 30.276C19.9678 30.5454 20.2367 30.7392 20.5505 30.7823L22.0744 30.9978L20.9762 32.0322C20.7521 32.2477 20.6513 32.5494 20.7073 32.8403L20.965 34.2948L19.6091 33.6052C19.4747 33.5298 19.3178 33.4975 19.161 33.4975C19.004 33.4975 18.8584 33.5298 18.7127 33.6052L17.3569 34.2948L17.6147 32.8403C17.6707 32.5386 17.5697 32.2369 17.3457 32.0322L16.2476 30.9978L17.7491 30.7823Z" fill="#913276"/>
<path d="M9.46841 43.3023H60.6882C62.3801 43.3023 63.7472 41.9879 63.7472 40.361V24.0916C63.7472 22.4647 62.3801 21.1502 60.6882 21.1502H57.6963V18.5213C57.6963 18.0148 57.2705 17.6055 56.7439 17.6055H40.765C40.2384 17.6055 39.8125 18.0148 39.8125 18.5213V21.1502H9.31153C7.63073 21.1502 6.26367 22.4647 6.26367 24.0916V40.2101C6.26367 41.9124 7.69796 43.3023 9.46841 43.3023ZM41.7175 19.437H55.7914V36.3528L49.326 31.6984C48.9898 31.4505 48.5191 31.4505 48.183 31.6984L41.7175 36.3528V19.437ZM8.16858 24.0916C8.16858 23.4775 8.68403 22.9819 9.31153 22.9819H39.8125V38.1845C39.8125 38.5293 40.0143 38.8525 40.3392 39.0034C40.6642 39.1542 41.0451 39.1219 41.3364 38.9172L48.7657 33.5731L56.1836 38.9172C56.3517 39.0357 56.5533 39.1003 56.7551 39.1003C56.9008 39.1003 57.0464 39.068 57.1809 39.0034C57.5059 38.8525 57.7075 38.5293 57.7075 38.1845V22.9819H60.6994C61.3381 22.9819 61.8536 23.4775 61.8536 24.0916V40.3718C61.8536 40.9859 61.3381 41.4815 60.6994 41.4815H9.46841C8.75126 41.4815 8.16858 40.9105 8.16858 40.2209V24.0916Z" fill="#913276"/>
</g>
<defs>
<clipPath id="clip0_72_4370">
<rect width="70" height="70" fill="white"/>
</clipPath>
</defs>
</svg>
