<svg width="60" height="60" viewBox="0 0 60 60" fill="none" xmlns="http://www.w3.org/2000/svg">
<path d="M52.9898 28.1826H30.8711C29.7631 28.1826 28.8618 29.0839 28.8618 30.1919V32.9916C28.8618 34.0995 29.7631 35.0008 30.8711 35.0008H52.9898C54.0977 35.0008 54.999 34.0995 54.999 32.9916V30.1919C54.999 29.0839 54.0978 28.1826 52.9898 28.1826ZM44.2031 32.1606H32.8401C32.5269 32.1606 32.2712 31.9071 32.2712 31.5917C32.2712 31.2785 32.5248 31.0228 32.8401 31.0228H44.2031C44.9467 31.0335 44.9531 32.1457 44.2031 32.1584V32.1606ZM47.6121 32.444C46.4914 32.4248 46.4914 30.7587 47.6121 30.7395C48.7329 30.7586 48.7329 32.4248 47.6121 32.444ZM51.0212 32.444C49.9005 32.4248 49.9005 30.7587 51.0212 30.7395C52.142 30.7586 52.142 32.4248 51.0212 32.444Z" fill="#CB1F49"/>
<path d="M52.9898 20.2266H30.8711C29.7631 20.2266 28.8618 21.1278 28.8618 22.2358V25.0355C28.8618 26.1434 29.7631 27.0447 30.8711 27.0447H52.9898C54.0977 27.0447 54.999 26.1435 54.999 25.0355V22.2358C54.999 21.1279 54.0978 20.2266 52.9898 20.2266ZM44.2031 24.2046H32.8401C32.5269 24.2046 32.2712 23.951 32.2712 23.6357C32.2712 23.3224 32.5248 23.0667 32.8401 23.0667H44.2031C44.9467 23.0774 44.9531 24.1896 44.2031 24.2024V24.2046ZM47.6121 24.4879C46.4914 24.4688 46.4914 22.8026 47.6121 22.7834C48.7329 22.8026 48.7329 24.4687 47.6121 24.4879ZM51.0212 24.4879C49.9005 24.4688 49.9005 22.8026 51.0212 22.7834C52.142 22.8026 52.142 24.4687 51.0212 24.4879Z" fill="#CB1F49"/>
<path d="M52.9898 36.1365H30.8711C29.7631 36.1365 28.8618 37.0377 28.8618 38.1457V40.9454C28.8618 42.0533 29.7631 42.9547 30.8711 42.9547H52.9898C54.0977 42.9547 54.999 42.0534 54.999 40.9454V38.1457C54.999 37.0378 54.0978 36.1365 52.9898 36.1365ZM44.2031 40.1145H32.8401C32.5269 40.1145 32.2712 39.8609 32.2712 39.5456C32.2712 39.2324 32.5248 38.9767 32.8401 38.9767H44.2031C44.9467 38.9873 44.9531 40.0995 44.2031 40.1123V40.1145ZM47.6121 40.3979C46.4914 40.3787 46.4914 38.7125 47.6121 38.6933C48.7329 38.7125 48.7329 40.3787 47.6121 40.3979ZM51.0212 40.3979C49.9005 40.3787 49.9005 38.7125 51.0212 38.6933C52.142 38.7125 52.142 40.3787 51.0212 40.3979Z" fill="#CB1F49"/>
<path d="M27.7265 46.9325H7.84089C6.90123 46.9325 6.13634 46.1676 6.13634 45.2279V23.0688H27.7265V22.2379C27.7265 20.5035 29.137 19.093 30.8714 19.093H50.4521V17.3885C50.4521 15.8224 49.178 14.5483 47.6119 14.5483L7.84067 14.5461C6.27462 14.5461 5.00049 15.8203 5.00049 17.3863V45.228C5.00049 46.794 6.27462 48.0681 7.84067 48.0681H27.7263L27.7265 46.9325ZM16.3636 18.2388C17.4844 18.258 17.4844 19.9242 16.3636 19.9434C15.2429 19.9242 15.2429 18.258 16.3636 18.2388ZM12.9545 18.2388C14.0753 18.258 14.0753 19.9242 12.9545 19.9434C11.8338 19.9242 11.8338 18.258 12.9545 18.2388ZM9.54543 18.2388C10.6662 18.258 10.6662 19.9242 9.54543 19.9434C8.42469 19.9242 8.42469 18.258 9.54543 18.2388Z" fill="#CB1F49"/>
<path d="M29.0756 43.5235C28.2617 42.9546 27.7269 42.0129 27.7269 40.9454V38.1457C27.7269 37.0803 28.2617 36.1386 29.0756 35.5675C28.2617 34.9986 27.7269 34.0569 27.7269 32.9894V30.1897C27.7269 29.1243 28.2617 28.1826 29.0756 27.6115C28.494 27.2046 28.0593 26.6037 27.8569 25.907H9.54596C9.23275 25.907 8.97705 26.1605 8.97705 26.4759V44.0903C8.97705 44.4035 9.2306 44.6592 9.54596 44.6592H28.0805C28.317 44.2053 28.658 43.8133 29.0756 43.5235Z" fill="#CB1F49"/>
<path d="M52.9898 44.0901H30.8711C29.7631 44.0901 28.8618 44.9913 28.8618 46.0993V48.899C28.8618 50.007 29.7631 50.9083 30.8711 50.9083H52.9898C54.0977 50.9083 54.999 50.007 54.999 48.899V46.0993C54.999 44.9914 54.0978 44.0901 52.9898 44.0901ZM44.2031 48.0681H32.8401C32.5269 48.0681 32.2712 47.8145 32.2712 47.4992C32.2712 47.186 32.5248 46.9303 32.8401 46.9303H44.2031C44.9467 46.9409 44.9531 48.0531 44.2031 48.0659V48.0681ZM47.6121 48.3515C46.4914 48.3323 46.4914 46.6661 47.6121 46.6469C48.7329 46.6661 48.7329 48.3323 47.6121 48.3515ZM51.0212 48.3515C49.9005 48.3323 49.9005 46.6661 51.0212 46.6469C52.142 46.6661 52.142 48.3323 51.0212 48.3515Z" fill="#CB1F49"/>
</svg>
