<svg width="36" height="36" viewBox="0 0 36 36" fill="none" xmlns="http://www.w3.org/2000/svg">
<rect x="0.5" y="0.5" width="35" height="35" stroke="white" stroke-opacity="0.4"/>
<path d="M26.1562 13.9062C26.5312 15.2188 26.5312 18.0312 26.5312 18.0312C26.5312 18.0312 26.5312 20.8125 26.1562 22.1562C25.9688 22.9062 25.375 23.4688 24.6562 23.6562C23.3125 24 18 24 18 24C18 24 12.6562 24 11.3125 23.6562C10.5938 23.4688 10 22.9062 9.8125 22.1562C9.4375 20.8125 9.4375 18.0312 9.4375 18.0312C9.4375 18.0312 9.4375 15.2188 9.8125 13.9062C10 13.1562 10.5938 12.5625 11.3125 12.375C12.6562 12 18 12 18 12C18 12 23.3125 12 24.6562 12.375C25.375 12.5625 25.9688 13.1562 26.1562 13.9062ZM16.25 20.5625L20.6875 18.0312L16.25 15.5V20.5625Z" fill="white" fill-opacity="0.8"/>
</svg>
